solid Corner
facet normal 0.0 0.0 -1.0
  outer loop
    vertex -80.0511000934126 2104.211599152721 0.0
    vertex -82.05110009341259 2076.211599152721 0.0
    vertex -82.05110009341259 2104.211599152721 0.0
  endloop
endfacet
facet normal 0.0 0.0 -1.0
  outer loop
    vertex -82.05110009341259 2076.211599152721 0.0
    vertex -80.0511000934126 2104.211599152721 0.0
    vertex -81.0511000934126 2076.211599152721 0.0
  endloop
endfacet
facet normal 0.0 0.0 -1.0
  outer loop
    vertex -81.0511000934126 2076.211599152721 0.0
    vertex -80.0511000934126 2104.211599152721 0.0
    vertex -81.0511000934126 2074.211599152721 0.0
  endloop
endfacet
facet normal 0.0 0.0 -1.0
  outer loop
    vertex -81.0511000934126 2074.211599152721 0.0
    vertex -80.0511000934126 2104.211599152721 0.0
    vertex -81.0511000934126 2071.211599152721 0.0
  endloop
endfacet
facet normal 0.0 0.0 -1.0
  outer loop
    vertex -81.0511000934126 2071.211599152721 0.0
    vertex -80.0511000934126 2104.211599152721 0.0
    vertex -80.0511000934126 2071.211599152721 0.0
  endloop
endfacet
facet normal 2.5905394504319902e-17 -0.9284766908852584 0.371390676354106
  outer loop
    vertex -62.051100093412586 2124.211599152721 50.0
    vertex -110.05110009341259 2104.211599152721 0.0
    vertex -82.05110009341259 2104.211599152721 0.0
  endloop
endfacet
facet normal 2.5905394504319902e-17 -0.9284766908852584 0.371390676354106
  outer loop
    vertex -110.05110009341259 2104.211599152721 0.0
    vertex -62.051100093412586 2124.211599152721 50.0
    vertex -110.05110009341259 2124.211599152721 50.0
  endloop
endfacet
facet normal -1.0 0.0 0.0
  outer loop
    vertex -115.05110009341257 2125.211599152721 50.0
    vertex -115.05110009341257 2106.211599152721 0.0
    vertex -115.05110009341257 2105.211599152721 0.0
  endloop
endfacet
facet normal -1.0 0.0 0.0
  outer loop
    vertex -115.05110009341257 2106.211599152721 0.0
    vertex -115.05110009341257 2125.211599152721 50.0
    vertex -115.05110009341257 2126.211599152721 50.0
  endloop
endfacet
facet normal -0.0 -0.0 1.0
  outer loop
    vertex -62.051100093412586 2124.211599152721 50.0
    vertex -110.05110009341259 2125.211599152721 50.0
    vertex -110.05110009341259 2124.211599152721 50.0
  endloop
endfacet
facet normal -0.0 -0.0 1.0
  outer loop
    vertex -61.051100093412586 2076.211599152721 50.0
    vertex -62.051100093412586 2124.211599152721 50.0
    vertex -62.051100093412586 2076.211599152721 50.0
  endloop
endfacet
facet normal -0.0 -0.0 1.0
  outer loop
    vertex -60.051100093412586 2071.211599152721 50.0
    vertex -61.051100093412586 2076.211599152721 50.0
    vertex -61.051100093412586 2071.211599152721 50.0
  endloop
endfacet
facet normal -0.0 -0.0 1.0
  outer loop
    vertex -110.05110009341259 2125.211599152721 50.0
    vertex -115.05110009341257 2126.211599152721 50.0
    vertex -115.05110009341257 2125.211599152721 50.0
  endloop
endfacet
facet normal -0.0 -0.0 1.0
  outer loop
    vertex -115.05110009341257 2126.211599152721 50.0
    vertex -110.05110009341259 2125.211599152721 50.0
    vertex -60.051100093412586 2126.211599152721 50.0
  endloop
endfacet
facet normal -0.0 -0.0 1.0
  outer loop
    vertex -60.051100093412586 2126.211599152721 50.0
    vertex -110.05110009341259 2125.211599152721 50.0
    vertex -62.051100093412586 2124.211599152721 50.0
  endloop
endfacet
facet normal -0.0 -0.0 1.0
  outer loop
    vertex -60.051100093412586 2126.211599152721 50.0
    vertex -62.051100093412586 2124.211599152721 50.0
    vertex -61.051100093412586 2076.211599152721 50.0
  endloop
endfacet
facet normal -0.0 -0.0 1.0
  outer loop
    vertex -60.051100093412586 2126.211599152721 50.0
    vertex -61.051100093412586 2076.211599152721 50.0
    vertex -60.051100093412586 2071.211599152721 50.0
  endloop
endfacet
facet normal -0.0 0.9284766908852607 -0.3713906763541002
  outer loop
    vertex -115.05110009341257 2125.211599152721 50.0
    vertex -110.05110009341259 2105.211599152721 0.0
    vertex -115.05110009341257 2105.211599152721 0.0
  endloop
endfacet
facet normal -0.0 0.9284766908852607 -0.3713906763541002
  outer loop
    vertex -110.05110009341259 2105.211599152721 0.0
    vertex -115.05110009341257 2125.211599152721 50.0
    vertex -110.05110009341259 2125.211599152721 50.0
  endloop
endfacet
facet normal 0.9284766908852594 2.1510265531975176e-17 -0.3713906763541039
  outer loop
    vertex -80.0511000934126 2104.211599152721 0.0
    vertex -60.051100093412586 2071.211599152721 50.0
    vertex -80.0511000934126 2071.211599152721 0.0
  endloop
endfacet
facet normal 0.9284766908852594 2.1510265531975176e-17 -0.3713906763541039
  outer loop
    vertex -60.051100093412586 2071.211599152721 50.0
    vertex -80.0511000934126 2104.211599152721 0.0
    vertex -60.051100093412586 2126.211599152721 50.0
  endloop
endfacet
facet normal 0.9284766908852594 2.1510265531975176e-17 -0.3713906763541039
  outer loop
    vertex -60.051100093412586 2126.211599152721 50.0
    vertex -80.0511000934126 2104.211599152721 0.0
    vertex -80.0511000934126 2106.211599152721 0.0
  endloop
endfacet
facet normal -0.9284766908852594 0.0 0.3713906763541039
  outer loop
    vertex -61.051100093412586 2076.211599152721 50.0
    vertex -81.0511000934126 2071.211599152721 0.0
    vertex -61.051100093412586 2071.211599152721 50.0
  endloop
endfacet
facet normal -0.9284766908852594 0.0 0.3713906763541039
  outer loop
    vertex -81.0511000934126 2071.211599152721 0.0
    vertex -61.051100093412586 2076.211599152721 50.0
    vertex -81.0511000934126 2074.211599152721 0.0
  endloop
endfacet
facet normal -0.9284766908852594 0.0 0.3713906763541039
  outer loop
    vertex -81.0511000934126 2074.211599152721 0.0
    vertex -61.051100093412586 2076.211599152721 50.0
    vertex -81.0511000934126 2076.211599152721 0.0
  endloop
endfacet
facet normal 0.0 0.0 -1.0
  outer loop
    vertex -80.0511000934126 2106.211599152721 0.0
    vertex -82.05110009341259 2104.211599152721 0.0
    vertex -82.05110009341259 2106.211599152721 0.0
  endloop
endfacet
facet normal 0.0 0.0 -1.0
  outer loop
    vertex -82.05110009341259 2104.211599152721 0.0
    vertex -80.0511000934126 2106.211599152721 0.0
    vertex -80.0511000934126 2104.211599152721 0.0
  endloop
endfacet
facet normal -0.9284766908852594 2.5905394504319683e-17 0.3713906763541039
  outer loop
    vertex -62.051100093412586 2124.211599152721 50.0
    vertex -82.05110009341259 2076.211599152721 0.0
    vertex -62.051100093412586 2076.211599152721 50.0
  endloop
endfacet
facet normal -0.9284766908852594 2.5905394504319683e-17 0.3713906763541039
  outer loop
    vertex -82.05110009341259 2076.211599152721 0.0
    vertex -62.051100093412586 2124.211599152721 50.0
    vertex -82.05110009341259 2104.211599152721 0.0
  endloop
endfacet
facet normal 1.0 0.0 0.0
  outer loop
    vertex -110.05110009341259 2105.211599152721 0.0
    vertex -110.05110009341259 2124.211599152721 50.0
    vertex -110.05110009341259 2104.211599152721 0.0
  endloop
endfacet
facet normal 1.0 0.0 0.0
  outer loop
    vertex -110.05110009341259 2124.211599152721 50.0
    vertex -110.05110009341259 2105.211599152721 0.0
    vertex -110.05110009341259 2125.211599152721 50.0
  endloop
endfacet
facet normal -2.86803540426336e-17 0.9284766908852584 -0.37139067635410605
  outer loop
    vertex -115.05110009341257 2126.211599152721 50.0
    vertex -82.05110009341259 2106.211599152721 0.0
    vertex -115.05110009341257 2106.211599152721 0.0
  endloop
endfacet
facet normal -2.86803540426336e-17 0.9284766908852584 -0.37139067635410605
  outer loop
    vertex -82.05110009341259 2106.211599152721 0.0
    vertex -115.05110009341257 2126.211599152721 50.0
    vertex -80.0511000934126 2106.211599152721 0.0
  endloop
endfacet
facet normal -2.86803540426336e-17 0.9284766908852584 -0.37139067635410605
  outer loop
    vertex -80.0511000934126 2106.211599152721 0.0
    vertex -115.05110009341257 2126.211599152721 50.0
    vertex -60.051100093412586 2126.211599152721 50.0
  endloop
endfacet
facet normal 0.0 0.0 -1.0
  outer loop
    vertex -82.05110009341259 2106.211599152721 0.0
    vertex -115.05110009341257 2105.211599152721 0.0
    vertex -115.05110009341257 2106.211599152721 0.0
  endloop
endfacet
facet normal 0.0 0.0 -1.0
  outer loop
    vertex -115.05110009341257 2105.211599152721 0.0
    vertex -82.05110009341259 2106.211599152721 0.0
    vertex -110.05110009341259 2105.211599152721 0.0
  endloop
endfacet
facet normal 0.0 0.0 -1.0
  outer loop
    vertex -110.05110009341259 2105.211599152721 0.0
    vertex -82.05110009341259 2106.211599152721 0.0
    vertex -110.05110009341259 2104.211599152721 0.0
  endloop
endfacet
facet normal 0.0 0.0 -1.0
  outer loop
    vertex -110.05110009341259 2104.211599152721 0.0
    vertex -82.05110009341259 2106.211599152721 0.0
    vertex -82.05110009341259 2104.211599152721 0.0
  endloop
endfacet
facet normal 0.0 0.0 -1.0
  outer loop
    vertex -81.0511000934126 2076.211599152721 0.0
    vertex -82.05110009341259 2074.211599152721 0.0
    vertex -82.05110009341259 2076.211599152721 0.0
  endloop
endfacet
facet normal 0.0 0.0 -1.0
  outer loop
    vertex -82.05110009341259 2074.211599152721 0.0
    vertex -81.0511000934126 2076.211599152721 0.0
    vertex -81.0511000934126 2074.211599152721 0.0
  endloop
endfacet
facet normal 0.0 1.0 0.0
  outer loop
    vertex -62.051100093412586 2076.211599152721 50.0
    vertex -81.0511000934126 2076.211599152721 0.0
    vertex -82.05110009341259 2076.211599152721 0.0
  endloop
endfacet
facet normal 0.0 1.0 0.0
  outer loop
    vertex -81.0511000934126 2076.211599152721 0.0
    vertex -62.051100093412586 2076.211599152721 50.0
    vertex -61.051100093412586 2076.211599152721 50.0
  endloop
endfacet
facet normal 0.0 -1.0 0.0
  outer loop
    vertex -60.051100093412586 2071.211599152721 50.0
    vertex -81.0511000934126 2071.211599152721 0.0
    vertex -80.0511000934126 2071.211599152721 0.0
  endloop
endfacet
facet normal 0.0 -1.0 0.0
  outer loop
    vertex -81.0511000934126 2071.211599152721 0.0
    vertex -60.051100093412586 2071.211599152721 50.0
    vertex -61.051100093412586 2071.211599152721 50.0
  endloop
endfacet
endsolid Corner
