solid Corner
facet normal 0.0 0.0 -1.0
  outer loop
    vertex -64.16653945627483 1879.9125867930857 0.0
    vertex -65.16653945627483 1679.9125867930863 0.0
    vertex -65.16653945627483 1879.9125867930857 0.0
  endloop
endfacet
facet normal 0.0 0.0 -1.0
  outer loop
    vertex -65.16653945627483 1679.9125867930863 0.0
    vertex -64.16653945627483 1879.9125867930857 0.0
    vertex -64.16653945627483 1679.9125867930857 0.0
  endloop
endfacet
facet normal 0.0 0.0 -1.0
  outer loop
    vertex -64.16653945627483 1679.9125867930857 0.0
    vertex -64.16653945627483 1879.9125867930857 0.0
    vertex -64.16653945627483 1874.9125867930857 0.0
  endloop
endfacet
facet normal 0.0 0.0 -1.0
  outer loop
    vertex -64.16653945627483 1679.9125867930857 0.0
    vertex -64.16653945627483 1874.9125867930857 0.0
    vertex -64.16653945627483 1684.9125867930854 0.0
  endloop
endfacet
facet normal -5.414335646492301e-13 1.0 2.2740209715267643e-13
  outer loop
    vertex -64.16653945627483 1874.9125867930857 0.0
    vertex -43.16653945627482 1874.9125867930857 50.0
    vertex -63.16653945627483 1874.9125867930868 -5.639932965095795e-15
  endloop
endfacet
facet normal -5.414335646492301e-13 1.0 2.2740209715267643e-13
  outer loop
    vertex -43.16653945627482 1874.9125867930857 50.0
    vertex -64.16653945627483 1874.9125867930857 0.0
    vertex -44.16653945627482 1874.9125867930857 50.0
  endloop
endfacet
facet normal -0.9284766908852594 0.0 0.3713906763541039
  outer loop
    vertex -45.16653945627482 1879.9125867930857 50.0
    vertex -65.16653945627483 1679.9125867930863 0.0
    vertex -45.16653945627482 1679.9125867930863 50.0
  endloop
endfacet
facet normal -0.9284766908852594 0.0 0.3713906763541039
  outer loop
    vertex -65.16653945627483 1679.9125867930863 0.0
    vertex -45.16653945627482 1879.9125867930857 50.0
    vertex -65.16653945627483 1879.9125867930857 0.0
  endloop
endfacet
facet normal -0.9284766908852594 0.0 0.3713906763541039
  outer loop
    vertex -44.16653945627482 1879.9125867930857 50.0
    vertex -64.16653945627483 1874.9125867930857 0.0
    vertex -44.16653945627482 1874.9125867930857 50.0
  endloop
endfacet
facet normal -0.9284766908852594 0.0 0.3713906763541039
  outer loop
    vertex -64.16653945627483 1874.9125867930857 0.0
    vertex -44.16653945627482 1879.9125867930857 50.0
    vertex -64.16653945627483 1879.9125867930857 0.0
  endloop
endfacet
facet normal 7.219114195323056e-13 1.0 -2.887645678129224e-13
  outer loop
    vertex -45.16653945627482 1679.9125867930863 50.0
    vertex -64.16653945627483 1679.9125867930857 0.0
    vertex -65.16653945627483 1679.9125867930863 0.0
  endloop
endfacet
facet normal 7.219114195323056e-13 1.0 -2.887645678129224e-13
  outer loop
    vertex -64.16653945627483 1679.9125867930857 0.0
    vertex -45.16653945627482 1679.9125867930863 50.0
    vertex -44.16653945627482 1679.9125867930857 50.0
  endloop
endfacet
facet normal -5.414335646492301e-13 -1.0 2.057447545667074e-13
  outer loop
    vertex -43.16653945627482 1684.9125867930845 50.0
    vertex -64.16653945627483 1684.9125867930854 0.0
    vertex -63.16653945627483 1684.9125867930854 -1.409983241273931e-16
  endloop
endfacet
facet normal -5.414335646492301e-13 -1.0 2.057447545667074e-13
  outer loop
    vertex -64.16653945627483 1684.9125867930854 0.0
    vertex -43.16653945627482 1684.9125867930845 50.0
    vertex -44.16653945627482 1684.9125867930854 50.0
  endloop
endfacet
facet normal -0.9284766908852594 0.0 0.3713906763541039
  outer loop
    vertex -44.16653945627482 1684.9125867930854 50.0
    vertex -64.16653945627483 1679.9125867930857 0.0
    vertex -44.16653945627482 1679.9125867930857 50.0
  endloop
endfacet
facet normal -0.9284766908852594 0.0 0.3713906763541039
  outer loop
    vertex -64.16653945627483 1679.9125867930857 0.0
    vertex -44.16653945627482 1684.9125867930854 50.0
    vertex -64.16653945627483 1684.9125867930854 0.0
  endloop
endfacet
facet normal -0.0 -0.0 1.0
  outer loop
    vertex -43.16653945627482 1684.9125867930845 50.0
    vertex -44.16653945627482 1874.9125867930857 50.0
    vertex -44.16653945627482 1684.9125867930854 50.0
  endloop
endfacet
facet normal -0.0 -0.0 1.0
  outer loop
    vertex -44.16653945627482 1874.9125867930857 50.0
    vertex -43.16653945627482 1684.9125867930845 50.0
    vertex -43.16653945627482 1874.9125867930857 50.0
  endloop
endfacet
facet normal -0.0 -0.0 1.0
  outer loop
    vertex -44.16653945627482 1679.9125867930857 50.0
    vertex -45.16653945627482 1879.9125867930857 50.0
    vertex -45.16653945627482 1679.9125867930863 50.0
  endloop
endfacet
facet normal -0.0 -0.0 1.0
  outer loop
    vertex -45.16653945627482 1879.9125867930857 50.0
    vertex -44.16653945627482 1679.9125867930857 50.0
    vertex -44.16653945627482 1879.9125867930857 50.0
  endloop
endfacet
facet normal -0.0 -0.0 1.0
  outer loop
    vertex -44.16653945627482 1879.9125867930857 50.0
    vertex -44.16653945627482 1679.9125867930857 50.0
    vertex -44.16653945627482 1684.9125867930854 50.0
  endloop
endfacet
facet normal -0.0 -0.0 1.0
  outer loop
    vertex -44.16653945627482 1879.9125867930857 50.0
    vertex -44.16653945627482 1684.9125867930854 50.0
    vertex -44.16653945627482 1874.9125867930857 50.0
  endloop
endfacet
facet normal -0.0 1.0 -0.0
  outer loop
    vertex -45.16653945627482 1879.9125867930857 50.0
    vertex -64.16653945627483 1879.9125867930857 0.0
    vertex -65.16653945627483 1879.9125867930857 0.0
  endloop
endfacet
facet normal -0.0 1.0 -0.0
  outer loop
    vertex -64.16653945627483 1879.9125867930857 0.0
    vertex -45.16653945627482 1879.9125867930857 50.0
    vertex -44.16653945627482 1879.9125867930857 50.0
  endloop
endfacet
facet normal 0.9284766908852594 -5.895103642090735e-18 -0.37139067635410383
  outer loop
    vertex -63.16653945627483 1684.9125867930854 -1.409983241273931e-16
    vertex -43.16653945627482 1874.9125867930857 50.0
    vertex -43.16653945627482 1684.9125867930845 50.0
  endloop
endfacet
facet normal 0.9284766908852594 -5.895103642090735e-18 -0.37139067635410383
  outer loop
    vertex -43.16653945627482 1874.9125867930857 50.0
    vertex -63.16653945627483 1684.9125867930854 -1.409983241273931e-16
    vertex -63.16653945627483 1874.9125867930868 -5.639932965095795e-15
  endloop
endfacet
facet normal -2.8904656446115915e-15 -1.4470880634127367e-17 -1.0
  outer loop
    vertex -63.16653945627483 1874.9125867930868 -5.639932965095795e-15
    vertex -64.16653945627483 1684.9125867930854 0.0
    vertex -64.16653945627483 1874.9125867930857 0.0
  endloop
endfacet
facet normal -2.8904656446115915e-15 -1.4470880634127367e-17 -1.0
  outer loop
    vertex -64.16653945627483 1684.9125867930854 0.0
    vertex -63.16653945627483 1874.9125867930868 -5.639932965095795e-15
    vertex -63.16653945627483 1684.9125867930854 -1.409983241273931e-16
  endloop
endfacet
endsolid Corner
