solid Corner
facet normal -0.9284766908852594 0.0 0.3713906763541039
  outer loop
    vertex -95.90472390487197 1890.284480586299 50.00000000000001
    vertex -115.90472390487197 1885.2844805862992 5.639932965095795e-15
    vertex -95.90472390487197 1885.2844805862992 50.00000000000001
  endloop
endfacet
facet normal -0.9284766908852594 0.0 0.3713906763541039
  outer loop
    vertex -115.90472390487197 1885.2844805862992 5.639932965095795e-15
    vertex -95.90472390487197 1890.284480586299 50.00000000000001
    vertex -115.90472390487197 1890.284480586299 5.639932965095795e-15
  endloop
endfacet
facet normal -3.268501027504282e-15 -1.2260607012735638e-17 -1.0
  outer loop
    vertex -114.90472390487197 1890.284480586299 0.0
    vertex -115.90472390487197 1885.2844805862992 5.639932965095795e-15
    vertex -115.90472390487197 1890.284480586299 5.639932965095795e-15
  endloop
endfacet
facet normal -3.268501027504282e-15 -1.2260607012735638e-17 -1.0
  outer loop
    vertex -115.90472390487197 1885.2844805862992 5.639932965095795e-15
    vertex -114.90472390487197 1890.284480586299 0.0
    vertex -115.90472390487197 1695.284480586299 5.639932965095795e-15
  endloop
endfacet
facet normal -3.268501027504282e-15 -1.2260607012735638e-17 -1.0
  outer loop
    vertex -115.90472390487197 1695.284480586299 5.639932965095795e-15
    vertex -114.90472390487197 1890.284480586299 0.0
    vertex -114.90472390487197 1695.284480586299 5.498934640968402e-15
  endloop
endfacet
facet normal 0.0 0.0 1.0
  outer loop
    vertex -95.90472390487197 1695.284480586299 50.00000000000001
    vertex -96.90472390487196 1885.2844805862992 50.00000000000001
    vertex -96.90472390487196 1695.284480586299 50.00000000000001
  endloop
endfacet
facet normal 0.0 0.0 1.0
  outer loop
    vertex -96.90472390487196 1885.2844805862992 50.00000000000001
    vertex -95.90472390487197 1695.284480586299 50.00000000000001
    vertex -95.90472390487197 1885.2844805862992 50.00000000000001
  endloop
endfacet
facet normal 0.0 0.0 1.0
  outer loop
    vertex -95.90472390487197 1885.2844805862992 50.00000000000001
    vertex -95.90472390487197 1695.284480586299 50.00000000000001
    vertex -94.90472390487197 1695.284480586299 50.00000000000001
  endloop
endfacet
facet normal 0.0 0.0 1.0
  outer loop
    vertex -95.90472390487197 1885.2844805862992 50.00000000000001
    vertex -94.90472390487197 1695.284480586299 50.00000000000001
    vertex -95.90472390487197 1890.284480586299 50.00000000000001
  endloop
endfacet
facet normal 0.0 0.0 1.0
  outer loop
    vertex -95.90472390487197 1890.284480586299 50.00000000000001
    vertex -94.90472390487197 1695.284480586299 50.00000000000001
    vertex -94.90472390487197 1890.284480586299 50.00000000000001
  endloop
endfacet
facet normal -0.9284766908852594 0.0 0.3713906763541039
  outer loop
    vertex -95.90472390487197 1695.284480586299 50.00000000000001
    vertex -115.90472390487197 1690.284480586299 5.639932965095795e-15
    vertex -95.90472390487197 1690.284480586299 50.00000000000001
  endloop
endfacet
facet normal -0.9284766908852594 0.0 0.3713906763541039
  outer loop
    vertex -115.90472390487197 1690.284480586299 5.639932965095795e-15
    vertex -95.90472390487197 1695.284480586299 50.00000000000001
    vertex -115.90472390487197 1695.284480586299 5.639932965095795e-15
  endloop
endfacet
facet normal 0.0 1.0 0.0
  outer loop
    vertex -96.90472390487196 1695.284480586299 50.00000000000001
    vertex -115.90472390487197 1695.284480586299 5.639932965095795e-15
    vertex -116.90472390487197 1695.284480586299 5.639932965095795e-15
  endloop
endfacet
facet normal 0.0 1.0 0.0
  outer loop
    vertex -115.90472390487197 1695.284480586299 5.639932965095795e-15
    vertex -96.90472390487196 1695.284480586299 50.00000000000001
    vertex -95.90472390487197 1695.284480586299 50.00000000000001
  endloop
endfacet
facet normal 0.0 -1.0 0.0
  outer loop
    vertex -94.90472390487197 1690.284480586299 50.00000000000001
    vertex -115.90472390487197 1690.284480586299 5.639932965095795e-15
    vertex -114.90472390487197 1690.284480586299 5.639932965095795e-15
  endloop
endfacet
facet normal 0.0 -1.0 0.0
  outer loop
    vertex -115.90472390487197 1690.284480586299 5.639932965095795e-15
    vertex -94.90472390487197 1690.284480586299 50.00000000000001
    vertex -95.90472390487197 1690.284480586299 50.00000000000001
  endloop
endfacet
facet normal -0.9284766908852594 0.0 0.3713906763541039
  outer loop
    vertex -96.90472390487196 1885.2844805862992 50.00000000000001
    vertex -116.90472390487197 1695.284480586299 5.639932965095795e-15
    vertex -96.90472390487196 1695.284480586299 50.00000000000001
  endloop
endfacet
facet normal -0.9284766908852594 0.0 0.3713906763541039
  outer loop
    vertex -116.90472390487197 1695.284480586299 5.639932965095795e-15
    vertex -96.90472390487196 1885.2844805862992 50.00000000000001
    vertex -116.90472390487197 1885.2844805862992 5.639932965095795e-15
  endloop
endfacet
facet normal 0.0 1.0 0.0
  outer loop
    vertex -115.90472390487197 1890.284480586299 5.639932965095795e-15
    vertex -94.90472390487197 1890.284480586299 50.00000000000001
    vertex -114.90472390487197 1890.284480586299 0.0
  endloop
endfacet
facet normal 0.0 1.0 0.0
  outer loop
    vertex -94.90472390487197 1890.284480586299 50.00000000000001
    vertex -115.90472390487197 1890.284480586299 5.639932965095795e-15
    vertex -95.90472390487197 1890.284480586299 50.00000000000001
  endloop
endfacet
facet normal 0.0 0.0 1.0
  outer loop
    vertex -94.90472390487197 1690.284480586299 50.00000000000001
    vertex -95.90472390487197 1695.284480586299 50.00000000000001
    vertex -95.90472390487197 1690.284480586299 50.00000000000001
  endloop
endfacet
facet normal 0.0 0.0 1.0
  outer loop
    vertex -95.90472390487197 1695.284480586299 50.00000000000001
    vertex -94.90472390487197 1690.284480586299 50.00000000000001
    vertex -94.90472390487197 1695.284480586299 50.00000000000001
  endloop
endfacet
facet normal 0.9284766908852594 -2.660165518493392e-18 -0.37139067635410383
  outer loop
    vertex -114.90472390487197 1695.284480586299 5.498934640968402e-15
    vertex -94.90472390487197 1690.284480586299 50.00000000000001
    vertex -114.90472390487197 1690.284480586299 5.639932965095795e-15
  endloop
endfacet
facet normal 0.9284766908852594 -2.660165518493392e-18 -0.37139067635410383
  outer loop
    vertex -94.90472390487197 1690.284480586299 50.00000000000001
    vertex -114.90472390487197 1695.284480586299 5.498934640968402e-15
    vertex -94.90472390487197 1695.284480586299 50.00000000000001
  endloop
endfacet
facet normal 0.9284766908852594 -2.660165518493392e-18 -0.37139067635410383
  outer loop
    vertex -94.90472390487197 1695.284480586299 50.00000000000001
    vertex -114.90472390487197 1695.284480586299 5.498934640968402e-15
    vertex -114.90472390487197 1890.284480586299 0.0
  endloop
endfacet
facet normal 0.9284766908852594 -2.660165518493392e-18 -0.37139067635410383
  outer loop
    vertex -94.90472390487197 1695.284480586299 50.00000000000001
    vertex -114.90472390487197 1890.284480586299 0.0
    vertex -94.90472390487197 1890.284480586299 50.00000000000001
  endloop
endfacet
facet normal -7.04991620636967e-17 -1.4099832412739464e-17 -1.0
  outer loop
    vertex -114.90472390487197 1695.284480586299 5.498934640968402e-15
    vertex -115.90472390487197 1690.284480586299 5.639932965095795e-15
    vertex -115.90472390487197 1695.284480586299 5.639932965095795e-15
  endloop
endfacet
facet normal -7.04991620636967e-17 -1.4099832412739464e-17 -1.0
  outer loop
    vertex -115.90472390487197 1690.284480586299 5.639932965095795e-15
    vertex -114.90472390487197 1695.284480586299 5.498934640968402e-15
    vertex -114.90472390487197 1690.284480586299 5.639932965095795e-15
  endloop
endfacet
facet normal 0.0 0.0 -1.0
  outer loop
    vertex -115.90472390487197 1885.2844805862992 5.639932965095795e-15
    vertex -116.90472390487197 1695.284480586299 5.639932965095795e-15
    vertex -116.90472390487197 1885.2844805862992 5.639932965095795e-15
  endloop
endfacet
facet normal 0.0 0.0 -1.0
  outer loop
    vertex -116.90472390487197 1695.284480586299 5.639932965095795e-15
    vertex -115.90472390487197 1885.2844805862992 5.639932965095795e-15
    vertex -115.90472390487197 1695.284480586299 5.639932965095795e-15
  endloop
endfacet
facet normal 0.0 1.0 0.0
  outer loop
    vertex -96.90472390487196 1885.2844805862992 50.00000000000001
    vertex -115.90472390487197 1885.2844805862992 5.639932965095795e-15
    vertex -116.90472390487197 1885.2844805862992 5.639932965095795e-15
  endloop
endfacet
facet normal 0.0 1.0 0.0
  outer loop
    vertex -115.90472390487197 1885.2844805862992 5.639932965095795e-15
    vertex -96.90472390487196 1885.2844805862992 50.00000000000001
    vertex -95.90472390487197 1885.2844805862992 50.00000000000001
  endloop
endfacet
endsolid Corner
