solid AutoSave_Bill Accepter
facet normal 1.223350105153142e-16 -3.2538431264188692e-16 -1.0
  outer loop
    vertex -3.9999999999999996 17.333143442913958 2.3462121134798504e-15
    vertex -100.99999999999999 7.331912854624534e-14 -7.083755804160317e-15
    vertex -100.99999999999999 17.33314344291403 -7.083755804160317e-15
  endloop
endfacet
facet normal 1.223350105153142e-16 -3.2538431264188692e-16 -1.0
  outer loop
    vertex -100.99999999999999 7.331912854624534e-14 -7.083755804160317e-15
    vertex -3.9999999999999996 17.333143442913958 2.3462121134798504e-15
    vertex -3.9999999999999996 9.256011708656023e-31 2.3462121134798504e-15
  endloop
endfacet
facet normal -0.0 1.12798659301916e-15 1.0
  outer loop
    vertex -9.99999999999996 32.33314344291404 59.000000000000036
    vertex -94.99999999999991 52.33314344291402 59.000000000000014
    vertex -94.99999999999991 32.33314344291404 59.000000000000036
  endloop
endfacet
facet normal -0.0 1.12798659301916e-15 1.0
  outer loop
    vertex -94.99999999999991 52.33314344291402 59.000000000000014
    vertex -9.99999999999996 32.33314344291404 59.000000000000036
    vertex -9.99999999999996 52.33314344291402 59.000000000000014
  endloop
endfacet
facet normal 2.6540861012215517e-16 3.007964248051091e-15 1.0
  outer loop
    vertex -9.99999999999996 17.333143442913997 117.00000000000001
    vertex -94.99999999999991 32.33314344291399 116.99999999999999
    vertex -94.99999999999991 17.333143442913993 117.00000000000006
  endloop
endfacet
facet normal 2.6540861012215517e-16 3.007964248051091e-15 1.0
  outer loop
    vertex -94.99999999999991 32.33314344291399 116.99999999999999
    vertex -9.99999999999996 17.333143442913997 117.00000000000001
    vertex -9.99999999999996 32.33314344291399 116.99999999999999
  endloop
endfacet
facet normal 4.2426451597274403e-16 6.776934501450877e-16 -1.0
  outer loop
    vertex -100.99999999999994 17.333143442913993 129.99999999999997
    vertex -94.99999999999991 11.33314344291401 130.0
    vertex -100.99999999999994 3.0585754664155937e-14 129.99999999999997
  endloop
endfacet
facet normal 4.2426451597274403e-16 6.776934501450877e-16 -1.0
  outer loop
    vertex -94.99999999999991 11.33314344291401 130.0
    vertex -100.99999999999994 17.333143442913993 129.99999999999997
    vertex -3.9999999999999263 17.333143442913997 130.0
  endloop
endfacet
facet normal 4.2426451597274403e-16 6.776934501450877e-16 -1.0
  outer loop
    vertex -94.99999999999991 11.33314344291401 130.0
    vertex -3.9999999999999263 17.333143442913997 130.0
    vertex -9.99999999999996 11.33314344291401 130.0
  endloop
endfacet
facet normal 4.2426451597274403e-16 6.776934501450877e-16 -1.0
  outer loop
    vertex -9.99999999999996 11.33314344291401 130.0
    vertex -3.9999999999999263 3.947953075567056e-14 130.0
    vertex -9.999999999999964 3.947953075567056e-14 130.0
  endloop
endfacet
facet normal 4.2426451597274403e-16 6.776934501450877e-16 -1.0
  outer loop
    vertex -3.9999999999999263 3.947953075567056e-14 130.0
    vertex -9.99999999999996 11.33314344291401 130.0
    vertex -3.9999999999999263 17.333143442913997 130.0
  endloop
endfacet
facet normal 4.2426451597274403e-16 6.776934501450877e-16 -1.0
  outer loop
    vertex -94.99999999999991 3.0585754664155937e-14 129.99999999999994
    vertex -100.99999999999994 3.0585754664155937e-14 129.99999999999997
    vertex -94.99999999999991 11.33314344291401 130.0
  endloop
endfacet
facet normal 1.409012329882122e-16 1.0 9.250863144456413e-17
  outer loop
    vertex -100.99999999999999 17.33314344291403 -7.083755804160317e-15
    vertex -94.99999999999991 17.33314344291403 9.999999999999988
    vertex -3.9999999999999996 17.333143442913958 2.3462121134798504e-15
  endloop
endfacet
facet normal 1.409012329882122e-16 1.0 9.250863144456413e-17
  outer loop
    vertex -94.99999999999991 17.33314344291403 9.999999999999988
    vertex -100.99999999999999 17.33314344291403 -7.083755804160317e-15
    vertex -100.99999999999994 17.333143442913993 129.99999999999997
  endloop
endfacet
facet normal 1.409012329882122e-16 1.0 9.250863144456413e-17
  outer loop
    vertex -3.9999999999999996 17.333143442913958 2.3462121134798504e-15
    vertex -94.99999999999991 17.33314344291403 9.999999999999988
    vertex -9.999999999999964 17.33314344291403 9.999999999999982
  endloop
endfacet
facet normal 1.409012329882122e-16 1.0 9.250863144456413e-17
  outer loop
    vertex -94.99999999999991 17.33314344291403 9.999999999999988
    vertex -100.99999999999994 17.333143442913993 129.99999999999997
    vertex -94.99999999999991 17.333143442913993 117.00000000000006
  endloop
endfacet
facet normal 1.409012329882122e-16 1.0 9.250863144456413e-17
  outer loop
    vertex -9.999999999999964 17.33314344291403 9.999999999999982
    vertex -3.9999999999999263 17.333143442913997 130.0
    vertex -3.9999999999999996 17.333143442913958 2.3462121134798504e-15
  endloop
endfacet
facet normal 1.409012329882122e-16 1.0 9.250863144456413e-17
  outer loop
    vertex -3.9999999999999263 17.333143442913997 130.0
    vertex -9.999999999999964 17.33314344291403 9.999999999999982
    vertex -9.99999999999996 17.333143442913997 117.00000000000001
  endloop
endfacet
facet normal 1.409012329882122e-16 1.0 9.250863144456413e-17
  outer loop
    vertex -3.9999999999999263 17.333143442913997 130.0
    vertex -9.99999999999996 17.333143442913997 117.00000000000001
    vertex -94.99999999999991 17.333143442913993 117.00000000000006
  endloop
endfacet
facet normal 1.409012329882122e-16 1.0 9.250863144456413e-17
  outer loop
    vertex -3.9999999999999263 17.333143442913997 130.0
    vertex -94.99999999999991 17.333143442913993 117.00000000000006
    vertex -100.99999999999994 17.333143442913993 129.99999999999997
  endloop
endfacet
facet normal -0.0 1.0 -8.355456244586383e-16
  outer loop
    vertex -94.99999999999991 11.3331434429141 237.99999999999974
    vertex -9.99999999999996 11.33314344291401 130.0
    vertex -94.99999999999991 11.33314344291401 130.0
  endloop
endfacet
facet normal -0.0 1.0 -8.355456244586383e-16
  outer loop
    vertex -9.99999999999996 11.33314344291401 130.0
    vertex -94.99999999999991 11.3331434429141 237.99999999999974
    vertex -55.199999999999946 11.333143442914134 222.7999999999998
  endloop
endfacet
facet normal -0.0 1.0 -8.355456244586383e-16
  outer loop
    vertex -55.199999999999946 11.333143442914134 222.7999999999998
    vertex -94.99999999999991 11.3331434429141 237.99999999999974
    vertex -55.199999999999946 11.333143442914077 228.19999999999985
  endloop
endfacet
facet normal -0.0 1.0 -8.355456244586383e-16
  outer loop
    vertex -55.199999999999946 11.333143442914077 228.19999999999985
    vertex -94.99999999999991 11.3331434429141 237.99999999999974
    vertex -49.79999999999997 11.333143442914077 228.19999999999985
  endloop
endfacet
facet normal -0.0 1.0 -8.355456244586383e-16
  outer loop
    vertex -9.99999999999996 11.33314344291401 130.0
    vertex -49.79999999999997 11.333143442914134 222.7999999999998
    vertex -9.99999999999996 11.3331434429141 237.99999999999974
  endloop
endfacet
facet normal -0.0 1.0 -8.355456244586383e-16
  outer loop
    vertex -49.79999999999997 11.333143442914134 222.7999999999998
    vertex -9.99999999999996 11.33314344291401 130.0
    vertex -55.199999999999946 11.333143442914134 222.7999999999998
  endloop
endfacet
facet normal -0.0 1.0 -8.355456244586383e-16
  outer loop
    vertex -9.99999999999996 11.3331434429141 237.99999999999974
    vertex -49.79999999999997 11.333143442914134 222.7999999999998
    vertex -49.79999999999997 11.333143442914077 228.19999999999985
  endloop
endfacet
facet normal -0.0 1.0 -8.355456244586383e-16
  outer loop
    vertex -9.99999999999996 11.3331434429141 237.99999999999974
    vertex -49.79999999999997 11.333143442914077 228.19999999999985
    vertex -94.99999999999991 11.3331434429141 237.99999999999974
  endloop
endfacet
facet normal 1.0 -7.464742231717903e-16 2.6110800764332817e-17
  outer loop
    vertex -9.99999999999996 11.33314344291401 130.0
    vertex -9.99999999999997 5.639932965095795e-14 237.9999999999997
    vertex -9.999999999999964 3.947953075567056e-14 130.0
  endloop
endfacet
facet normal 1.0 -7.464742231717903e-16 2.6110800764332817e-17
  outer loop
    vertex -9.99999999999997 5.639932965095795e-14 237.9999999999997
    vertex -9.99999999999996 11.33314344291401 130.0
    vertex -9.99999999999996 11.3331434429141 237.99999999999974
  endloop
endfacet
facet normal -0.0 1.0 7.779217882890758e-16
  outer loop
    vertex -94.99999999999991 32.33314344291399 116.99999999999999
    vertex -9.99999999999996 32.33314344291404 59.000000000000036
    vertex -94.99999999999991 32.33314344291404 59.000000000000036
  endloop
endfacet
facet normal -0.0 1.0 7.779217882890758e-16
  outer loop
    vertex -9.99999999999996 32.33314344291404 59.000000000000036
    vertex -94.99999999999991 32.33314344291399 116.99999999999999
    vertex -9.99999999999996 32.33314344291399 116.99999999999999
  endloop
endfacet
facet normal 1.0 -2.314002927164006e-31 -5.865530283699626e-16
  outer loop
    vertex -3.9999999999999996 17.333143442913958 2.3462121134798504e-15
    vertex -3.9999999999999263 3.947953075567056e-14 130.0
    vertex -3.9999999999999996 9.256011708656023e-31 2.3462121134798504e-15
  endloop
endfacet
facet normal 1.0 -2.314002927164006e-31 -5.865530283699626e-16
  outer loop
    vertex -3.9999999999999263 3.947953075567056e-14 130.0
    vertex -3.9999999999999996 17.333143442913958 2.3462121134798504e-15
    vertex -3.9999999999999263 17.333143442913997 130.0
  endloop
endfacet
facet normal -1.6512228629103461e-16 -1.0 7.814109739440297e-17
  outer loop
    vertex -3.9999999999999263 3.947953075567056e-14 130.0
    vertex -94.99999999999991 3.0585754664155937e-14 129.99999999999994
    vertex -3.9999999999999996 9.256011708656023e-31 2.3462121134798504e-15
  endloop
endfacet
facet normal -1.6512228629103461e-16 -1.0 7.814109739440297e-17
  outer loop
    vertex -94.99999999999991 3.0585754664155937e-14 129.99999999999994
    vertex -3.9999999999999263 3.947953075567056e-14 130.0
    vertex -9.999999999999964 3.947953075567056e-14 130.0
  endloop
endfacet
facet normal -1.6512228629103461e-16 -1.0 7.814109739440297e-17
  outer loop
    vertex -94.99999999999991 3.0585754664155937e-14 129.99999999999994
    vertex -9.999999999999964 3.947953075567056e-14 130.0
    vertex -94.99999999999991 5.639932965095795e-14 237.9999999999997
  endloop
endfacet
facet normal -1.6512228629103461e-16 -1.0 7.814109739440297e-17
  outer loop
    vertex -94.99999999999991 5.639932965095795e-14 237.9999999999997
    vertex -9.999999999999964 3.947953075567056e-14 130.0
    vertex -9.99999999999997 5.639932965095795e-14 237.9999999999997
  endloop
endfacet
facet normal -1.6512228629103461e-16 -1.0 7.814109739440297e-17
  outer loop
    vertex -3.9999999999999996 9.256011708656023e-31 2.3462121134798504e-15
    vertex -100.99999999999994 3.0585754664155937e-14 129.99999999999997
    vertex -100.99999999999999 7.331912854624534e-14 -7.083755804160317e-15
  endloop
endfacet
facet normal -1.6512228629103461e-16 -1.0 7.814109739440297e-17
  outer loop
    vertex -100.99999999999994 3.0585754664155937e-14 129.99999999999997
    vertex -3.9999999999999996 9.256011708656023e-31 2.3462121134798504e-15
    vertex -94.99999999999991 3.0585754664155937e-14 129.99999999999994
  endloop
endfacet
facet normal -1.0 2.0327990575371308e-33 3.6095570976613083e-16
  outer loop
    vertex -100.99999999999994 17.333143442913993 129.99999999999997
    vertex -100.99999999999999 7.331912854624534e-14 -7.083755804160317e-15
    vertex -100.99999999999994 3.0585754664155937e-14 129.99999999999997
  endloop
endfacet
facet normal -1.0 2.0327990575371308e-33 3.6095570976613083e-16
  outer loop
    vertex -100.99999999999999 7.331912854624534e-14 -7.083755804160317e-15
    vertex -100.99999999999994 17.333143442913993 129.99999999999997
    vertex -100.99999999999999 17.33314344291403 -7.083755804160317e-15
  endloop
endfacet
facet normal -0.0 1.0 4.604026910282279e-16
  outer loop
    vertex -94.99999999999991 52.33314344291402 59.000000000000014
    vertex -9.99999999999996 52.33314344291404 9.999999999999993
    vertex -94.99999999999991 52.33314344291404 9.999999999999993
  endloop
endfacet
facet normal -0.0 1.0 4.604026910282279e-16
  outer loop
    vertex -9.99999999999996 52.33314344291404 9.999999999999993
    vertex -94.99999999999991 52.33314344291402 59.000000000000014
    vertex -9.99999999999996 52.33314344291402 59.000000000000014
  endloop
endfacet
facet normal 1.0 -9.731807032436068e-17 -2.5778387901228028e-17
  outer loop
    vertex -9.999999999999964 17.33314344291403 9.999999999999982
    vertex -9.99999999999996 32.33314344291399 116.99999999999999
    vertex -9.99999999999996 17.333143442913997 117.00000000000001
  endloop
endfacet
facet normal 1.0 -9.731807032436068e-17 -2.5778387901228028e-17
  outer loop
    vertex -9.99999999999996 32.33314344291399 116.99999999999999
    vertex -9.999999999999964 17.33314344291403 9.999999999999982
    vertex -9.99999999999996 32.33314344291404 59.000000000000036
  endloop
endfacet
facet normal 1.0 -9.731807032436068e-17 -2.5778387901228028e-17
  outer loop
    vertex -9.99999999999996 32.33314344291404 59.000000000000036
    vertex -9.999999999999964 17.33314344291403 9.999999999999982
    vertex -9.99999999999996 52.33314344291404 9.999999999999993
  endloop
endfacet
facet normal 1.0 -9.731807032436068e-17 -2.5778387901228028e-17
  outer loop
    vertex -9.99999999999996 32.33314344291404 59.000000000000036
    vertex -9.99999999999996 52.33314344291404 9.999999999999993
    vertex -9.99999999999996 52.33314344291402 59.000000000000014
  endloop
endfacet
facet normal -1.0 0.0 0.0
  outer loop
    vertex -94.99999999999991 32.33314344291399 116.99999999999999
    vertex -94.99999999999991 17.33314344291403 9.999999999999988
    vertex -94.99999999999991 17.333143442913993 117.00000000000006
  endloop
endfacet
facet normal -1.0 0.0 0.0
  outer loop
    vertex -94.99999999999991 17.33314344291403 9.999999999999988
    vertex -94.99999999999991 32.33314344291399 116.99999999999999
    vertex -94.99999999999991 32.33314344291404 59.000000000000036
  endloop
endfacet
facet normal -1.0 0.0 0.0
  outer loop
    vertex -94.99999999999991 17.33314344291403 9.999999999999988
    vertex -94.99999999999991 32.33314344291404 59.000000000000036
    vertex -94.99999999999991 52.33314344291404 9.999999999999993
  endloop
endfacet
facet normal -1.0 0.0 0.0
  outer loop
    vertex -94.99999999999991 52.33314344291404 9.999999999999993
    vertex -94.99999999999991 32.33314344291404 59.000000000000036
    vertex -94.99999999999991 52.33314344291402 59.000000000000014
  endloop
endfacet
facet normal -1.0 0.0 0.0
  outer loop
    vertex -49.79999999999997 11.333143442914077 228.19999999999985
    vertex -49.79999999999997 5.333143442914067 222.79999999999973
    vertex -49.79999999999997 5.333143442914016 228.19999999999993
  endloop
endfacet
facet normal -1.0 0.0 0.0
  outer loop
    vertex -49.79999999999997 5.333143442914067 222.79999999999973
    vertex -49.79999999999997 11.333143442914077 228.19999999999985
    vertex -49.79999999999997 11.333143442914134 222.7999999999998
  endloop
endfacet
facet normal 5.772352493496179e-31 -7.519910620127694e-15 1.0
  outer loop
    vertex -49.79999999999997 5.333143442914067 222.79999999999973
    vertex -55.199999999999946 11.333143442914134 222.7999999999998
    vertex -55.199999999999946 5.333143442914067 222.79999999999973
  endloop
endfacet
facet normal 5.772352493496179e-31 -7.519910620127694e-15 1.0
  outer loop
    vertex -55.199999999999946 11.333143442914134 222.7999999999998
    vertex -49.79999999999997 5.333143442914067 222.79999999999973
    vertex -49.79999999999997 11.333143442914134 222.7999999999998
  endloop
endfacet
facet normal -0.0 1.0 9.399888275159282e-15
  outer loop
    vertex -55.199999999999946 5.333143442914016 228.19999999999993
    vertex -49.79999999999997 5.333143442914067 222.79999999999973
    vertex -55.199999999999946 5.333143442914067 222.79999999999973
  endloop
endfacet
facet normal -0.0 1.0 9.399888275159282e-15
  outer loop
    vertex -49.79999999999997 5.333143442914067 222.79999999999973
    vertex -55.199999999999946 5.333143442914016 228.19999999999993
    vertex -49.79999999999997 5.333143442914016 228.19999999999993
  endloop
endfacet
facet normal 2.050751566250199e-45 -7.519910620127697e-15 -1.0
  outer loop
    vertex -49.79999999999997 11.333143442914077 228.19999999999985
    vertex -55.199999999999946 5.333143442914016 228.19999999999993
    vertex -55.199999999999946 11.333143442914077 228.19999999999985
  endloop
endfacet
facet normal 2.050751566250199e-45 -7.519910620127697e-15 -1.0
  outer loop
    vertex -55.199999999999946 5.333143442914016 228.19999999999993
    vertex -49.79999999999997 11.333143442914077 228.19999999999985
    vertex -49.79999999999997 5.333143442914016 228.19999999999993
  endloop
endfacet
facet normal 1.0 -0.0 -0.0
  outer loop
    vertex -55.199999999999946 5.333143442914067 222.79999999999973
    vertex -55.199999999999946 11.333143442914077 228.19999999999985
    vertex -55.199999999999946 5.333143442914016 228.19999999999993
  endloop
endfacet
facet normal 1.0 -0.0 -0.0
  outer loop
    vertex -55.199999999999946 11.333143442914077 228.19999999999985
    vertex -55.199999999999946 5.333143442914067 222.79999999999973
    vertex -55.199999999999946 11.333143442914134 222.7999999999998
  endloop
endfacet
facet normal 1.639181421569949e-32 -2.603074501135088e-15 1.0
  outer loop
    vertex -9.99999999999997 5.639932965095795e-14 237.9999999999997
    vertex -94.99999999999991 11.3331434429141 237.99999999999974
    vertex -94.99999999999991 5.639932965095795e-14 237.9999999999997
  endloop
endfacet
facet normal 1.639181421569949e-32 -2.603074501135088e-15 1.0
  outer loop
    vertex -94.99999999999991 11.3331434429141 237.99999999999974
    vertex -9.99999999999997 5.639932965095795e-14 237.9999999999997
    vertex -9.99999999999996 11.3331434429141 237.99999999999974
  endloop
endfacet
facet normal -1.0 0.0 0.0
  outer loop
    vertex -94.99999999999991 5.639932965095795e-14 237.9999999999997
    vertex -94.99999999999991 11.33314344291401 130.0
    vertex -94.99999999999991 3.0585754664155937e-14 129.99999999999994
  endloop
endfacet
facet normal -1.0 0.0 0.0
  outer loop
    vertex -94.99999999999991 11.33314344291401 130.0
    vertex -94.99999999999991 5.639932965095795e-14 237.9999999999997
    vertex -94.99999999999991 11.3331434429141 237.99999999999974
  endloop
endfacet
facet normal -9.69416194598719e-17 2.6383415226549826e-16 -1.0
  outer loop
    vertex -9.99999999999996 52.33314344291404 9.999999999999993
    vertex -94.99999999999991 17.33314344291403 9.999999999999988
    vertex -94.99999999999991 52.33314344291404 9.999999999999993
  endloop
endfacet
facet normal -9.69416194598719e-17 2.6383415226549826e-16 -1.0
  outer loop
    vertex -94.99999999999991 17.33314344291403 9.999999999999988
    vertex -9.99999999999996 52.33314344291404 9.999999999999993
    vertex -9.999999999999964 17.33314344291403 9.999999999999982
  endloop
endfacet
endsolid AutoSave_Bill Accepter
