solid AutoSave_Bill Accepter
facet normal -1.0 2.7289998218205462e-15 0.0
  outer loop
    vertex -55.12479688961912 107.11356987232611 227.999709304417
    vertex -55.12479688961919 60.11356987232611 222.999709304417
    vertex -55.12479688961919 60.11356987232611 227.999709304417
  endloop
endfacet
facet normal -1.0 2.7289998218205462e-15 0.0
  outer loop
    vertex -55.12479688961919 60.11356987232611 222.999709304417
    vertex -55.12479688961912 107.11356987232611 227.999709304417
    vertex -55.12479688961912 107.11356987232611 222.999709304417
  endloop
endfacet
facet normal 0.0 0.0 1.0
  outer loop
    vertex -50.12479688961921 60.11356987232613 227.999709304417
    vertex -55.12479688961912 107.11356987232611 227.999709304417
    vertex -55.12479688961919 60.11356987232611 227.999709304417
  endloop
endfacet
facet normal 0.0 0.0 1.0
  outer loop
    vertex -55.12479688961912 107.11356987232611 227.999709304417
    vertex -50.12479688961921 60.11356987232613 227.999709304417
    vertex -50.124796889619155 107.1135698723261 227.999709304417
  endloop
endfacet
facet normal 0.0 0.0 -1.0
  outer loop
    vertex -55.12479688961912 107.11356987232611 222.999709304417
    vertex -50.12479688961921 60.11356987232613 222.999709304417
    vertex -55.12479688961919 60.11356987232611 222.999709304417
  endloop
endfacet
facet normal 0.0 0.0 -1.0
  outer loop
    vertex -50.12479688961921 60.11356987232613 222.999709304417
    vertex -55.12479688961912 107.11356987232611 222.999709304417
    vertex -50.124796889619155 107.1135698723261 222.999709304417
  endloop
endfacet
facet normal 4.511946372076654e-15 -1.0 0.0
  outer loop
    vertex -50.12479688961921 60.11356987232613 227.999709304417
    vertex -55.12479688961919 60.11356987232611 222.999709304417
    vertex -50.12479688961921 60.11356987232613 222.999709304417
  endloop
endfacet
facet normal 4.511946372076654e-15 -1.0 0.0
  outer loop
    vertex -55.12479688961919 60.11356987232611 222.999709304417
    vertex -50.12479688961921 60.11356987232613 227.999709304417
    vertex -55.12479688961919 60.11356987232611 227.999709304417
  endloop
endfacet
facet normal 6.767919558114997e-15 1.0 0.0
  outer loop
    vertex -55.12479688961912 107.11356987232611 227.999709304417
    vertex -50.124796889619155 107.1135698723261 222.999709304417
    vertex -55.12479688961912 107.11356987232611 222.999709304417
  endloop
endfacet
facet normal 6.767919558114997e-15 1.0 0.0
  outer loop
    vertex -50.124796889619155 107.1135698723261 222.999709304417
    vertex -55.12479688961912 107.11356987232611 227.999709304417
    vertex -50.124796889619155 107.1135698723261 227.999709304417
  endloop
endfacet
facet normal 1.0 -2.5470665003658445e-15 0.0
  outer loop
    vertex -50.124796889619155 107.1135698723261 222.999709304417
    vertex -50.12479688961921 60.11356987232613 227.999709304417
    vertex -50.12479688961921 60.11356987232613 222.999709304417
  endloop
endfacet
facet normal 1.0 -2.5470665003658445e-15 0.0
  outer loop
    vertex -50.12479688961921 60.11356987232613 227.999709304417
    vertex -50.124796889619155 107.1135698723261 222.999709304417
    vertex -50.124796889619155 107.1135698723261 227.999709304417
  endloop
endfacet
endsolid AutoSave_Bill Accepter
