solid Bill-Accepter-retention-arm
facet normal -0.0 0.7933533402912566 -0.6087614290086928
  outer loop
    vertex -7.049916206369744e-16 -16.864213562373102 11.414213562373108
    vertex 4.999999999999999 -16.891158142913344 11.379098701352495
    vertex -7.049916206369744e-16 -16.891158142913344 11.379098701352495
  endloop
endfacet
facet normal -0.0 0.7933533402912566 -0.6087614290086928
  outer loop
    vertex 4.999999999999999 -16.891158142913344 11.379098701352495
    vertex -7.049916206369744e-16 -16.864213562373102 11.414213562373108
    vertex 4.999999999999999 -16.864213562373102 11.414213562373108
  endloop
endfacet
facet normal -0.0 0.7933533402912327 -0.608761429008724
  outer loop
    vertex -7.049916206369744e-16 -16.891158142913344 11.379098701352495
    vertex 4.999999999999999 -17.182050807568885 11.000000000000014
    vertex -7.049916206369744e-16 -17.182050807568885 11.000000000000014
  endloop
endfacet
facet normal -0.0 0.7933533402912327 -0.608761429008724
  outer loop
    vertex 4.999999999999999 -17.182050807568885 11.000000000000014
    vertex -7.049916206369744e-16 -16.891158142913344 11.379098701352495
    vertex 4.999999999999999 -16.891158142913344 11.379098701352495
  endloop
endfacet
facet normal -0.0 0.9238795325112885 -0.38268343236508573
  outer loop
    vertex -7.049916206369744e-16 -17.182050807568885 11.000000000000014
    vertex 4.999999999999999 -17.381851652578142 10.517638090205054
    vertex -7.049916206369744e-16 -17.381851652578142 10.517638090205054
  endloop
endfacet
facet normal -0.0 0.9238795325112885 -0.38268343236508573
  outer loop
    vertex 4.999999999999999 -17.381851652578142 10.517638090205054
    vertex -7.049916206369744e-16 -17.182050807568885 11.000000000000014
    vertex 4.999999999999999 -17.182050807568885 11.000000000000014
  endloop
endfacet
facet normal -0.0 0.9914448613738104 -0.13052619222005216
  outer loop
    vertex -7.049916206369744e-16 -17.381851652578142 10.517638090205054
    vertex 4.999999999999999 -17.450000000000006 10.000000000000014
    vertex -7.049916206369744e-16 -17.450000000000006 10.000000000000014
  endloop
endfacet
facet normal -0.0 0.9914448613738104 -0.13052619222005216
  outer loop
    vertex 4.999999999999999 -17.450000000000006 10.000000000000014
    vertex -7.049916206369744e-16 -17.381851652578142 10.517638090205054
    vertex 4.999999999999999 -17.381851652578142 10.517638090205054
  endloop
endfacet
facet normal 0.0 0.9914448613738104 0.1305261922200518
  outer loop
    vertex -7.049916206369744e-16 -17.450000000000006 10.000000000000014
    vertex 4.999999999999999 -17.381851652578142 9.482361909794973
    vertex -7.049916206369744e-16 -17.381851652578142 9.482361909794973
  endloop
endfacet
facet normal 0.0 0.9914448613738104 0.1305261922200518
  outer loop
    vertex 4.999999999999999 -17.381851652578142 9.482361909794973
    vertex -7.049916206369744e-16 -17.450000000000006 10.000000000000014
    vertex 4.999999999999999 -17.450000000000006 10.000000000000014
  endloop
endfacet
facet normal 0.0 0.9238795325112863 0.3826834323650914
  outer loop
    vertex -7.049916206369744e-16 -17.381851652578142 9.482361909794973
    vertex 4.999999999999999 -17.18205080756888 9.000000000000014
    vertex -7.049916206369744e-16 -17.18205080756888 9.000000000000014
  endloop
endfacet
facet normal 0.0 0.9238795325112863 0.3826834323650914
  outer loop
    vertex 4.999999999999999 -17.18205080756888 9.000000000000014
    vertex -7.049916206369744e-16 -17.381851652578142 9.482361909794973
    vertex 4.999999999999999 -17.381851652578142 9.482361909794973
  endloop
endfacet
facet normal 0.0 0.7933533402912347 0.6087614290087213
  outer loop
    vertex -7.049916206369744e-16 -17.18205080756888 9.000000000000014
    vertex 4.999999999999999 -16.8642135623731 8.58578643762692
    vertex -7.049916206369744e-16 -16.8642135623731 8.58578643762692
  endloop
endfacet
facet normal 0.0 0.7933533402912347 0.6087614290087213
  outer loop
    vertex 4.999999999999999 -16.8642135623731 8.58578643762692
    vertex -7.049916206369744e-16 -17.18205080756888 9.000000000000014
    vertex 4.999999999999999 -17.18205080756888 9.000000000000014
  endloop
endfacet
facet normal 0.0 0.6087614290087213 0.7933533402912347
  outer loop
    vertex 4.999999999999999 -16.8642135623731 8.58578643762692
    vertex -7.049916206369744e-16 -16.450000000000003 8.267949192431137
    vertex -7.049916206369744e-16 -16.8642135623731 8.58578643762692
  endloop
endfacet
facet normal 0.0 0.6087614290087213 0.7933533402912347
  outer loop
    vertex -7.049916206369744e-16 -16.450000000000003 8.267949192431137
    vertex 4.999999999999999 -16.8642135623731 8.58578643762692
    vertex 4.999999999999999 -16.450000000000003 8.267949192431137
  endloop
endfacet
facet normal 0.0 0.38268343236508895 0.9238795325112871
  outer loop
    vertex 4.999999999999999 -16.450000000000003 8.267949192431137
    vertex -7.049916206369744e-16 -15.967638090205046 8.068148347421879
    vertex -7.049916206369744e-16 -16.450000000000003 8.267949192431137
  endloop
endfacet
facet normal 0.0 0.38268343236508895 0.9238795325112871
  outer loop
    vertex -7.049916206369744e-16 -15.967638090205046 8.068148347421879
    vertex 4.999999999999999 -16.450000000000003 8.267949192431137
    vertex 4.999999999999999 -15.967638090205046 8.068148347421879
  endloop
endfacet
facet normal 0.0 0.13052619222005216 0.9914448613738104
  outer loop
    vertex 4.999999999999999 -15.967638090205046 8.068148347421879
    vertex -7.049916206369744e-16 -15.450000000000006 8.000000000000014
    vertex -7.049916206369744e-16 -15.967638090205046 8.068148347421879
  endloop
endfacet
facet normal 0.0 0.13052619222005216 0.9914448613738104
  outer loop
    vertex -7.049916206369744e-16 -15.450000000000006 8.000000000000014
    vertex 4.999999999999999 -15.967638090205046 8.068148347421879
    vertex 4.999999999999999 -15.450000000000006 8.000000000000014
  endloop
endfacet
facet normal -0.0 -0.13052619222005143 0.9914448613738105
  outer loop
    vertex 4.999999999999999 -15.450000000000006 8.000000000000014
    vertex -7.049916206369744e-16 -14.932361909794963 8.068148347421879
    vertex -7.049916206369744e-16 -15.450000000000006 8.000000000000014
  endloop
endfacet
facet normal -0.0 -0.13052619222005143 0.9914448613738105
  outer loop
    vertex -7.049916206369744e-16 -14.932361909794963 8.068148347421879
    vertex 4.999999999999999 -15.450000000000006 8.000000000000014
    vertex 4.999999999999999 -14.932361909794963 8.068148347421879
  endloop
endfacet
facet normal -0.0 -0.38268343236508895 0.9238795325112871
  outer loop
    vertex 4.999999999999999 -14.932361909794963 8.068148347421879
    vertex -7.049916206369744e-16 -14.450000000000005 8.267949192431137
    vertex -7.049916206369744e-16 -14.932361909794963 8.068148347421879
  endloop
endfacet
facet normal -0.0 -0.38268343236508895 0.9238795325112871
  outer loop
    vertex -7.049916206369744e-16 -14.450000000000005 8.267949192431137
    vertex 4.999999999999999 -14.932361909794963 8.068148347421879
    vertex 4.999999999999999 -14.450000000000005 8.267949192431137
  endloop
endfacet
facet normal -0.0 -0.6087614290087213 0.7933533402912347
  outer loop
    vertex 4.999999999999999 -14.450000000000005 8.267949192431137
    vertex -7.049916206369744e-16 -14.03578643762691 8.58578643762692
    vertex -7.049916206369744e-16 -14.450000000000005 8.267949192431137
  endloop
endfacet
facet normal -0.0 -0.6087614290087213 0.7933533402912347
  outer loop
    vertex -7.049916206369744e-16 -14.03578643762691 8.58578643762692
    vertex 4.999999999999999 -14.450000000000005 8.267949192431137
    vertex 4.999999999999999 -14.03578643762691 8.58578643762692
  endloop
endfacet
facet normal -0.0 -0.7933533402912566 0.6087614290086928
  outer loop
    vertex 4.999999999999999 -14.008841857086665 8.620901298647532
    vertex -7.049916206369744e-16 -14.03578643762691 8.58578643762692
    vertex 4.999999999999999 -14.03578643762691 8.58578643762692
  endloop
endfacet
facet normal -0.0 -0.7933533402912566 0.6087614290086928
  outer loop
    vertex -7.049916206369744e-16 -14.03578643762691 8.58578643762692
    vertex 4.999999999999999 -14.008841857086665 8.620901298647532
    vertex -7.049916206369744e-16 -14.008841857086665 8.620901298647532
  endloop
endfacet
facet normal -0.0 -0.7933533402912355 0.6087614290087202
  outer loop
    vertex 4.999999999999999 -13.71794919243113 9.000000000000014
    vertex -7.049916206369744e-16 -14.008841857086665 8.620901298647532
    vertex 4.999999999999999 -14.008841857086665 8.620901298647532
  endloop
endfacet
facet normal -0.0 -0.7933533402912355 0.6087614290087202
  outer loop
    vertex -7.049916206369744e-16 -14.008841857086665 8.620901298647532
    vertex 4.999999999999999 -13.71794919243113 9.000000000000014
    vertex -7.049916206369744e-16 -13.71794919243113 9.000000000000014
  endloop
endfacet
facet normal -0.0 -0.9238795325112863 0.3826834323650914
  outer loop
    vertex 4.999999999999999 -13.518148347421869 9.482361909794973
    vertex -7.049916206369744e-16 -13.71794919243113 9.000000000000014
    vertex 4.999999999999999 -13.71794919243113 9.000000000000014
  endloop
endfacet
facet normal -0.0 -0.9238795325112863 0.3826834323650914
  outer loop
    vertex -7.049916206369744e-16 -13.71794919243113 9.000000000000014
    vertex 4.999999999999999 -13.518148347421869 9.482361909794973
    vertex -7.049916206369744e-16 -13.518148347421869 9.482361909794973
  endloop
endfacet
facet normal -0.0 -0.9914448613738104 0.1305261922200518
  outer loop
    vertex 4.999999999999999 -13.450000000000006 10.000000000000014
    vertex -7.049916206369744e-16 -13.518148347421869 9.482361909794973
    vertex 4.999999999999999 -13.518148347421869 9.482361909794973
  endloop
endfacet
facet normal -0.0 -0.9914448613738104 0.1305261922200518
  outer loop
    vertex -7.049916206369744e-16 -13.518148347421869 9.482361909794973
    vertex 4.999999999999999 -13.450000000000006 10.000000000000014
    vertex -7.049916206369744e-16 -13.450000000000006 10.000000000000014
  endloop
endfacet
facet normal -0.0 -0.9914448613738105 -0.13052619222005143
  outer loop
    vertex 4.999999999999999 -13.518148347421869 10.517638090205057
    vertex -7.049916206369744e-16 -13.450000000000006 10.000000000000014
    vertex 4.999999999999999 -13.450000000000006 10.000000000000014
  endloop
endfacet
facet normal -0.0 -0.9914448613738105 -0.13052619222005143
  outer loop
    vertex -7.049916206369744e-16 -13.450000000000006 10.000000000000014
    vertex 4.999999999999999 -13.518148347421869 10.517638090205057
    vertex -7.049916206369744e-16 -13.518148347421869 10.517638090205057
  endloop
endfacet
facet normal -0.0 -0.9238795325112863 -0.3826834323650914
  outer loop
    vertex 4.999999999999999 -13.71794919243113 11.000000000000014
    vertex -7.049916206369744e-16 -13.518148347421869 10.517638090205057
    vertex 4.999999999999999 -13.518148347421869 10.517638090205057
  endloop
endfacet
facet normal -0.0 -0.9238795325112863 -0.3826834323650914
  outer loop
    vertex -7.049916206369744e-16 -13.518148347421869 10.517638090205057
    vertex 4.999999999999999 -13.71794919243113 11.000000000000014
    vertex -7.049916206369744e-16 -13.71794919243113 11.000000000000014
  endloop
endfacet
facet normal -0.0 -0.7933533402912337 -0.6087614290087227
  outer loop
    vertex 4.999999999999999 -14.035786437626912 11.414213562373108
    vertex -7.049916206369744e-16 -13.71794919243113 11.000000000000014
    vertex 4.999999999999999 -13.71794919243113 11.000000000000014
  endloop
endfacet
facet normal -0.0 -0.7933533402912337 -0.6087614290087227
  outer loop
    vertex -7.049916206369744e-16 -13.71794919243113 11.000000000000014
    vertex 4.999999999999999 -14.035786437626912 11.414213562373108
    vertex -7.049916206369744e-16 -14.035786437626912 11.414213562373108
  endloop
endfacet
facet normal -0.0 -0.6087614290087213 -0.7933533402912347
  outer loop
    vertex 4.999999999999999 -14.035786437626912 11.414213562373108
    vertex -7.049916206369744e-16 -14.450000000000008 11.732050807568891
    vertex -7.049916206369744e-16 -14.035786437626912 11.414213562373108
  endloop
endfacet
facet normal -0.0 -0.6087614290087213 -0.7933533402912347
  outer loop
    vertex -7.049916206369744e-16 -14.450000000000008 11.732050807568891
    vertex 4.999999999999999 -14.035786437626912 11.414213562373108
    vertex 4.999999999999999 -14.450000000000008 11.732050807568891
  endloop
endfacet
facet normal -0.0 -0.38268343236508895 -0.9238795325112871
  outer loop
    vertex 4.999999999999999 -14.450000000000008 11.732050807568891
    vertex -7.049916206369744e-16 -14.932361909794965 11.93185165257815
    vertex -7.049916206369744e-16 -14.450000000000008 11.732050807568891
  endloop
endfacet
facet normal -0.0 -0.38268343236508895 -0.9238795325112871
  outer loop
    vertex -7.049916206369744e-16 -14.932361909794965 11.93185165257815
    vertex 4.999999999999999 -14.450000000000008 11.732050807568891
    vertex 4.999999999999999 -14.932361909794965 11.93185165257815
  endloop
endfacet
facet normal -0.0 -0.13052619222005216 -0.9914448613738104
  outer loop
    vertex 4.999999999999999 -14.932361909794965 11.93185165257815
    vertex -7.049916206369744e-16 -15.450000000000006 12.000000000000012
    vertex -7.049916206369744e-16 -14.932361909794965 11.93185165257815
  endloop
endfacet
facet normal -0.0 -0.13052619222005216 -0.9914448613738104
  outer loop
    vertex -7.049916206369744e-16 -15.450000000000006 12.000000000000012
    vertex 4.999999999999999 -14.932361909794965 11.93185165257815
    vertex 4.999999999999999 -15.450000000000006 12.000000000000012
  endloop
endfacet
facet normal -0.0 0.13052619222005143 -0.9914448613738105
  outer loop
    vertex 4.999999999999999 -15.450000000000006 12.000000000000012
    vertex -7.049916206369744e-16 -15.967638090205048 11.93185165257815
    vertex -7.049916206369744e-16 -15.450000000000006 12.000000000000012
  endloop
endfacet
facet normal -0.0 0.13052619222005143 -0.9914448613738105
  outer loop
    vertex -7.049916206369744e-16 -15.967638090205048 11.93185165257815
    vertex 4.999999999999999 -15.450000000000006 12.000000000000012
    vertex 4.999999999999999 -15.967638090205048 11.93185165257815
  endloop
endfacet
facet normal -0.0 0.3826834323650914 -0.9238795325112863
  outer loop
    vertex 4.999999999999999 -15.967638090205048 11.93185165257815
    vertex -7.049916206369744e-16 -16.450000000000006 11.73205080756889
    vertex -7.049916206369744e-16 -15.967638090205048 11.93185165257815
  endloop
endfacet
facet normal -0.0 0.3826834323650914 -0.9238795325112863
  outer loop
    vertex -7.049916206369744e-16 -16.450000000000006 11.73205080756889
    vertex 4.999999999999999 -15.967638090205048 11.93185165257815
    vertex 4.999999999999999 -16.450000000000006 11.73205080756889
  endloop
endfacet
facet normal -0.0 0.6087614290087197 -0.7933533402912359
  outer loop
    vertex 4.999999999999999 -16.450000000000006 11.73205080756889
    vertex -7.049916206369744e-16 -16.864213562373102 11.414213562373108
    vertex -7.049916206369744e-16 -16.450000000000006 11.73205080756889
  endloop
endfacet
facet normal -0.0 0.6087614290087197 -0.7933533402912359
  outer loop
    vertex -7.049916206369744e-16 -16.864213562373102 11.414213562373108
    vertex 4.999999999999999 -16.450000000000006 11.73205080756889
    vertex 4.999999999999999 -16.864213562373102 11.414213562373108
  endloop
endfacet
facet normal 0.13052619222005077 -0.0 -0.9914448613738106
  outer loop
    vertex 114.99999999999999 83.99999999999999 12.00000000000001
    vertex 114.48236190979495 78.99999999999999 11.931851652578146
    vertex 114.48236190979495 83.99999999999999 11.931851652578146
  endloop
endfacet
facet normal 0.13052619222005077 -0.0 -0.9914448613738106
  outer loop
    vertex 114.48236190979495 78.99999999999999 11.931851652578146
    vertex 114.99999999999999 83.99999999999999 12.00000000000001
    vertex 114.99999999999999 78.99999999999999 12.00000000000001
  endloop
endfacet
facet normal 0.7933533402912467 0.0 0.6087614290087057
  outer loop
    vertex 113.5857864376269 83.99999999999999 8.585786437626922
    vertex 113.26794919243113 78.99999999999999 9.000000000000014
    vertex 113.5857864376269 78.99999999999999 8.585786437626922
  endloop
endfacet
facet normal 0.7933533402912467 0.0 0.6087614290087057
  outer loop
    vertex 113.26794919243113 78.99999999999999 9.000000000000014
    vertex 113.5857864376269 83.99999999999999 8.585786437626922
    vertex 113.26794919243113 83.99999999999999 9.000000000000014
  endloop
endfacet
facet normal 0.9238795325112747 0.0 0.382683432365119
  outer loop
    vertex 113.26794919243113 83.99999999999999 9.000000000000014
    vertex 113.06814834742185 78.99999999999999 9.482361909794973
    vertex 113.26794919243113 78.99999999999999 9.000000000000014
  endloop
endfacet
facet normal 0.9238795325112747 0.0 0.382683432365119
  outer loop
    vertex 113.06814834742185 78.99999999999999 9.482361909794973
    vertex 113.26794919243113 83.99999999999999 9.000000000000014
    vertex 113.06814834742185 83.99999999999999 9.482361909794973
  endloop
endfacet
facet normal 0.6087614290087144 0.0 0.7933533402912402
  outer loop
    vertex 114.0 78.99999999999999 8.26794919243114
    vertex 113.5857864376269 83.99999999999999 8.585786437626922
    vertex 113.5857864376269 78.99999999999999 8.585786437626922
  endloop
endfacet
facet normal 0.6087614290087144 0.0 0.7933533402912402
  outer loop
    vertex 113.5857864376269 83.99999999999999 8.585786437626922
    vertex 114.0 78.99999999999999 8.26794919243114
    vertex 114.0 83.99999999999999 8.26794919243114
  endloop
endfacet
facet normal 0.38268343236509283 0.0 0.9238795325112855
  outer loop
    vertex 114.48236190979495 78.99999999999999 8.06814834742188
    vertex 114.0 83.99999999999999 8.26794919243114
    vertex 114.0 78.99999999999999 8.26794919243114
  endloop
endfacet
facet normal 0.38268343236509283 0.0 0.9238795325112855
  outer loop
    vertex 114.0 83.99999999999999 8.26794919243114
    vertex 114.48236190979495 78.99999999999999 8.06814834742188
    vertex 114.48236190979495 83.99999999999999 8.06814834742188
  endloop
endfacet
facet normal 0.13052619222005077 0.0 0.9914448613738106
  outer loop
    vertex 114.99999999999999 78.99999999999999 8.000000000000018
    vertex 114.48236190979495 83.99999999999999 8.06814834742188
    vertex 114.48236190979495 78.99999999999999 8.06814834742188
  endloop
endfacet
facet normal 0.13052619222005077 0.0 0.9914448613738106
  outer loop
    vertex 114.48236190979495 83.99999999999999 8.06814834742188
    vertex 114.99999999999999 78.99999999999999 8.000000000000018
    vertex 114.99999999999999 83.99999999999999 8.000000000000018
  endloop
endfacet
facet normal -0.13052619222005077 -0.0 0.9914448613738106
  outer loop
    vertex 115.51763809020504 78.99999999999999 8.06814834742188
    vertex 114.99999999999999 83.99999999999999 8.000000000000018
    vertex 114.99999999999999 78.99999999999999 8.000000000000018
  endloop
endfacet
facet normal -0.13052619222005077 -0.0 0.9914448613738106
  outer loop
    vertex 114.99999999999999 83.99999999999999 8.000000000000018
    vertex 115.51763809020504 78.99999999999999 8.06814834742188
    vertex 115.51763809020504 83.99999999999999 8.06814834742188
  endloop
endfacet
facet normal -0.7933533402912467 -0.0 -0.6087614290087057
  outer loop
    vertex 116.41421356237309 83.99999999999999 11.414213562373106
    vertex 116.73205080756885 78.99999999999999 11.000000000000014
    vertex 116.41421356237309 78.99999999999999 11.414213562373106
  endloop
endfacet
facet normal -0.7933533402912467 -0.0 -0.6087614290087057
  outer loop
    vertex 116.73205080756885 78.99999999999999 11.000000000000014
    vertex 116.41421356237309 83.99999999999999 11.414213562373106
    vertex 116.73205080756885 83.99999999999999 11.000000000000014
  endloop
endfacet
facet normal -0.9238795325112897 -0.0 -0.3826834323650831
  outer loop
    vertex 116.73205080756885 83.99999999999999 11.000000000000014
    vertex 116.93185165257812 78.99999999999999 10.517638090205057
    vertex 116.73205080756885 78.99999999999999 11.000000000000014
  endloop
endfacet
facet normal -0.9238795325112897 -0.0 -0.3826834323650831
  outer loop
    vertex 116.93185165257812 78.99999999999999 10.517638090205057
    vertex 116.73205080756885 83.99999999999999 11.000000000000014
    vertex 116.93185165257812 83.99999999999999 10.517638090205057
  endloop
endfacet
facet normal -0.9914448613738077 -0.0 -0.1305261922200727
  outer loop
    vertex 116.93185165257812 83.99999999999999 10.517638090205057
    vertex 116.99999999999999 78.99999999999999 10.000000000000014
    vertex 116.93185165257812 78.99999999999999 10.517638090205057
  endloop
endfacet
facet normal -0.9914448613738077 -0.0 -0.1305261922200727
  outer loop
    vertex 116.99999999999999 78.99999999999999 10.000000000000014
    vertex 116.93185165257812 83.99999999999999 10.517638090205057
    vertex 116.99999999999999 83.99999999999999 10.000000000000014
  endloop
endfacet
facet normal -0.9914448613738132 -0.0 0.13052619222003092
  outer loop
    vertex 116.99999999999999 83.99999999999999 10.000000000000014
    vertex 116.93185165257813 78.99999999999999 9.482361909794975
    vertex 116.99999999999999 78.99999999999999 10.000000000000014
  endloop
endfacet
facet normal -0.9914448613738132 -0.0 0.13052619222003092
  outer loop
    vertex 116.93185165257813 78.99999999999999 9.482361909794975
    vertex 116.99999999999999 83.99999999999999 10.000000000000014
    vertex 116.93185165257813 83.99999999999999 9.482361909794975
  endloop
endfacet
facet normal -0.6087614290087144 -0.0 0.7933533402912402
  outer loop
    vertex 116.41421356237309 78.99999999999999 8.585786437626922
    vertex 115.99999999999999 83.99999999999999 8.26794919243114
    vertex 115.99999999999999 78.99999999999999 8.26794919243114
  endloop
endfacet
facet normal -0.6087614290087144 -0.0 0.7933533402912402
  outer loop
    vertex 115.99999999999999 83.99999999999999 8.26794919243114
    vertex 116.41421356237309 78.99999999999999 8.585786437626922
    vertex 116.41421356237309 83.99999999999999 8.585786437626922
  endloop
endfacet
facet normal -0.9238795325112747 -0.0 0.382683432365119
  outer loop
    vertex 116.93185165257813 83.99999999999999 9.482361909794975
    vertex 116.73205080756885 78.99999999999999 9.000000000000016
    vertex 116.93185165257813 78.99999999999999 9.482361909794975
  endloop
endfacet
facet normal -0.9238795325112747 -0.0 0.382683432365119
  outer loop
    vertex 116.73205080756885 78.99999999999999 9.000000000000016
    vertex 116.93185165257813 83.99999999999999 9.482361909794975
    vertex 116.73205080756885 83.99999999999999 9.000000000000016
  endloop
endfacet
facet normal -0.38268343236509283 -0.0 0.9238795325112855
  outer loop
    vertex 115.99999999999999 78.99999999999999 8.26794919243114
    vertex 115.51763809020504 83.99999999999999 8.06814834742188
    vertex 115.51763809020504 78.99999999999999 8.06814834742188
  endloop
endfacet
facet normal -0.38268343236509283 -0.0 0.9238795325112855
  outer loop
    vertex 115.51763809020504 83.99999999999999 8.06814834742188
    vertex 115.99999999999999 78.99999999999999 8.26794919243114
    vertex 115.99999999999999 83.99999999999999 8.26794919243114
  endloop
endfacet
facet normal -0.7933533402912477 -0.0 0.6087614290087043
  outer loop
    vertex 116.73205080756885 83.99999999999999 9.000000000000016
    vertex 116.41421356237309 78.99999999999999 8.585786437626922
    vertex 116.73205080756885 78.99999999999999 9.000000000000016
  endloop
endfacet
facet normal -0.7933533402912477 -0.0 0.6087614290087043
  outer loop
    vertex 116.41421356237309 78.99999999999999 8.585786437626922
    vertex 116.73205080756885 83.99999999999999 9.000000000000016
    vertex 116.41421356237309 83.99999999999999 8.585786437626922
  endloop
endfacet
facet normal -0.13052619222005077 -0.0 -0.9914448613738106
  outer loop
    vertex 115.51763809020504 83.99999999999999 11.931851652578146
    vertex 114.99999999999999 78.99999999999999 12.00000000000001
    vertex 114.99999999999999 83.99999999999999 12.00000000000001
  endloop
endfacet
facet normal -0.13052619222005077 -0.0 -0.9914448613738106
  outer loop
    vertex 114.99999999999999 78.99999999999999 12.00000000000001
    vertex 115.51763809020504 83.99999999999999 11.931851652578146
    vertex 115.51763809020504 78.99999999999999 11.931851652578146
  endloop
endfacet
facet normal -0.38268343236509283 -0.0 -0.9238795325112855
  outer loop
    vertex 115.99999999999999 83.99999999999999 11.732050807568887
    vertex 115.51763809020504 78.99999999999999 11.931851652578146
    vertex 115.51763809020504 83.99999999999999 11.931851652578146
  endloop
endfacet
facet normal -0.38268343236509283 -0.0 -0.9238795325112855
  outer loop
    vertex 115.51763809020504 78.99999999999999 11.931851652578146
    vertex 115.99999999999999 83.99999999999999 11.732050807568887
    vertex 115.99999999999999 78.99999999999999 11.732050807568887
  endloop
endfacet
facet normal -0.6087614290087144 -0.0 -0.7933533402912402
  outer loop
    vertex 116.41421356237309 83.99999999999999 11.414213562373106
    vertex 115.99999999999999 78.99999999999999 11.732050807568887
    vertex 115.99999999999999 83.99999999999999 11.732050807568887
  endloop
endfacet
facet normal -0.6087614290087144 -0.0 -0.7933533402912402
  outer loop
    vertex 115.99999999999999 78.99999999999999 11.732050807568887
    vertex 116.41421356237309 83.99999999999999 11.414213562373106
    vertex 116.41421356237309 78.99999999999999 11.414213562373106
  endloop
endfacet
facet normal 1.0 -2.045852502307414e-32 6.896573915051716e-33
  outer loop
    vertex 4.999999999999999 -25.90000000000001 0.0
    vertex 4.999999999999999 -16.8642135623731 8.58578643762692
    vertex 4.999999999999999 -25.90000000000001 20.00000000000003
  endloop
endfacet
facet normal 1.0 -2.045852502307414e-32 6.896573915051716e-33
  outer loop
    vertex 4.999999999999999 -16.8642135623731 8.58578643762692
    vertex 4.999999999999999 -25.90000000000001 0.0
    vertex 4.999999999999999 -16.450000000000003 8.267949192431137
  endloop
endfacet
facet normal 1.0 -2.045852502307414e-32 6.896573915051716e-33
  outer loop
    vertex 4.999999999999999 -16.450000000000003 8.267949192431137
    vertex 4.999999999999999 -25.90000000000001 0.0
    vertex 4.999999999999999 -5.000000000000001 0.0
  endloop
endfacet
facet normal 1.0 -2.045852502307414e-32 6.896573915051716e-33
  outer loop
    vertex 4.999999999999999 -25.90000000000001 20.00000000000003
    vertex 4.999999999999999 -16.8642135623731 8.58578643762692
    vertex 4.999999999999999 -17.18205080756888 9.000000000000014
  endloop
endfacet
facet normal 1.0 -2.045852502307414e-32 6.896573915051716e-33
  outer loop
    vertex 4.999999999999999 -25.90000000000001 20.00000000000003
    vertex 4.999999999999999 -17.18205080756888 9.000000000000014
    vertex 4.999999999999999 -17.381851652578142 9.482361909794973
  endloop
endfacet
facet normal 1.0 -2.045852502307414e-32 6.896573915051716e-33
  outer loop
    vertex 4.999999999999999 -25.90000000000001 20.00000000000003
    vertex 4.999999999999999 -17.381851652578142 9.482361909794973
    vertex 4.999999999999999 -17.450000000000006 10.000000000000014
  endloop
endfacet
facet normal 1.0 -2.045852502307414e-32 6.896573915051716e-33
  outer loop
    vertex 4.999999999999999 -16.450000000000003 8.267949192431137
    vertex 4.999999999999999 -5.000000000000001 0.0
    vertex 4.999999999999999 -15.967638090205046 8.068148347421879
  endloop
endfacet
facet normal 1.0 -2.045852502307414e-32 6.896573915051716e-33
  outer loop
    vertex 4.999999999999999 -15.967638090205046 8.068148347421879
    vertex 4.999999999999999 -5.000000000000001 0.0
    vertex 4.999999999999999 -15.450000000000006 8.000000000000014
  endloop
endfacet
facet normal 1.0 -2.045852502307414e-32 6.896573915051716e-33
  outer loop
    vertex 4.999999999999999 -15.450000000000006 8.000000000000014
    vertex 4.999999999999999 -5.000000000000001 0.0
    vertex 4.999999999999999 -14.932361909794963 8.068148347421879
  endloop
endfacet
facet normal 1.0 -2.045852502307414e-32 6.896573915051716e-33
  outer loop
    vertex 4.999999999999999 -14.932361909794963 8.068148347421879
    vertex 4.999999999999999 -5.000000000000001 0.0
    vertex 4.999999999999999 -14.450000000000005 8.267949192431137
  endloop
endfacet
facet normal 1.0 -2.045852502307414e-32 6.896573915051716e-33
  outer loop
    vertex 4.999999999999999 -14.450000000000005 8.267949192431137
    vertex 4.999999999999999 -5.000000000000001 0.0
    vertex 4.999999999999999 -14.03578643762691 8.58578643762692
  endloop
endfacet
facet normal 1.0 -2.045852502307414e-32 6.896573915051716e-33
  outer loop
    vertex 4.999999999999999 -14.03578643762691 8.58578643762692
    vertex 4.999999999999999 -5.000000000000001 0.0
    vertex 4.999999999999999 -14.008841857086665 8.620901298647532
  endloop
endfacet
facet normal 1.0 -2.045852502307414e-32 6.896573915051716e-33
  outer loop
    vertex 4.999999999999999 -14.008841857086665 8.620901298647532
    vertex 4.999999999999999 -5.000000000000001 0.0
    vertex 4.999999999999999 -13.71794919243113 9.000000000000014
  endloop
endfacet
facet normal 1.0 -2.045852502307414e-32 6.896573915051716e-33
  outer loop
    vertex 4.999999999999999 -13.71794919243113 9.000000000000014
    vertex 4.999999999999999 -5.000000000000001 0.0
    vertex 4.999999999999999 -13.518148347421869 9.482361909794973
  endloop
endfacet
facet normal 1.0 -2.045852502307414e-32 6.896573915051716e-33
  outer loop
    vertex 4.999999999999999 -13.518148347421869 9.482361909794973
    vertex 4.999999999999999 -5.000000000000001 0.0
    vertex 4.999999999999999 -13.450000000000006 10.000000000000014
  endloop
endfacet
facet normal 1.0 -2.045852502307414e-32 6.896573915051716e-33
  outer loop
    vertex 4.999999999999999 -25.90000000000001 20.00000000000003
    vertex 4.999999999999999 -16.450000000000006 11.73205080756889
    vertex 4.999999999999999 -5.000000000000001 20.00000000000003
  endloop
endfacet
facet normal 1.0 -2.045852502307414e-32 6.896573915051716e-33
  outer loop
    vertex 4.999999999999999 -16.450000000000006 11.73205080756889
    vertex 4.999999999999999 -25.90000000000001 20.00000000000003
    vertex 4.999999999999999 -16.864213562373102 11.414213562373108
  endloop
endfacet
facet normal 1.0 -2.045852502307414e-32 6.896573915051716e-33
  outer loop
    vertex 4.999999999999999 -16.864213562373102 11.414213562373108
    vertex 4.999999999999999 -25.90000000000001 20.00000000000003
    vertex 4.999999999999999 -17.182050807568885 11.000000000000014
  endloop
endfacet
facet normal 1.0 -2.045852502307414e-32 6.896573915051716e-33
  outer loop
    vertex 4.999999999999999 -17.182050807568885 11.000000000000014
    vertex 4.999999999999999 -25.90000000000001 20.00000000000003
    vertex 4.999999999999999 -17.381851652578142 10.517638090205054
  endloop
endfacet
facet normal 1.0 -2.045852502307414e-32 6.896573915051716e-33
  outer loop
    vertex 4.999999999999999 -17.381851652578142 10.517638090205054
    vertex 4.999999999999999 -25.90000000000001 20.00000000000003
    vertex 4.999999999999999 -17.450000000000006 10.000000000000014
  endloop
endfacet
facet normal 1.0 -2.045852502307414e-32 6.896573915051716e-33
  outer loop
    vertex 4.999999999999999 -16.864213562373102 11.414213562373108
    vertex 4.999999999999999 -17.182050807568885 11.000000000000014
    vertex 4.999999999999999 -16.891158142913344 11.379098701352495
  endloop
endfacet
facet normal 1.0 -2.045852502307414e-32 6.896573915051716e-33
  outer loop
    vertex 4.999999999999999 -5.000000000000001 20.00000000000003
    vertex 4.999999999999999 -16.450000000000006 11.73205080756889
    vertex 4.999999999999999 -15.967638090205048 11.93185165257815
  endloop
endfacet
facet normal 1.0 -2.045852502307414e-32 6.896573915051716e-33
  outer loop
    vertex 4.999999999999999 -5.000000000000001 20.00000000000003
    vertex 4.999999999999999 -15.967638090205048 11.93185165257815
    vertex 4.999999999999999 -15.450000000000006 12.000000000000012
  endloop
endfacet
facet normal 1.0 -2.045852502307414e-32 6.896573915051716e-33
  outer loop
    vertex 4.999999999999999 -5.000000000000001 20.00000000000003
    vertex 4.999999999999999 -15.450000000000006 12.000000000000012
    vertex 4.999999999999999 -14.932361909794965 11.93185165257815
  endloop
endfacet
facet normal 1.0 -2.045852502307414e-32 6.896573915051716e-33
  outer loop
    vertex 4.999999999999999 -5.000000000000001 20.00000000000003
    vertex 4.999999999999999 -14.932361909794965 11.93185165257815
    vertex 4.999999999999999 -14.450000000000008 11.732050807568891
  endloop
endfacet
facet normal 1.0 -2.045852502307414e-32 6.896573915051716e-33
  outer loop
    vertex 4.999999999999999 -5.000000000000001 20.00000000000003
    vertex 4.999999999999999 -14.450000000000008 11.732050807568891
    vertex 4.999999999999999 -14.035786437626912 11.414213562373108
  endloop
endfacet
facet normal 1.0 -2.045852502307414e-32 6.896573915051716e-33
  outer loop
    vertex 4.999999999999999 -5.000000000000001 20.00000000000003
    vertex 4.999999999999999 -14.035786437626912 11.414213562373108
    vertex 4.999999999999999 -13.71794919243113 11.000000000000014
  endloop
endfacet
facet normal 1.0 -2.045852502307414e-32 6.896573915051716e-33
  outer loop
    vertex 4.999999999999999 -5.000000000000001 20.00000000000003
    vertex 4.999999999999999 -13.71794919243113 11.000000000000014
    vertex 4.999999999999999 -13.518148347421869 10.517638090205057
  endloop
endfacet
facet normal 1.0 -2.045852502307414e-32 6.896573915051716e-33
  outer loop
    vertex 4.999999999999999 -5.000000000000001 20.00000000000003
    vertex 4.999999999999999 -13.518148347421869 10.517638090205057
    vertex 4.999999999999999 -13.450000000000006 10.000000000000014
  endloop
endfacet
facet normal 1.0 -2.045852502307414e-32 6.896573915051716e-33
  outer loop
    vertex 4.999999999999999 -5.000000000000001 20.00000000000003
    vertex 4.999999999999999 -13.450000000000006 10.000000000000014
    vertex 4.999999999999999 -5.000000000000001 0.0
  endloop
endfacet
facet normal 0.0 -1.0 0.0
  outer loop
    vertex 125.0 78.99999999999999 0.0
    vertex 115.99999999999999 78.99999999999999 8.26794919243114
    vertex 104.99999999999999 78.99999999999999 0.0
  endloop
endfacet
facet normal 0.0 -1.0 0.0
  outer loop
    vertex 115.99999999999999 78.99999999999999 8.26794919243114
    vertex 125.0 78.99999999999999 0.0
    vertex 116.41421356237309 78.99999999999999 8.585786437626922
  endloop
endfacet
facet normal 0.0 -1.0 0.0
  outer loop
    vertex 116.41421356237309 78.99999999999999 8.585786437626922
    vertex 125.0 78.99999999999999 0.0
    vertex 116.73205080756885 78.99999999999999 9.000000000000016
  endloop
endfacet
facet normal 0.0 -1.0 0.0
  outer loop
    vertex 116.73205080756885 78.99999999999999 9.000000000000016
    vertex 125.0 78.99999999999999 0.0
    vertex 125.0 78.99999999999999 20.00000000000003
  endloop
endfacet
facet normal 0.0 -1.0 0.0
  outer loop
    vertex 104.99999999999999 78.99999999999999 0.0
    vertex 115.99999999999999 78.99999999999999 8.26794919243114
    vertex 115.51763809020504 78.99999999999999 8.06814834742188
  endloop
endfacet
facet normal 0.0 -1.0 0.0
  outer loop
    vertex 104.99999999999999 78.99999999999999 0.0
    vertex 115.51763809020504 78.99999999999999 8.06814834742188
    vertex 114.99999999999999 78.99999999999999 8.000000000000018
  endloop
endfacet
facet normal 0.0 -1.0 0.0
  outer loop
    vertex 116.73205080756885 78.99999999999999 9.000000000000016
    vertex 125.0 78.99999999999999 20.00000000000003
    vertex 116.93185165257813 78.99999999999999 9.482361909794975
  endloop
endfacet
facet normal 0.0 -1.0 0.0
  outer loop
    vertex 116.93185165257813 78.99999999999999 9.482361909794975
    vertex 125.0 78.99999999999999 20.00000000000003
    vertex 116.99999999999999 78.99999999999999 10.000000000000014
  endloop
endfacet
facet normal 0.0 -1.0 0.0
  outer loop
    vertex 116.99999999999999 78.99999999999999 10.000000000000014
    vertex 125.0 78.99999999999999 20.00000000000003
    vertex 116.93185165257812 78.99999999999999 10.517638090205057
  endloop
endfacet
facet normal 0.0 -1.0 0.0
  outer loop
    vertex 116.93185165257812 78.99999999999999 10.517638090205057
    vertex 125.0 78.99999999999999 20.00000000000003
    vertex 116.73205080756885 78.99999999999999 11.000000000000014
  endloop
endfacet
facet normal 0.0 -1.0 0.0
  outer loop
    vertex 116.73205080756885 78.99999999999999 11.000000000000014
    vertex 125.0 78.99999999999999 20.00000000000003
    vertex 116.41421356237309 78.99999999999999 11.414213562373106
  endloop
endfacet
facet normal 0.0 -1.0 0.0
  outer loop
    vertex 116.41421356237309 78.99999999999999 11.414213562373106
    vertex 125.0 78.99999999999999 20.00000000000003
    vertex 115.99999999999999 78.99999999999999 11.732050807568887
  endloop
endfacet
facet normal 0.0 -1.0 0.0
  outer loop
    vertex 115.99999999999999 78.99999999999999 11.732050807568887
    vertex 125.0 78.99999999999999 20.00000000000003
    vertex 115.51763809020504 78.99999999999999 11.931851652578146
  endloop
endfacet
facet normal 0.0 -1.0 0.0
  outer loop
    vertex 115.51763809020504 78.99999999999999 11.931851652578146
    vertex 125.0 78.99999999999999 20.00000000000003
    vertex 114.99999999999999 78.99999999999999 12.00000000000001
  endloop
endfacet
facet normal 0.0 -1.0 0.0
  outer loop
    vertex 104.99999999999999 78.99999999999999 0.0
    vertex 113.26794919243113 78.99999999999999 9.000000000000014
    vertex 104.99999999999999 78.99999999999999 20.00000000000003
  endloop
endfacet
facet normal 0.0 -1.0 0.0
  outer loop
    vertex 113.26794919243113 78.99999999999999 9.000000000000014
    vertex 104.99999999999999 78.99999999999999 0.0
    vertex 113.5857864376269 78.99999999999999 8.585786437626922
  endloop
endfacet
facet normal 0.0 -1.0 0.0
  outer loop
    vertex 113.5857864376269 78.99999999999999 8.585786437626922
    vertex 104.99999999999999 78.99999999999999 0.0
    vertex 114.0 78.99999999999999 8.26794919243114
  endloop
endfacet
facet normal 0.0 -1.0 0.0
  outer loop
    vertex 114.0 78.99999999999999 8.26794919243114
    vertex 104.99999999999999 78.99999999999999 0.0
    vertex 114.48236190979495 78.99999999999999 8.06814834742188
  endloop
endfacet
facet normal 0.0 -1.0 0.0
  outer loop
    vertex 114.48236190979495 78.99999999999999 8.06814834742188
    vertex 104.99999999999999 78.99999999999999 0.0
    vertex 114.99999999999999 78.99999999999999 8.000000000000018
  endloop
endfacet
facet normal 0.0 -1.0 0.0
  outer loop
    vertex 104.99999999999999 78.99999999999999 20.00000000000003
    vertex 113.26794919243113 78.99999999999999 9.000000000000014
    vertex 113.06814834742185 78.99999999999999 9.482361909794973
  endloop
endfacet
facet normal 0.0 -1.0 0.0
  outer loop
    vertex 104.99999999999999 78.99999999999999 20.00000000000003
    vertex 113.06814834742185 78.99999999999999 9.482361909794973
    vertex 113.0 78.99999999999999 10.000000000000014
  endloop
endfacet
facet normal 0.0 -1.0 0.0
  outer loop
    vertex 104.99999999999999 78.99999999999999 20.00000000000003
    vertex 113.0 78.99999999999999 10.000000000000014
    vertex 113.06814834742185 78.99999999999999 10.517638090205054
  endloop
endfacet
facet normal 0.0 -1.0 0.0
  outer loop
    vertex 104.99999999999999 78.99999999999999 20.00000000000003
    vertex 113.06814834742185 78.99999999999999 10.517638090205054
    vertex 113.26794919243113 78.99999999999999 11.000000000000012
  endloop
endfacet
facet normal 0.0 -1.0 0.0
  outer loop
    vertex 104.99999999999999 78.99999999999999 20.00000000000003
    vertex 113.26794919243113 78.99999999999999 11.000000000000012
    vertex 113.5857864376269 78.99999999999999 11.414213562373106
  endloop
endfacet
facet normal 0.0 -1.0 0.0
  outer loop
    vertex 104.99999999999999 78.99999999999999 20.00000000000003
    vertex 113.5857864376269 78.99999999999999 11.414213562373106
    vertex 114.0 78.99999999999999 11.732050807568887
  endloop
endfacet
facet normal 0.0 -1.0 0.0
  outer loop
    vertex 104.99999999999999 78.99999999999999 20.00000000000003
    vertex 114.0 78.99999999999999 11.732050807568887
    vertex 114.48236190979495 78.99999999999999 11.931851652578146
  endloop
endfacet
facet normal 0.0 -1.0 0.0
  outer loop
    vertex 104.99999999999999 78.99999999999999 20.00000000000003
    vertex 114.48236190979495 78.99999999999999 11.931851652578146
    vertex 114.99999999999999 78.99999999999999 12.00000000000001
  endloop
endfacet
facet normal 0.0 -1.0 0.0
  outer loop
    vertex 104.99999999999999 78.99999999999999 20.00000000000003
    vertex 114.99999999999999 78.99999999999999 12.00000000000001
    vertex 125.0 78.99999999999999 20.00000000000003
  endloop
endfacet
facet normal -1.0 0.0 0.0
  outer loop
    vertex 0.0 -25.90000000000001 20.00000000000003
    vertex -7.049916206369744e-16 -16.864213562373102 11.414213562373108
    vertex 0.0 -25.90000000000001 0.0
  endloop
endfacet
facet normal -1.0 0.0 0.0
  outer loop
    vertex -7.049916206369744e-16 -16.864213562373102 11.414213562373108
    vertex 0.0 -25.90000000000001 20.00000000000003
    vertex -7.049916206369744e-16 -16.450000000000006 11.73205080756889
  endloop
endfacet
facet normal -1.0 0.0 0.0
  outer loop
    vertex -7.049916206369744e-16 -16.450000000000006 11.73205080756889
    vertex 0.0 -25.90000000000001 20.00000000000003
    vertex 0.0 0.0 20.00000000000003
  endloop
endfacet
facet normal -1.0 0.0 0.0
  outer loop
    vertex 0.0 -25.90000000000001 0.0
    vertex -7.049916206369744e-16 -16.864213562373102 11.414213562373108
    vertex -7.049916206369744e-16 -17.182050807568885 11.000000000000014
  endloop
endfacet
facet normal -1.0 0.0 0.0
  outer loop
    vertex 0.0 -25.90000000000001 0.0
    vertex -7.049916206369744e-16 -17.182050807568885 11.000000000000014
    vertex -7.049916206369744e-16 -17.381851652578142 10.517638090205054
  endloop
endfacet
facet normal -1.0 0.0 0.0
  outer loop
    vertex 0.0 -25.90000000000001 0.0
    vertex -7.049916206369744e-16 -17.381851652578142 10.517638090205054
    vertex -7.049916206369744e-16 -17.450000000000006 10.000000000000014
  endloop
endfacet
facet normal -1.0 0.0 0.0
  outer loop
    vertex -7.049916206369744e-16 -17.182050807568885 11.000000000000014
    vertex -7.049916206369744e-16 -16.864213562373102 11.414213562373108
    vertex -7.049916206369744e-16 -16.891158142913344 11.379098701352495
  endloop
endfacet
facet normal -1.0 0.0 0.0
  outer loop
    vertex -7.049916206369744e-16 -16.450000000000006 11.73205080756889
    vertex 0.0 0.0 20.00000000000003
    vertex -7.049916206369744e-16 -15.967638090205048 11.93185165257815
  endloop
endfacet
facet normal -1.0 0.0 0.0
  outer loop
    vertex -7.049916206369744e-16 -15.967638090205048 11.93185165257815
    vertex 0.0 0.0 20.00000000000003
    vertex -7.049916206369744e-16 -15.450000000000006 12.000000000000012
  endloop
endfacet
facet normal -1.0 0.0 0.0
  outer loop
    vertex -7.049916206369744e-16 -15.450000000000006 12.000000000000012
    vertex 0.0 0.0 20.00000000000003
    vertex -7.049916206369744e-16 -14.932361909794965 11.93185165257815
  endloop
endfacet
facet normal -1.0 0.0 0.0
  outer loop
    vertex -7.049916206369744e-16 -14.932361909794965 11.93185165257815
    vertex 0.0 0.0 20.00000000000003
    vertex -7.049916206369744e-16 -14.450000000000008 11.732050807568891
  endloop
endfacet
facet normal -1.0 0.0 0.0
  outer loop
    vertex -7.049916206369744e-16 -14.450000000000008 11.732050807568891
    vertex 0.0 0.0 20.00000000000003
    vertex -7.049916206369744e-16 -14.035786437626912 11.414213562373108
  endloop
endfacet
facet normal -1.0 0.0 0.0
  outer loop
    vertex -7.049916206369744e-16 -14.035786437626912 11.414213562373108
    vertex 0.0 0.0 20.00000000000003
    vertex -7.049916206369744e-16 -13.71794919243113 11.000000000000014
  endloop
endfacet
facet normal -1.0 0.0 0.0
  outer loop
    vertex -7.049916206369744e-16 -13.71794919243113 11.000000000000014
    vertex 0.0 0.0 20.00000000000003
    vertex -7.049916206369744e-16 -13.518148347421869 10.517638090205057
  endloop
endfacet
facet normal -1.0 0.0 0.0
  outer loop
    vertex -7.049916206369744e-16 -13.518148347421869 10.517638090205057
    vertex 0.0 0.0 20.00000000000003
    vertex -7.049916206369744e-16 -13.450000000000006 10.000000000000014
  endloop
endfacet
facet normal -1.0 0.0 0.0
  outer loop
    vertex 0.0 -25.90000000000001 0.0
    vertex -7.049916206369744e-16 -16.450000000000003 8.267949192431137
    vertex 0.0 0.0 0.0
  endloop
endfacet
facet normal -1.0 0.0 0.0
  outer loop
    vertex -7.049916206369744e-16 -16.450000000000003 8.267949192431137
    vertex 0.0 -25.90000000000001 0.0
    vertex -7.049916206369744e-16 -16.8642135623731 8.58578643762692
  endloop
endfacet
facet normal -1.0 0.0 0.0
  outer loop
    vertex -7.049916206369744e-16 -16.8642135623731 8.58578643762692
    vertex 0.0 -25.90000000000001 0.0
    vertex -7.049916206369744e-16 -17.18205080756888 9.000000000000014
  endloop
endfacet
facet normal -1.0 0.0 0.0
  outer loop
    vertex -7.049916206369744e-16 -17.18205080756888 9.000000000000014
    vertex 0.0 -25.90000000000001 0.0
    vertex -7.049916206369744e-16 -17.381851652578142 9.482361909794973
  endloop
endfacet
facet normal -1.0 0.0 0.0
  outer loop
    vertex -7.049916206369744e-16 -17.381851652578142 9.482361909794973
    vertex 0.0 -25.90000000000001 0.0
    vertex -7.049916206369744e-16 -17.450000000000006 10.000000000000014
  endloop
endfacet
facet normal -1.0 0.0 0.0
  outer loop
    vertex 0.0 0.0 0.0
    vertex -7.049916206369744e-16 -16.450000000000003 8.267949192431137
    vertex -7.049916206369744e-16 -15.967638090205046 8.068148347421879
  endloop
endfacet
facet normal -1.0 0.0 0.0
  outer loop
    vertex 0.0 0.0 0.0
    vertex -7.049916206369744e-16 -15.967638090205046 8.068148347421879
    vertex -7.049916206369744e-16 -15.450000000000006 8.000000000000014
  endloop
endfacet
facet normal -1.0 0.0 0.0
  outer loop
    vertex 0.0 0.0 0.0
    vertex -7.049916206369744e-16 -15.450000000000006 8.000000000000014
    vertex -7.049916206369744e-16 -14.932361909794963 8.068148347421879
  endloop
endfacet
facet normal -1.0 0.0 0.0
  outer loop
    vertex 0.0 0.0 0.0
    vertex -7.049916206369744e-16 -14.932361909794963 8.068148347421879
    vertex -7.049916206369744e-16 -14.450000000000005 8.267949192431137
  endloop
endfacet
facet normal -1.0 0.0 0.0
  outer loop
    vertex 0.0 0.0 0.0
    vertex -7.049916206369744e-16 -14.450000000000005 8.267949192431137
    vertex -7.049916206369744e-16 -14.03578643762691 8.58578643762692
  endloop
endfacet
facet normal -1.0 0.0 0.0
  outer loop
    vertex 0.0 0.0 0.0
    vertex -7.049916206369744e-16 -14.03578643762691 8.58578643762692
    vertex -7.049916206369744e-16 -14.008841857086665 8.620901298647532
  endloop
endfacet
facet normal -1.0 0.0 0.0
  outer loop
    vertex 0.0 0.0 0.0
    vertex -7.049916206369744e-16 -14.008841857086665 8.620901298647532
    vertex -7.049916206369744e-16 -13.71794919243113 9.000000000000014
  endloop
endfacet
facet normal -1.0 0.0 0.0
  outer loop
    vertex 0.0 0.0 0.0
    vertex -7.049916206369744e-16 -13.71794919243113 9.000000000000014
    vertex -7.049916206369744e-16 -13.518148347421869 9.482361909794973
  endloop
endfacet
facet normal -1.0 0.0 0.0
  outer loop
    vertex 0.0 0.0 0.0
    vertex -7.049916206369744e-16 -13.518148347421869 9.482361909794973
    vertex -7.049916206369744e-16 -13.450000000000006 10.000000000000014
  endloop
endfacet
facet normal -1.0 0.0 0.0
  outer loop
    vertex 0.0 0.0 0.0
    vertex -7.049916206369744e-16 -13.450000000000006 10.000000000000014
    vertex 0.0 0.0 20.00000000000003
  endloop
endfacet
facet normal -0.0 1.0 0.0
  outer loop
    vertex 0.0 0.0 20.00000000000003
    vertex 100.00000000000001 0.0 0.0
    vertex 0.0 0.0 0.0
  endloop
endfacet
facet normal -0.0 1.0 0.0
  outer loop
    vertex 100.00000000000001 0.0 0.0
    vertex 0.0 0.0 20.00000000000003
    vertex 100.00000000000001 0.0 20.00000000000003
  endloop
endfacet
facet normal 0.0 -1.0 0.0
  outer loop
    vertex 4.999999999999999 -25.90000000000001 20.00000000000003
    vertex 0.0 -25.90000000000001 0.0
    vertex 4.999999999999999 -25.90000000000001 0.0
  endloop
endfacet
facet normal 0.0 -1.0 0.0
  outer loop
    vertex 0.0 -25.90000000000001 0.0
    vertex 4.999999999999999 -25.90000000000001 20.00000000000003
    vertex 0.0 -25.90000000000001 20.00000000000003
  endloop
endfacet
facet normal 5.874930171974786e-18 -1.0 0.0
  outer loop
    vertex 104.99999999999999 -5.0 20.00000000000003
    vertex 4.999999999999999 -5.000000000000001 0.0
    vertex 104.99999999999999 -5.0 0.0
  endloop
endfacet
facet normal 5.874930171974786e-18 -1.0 0.0
  outer loop
    vertex 4.999999999999999 -5.000000000000001 0.0
    vertex 104.99999999999999 -5.0 20.00000000000003
    vertex 4.999999999999999 -5.000000000000001 20.00000000000003
  endloop
endfacet
facet normal 0.6087614290087162 -0.0 -0.7933533402912388
  outer loop
    vertex 114.0 83.99999999999999 11.732050807568887
    vertex 113.5857864376269 78.99999999999999 11.414213562373106
    vertex 113.5857864376269 83.99999999999999 11.414213562373106
  endloop
endfacet
facet normal 0.6087614290087162 -0.0 -0.7933533402912388
  outer loop
    vertex 113.5857864376269 78.99999999999999 11.414213562373106
    vertex 114.0 83.99999999999999 11.732050807568887
    vertex 114.0 78.99999999999999 11.732050807568887
  endloop
endfacet
facet normal 0.7933533402912467 -0.0 -0.6087614290087057
  outer loop
    vertex 113.26794919243113 83.99999999999999 11.000000000000012
    vertex 113.5857864376269 78.99999999999999 11.414213562373106
    vertex 113.26794919243113 78.99999999999999 11.000000000000012
  endloop
endfacet
facet normal 0.7933533402912467 -0.0 -0.6087614290087057
  outer loop
    vertex 113.5857864376269 78.99999999999999 11.414213562373106
    vertex 113.26794919243113 83.99999999999999 11.000000000000012
    vertex 113.5857864376269 83.99999999999999 11.414213562373106
  endloop
endfacet
facet normal 0.9238795325112747 -0.0 -0.382683432365119
  outer loop
    vertex 113.06814834742185 83.99999999999999 10.517638090205054
    vertex 113.26794919243113 78.99999999999999 11.000000000000012
    vertex 113.06814834742185 78.99999999999999 10.517638090205054
  endloop
endfacet
facet normal 0.9238795325112747 -0.0 -0.382683432365119
  outer loop
    vertex 113.26794919243113 78.99999999999999 11.000000000000012
    vertex 113.06814834742185 83.99999999999999 10.517638090205054
    vertex 113.26794919243113 83.99999999999999 11.000000000000012
  endloop
endfacet
facet normal 0.9914448613738132 -0.0 -0.13052619222003092
  outer loop
    vertex 113.0 83.99999999999999 10.000000000000014
    vertex 113.06814834742185 78.99999999999999 10.517638090205054
    vertex 113.0 78.99999999999999 10.000000000000014
  endloop
endfacet
facet normal 0.9914448613738132 -0.0 -0.13052619222003092
  outer loop
    vertex 113.06814834742185 78.99999999999999 10.517638090205054
    vertex 113.0 83.99999999999999 10.000000000000014
    vertex 113.06814834742185 83.99999999999999 10.517638090205054
  endloop
endfacet
facet normal 0.9914448613738133 0.0 0.13052619222003056
  outer loop
    vertex 113.06814834742185 83.99999999999999 9.482361909794973
    vertex 113.0 78.99999999999999 10.000000000000014
    vertex 113.06814834742185 78.99999999999999 9.482361909794973
  endloop
endfacet
facet normal 0.9914448613738133 0.0 0.13052619222003056
  outer loop
    vertex 113.0 78.99999999999999 10.000000000000014
    vertex 113.06814834742185 83.99999999999999 9.482361909794973
    vertex 113.0 83.99999999999999 10.000000000000014
  endloop
endfacet
facet normal 1.0 -0.0 -0.0
  outer loop
    vertex 104.99999999999999 78.99999999999999 0.0
    vertex 104.99999999999999 -5.0 20.00000000000003
    vertex 104.99999999999999 -5.0 0.0
  endloop
endfacet
facet normal 1.0 -0.0 -0.0
  outer loop
    vertex 104.99999999999999 -5.0 20.00000000000003
    vertex 104.99999999999999 78.99999999999999 0.0
    vertex 104.99999999999999 78.99999999999999 20.00000000000003
  endloop
endfacet
facet normal -0.0 -0.0 1.0
  outer loop
    vertex 4.999999999999999 -25.90000000000001 20.00000000000003
    vertex 0.0 0.0 20.00000000000003
    vertex 0.0 -25.90000000000001 20.00000000000003
  endloop
endfacet
facet normal -0.0 -0.0 1.0
  outer loop
    vertex 0.0 0.0 20.00000000000003
    vertex 4.999999999999999 -25.90000000000001 20.00000000000003
    vertex 4.999999999999999 -5.000000000000001 20.00000000000003
  endloop
endfacet
facet normal -0.0 -0.0 1.0
  outer loop
    vertex 0.0 0.0 20.00000000000003
    vertex 4.999999999999999 -5.000000000000001 20.00000000000003
    vertex 100.00000000000001 0.0 20.00000000000003
  endloop
endfacet
facet normal -0.0 -0.0 1.0
  outer loop
    vertex 100.00000000000001 0.0 20.00000000000003
    vertex 4.999999999999999 -5.000000000000001 20.00000000000003
    vertex 104.99999999999999 -5.0 20.00000000000003
  endloop
endfacet
facet normal -0.0 -0.0 1.0
  outer loop
    vertex 100.00000000000001 0.0 20.00000000000003
    vertex 104.99999999999999 -5.0 20.00000000000003
    vertex 100.00000000000001 83.99999999999999 20.00000000000003
  endloop
endfacet
facet normal -0.0 -0.0 1.0
  outer loop
    vertex 100.00000000000001 83.99999999999999 20.00000000000003
    vertex 104.99999999999999 -5.0 20.00000000000003
    vertex 104.99999999999999 78.99999999999999 20.00000000000003
  endloop
endfacet
facet normal -0.0 -0.0 1.0
  outer loop
    vertex 100.00000000000001 83.99999999999999 20.00000000000003
    vertex 104.99999999999999 78.99999999999999 20.00000000000003
    vertex 125.0 83.99999999999999 20.00000000000003
  endloop
endfacet
facet normal -0.0 -0.0 1.0
  outer loop
    vertex 125.0 83.99999999999999 20.00000000000003
    vertex 104.99999999999999 78.99999999999999 20.00000000000003
    vertex 125.0 78.99999999999999 20.00000000000003
  endloop
endfacet
facet normal 1.0 0.0 0.0
  outer loop
    vertex 125.0 83.99999999999999 0.0
    vertex 125.0 78.99999999999999 20.00000000000003
    vertex 125.0 78.99999999999999 0.0
  endloop
endfacet
facet normal 1.0 0.0 0.0
  outer loop
    vertex 125.0 78.99999999999999 20.00000000000003
    vertex 125.0 83.99999999999999 0.0
    vertex 125.0 83.99999999999999 20.00000000000003
  endloop
endfacet
facet normal 0.38268343236509283 -0.0 -0.9238795325112855
  outer loop
    vertex 114.48236190979495 83.99999999999999 11.931851652578146
    vertex 114.0 78.99999999999999 11.732050807568887
    vertex 114.0 83.99999999999999 11.732050807568887
  endloop
endfacet
facet normal 0.38268343236509283 -0.0 -0.9238795325112855
  outer loop
    vertex 114.0 78.99999999999999 11.732050807568887
    vertex 114.48236190979495 83.99999999999999 11.931851652578146
    vertex 114.48236190979495 78.99999999999999 11.931851652578146
  endloop
endfacet
facet normal -1.8036200573749403e-18 4.390932568968508e-18 -1.0
  outer loop
    vertex 100.00000000000001 83.99999999999999 1.4099832412739487e-15
    vertex 104.99999999999999 78.99999999999999 0.0
    vertex 100.00000000000001 0.0 0.0
  endloop
endfacet
facet normal -1.8036200573749403e-18 4.390932568968508e-18 -1.0
  outer loop
    vertex 104.99999999999999 78.99999999999999 0.0
    vertex 100.00000000000001 83.99999999999999 1.4099832412739487e-15
    vertex 125.0 83.99999999999999 0.0
  endloop
endfacet
facet normal -1.8036200573749403e-18 4.390932568968508e-18 -1.0
  outer loop
    vertex 104.99999999999999 78.99999999999999 0.0
    vertex 125.0 83.99999999999999 0.0
    vertex 125.0 78.99999999999999 0.0
  endloop
endfacet
facet normal -1.8036200573749403e-18 4.390932568968508e-18 -1.0
  outer loop
    vertex 0.0 0.0 0.0
    vertex 4.999999999999999 -5.000000000000001 0.0
    vertex 0.0 -25.90000000000001 0.0
  endloop
endfacet
facet normal -1.8036200573749403e-18 4.390932568968508e-18 -1.0
  outer loop
    vertex 4.999999999999999 -5.000000000000001 0.0
    vertex 0.0 0.0 0.0
    vertex 100.00000000000001 0.0 0.0
  endloop
endfacet
facet normal -1.8036200573749403e-18 4.390932568968508e-18 -1.0
  outer loop
    vertex 4.999999999999999 -5.000000000000001 0.0
    vertex 100.00000000000001 0.0 0.0
    vertex 104.99999999999999 -5.0 0.0
  endloop
endfacet
facet normal -1.8036200573749403e-18 4.390932568968508e-18 -1.0
  outer loop
    vertex 104.99999999999999 -5.0 0.0
    vertex 100.00000000000001 0.0 0.0
    vertex 104.99999999999999 78.99999999999999 0.0
  endloop
endfacet
facet normal -1.8036200573749403e-18 4.390932568968508e-18 -1.0
  outer loop
    vertex 4.999999999999999 -25.90000000000001 0.0
    vertex 0.0 -25.90000000000001 0.0
    vertex 4.999999999999999 -5.000000000000001 0.0
  endloop
endfacet
facet normal 0.0 1.0 0.0
  outer loop
    vertex 100.00000000000001 83.99999999999999 1.4099832412739487e-15
    vertex 114.48236190979495 83.99999999999999 8.06814834742188
    vertex 114.99999999999999 83.99999999999999 8.000000000000018
  endloop
endfacet
facet normal 0.0 1.0 0.0
  outer loop
    vertex 114.48236190979495 83.99999999999999 8.06814834742188
    vertex 100.00000000000001 83.99999999999999 1.4099832412739487e-15
    vertex 114.0 83.99999999999999 8.26794919243114
  endloop
endfacet
facet normal 0.0 1.0 0.0
  outer loop
    vertex 114.0 83.99999999999999 8.26794919243114
    vertex 100.00000000000001 83.99999999999999 1.4099832412739487e-15
    vertex 113.5857864376269 83.99999999999999 8.585786437626922
  endloop
endfacet
facet normal 0.0 1.0 0.0
  outer loop
    vertex 113.5857864376269 83.99999999999999 8.585786437626922
    vertex 100.00000000000001 83.99999999999999 1.4099832412739487e-15
    vertex 100.00000000000001 83.99999999999999 20.00000000000003
  endloop
endfacet
facet normal 0.0 1.0 0.0
  outer loop
    vertex 113.5857864376269 83.99999999999999 8.585786437626922
    vertex 100.00000000000001 83.99999999999999 20.00000000000003
    vertex 113.26794919243113 83.99999999999999 9.000000000000014
  endloop
endfacet
facet normal 0.0 1.0 0.0
  outer loop
    vertex 113.26794919243113 83.99999999999999 9.000000000000014
    vertex 100.00000000000001 83.99999999999999 20.00000000000003
    vertex 113.06814834742185 83.99999999999999 9.482361909794973
  endloop
endfacet
facet normal 0.0 1.0 0.0
  outer loop
    vertex 113.06814834742185 83.99999999999999 9.482361909794973
    vertex 100.00000000000001 83.99999999999999 20.00000000000003
    vertex 113.0 83.99999999999999 10.000000000000014
  endloop
endfacet
facet normal 0.0 1.0 0.0
  outer loop
    vertex 113.0 83.99999999999999 10.000000000000014
    vertex 100.00000000000001 83.99999999999999 20.00000000000003
    vertex 113.06814834742185 83.99999999999999 10.517638090205054
  endloop
endfacet
facet normal 0.0 1.0 0.0
  outer loop
    vertex 113.06814834742185 83.99999999999999 10.517638090205054
    vertex 100.00000000000001 83.99999999999999 20.00000000000003
    vertex 113.26794919243113 83.99999999999999 11.000000000000012
  endloop
endfacet
facet normal 0.0 1.0 0.0
  outer loop
    vertex 113.26794919243113 83.99999999999999 11.000000000000012
    vertex 100.00000000000001 83.99999999999999 20.00000000000003
    vertex 113.5857864376269 83.99999999999999 11.414213562373106
  endloop
endfacet
facet normal 0.0 1.0 0.0
  outer loop
    vertex 113.5857864376269 83.99999999999999 11.414213562373106
    vertex 100.00000000000001 83.99999999999999 20.00000000000003
    vertex 114.0 83.99999999999999 11.732050807568887
  endloop
endfacet
facet normal 0.0 1.0 0.0
  outer loop
    vertex 114.0 83.99999999999999 11.732050807568887
    vertex 100.00000000000001 83.99999999999999 20.00000000000003
    vertex 114.48236190979495 83.99999999999999 11.931851652578146
  endloop
endfacet
facet normal 0.0 1.0 0.0
  outer loop
    vertex 114.48236190979495 83.99999999999999 11.931851652578146
    vertex 100.00000000000001 83.99999999999999 20.00000000000003
    vertex 114.99999999999999 83.99999999999999 12.00000000000001
  endloop
endfacet
facet normal 0.0 1.0 0.0
  outer loop
    vertex 125.0 83.99999999999999 0.0
    vertex 116.73205080756885 83.99999999999999 9.000000000000016
    vertex 125.0 83.99999999999999 20.00000000000003
  endloop
endfacet
facet normal 0.0 1.0 0.0
  outer loop
    vertex 116.73205080756885 83.99999999999999 9.000000000000016
    vertex 125.0 83.99999999999999 0.0
    vertex 116.41421356237309 83.99999999999999 8.585786437626922
  endloop
endfacet
facet normal 0.0 1.0 0.0
  outer loop
    vertex 116.41421356237309 83.99999999999999 8.585786437626922
    vertex 125.0 83.99999999999999 0.0
    vertex 115.99999999999999 83.99999999999999 8.26794919243114
  endloop
endfacet
facet normal 0.0 1.0 0.0
  outer loop
    vertex 115.99999999999999 83.99999999999999 8.26794919243114
    vertex 125.0 83.99999999999999 0.0
    vertex 100.00000000000001 83.99999999999999 1.4099832412739487e-15
  endloop
endfacet
facet normal 0.0 1.0 0.0
  outer loop
    vertex 115.99999999999999 83.99999999999999 8.26794919243114
    vertex 100.00000000000001 83.99999999999999 1.4099832412739487e-15
    vertex 115.51763809020504 83.99999999999999 8.06814834742188
  endloop
endfacet
facet normal 0.0 1.0 0.0
  outer loop
    vertex 115.51763809020504 83.99999999999999 8.06814834742188
    vertex 100.00000000000001 83.99999999999999 1.4099832412739487e-15
    vertex 114.99999999999999 83.99999999999999 8.000000000000018
  endloop
endfacet
facet normal 0.0 1.0 0.0
  outer loop
    vertex 125.0 83.99999999999999 20.00000000000003
    vertex 116.73205080756885 83.99999999999999 9.000000000000016
    vertex 116.93185165257813 83.99999999999999 9.482361909794975
  endloop
endfacet
facet normal 0.0 1.0 0.0
  outer loop
    vertex 125.0 83.99999999999999 20.00000000000003
    vertex 116.93185165257813 83.99999999999999 9.482361909794975
    vertex 116.99999999999999 83.99999999999999 10.000000000000014
  endloop
endfacet
facet normal 0.0 1.0 0.0
  outer loop
    vertex 125.0 83.99999999999999 20.00000000000003
    vertex 116.99999999999999 83.99999999999999 10.000000000000014
    vertex 116.93185165257812 83.99999999999999 10.517638090205057
  endloop
endfacet
facet normal 0.0 1.0 0.0
  outer loop
    vertex 125.0 83.99999999999999 20.00000000000003
    vertex 116.93185165257812 83.99999999999999 10.517638090205057
    vertex 116.73205080756885 83.99999999999999 11.000000000000014
  endloop
endfacet
facet normal 0.0 1.0 0.0
  outer loop
    vertex 125.0 83.99999999999999 20.00000000000003
    vertex 116.73205080756885 83.99999999999999 11.000000000000014
    vertex 116.41421356237309 83.99999999999999 11.414213562373106
  endloop
endfacet
facet normal 0.0 1.0 0.0
  outer loop
    vertex 125.0 83.99999999999999 20.00000000000003
    vertex 116.41421356237309 83.99999999999999 11.414213562373106
    vertex 115.99999999999999 83.99999999999999 11.732050807568887
  endloop
endfacet
facet normal 0.0 1.0 0.0
  outer loop
    vertex 125.0 83.99999999999999 20.00000000000003
    vertex 115.99999999999999 83.99999999999999 11.732050807568887
    vertex 115.51763809020504 83.99999999999999 11.931851652578146
  endloop
endfacet
facet normal 0.0 1.0 0.0
  outer loop
    vertex 125.0 83.99999999999999 20.00000000000003
    vertex 115.51763809020504 83.99999999999999 11.931851652578146
    vertex 114.99999999999999 83.99999999999999 12.00000000000001
  endloop
endfacet
facet normal 0.0 1.0 0.0
  outer loop
    vertex 125.0 83.99999999999999 20.00000000000003
    vertex 114.99999999999999 83.99999999999999 12.00000000000001
    vertex 100.00000000000001 83.99999999999999 20.00000000000003
  endloop
endfacet
facet normal -1.0 0.0 0.0
  outer loop
    vertex 100.00000000000001 83.99999999999999 20.00000000000003
    vertex 100.00000000000001 0.0 0.0
    vertex 100.00000000000001 0.0 20.00000000000003
  endloop
endfacet
facet normal -1.0 0.0 0.0
  outer loop
    vertex 100.00000000000001 0.0 0.0
    vertex 100.00000000000001 83.99999999999999 20.00000000000003
    vertex 100.00000000000001 83.99999999999999 1.4099832412739487e-15
  endloop
endfacet
endsolid Bill-Accepter-retention-arm
