solid screen
facet normal 0.0 0.0 1.0
  outer loop
    vertex 135.0 0.0 25.0
    vertex 4.511946372076636e-14 170.0 25.0
    vertex 4.511946372076636e-14 0.0 25.0
  endloop
endfacet
facet normal 0.0 0.0 1.0
  outer loop
    vertex 4.511946372076636e-14 170.0 25.0
    vertex 135.0 0.0 25.0
    vertex 135.0 170.0 25.0
  endloop
endfacet
facet normal -0.0 1.0 -0.0
  outer loop
    vertex 4.511946372076636e-14 170.0 25.0
    vertex 135.0 170.0 0.0
    vertex 0.0 170.0 0.0
  endloop
endfacet
facet normal -0.0 1.0 -0.0
  outer loop
    vertex 135.0 170.0 0.0
    vertex 4.511946372076636e-14 170.0 25.0
    vertex 135.0 170.0 25.0
  endloop
endfacet
facet normal -1.0 0.0 1.804778548830654e-15
  outer loop
    vertex 4.511946372076636e-14 170.0 25.0
    vertex 0.0 0.0 0.0
    vertex 4.511946372076636e-14 0.0 25.0
  endloop
endfacet
facet normal -1.0 0.0 1.804778548830654e-15
  outer loop
    vertex 0.0 0.0 0.0
    vertex 4.511946372076636e-14 170.0 25.0
    vertex 0.0 170.0 0.0
  endloop
endfacet
facet normal 0.0 -1.0 0.0
  outer loop
    vertex 135.0 0.0 25.0
    vertex 0.0 0.0 0.0
    vertex 135.0 0.0 0.0
  endloop
endfacet
facet normal 0.0 -1.0 0.0
  outer loop
    vertex 0.0 0.0 0.0
    vertex 135.0 0.0 25.0
    vertex 4.511946372076636e-14 0.0 25.0
  endloop
endfacet
facet normal 1.0 -0.0 -0.0
  outer loop
    vertex 135.0 170.0 0.0
    vertex 135.0 0.0 25.0
    vertex 135.0 0.0 0.0
  endloop
endfacet
facet normal 1.0 -0.0 -0.0
  outer loop
    vertex 135.0 0.0 25.0
    vertex 135.0 170.0 0.0
    vertex 135.0 170.0 25.0
  endloop
endfacet
endsolid screen
