solid Screen Retention Arm
facet normal 0.9238795325112747 -0.0 -0.382683432365119
  outer loop
    vertex 183.06814834742187 37.90000000000001 10.517638090205054
    vertex 183.26794919243113 32.900000000000006 11.000000000000012
    vertex 183.06814834742187 32.900000000000006 10.517638090205054
  endloop
endfacet
facet normal 0.9238795325112747 -0.0 -0.382683432365119
  outer loop
    vertex 183.26794919243113 32.900000000000006 11.000000000000012
    vertex 183.06814834742187 37.90000000000001 10.517638090205054
    vertex 183.26794919243113 37.90000000000001 11.000000000000012
  endloop
endfacet
facet normal 0.9914448613738132 -0.0 -0.13052619222003092
  outer loop
    vertex 183.0 37.90000000000001 10.000000000000014
    vertex 183.06814834742187 32.900000000000006 10.517638090205054
    vertex 183.0 32.900000000000006 10.000000000000014
  endloop
endfacet
facet normal 0.9914448613738132 -0.0 -0.13052619222003092
  outer loop
    vertex 183.06814834742187 32.900000000000006 10.517638090205054
    vertex 183.0 37.90000000000001 10.000000000000014
    vertex 183.06814834742187 37.90000000000001 10.517638090205054
  endloop
endfacet
facet normal 0.9914448613738133 0.0 0.13052619222003056
  outer loop
    vertex 183.06814834742187 37.90000000000001 9.482361909794973
    vertex 183.0 32.900000000000006 10.000000000000014
    vertex 183.06814834742187 32.900000000000006 9.482361909794973
  endloop
endfacet
facet normal 0.9914448613738133 0.0 0.13052619222003056
  outer loop
    vertex 183.0 32.900000000000006 10.000000000000014
    vertex 183.06814834742187 37.90000000000001 9.482361909794973
    vertex 183.0 37.90000000000001 10.000000000000014
  endloop
endfacet
facet normal 0.9238795325112747 0.0 0.382683432365119
  outer loop
    vertex 183.26794919243113 37.90000000000001 9.000000000000014
    vertex 183.06814834742187 32.900000000000006 9.482361909794973
    vertex 183.26794919243113 32.900000000000006 9.000000000000014
  endloop
endfacet
facet normal 0.9238795325112747 0.0 0.382683432365119
  outer loop
    vertex 183.06814834742187 32.900000000000006 9.482361909794973
    vertex 183.26794919243113 37.90000000000001 9.000000000000014
    vertex 183.06814834742187 37.90000000000001 9.482361909794973
  endloop
endfacet
facet normal 0.7933533402912467 0.0 0.6087614290087057
  outer loop
    vertex 183.5857864376269 37.90000000000001 8.585786437626922
    vertex 183.26794919243113 32.900000000000006 9.000000000000014
    vertex 183.5857864376269 32.900000000000006 8.585786437626922
  endloop
endfacet
facet normal 0.7933533402912467 0.0 0.6087614290087057
  outer loop
    vertex 183.26794919243113 32.900000000000006 9.000000000000014
    vertex 183.5857864376269 37.90000000000001 8.585786437626922
    vertex 183.26794919243113 37.90000000000001 9.000000000000014
  endloop
endfacet
facet normal 0.6087614290087143 0.0 0.7933533402912399
  outer loop
    vertex 184.0 32.900000000000006 8.26794919243114
    vertex 183.5857864376269 37.90000000000001 8.585786437626922
    vertex 183.5857864376269 32.900000000000006 8.585786437626922
  endloop
endfacet
facet normal 0.6087614290087143 0.0 0.7933533402912399
  outer loop
    vertex 183.5857864376269 37.90000000000001 8.585786437626922
    vertex 184.0 32.900000000000006 8.26794919243114
    vertex 184.0 37.90000000000001 8.26794919243114
  endloop
endfacet
facet normal 0.38268343236509283 0.0 0.9238795325112855
  outer loop
    vertex 184.48236190979495 32.900000000000006 8.06814834742188
    vertex 184.0 37.90000000000001 8.26794919243114
    vertex 184.0 32.900000000000006 8.26794919243114
  endloop
endfacet
facet normal 0.38268343236509283 0.0 0.9238795325112855
  outer loop
    vertex 184.0 37.90000000000001 8.26794919243114
    vertex 184.48236190979495 32.900000000000006 8.06814834742188
    vertex 184.48236190979495 37.90000000000001 8.06814834742188
  endloop
endfacet
facet normal 0.13052619222005077 0.0 0.9914448613738106
  outer loop
    vertex 185.0 32.900000000000006 8.000000000000018
    vertex 184.48236190979495 37.90000000000001 8.06814834742188
    vertex 184.48236190979495 32.900000000000006 8.06814834742188
  endloop
endfacet
facet normal 0.13052619222005077 0.0 0.9914448613738106
  outer loop
    vertex 184.48236190979495 37.90000000000001 8.06814834742188
    vertex 185.0 32.900000000000006 8.000000000000018
    vertex 185.0 37.90000000000001 8.000000000000018
  endloop
endfacet
facet normal -0.13052619222005077 -0.0 0.9914448613738106
  outer loop
    vertex 185.51763809020505 32.900000000000006 8.06814834742188
    vertex 185.0 37.90000000000001 8.000000000000018
    vertex 185.0 32.900000000000006 8.000000000000018
  endloop
endfacet
facet normal -0.13052619222005077 -0.0 0.9914448613738106
  outer loop
    vertex 185.0 37.90000000000001 8.000000000000018
    vertex 185.51763809020505 32.900000000000006 8.06814834742188
    vertex 185.51763809020505 37.90000000000001 8.06814834742188
  endloop
endfacet
facet normal -0.38268343236509283 -0.0 0.9238795325112855
  outer loop
    vertex 186.0 32.900000000000006 8.26794919243114
    vertex 185.51763809020505 37.90000000000001 8.06814834742188
    vertex 185.51763809020505 32.900000000000006 8.06814834742188
  endloop
endfacet
facet normal -0.38268343236509283 -0.0 0.9238795325112855
  outer loop
    vertex 185.51763809020505 37.90000000000001 8.06814834742188
    vertex 186.0 32.900000000000006 8.26794919243114
    vertex 186.0 37.90000000000001 8.26794919243114
  endloop
endfacet
facet normal 0.38268343236509283 -0.0 -0.9238795325112855
  outer loop
    vertex 184.48236190979495 37.90000000000001 11.931851652578146
    vertex 184.0 32.900000000000006 11.732050807568887
    vertex 184.0 37.90000000000001 11.732050807568887
  endloop
endfacet
facet normal 0.38268343236509283 -0.0 -0.9238795325112855
  outer loop
    vertex 184.0 32.900000000000006 11.732050807568887
    vertex 184.48236190979495 37.90000000000001 11.931851652578146
    vertex 184.48236190979495 32.900000000000006 11.931851652578146
  endloop
endfacet
facet normal -0.6087614290087143 -0.0 -0.7933533402912399
  outer loop
    vertex 186.4142135623731 37.90000000000001 11.414213562373106
    vertex 186.0 32.900000000000006 11.732050807568887
    vertex 186.0 37.90000000000001 11.732050807568887
  endloop
endfacet
facet normal -0.6087614290087143 -0.0 -0.7933533402912399
  outer loop
    vertex 186.0 32.900000000000006 11.732050807568887
    vertex 186.4142135623731 37.90000000000001 11.414213562373106
    vertex 186.4142135623731 32.900000000000006 11.414213562373106
  endloop
endfacet
facet normal -0.9914448613738132 -0.0 0.13052619222003092
  outer loop
    vertex 187.0 37.90000000000001 10.000000000000014
    vertex 186.93185165257813 32.900000000000006 9.482361909794975
    vertex 187.0 32.900000000000006 10.000000000000014
  endloop
endfacet
facet normal -0.9914448613738132 -0.0 0.13052619222003092
  outer loop
    vertex 186.93185165257813 32.900000000000006 9.482361909794975
    vertex 187.0 37.90000000000001 10.000000000000014
    vertex 186.93185165257813 37.90000000000001 9.482361909794975
  endloop
endfacet
facet normal -0.9238795325112747 -0.0 0.382683432365119
  outer loop
    vertex 186.93185165257813 37.90000000000001 9.482361909794975
    vertex 186.73205080756887 32.900000000000006 9.000000000000016
    vertex 186.93185165257813 32.900000000000006 9.482361909794975
  endloop
endfacet
facet normal -0.9238795325112747 -0.0 0.382683432365119
  outer loop
    vertex 186.73205080756887 32.900000000000006 9.000000000000016
    vertex 186.93185165257813 37.90000000000001 9.482361909794975
    vertex 186.73205080756887 37.90000000000001 9.000000000000016
  endloop
endfacet
facet normal -0.9914448613738077 -0.0 -0.1305261922200727
  outer loop
    vertex 186.93185165257813 37.90000000000001 10.517638090205057
    vertex 187.0 32.900000000000006 10.000000000000014
    vertex 186.93185165257813 32.900000000000006 10.517638090205057
  endloop
endfacet
facet normal -0.9914448613738077 -0.0 -0.1305261922200727
  outer loop
    vertex 187.0 32.900000000000006 10.000000000000014
    vertex 186.93185165257813 37.90000000000001 10.517638090205057
    vertex 187.0 37.90000000000001 10.000000000000014
  endloop
endfacet
facet normal -0.6087614290087143 -0.0 0.7933533402912399
  outer loop
    vertex 186.4142135623731 32.900000000000006 8.585786437626922
    vertex 186.0 37.90000000000001 8.26794919243114
    vertex 186.0 32.900000000000006 8.26794919243114
  endloop
endfacet
facet normal -0.6087614290087143 -0.0 0.7933533402912399
  outer loop
    vertex 186.0 37.90000000000001 8.26794919243114
    vertex 186.4142135623731 32.900000000000006 8.585786437626922
    vertex 186.4142135623731 37.90000000000001 8.585786437626922
  endloop
endfacet
facet normal -0.7933533402912477 -0.0 0.6087614290087043
  outer loop
    vertex 186.73205080756887 37.90000000000001 9.000000000000016
    vertex 186.4142135623731 32.900000000000006 8.585786437626922
    vertex 186.73205080756887 32.900000000000006 9.000000000000016
  endloop
endfacet
facet normal -0.7933533402912477 -0.0 0.6087614290087043
  outer loop
    vertex 186.4142135623731 32.900000000000006 8.585786437626922
    vertex 186.73205080756887 37.90000000000001 9.000000000000016
    vertex 186.4142135623731 37.90000000000001 8.585786437626922
  endloop
endfacet
facet normal -0.13052619222005077 -0.0 -0.9914448613738106
  outer loop
    vertex 185.51763809020505 37.90000000000001 11.931851652578146
    vertex 185.0 32.900000000000006 12.00000000000001
    vertex 185.0 37.90000000000001 12.00000000000001
  endloop
endfacet
facet normal -0.13052619222005077 -0.0 -0.9914448613738106
  outer loop
    vertex 185.0 32.900000000000006 12.00000000000001
    vertex 185.51763809020505 37.90000000000001 11.931851652578146
    vertex 185.51763809020505 32.900000000000006 11.931851652578146
  endloop
endfacet
facet normal 0.7933533402912467 -0.0 -0.6087614290087057
  outer loop
    vertex 183.26794919243113 37.90000000000001 11.000000000000012
    vertex 183.5857864376269 32.900000000000006 11.414213562373106
    vertex 183.26794919243113 32.900000000000006 11.000000000000012
  endloop
endfacet
facet normal 0.7933533402912467 -0.0 -0.6087614290087057
  outer loop
    vertex 183.5857864376269 32.900000000000006 11.414213562373106
    vertex 183.26794919243113 37.90000000000001 11.000000000000012
    vertex 183.5857864376269 37.90000000000001 11.414213562373106
  endloop
endfacet
facet normal 0.6087614290087161 -0.0 -0.7933533402912386
  outer loop
    vertex 184.0 37.90000000000001 11.732050807568887
    vertex 183.5857864376269 32.900000000000006 11.414213562373106
    vertex 183.5857864376269 37.90000000000001 11.414213562373106
  endloop
endfacet
facet normal 0.6087614290087161 -0.0 -0.7933533402912386
  outer loop
    vertex 183.5857864376269 32.900000000000006 11.414213562373106
    vertex 184.0 37.90000000000001 11.732050807568887
    vertex 184.0 32.900000000000006 11.732050807568887
  endloop
endfacet
facet normal -0.38268343236509283 -0.0 -0.9238795325112855
  outer loop
    vertex 186.0 37.90000000000001 11.732050807568887
    vertex 185.51763809020505 32.900000000000006 11.931851652578146
    vertex 185.51763809020505 37.90000000000001 11.931851652578146
  endloop
endfacet
facet normal -0.38268343236509283 -0.0 -0.9238795325112855
  outer loop
    vertex 185.51763809020505 32.900000000000006 11.931851652578146
    vertex 186.0 37.90000000000001 11.732050807568887
    vertex 186.0 32.900000000000006 11.732050807568887
  endloop
endfacet
facet normal -0.7933533402912467 -0.0 -0.6087614290087057
  outer loop
    vertex 186.4142135623731 37.90000000000001 11.414213562373106
    vertex 186.73205080756887 32.900000000000006 11.000000000000014
    vertex 186.4142135623731 32.900000000000006 11.414213562373106
  endloop
endfacet
facet normal -0.7933533402912467 -0.0 -0.6087614290087057
  outer loop
    vertex 186.73205080756887 32.900000000000006 11.000000000000014
    vertex 186.4142135623731 37.90000000000001 11.414213562373106
    vertex 186.73205080756887 37.90000000000001 11.000000000000014
  endloop
endfacet
facet normal 0.13052619222005077 -0.0 -0.9914448613738106
  outer loop
    vertex 185.0 37.90000000000001 12.00000000000001
    vertex 184.48236190979495 32.900000000000006 11.931851652578146
    vertex 184.48236190979495 37.90000000000001 11.931851652578146
  endloop
endfacet
facet normal 0.13052619222005077 -0.0 -0.9914448613738106
  outer loop
    vertex 184.48236190979495 32.900000000000006 11.931851652578146
    vertex 185.0 37.90000000000001 12.00000000000001
    vertex 185.0 32.900000000000006 12.00000000000001
  endloop
endfacet
facet normal -0.9238795325112895 -0.0 -0.382683432365083
  outer loop
    vertex 186.73205080756887 37.90000000000001 11.000000000000014
    vertex 186.93185165257813 32.900000000000006 10.517638090205057
    vertex 186.73205080756887 32.900000000000006 11.000000000000014
  endloop
endfacet
facet normal -0.9238795325112895 -0.0 -0.382683432365083
  outer loop
    vertex 186.93185165257813 32.900000000000006 10.517638090205057
    vertex 186.73205080756887 37.90000000000001 11.000000000000014
    vertex 186.93185165257813 37.90000000000001 10.517638090205057
  endloop
endfacet
facet normal 0.0 -0.38268343236508895 0.9238795325112871
  outer loop
    vertex 5.0 10.967638090205046 8.068148347421879
    vertex 0.0 11.450000000000005 8.267949192431137
    vertex 0.0 10.967638090205046 8.068148347421879
  endloop
endfacet
facet normal 0.0 -0.38268343236508895 0.9238795325112871
  outer loop
    vertex 0.0 11.450000000000005 8.267949192431137
    vertex 5.0 10.967638090205046 8.068148347421879
    vertex 5.0 11.450000000000005 8.267949192431137
  endloop
endfacet
facet normal 0.0 -0.6087614290087213 0.7933533402912347
  outer loop
    vertex 5.0 11.450000000000005 8.267949192431137
    vertex 0.0 11.864213562373099 8.58578643762692
    vertex 0.0 11.450000000000005 8.267949192431137
  endloop
endfacet
facet normal 0.0 -0.6087614290087213 0.7933533402912347
  outer loop
    vertex 0.0 11.864213562373099 8.58578643762692
    vertex 5.0 11.450000000000005 8.267949192431137
    vertex 5.0 11.864213562373099 8.58578643762692
  endloop
endfacet
facet normal -0.0 -0.38268343236508895 -0.9238795325112871
  outer loop
    vertex 5.0 11.450000000000001 11.732050807568891
    vertex 0.0 10.967638090205043 11.93185165257815
    vertex 0.0 11.450000000000001 11.732050807568891
  endloop
endfacet
facet normal -0.0 -0.38268343236508895 -0.9238795325112871
  outer loop
    vertex 0.0 10.967638090205043 11.93185165257815
    vertex 5.0 11.450000000000001 11.732050807568891
    vertex 5.0 10.967638090205043 11.93185165257815
  endloop
endfacet
facet normal -0.0 -0.13052619222005216 -0.9914448613738104
  outer loop
    vertex 5.0 10.967638090205043 11.93185165257815
    vertex 0.0 10.450000000000003 12.000000000000012
    vertex 0.0 10.967638090205043 11.93185165257815
  endloop
endfacet
facet normal -0.0 -0.13052619222005216 -0.9914448613738104
  outer loop
    vertex 0.0 10.450000000000003 12.000000000000012
    vertex 5.0 10.967638090205043 11.93185165257815
    vertex 5.0 10.450000000000003 12.000000000000012
  endloop
endfacet
facet normal 0.0 -0.7933533402912355 0.6087614290087202
  outer loop
    vertex 5.0 12.18205080756888 9.000000000000014
    vertex 0.0 11.891158142913344 8.620901298647532
    vertex 5.0 11.891158142913344 8.620901298647532
  endloop
endfacet
facet normal 0.0 -0.7933533402912355 0.6087614290087202
  outer loop
    vertex 0.0 11.891158142913344 8.620901298647532
    vertex 5.0 12.18205080756888 9.000000000000014
    vertex 0.0 12.18205080756888 9.000000000000014
  endloop
endfacet
facet normal -0.0 -0.9238795325112863 -0.3826834323650914
  outer loop
    vertex 5.0 12.18205080756888 11.000000000000014
    vertex 0.0 12.381851652578138 10.517638090205057
    vertex 5.0 12.381851652578138 10.517638090205057
  endloop
endfacet
facet normal -0.0 -0.9238795325112863 -0.3826834323650914
  outer loop
    vertex 0.0 12.381851652578138 10.517638090205057
    vertex 5.0 12.18205080756888 11.000000000000014
    vertex 0.0 12.18205080756888 11.000000000000014
  endloop
endfacet
facet normal 0.0 -0.9238795325112863 0.3826834323650914
  outer loop
    vertex 5.0 12.381851652578138 9.482361909794973
    vertex 0.0 12.18205080756888 9.000000000000014
    vertex 5.0 12.18205080756888 9.000000000000014
  endloop
endfacet
facet normal 0.0 -0.9238795325112863 0.3826834323650914
  outer loop
    vertex 0.0 12.18205080756888 9.000000000000014
    vertex 5.0 12.381851652578138 9.482361909794973
    vertex 0.0 12.381851652578138 9.482361909794973
  endloop
endfacet
facet normal -0.0 -0.9914448613738105 -0.13052619222005143
  outer loop
    vertex 5.0 12.381851652578138 10.517638090205057
    vertex 0.0 12.450000000000003 10.000000000000014
    vertex 5.0 12.450000000000003 10.000000000000014
  endloop
endfacet
facet normal -0.0 -0.9914448613738105 -0.13052619222005143
  outer loop
    vertex 0.0 12.450000000000003 10.000000000000014
    vertex 5.0 12.381851652578138 10.517638090205057
    vertex 0.0 12.381851652578138 10.517638090205057
  endloop
endfacet
facet normal 0.0 -0.9914448613738104 0.1305261922200518
  outer loop
    vertex 5.0 12.450000000000003 10.000000000000014
    vertex 0.0 12.381851652578138 9.482361909794973
    vertex 5.0 12.381851652578138 9.482361909794973
  endloop
endfacet
facet normal 0.0 -0.9914448613738104 0.1305261922200518
  outer loop
    vertex 0.0 12.381851652578138 9.482361909794973
    vertex 5.0 12.450000000000003 10.000000000000014
    vertex 0.0 12.450000000000003 10.000000000000014
  endloop
endfacet
facet normal -0.0 -0.6087614290087213 -0.7933533402912347
  outer loop
    vertex 5.0 11.864213562373097 11.414213562373108
    vertex 0.0 11.450000000000001 11.732050807568891
    vertex 0.0 11.864213562373097 11.414213562373108
  endloop
endfacet
facet normal -0.0 -0.6087614290087213 -0.7933533402912347
  outer loop
    vertex 0.0 11.450000000000001 11.732050807568891
    vertex 5.0 11.864213562373097 11.414213562373108
    vertex 5.0 11.450000000000001 11.732050807568891
  endloop
endfacet
facet normal -0.0 -0.7933533402912337 -0.6087614290087227
  outer loop
    vertex 5.0 11.864213562373097 11.414213562373108
    vertex 0.0 12.18205080756888 11.000000000000014
    vertex 5.0 12.18205080756888 11.000000000000014
  endloop
endfacet
facet normal -0.0 -0.7933533402912337 -0.6087614290087227
  outer loop
    vertex 0.0 12.18205080756888 11.000000000000014
    vertex 5.0 11.864213562373097 11.414213562373108
    vertex 0.0 11.864213562373097 11.414213562373108
  endloop
endfacet
facet normal 0.0 0.13052619222005143 -0.9914448613738105
  outer loop
    vertex 5.0 10.450000000000003 12.000000000000012
    vertex 0.0 9.932361909794961 11.93185165257815
    vertex 0.0 10.450000000000003 12.000000000000012
  endloop
endfacet
facet normal 0.0 0.13052619222005143 -0.9914448613738105
  outer loop
    vertex 0.0 9.932361909794961 11.93185165257815
    vertex 5.0 10.450000000000003 12.000000000000012
    vertex 5.0 9.932361909794961 11.93185165257815
  endloop
endfacet
facet normal 0.0 0.38268343236508895 0.9238795325112871
  outer loop
    vertex 5.0 9.450000000000005 8.267949192431137
    vertex 0.0 9.932361909794963 8.068148347421879
    vertex 0.0 9.450000000000005 8.267949192431137
  endloop
endfacet
facet normal 0.0 0.38268343236508895 0.9238795325112871
  outer loop
    vertex 0.0 9.932361909794963 8.068148347421879
    vertex 5.0 9.450000000000005 8.267949192431137
    vertex 5.0 9.932361909794963 8.068148347421879
  endloop
endfacet
facet normal 0.0 -1.0 0.0
  outer loop
    vertex 5.0 0.0 20.00000000000003
    vertex 7.049916206369744e-16 0.0 0.0
    vertex 5.0 0.0 0.0
  endloop
endfacet
facet normal 0.0 -1.0 0.0
  outer loop
    vertex 7.049916206369744e-16 0.0 0.0
    vertex 5.0 0.0 20.00000000000003
    vertex 7.049916206369744e-16 0.0 20.00000000000003
  endloop
endfacet
facet normal 5.874930171974786e-18 -1.0 0.0
  outer loop
    vertex 175.0 20.90000000000001 20.00000000000003
    vertex 5.0 20.900000000000006 0.0
    vertex 175.0 20.90000000000001 0.0
  endloop
endfacet
facet normal 5.874930171974786e-18 -1.0 0.0
  outer loop
    vertex 5.0 20.900000000000006 0.0
    vertex 175.0 20.90000000000001 20.00000000000003
    vertex 5.0 20.900000000000006 20.00000000000003
  endloop
endfacet
facet normal 0.0 0.6087614290087213 0.7933533402912347
  outer loop
    vertex 5.0 9.03578643762691 8.58578643762692
    vertex 0.0 9.450000000000005 8.267949192431137
    vertex 0.0 9.03578643762691 8.58578643762692
  endloop
endfacet
facet normal 0.0 0.6087614290087213 0.7933533402912347
  outer loop
    vertex 0.0 9.450000000000005 8.267949192431137
    vertex 5.0 9.03578643762691 8.58578643762692
    vertex 5.0 9.450000000000005 8.267949192431137
  endloop
endfacet
facet normal -1.0 0.0 0.0
  outer loop
    vertex 7.049916206369744e-16 0.0 20.00000000000003
    vertex 0.0 9.035786437626907 11.414213562373108
    vertex 7.049916206369744e-16 0.0 0.0
  endloop
endfacet
facet normal -1.0 0.0 0.0
  outer loop
    vertex 0.0 9.035786437626907 11.414213562373108
    vertex 7.049916206369744e-16 0.0 20.00000000000003
    vertex 0.0 9.450000000000003 11.73205080756889
  endloop
endfacet
facet normal -1.0 0.0 0.0
  outer loop
    vertex 0.0 9.450000000000003 11.73205080756889
    vertex 7.049916206369744e-16 0.0 20.00000000000003
    vertex 7.049916206369744e-16 25.90000000000001 20.00000000000003
  endloop
endfacet
facet normal -1.0 0.0 0.0
  outer loop
    vertex 7.049916206369744e-16 0.0 0.0
    vertex 0.0 9.035786437626907 11.414213562373108
    vertex 0.0 8.717949192431124 11.000000000000014
  endloop
endfacet
facet normal -1.0 0.0 0.0
  outer loop
    vertex 7.049916206369744e-16 0.0 0.0
    vertex 0.0 8.717949192431124 11.000000000000014
    vertex 0.0 8.518148347421867 10.517638090205054
  endloop
endfacet
facet normal -1.0 0.0 0.0
  outer loop
    vertex 7.049916206369744e-16 0.0 0.0
    vertex 0.0 8.518148347421867 10.517638090205054
    vertex 0.0 8.450000000000005 10.000000000000014
  endloop
endfacet
facet normal -1.0 0.0 0.0
  outer loop
    vertex 0.0 8.717949192431124 11.000000000000014
    vertex 0.0 9.035786437626907 11.414213562373108
    vertex 0.0 9.008841857086663 11.379098701352495
  endloop
endfacet
facet normal -1.0 0.0 0.0
  outer loop
    vertex 0.0 9.450000000000003 11.73205080756889
    vertex 7.049916206369744e-16 25.90000000000001 20.00000000000003
    vertex 0.0 9.932361909794961 11.93185165257815
  endloop
endfacet
facet normal -1.0 0.0 0.0
  outer loop
    vertex 0.0 9.932361909794961 11.93185165257815
    vertex 7.049916206369744e-16 25.90000000000001 20.00000000000003
    vertex 0.0 10.450000000000003 12.000000000000012
  endloop
endfacet
facet normal -1.0 0.0 0.0
  outer loop
    vertex 0.0 10.450000000000003 12.000000000000012
    vertex 7.049916206369744e-16 25.90000000000001 20.00000000000003
    vertex 0.0 10.967638090205043 11.93185165257815
  endloop
endfacet
facet normal -1.0 0.0 0.0
  outer loop
    vertex 0.0 10.967638090205043 11.93185165257815
    vertex 7.049916206369744e-16 25.90000000000001 20.00000000000003
    vertex 0.0 11.450000000000001 11.732050807568891
  endloop
endfacet
facet normal -1.0 0.0 0.0
  outer loop
    vertex 0.0 11.450000000000001 11.732050807568891
    vertex 7.049916206369744e-16 25.90000000000001 20.00000000000003
    vertex 0.0 11.864213562373097 11.414213562373108
  endloop
endfacet
facet normal -1.0 0.0 0.0
  outer loop
    vertex 0.0 11.864213562373097 11.414213562373108
    vertex 7.049916206369744e-16 25.90000000000001 20.00000000000003
    vertex 0.0 12.18205080756888 11.000000000000014
  endloop
endfacet
facet normal -1.0 0.0 0.0
  outer loop
    vertex 0.0 12.18205080756888 11.000000000000014
    vertex 7.049916206369744e-16 25.90000000000001 20.00000000000003
    vertex 0.0 12.381851652578138 10.517638090205057
  endloop
endfacet
facet normal -1.0 0.0 0.0
  outer loop
    vertex 0.0 12.381851652578138 10.517638090205057
    vertex 7.049916206369744e-16 25.90000000000001 20.00000000000003
    vertex 0.0 12.450000000000003 10.000000000000014
  endloop
endfacet
facet normal -1.0 0.0 0.0
  outer loop
    vertex 7.049916206369744e-16 0.0 0.0
    vertex 0.0 9.450000000000005 8.267949192431137
    vertex 7.049916206369744e-16 25.90000000000001 0.0
  endloop
endfacet
facet normal -1.0 0.0 0.0
  outer loop
    vertex 0.0 9.450000000000005 8.267949192431137
    vertex 7.049916206369744e-16 0.0 0.0
    vertex 0.0 9.03578643762691 8.58578643762692
  endloop
endfacet
facet normal -1.0 0.0 0.0
  outer loop
    vertex 0.0 9.03578643762691 8.58578643762692
    vertex 7.049916206369744e-16 0.0 0.0
    vertex 0.0 8.717949192431128 9.000000000000014
  endloop
endfacet
facet normal -1.0 0.0 0.0
  outer loop
    vertex 0.0 8.717949192431128 9.000000000000014
    vertex 7.049916206369744e-16 0.0 0.0
    vertex 0.0 8.518148347421867 9.482361909794973
  endloop
endfacet
facet normal -1.0 0.0 0.0
  outer loop
    vertex 0.0 8.518148347421867 9.482361909794973
    vertex 7.049916206369744e-16 0.0 0.0
    vertex 0.0 8.450000000000005 10.000000000000014
  endloop
endfacet
facet normal -1.0 0.0 0.0
  outer loop
    vertex 7.049916206369744e-16 25.90000000000001 0.0
    vertex 0.0 9.450000000000005 8.267949192431137
    vertex 0.0 9.932361909794963 8.068148347421879
  endloop
endfacet
facet normal -1.0 0.0 0.0
  outer loop
    vertex 7.049916206369744e-16 25.90000000000001 0.0
    vertex 0.0 9.932361909794963 8.068148347421879
    vertex 0.0 10.450000000000003 8.000000000000014
  endloop
endfacet
facet normal -1.0 0.0 0.0
  outer loop
    vertex 7.049916206369744e-16 25.90000000000001 0.0
    vertex 0.0 10.450000000000003 8.000000000000014
    vertex 0.0 10.967638090205046 8.068148347421879
  endloop
endfacet
facet normal -1.0 0.0 0.0
  outer loop
    vertex 7.049916206369744e-16 25.90000000000001 0.0
    vertex 0.0 10.967638090205046 8.068148347421879
    vertex 0.0 11.450000000000005 8.267949192431137
  endloop
endfacet
facet normal -1.0 0.0 0.0
  outer loop
    vertex 7.049916206369744e-16 25.90000000000001 0.0
    vertex 0.0 11.450000000000005 8.267949192431137
    vertex 0.0 11.864213562373099 8.58578643762692
  endloop
endfacet
facet normal -1.0 0.0 0.0
  outer loop
    vertex 7.049916206369744e-16 25.90000000000001 0.0
    vertex 0.0 11.864213562373099 8.58578643762692
    vertex 0.0 11.891158142913344 8.620901298647532
  endloop
endfacet
facet normal -1.0 0.0 0.0
  outer loop
    vertex 7.049916206369744e-16 25.90000000000001 0.0
    vertex 0.0 11.891158142913344 8.620901298647532
    vertex 0.0 12.18205080756888 9.000000000000014
  endloop
endfacet
facet normal -1.0 0.0 0.0
  outer loop
    vertex 7.049916206369744e-16 25.90000000000001 0.0
    vertex 0.0 12.18205080756888 9.000000000000014
    vertex 0.0 12.381851652578138 9.482361909794973
  endloop
endfacet
facet normal -1.0 0.0 0.0
  outer loop
    vertex 7.049916206369744e-16 25.90000000000001 0.0
    vertex 0.0 12.381851652578138 9.482361909794973
    vertex 0.0 12.450000000000003 10.000000000000014
  endloop
endfacet
facet normal -1.0 0.0 0.0
  outer loop
    vertex 7.049916206369744e-16 25.90000000000001 0.0
    vertex 0.0 12.450000000000003 10.000000000000014
    vertex 7.049916206369744e-16 25.90000000000001 20.00000000000003
  endloop
endfacet
facet normal 0.0 -0.13052619222005143 0.9914448613738105
  outer loop
    vertex 5.0 10.450000000000003 8.000000000000014
    vertex 0.0 10.967638090205046 8.068148347421879
    vertex 0.0 10.450000000000003 8.000000000000014
  endloop
endfacet
facet normal 0.0 -0.13052619222005143 0.9914448613738105
  outer loop
    vertex 0.0 10.967638090205046 8.068148347421879
    vertex 5.0 10.450000000000003 8.000000000000014
    vertex 5.0 10.967638090205046 8.068148347421879
  endloop
endfacet
facet normal 1.0 -2.045852502307414e-32 6.896573915051716e-33
  outer loop
    vertex 5.0 0.0 0.0
    vertex 5.0 9.03578643762691 8.58578643762692
    vertex 5.0 0.0 20.00000000000003
  endloop
endfacet
facet normal 1.0 -2.045852502307414e-32 6.896573915051716e-33
  outer loop
    vertex 5.0 9.03578643762691 8.58578643762692
    vertex 5.0 0.0 0.0
    vertex 5.0 9.450000000000005 8.267949192431137
  endloop
endfacet
facet normal 1.0 -2.045852502307414e-32 6.896573915051716e-33
  outer loop
    vertex 5.0 9.450000000000005 8.267949192431137
    vertex 5.0 0.0 0.0
    vertex 5.0 20.900000000000006 0.0
  endloop
endfacet
facet normal 1.0 -2.045852502307414e-32 6.896573915051716e-33
  outer loop
    vertex 5.0 0.0 20.00000000000003
    vertex 5.0 9.03578643762691 8.58578643762692
    vertex 5.0 8.717949192431128 9.000000000000014
  endloop
endfacet
facet normal 1.0 -2.045852502307414e-32 6.896573915051716e-33
  outer loop
    vertex 5.0 0.0 20.00000000000003
    vertex 5.0 8.717949192431128 9.000000000000014
    vertex 5.0 8.518148347421867 9.482361909794973
  endloop
endfacet
facet normal 1.0 -2.045852502307414e-32 6.896573915051716e-33
  outer loop
    vertex 5.0 0.0 20.00000000000003
    vertex 5.0 8.518148347421867 9.482361909794973
    vertex 5.0 8.450000000000005 10.000000000000014
  endloop
endfacet
facet normal 1.0 -2.045852502307414e-32 6.896573915051716e-33
  outer loop
    vertex 5.0 9.450000000000005 8.267949192431137
    vertex 5.0 20.900000000000006 0.0
    vertex 5.0 9.932361909794963 8.068148347421879
  endloop
endfacet
facet normal 1.0 -2.045852502307414e-32 6.896573915051716e-33
  outer loop
    vertex 5.0 9.932361909794963 8.068148347421879
    vertex 5.0 20.900000000000006 0.0
    vertex 5.0 10.450000000000003 8.000000000000014
  endloop
endfacet
facet normal 1.0 -2.045852502307414e-32 6.896573915051716e-33
  outer loop
    vertex 5.0 10.450000000000003 8.000000000000014
    vertex 5.0 20.900000000000006 0.0
    vertex 5.0 10.967638090205046 8.068148347421879
  endloop
endfacet
facet normal 1.0 -2.045852502307414e-32 6.896573915051716e-33
  outer loop
    vertex 5.0 10.967638090205046 8.068148347421879
    vertex 5.0 20.900000000000006 0.0
    vertex 5.0 11.450000000000005 8.267949192431137
  endloop
endfacet
facet normal 1.0 -2.045852502307414e-32 6.896573915051716e-33
  outer loop
    vertex 5.0 11.450000000000005 8.267949192431137
    vertex 5.0 20.900000000000006 0.0
    vertex 5.0 11.864213562373099 8.58578643762692
  endloop
endfacet
facet normal 1.0 -2.045852502307414e-32 6.896573915051716e-33
  outer loop
    vertex 5.0 11.864213562373099 8.58578643762692
    vertex 5.0 20.900000000000006 0.0
    vertex 5.0 11.891158142913344 8.620901298647532
  endloop
endfacet
facet normal 1.0 -2.045852502307414e-32 6.896573915051716e-33
  outer loop
    vertex 5.0 11.891158142913344 8.620901298647532
    vertex 5.0 20.900000000000006 0.0
    vertex 5.0 12.18205080756888 9.000000000000014
  endloop
endfacet
facet normal 1.0 -2.045852502307414e-32 6.896573915051716e-33
  outer loop
    vertex 5.0 12.18205080756888 9.000000000000014
    vertex 5.0 20.900000000000006 0.0
    vertex 5.0 12.381851652578138 9.482361909794973
  endloop
endfacet
facet normal 1.0 -2.045852502307414e-32 6.896573915051716e-33
  outer loop
    vertex 5.0 12.381851652578138 9.482361909794973
    vertex 5.0 20.900000000000006 0.0
    vertex 5.0 12.450000000000003 10.000000000000014
  endloop
endfacet
facet normal 1.0 -2.045852502307414e-32 6.896573915051716e-33
  outer loop
    vertex 5.0 0.0 20.00000000000003
    vertex 5.0 9.450000000000003 11.73205080756889
    vertex 5.0 20.900000000000006 20.00000000000003
  endloop
endfacet
facet normal 1.0 -2.045852502307414e-32 6.896573915051716e-33
  outer loop
    vertex 5.0 9.450000000000003 11.73205080756889
    vertex 5.0 0.0 20.00000000000003
    vertex 5.0 9.035786437626907 11.414213562373108
  endloop
endfacet
facet normal 1.0 -2.045852502307414e-32 6.896573915051716e-33
  outer loop
    vertex 5.0 9.035786437626907 11.414213562373108
    vertex 5.0 0.0 20.00000000000003
    vertex 5.0 8.717949192431124 11.000000000000014
  endloop
endfacet
facet normal 1.0 -2.045852502307414e-32 6.896573915051716e-33
  outer loop
    vertex 5.0 8.717949192431124 11.000000000000014
    vertex 5.0 0.0 20.00000000000003
    vertex 5.0 8.518148347421867 10.517638090205054
  endloop
endfacet
facet normal 1.0 -2.045852502307414e-32 6.896573915051716e-33
  outer loop
    vertex 5.0 8.518148347421867 10.517638090205054
    vertex 5.0 0.0 20.00000000000003
    vertex 5.0 8.450000000000005 10.000000000000014
  endloop
endfacet
facet normal 1.0 -2.045852502307414e-32 6.896573915051716e-33
  outer loop
    vertex 5.0 9.035786437626907 11.414213562373108
    vertex 5.0 8.717949192431124 11.000000000000014
    vertex 5.0 9.008841857086663 11.379098701352495
  endloop
endfacet
facet normal 1.0 -2.045852502307414e-32 6.896573915051716e-33
  outer loop
    vertex 5.0 20.900000000000006 20.00000000000003
    vertex 5.0 9.450000000000003 11.73205080756889
    vertex 5.0 9.932361909794961 11.93185165257815
  endloop
endfacet
facet normal 1.0 -2.045852502307414e-32 6.896573915051716e-33
  outer loop
    vertex 5.0 20.900000000000006 20.00000000000003
    vertex 5.0 9.932361909794961 11.93185165257815
    vertex 5.0 10.450000000000003 12.000000000000012
  endloop
endfacet
facet normal 1.0 -2.045852502307414e-32 6.896573915051716e-33
  outer loop
    vertex 5.0 20.900000000000006 20.00000000000003
    vertex 5.0 10.450000000000003 12.000000000000012
    vertex 5.0 10.967638090205043 11.93185165257815
  endloop
endfacet
facet normal 1.0 -2.045852502307414e-32 6.896573915051716e-33
  outer loop
    vertex 5.0 20.900000000000006 20.00000000000003
    vertex 5.0 10.967638090205043 11.93185165257815
    vertex 5.0 11.450000000000001 11.732050807568891
  endloop
endfacet
facet normal 1.0 -2.045852502307414e-32 6.896573915051716e-33
  outer loop
    vertex 5.0 20.900000000000006 20.00000000000003
    vertex 5.0 11.450000000000001 11.732050807568891
    vertex 5.0 11.864213562373097 11.414213562373108
  endloop
endfacet
facet normal 1.0 -2.045852502307414e-32 6.896573915051716e-33
  outer loop
    vertex 5.0 20.900000000000006 20.00000000000003
    vertex 5.0 11.864213562373097 11.414213562373108
    vertex 5.0 12.18205080756888 11.000000000000014
  endloop
endfacet
facet normal 1.0 -2.045852502307414e-32 6.896573915051716e-33
  outer loop
    vertex 5.0 20.900000000000006 20.00000000000003
    vertex 5.0 12.18205080756888 11.000000000000014
    vertex 5.0 12.381851652578138 10.517638090205057
  endloop
endfacet
facet normal 1.0 -2.045852502307414e-32 6.896573915051716e-33
  outer loop
    vertex 5.0 20.900000000000006 20.00000000000003
    vertex 5.0 12.381851652578138 10.517638090205057
    vertex 5.0 12.450000000000003 10.000000000000014
  endloop
endfacet
facet normal 1.0 -2.045852502307414e-32 6.896573915051716e-33
  outer loop
    vertex 5.0 20.900000000000006 20.00000000000003
    vertex 5.0 12.450000000000003 10.000000000000014
    vertex 5.0 20.900000000000006 0.0
  endloop
endfacet
facet normal 0.0 0.13052619222005216 0.9914448613738104
  outer loop
    vertex 5.0 9.932361909794963 8.068148347421879
    vertex 0.0 10.450000000000003 8.000000000000014
    vertex 0.0 9.932361909794963 8.068148347421879
  endloop
endfacet
facet normal 0.0 0.13052619222005216 0.9914448613738104
  outer loop
    vertex 0.0 10.450000000000003 8.000000000000014
    vertex 5.0 9.932361909794963 8.068148347421879
    vertex 5.0 10.450000000000003 8.000000000000014
  endloop
endfacet
facet normal 0.0 0.3826834323650914 -0.9238795325112863
  outer loop
    vertex 5.0 9.932361909794961 11.93185165257815
    vertex 0.0 9.450000000000003 11.73205080756889
    vertex 0.0 9.932361909794961 11.93185165257815
  endloop
endfacet
facet normal 0.0 0.3826834323650914 -0.9238795325112863
  outer loop
    vertex 0.0 9.450000000000003 11.73205080756889
    vertex 5.0 9.932361909794961 11.93185165257815
    vertex 5.0 9.450000000000003 11.73205080756889
  endloop
endfacet
facet normal 0.0 -0.7933533402912566 0.6087614290086928
  outer loop
    vertex 5.0 11.891158142913344 8.620901298647532
    vertex 0.0 11.864213562373099 8.58578643762692
    vertex 5.0 11.864213562373099 8.58578643762692
  endloop
endfacet
facet normal 0.0 -0.7933533402912566 0.6087614290086928
  outer loop
    vertex 0.0 11.864213562373099 8.58578643762692
    vertex 5.0 11.891158142913344 8.620901298647532
    vertex 0.0 11.891158142913344 8.620901298647532
  endloop
endfacet
facet normal 0.0 0.6087614290087197 -0.7933533402912359
  outer loop
    vertex 5.0 9.450000000000003 11.73205080756889
    vertex 0.0 9.035786437626907 11.414213562373108
    vertex 0.0 9.450000000000003 11.73205080756889
  endloop
endfacet
facet normal 0.0 0.6087614290087197 -0.7933533402912359
  outer loop
    vertex 0.0 9.035786437626907 11.414213562373108
    vertex 5.0 9.450000000000003 11.73205080756889
    vertex 5.0 9.035786437626907 11.414213562373108
  endloop
endfacet
facet normal 0.0 0.0 -1.0
  outer loop
    vertex 170.0 37.90000000000001 0.0
    vertex 175.0 32.900000000000006 0.0
    vertex 170.0 25.90000000000001 0.0
  endloop
endfacet
facet normal 0.0 0.0 -1.0
  outer loop
    vertex 175.0 32.900000000000006 0.0
    vertex 170.0 37.90000000000001 0.0
    vertex 195.0 37.90000000000001 0.0
  endloop
endfacet
facet normal 0.0 0.0 -1.0
  outer loop
    vertex 175.0 32.900000000000006 0.0
    vertex 195.0 37.90000000000001 0.0
    vertex 195.0 32.900000000000006 0.0
  endloop
endfacet
facet normal 0.0 0.0 -1.0
  outer loop
    vertex 7.049916206369744e-16 25.90000000000001 0.0
    vertex 5.0 20.900000000000006 0.0
    vertex 7.049916206369744e-16 0.0 0.0
  endloop
endfacet
facet normal 0.0 0.0 -1.0
  outer loop
    vertex 5.0 20.900000000000006 0.0
    vertex 7.049916206369744e-16 25.90000000000001 0.0
    vertex 100.00000000000001 25.90000000000001 0.0
  endloop
endfacet
facet normal 0.0 0.0 -1.0
  outer loop
    vertex 5.0 20.900000000000006 0.0
    vertex 100.00000000000001 25.90000000000001 0.0
    vertex 175.0 20.90000000000001 0.0
  endloop
endfacet
facet normal 0.0 0.0 -1.0
  outer loop
    vertex 175.0 20.90000000000001 0.0
    vertex 100.00000000000001 25.90000000000001 0.0
    vertex 170.0 25.90000000000001 0.0
  endloop
endfacet
facet normal 0.0 0.0 -1.0
  outer loop
    vertex 175.0 20.90000000000001 0.0
    vertex 170.0 25.90000000000001 0.0
    vertex 175.0 32.900000000000006 0.0
  endloop
endfacet
facet normal 0.0 0.0 -1.0
  outer loop
    vertex 5.0 0.0 0.0
    vertex 7.049916206369744e-16 0.0 0.0
    vertex 5.0 20.900000000000006 0.0
  endloop
endfacet
facet normal 0.0 1.0 0.0
  outer loop
    vertex 170.0 37.90000000000001 0.0
    vertex 184.0 37.90000000000001 8.26794919243114
    vertex 195.0 37.90000000000001 0.0
  endloop
endfacet
facet normal 0.0 1.0 0.0
  outer loop
    vertex 184.0 37.90000000000001 8.26794919243114
    vertex 170.0 37.90000000000001 0.0
    vertex 183.5857864376269 37.90000000000001 8.585786437626922
  endloop
endfacet
facet normal 0.0 1.0 0.0
  outer loop
    vertex 183.5857864376269 37.90000000000001 8.585786437626922
    vertex 170.0 37.90000000000001 0.0
    vertex 170.0 37.90000000000001 20.00000000000003
  endloop
endfacet
facet normal 0.0 1.0 0.0
  outer loop
    vertex 195.0 37.90000000000001 0.0
    vertex 184.0 37.90000000000001 8.26794919243114
    vertex 184.48236190979495 37.90000000000001 8.06814834742188
  endloop
endfacet
facet normal 0.0 1.0 0.0
  outer loop
    vertex 195.0 37.90000000000001 0.0
    vertex 184.48236190979495 37.90000000000001 8.06814834742188
    vertex 185.0 37.90000000000001 8.000000000000018
  endloop
endfacet
facet normal 0.0 1.0 0.0
  outer loop
    vertex 183.5857864376269 37.90000000000001 8.585786437626922
    vertex 170.0 37.90000000000001 20.00000000000003
    vertex 183.26794919243113 37.90000000000001 9.000000000000014
  endloop
endfacet
facet normal 0.0 1.0 0.0
  outer loop
    vertex 183.26794919243113 37.90000000000001 9.000000000000014
    vertex 170.0 37.90000000000001 20.00000000000003
    vertex 183.06814834742187 37.90000000000001 9.482361909794973
  endloop
endfacet
facet normal 0.0 1.0 0.0
  outer loop
    vertex 183.06814834742187 37.90000000000001 9.482361909794973
    vertex 170.0 37.90000000000001 20.00000000000003
    vertex 183.0 37.90000000000001 10.000000000000014
  endloop
endfacet
facet normal 0.0 1.0 0.0
  outer loop
    vertex 183.0 37.90000000000001 10.000000000000014
    vertex 170.0 37.90000000000001 20.00000000000003
    vertex 183.06814834742187 37.90000000000001 10.517638090205054
  endloop
endfacet
facet normal 0.0 1.0 0.0
  outer loop
    vertex 183.06814834742187 37.90000000000001 10.517638090205054
    vertex 170.0 37.90000000000001 20.00000000000003
    vertex 183.26794919243113 37.90000000000001 11.000000000000012
  endloop
endfacet
facet normal 0.0 1.0 0.0
  outer loop
    vertex 183.26794919243113 37.90000000000001 11.000000000000012
    vertex 170.0 37.90000000000001 20.00000000000003
    vertex 183.5857864376269 37.90000000000001 11.414213562373106
  endloop
endfacet
facet normal 0.0 1.0 0.0
  outer loop
    vertex 183.5857864376269 37.90000000000001 11.414213562373106
    vertex 170.0 37.90000000000001 20.00000000000003
    vertex 184.0 37.90000000000001 11.732050807568887
  endloop
endfacet
facet normal 0.0 1.0 0.0
  outer loop
    vertex 184.0 37.90000000000001 11.732050807568887
    vertex 170.0 37.90000000000001 20.00000000000003
    vertex 184.48236190979495 37.90000000000001 11.931851652578146
  endloop
endfacet
facet normal 0.0 1.0 0.0
  outer loop
    vertex 184.48236190979495 37.90000000000001 11.931851652578146
    vertex 170.0 37.90000000000001 20.00000000000003
    vertex 185.0 37.90000000000001 12.00000000000001
  endloop
endfacet
facet normal 0.0 1.0 0.0
  outer loop
    vertex 195.0 37.90000000000001 0.0
    vertex 186.73205080756887 37.90000000000001 9.000000000000016
    vertex 195.0 37.90000000000001 20.00000000000003
  endloop
endfacet
facet normal 0.0 1.0 0.0
  outer loop
    vertex 186.73205080756887 37.90000000000001 9.000000000000016
    vertex 195.0 37.90000000000001 0.0
    vertex 186.4142135623731 37.90000000000001 8.585786437626922
  endloop
endfacet
facet normal 0.0 1.0 0.0
  outer loop
    vertex 186.4142135623731 37.90000000000001 8.585786437626922
    vertex 195.0 37.90000000000001 0.0
    vertex 186.0 37.90000000000001 8.26794919243114
  endloop
endfacet
facet normal 0.0 1.0 0.0
  outer loop
    vertex 186.0 37.90000000000001 8.26794919243114
    vertex 195.0 37.90000000000001 0.0
    vertex 185.51763809020505 37.90000000000001 8.06814834742188
  endloop
endfacet
facet normal 0.0 1.0 0.0
  outer loop
    vertex 185.51763809020505 37.90000000000001 8.06814834742188
    vertex 195.0 37.90000000000001 0.0
    vertex 185.0 37.90000000000001 8.000000000000018
  endloop
endfacet
facet normal 0.0 1.0 0.0
  outer loop
    vertex 195.0 37.90000000000001 20.00000000000003
    vertex 186.73205080756887 37.90000000000001 9.000000000000016
    vertex 186.93185165257813 37.90000000000001 9.482361909794975
  endloop
endfacet
facet normal 0.0 1.0 0.0
  outer loop
    vertex 195.0 37.90000000000001 20.00000000000003
    vertex 186.93185165257813 37.90000000000001 9.482361909794975
    vertex 187.0 37.90000000000001 10.000000000000014
  endloop
endfacet
facet normal 0.0 1.0 0.0
  outer loop
    vertex 195.0 37.90000000000001 20.00000000000003
    vertex 187.0 37.90000000000001 10.000000000000014
    vertex 186.93185165257813 37.90000000000001 10.517638090205057
  endloop
endfacet
facet normal 0.0 1.0 0.0
  outer loop
    vertex 195.0 37.90000000000001 20.00000000000003
    vertex 186.93185165257813 37.90000000000001 10.517638090205057
    vertex 186.73205080756887 37.90000000000001 11.000000000000014
  endloop
endfacet
facet normal 0.0 1.0 0.0
  outer loop
    vertex 195.0 37.90000000000001 20.00000000000003
    vertex 186.73205080756887 37.90000000000001 11.000000000000014
    vertex 186.4142135623731 37.90000000000001 11.414213562373106
  endloop
endfacet
facet normal 0.0 1.0 0.0
  outer loop
    vertex 195.0 37.90000000000001 20.00000000000003
    vertex 186.4142135623731 37.90000000000001 11.414213562373106
    vertex 186.0 37.90000000000001 11.732050807568887
  endloop
endfacet
facet normal 0.0 1.0 0.0
  outer loop
    vertex 195.0 37.90000000000001 20.00000000000003
    vertex 186.0 37.90000000000001 11.732050807568887
    vertex 185.51763809020505 37.90000000000001 11.931851652578146
  endloop
endfacet
facet normal 0.0 1.0 0.0
  outer loop
    vertex 195.0 37.90000000000001 20.00000000000003
    vertex 185.51763809020505 37.90000000000001 11.931851652578146
    vertex 185.0 37.90000000000001 12.00000000000001
  endloop
endfacet
facet normal 0.0 1.0 0.0
  outer loop
    vertex 195.0 37.90000000000001 20.00000000000003
    vertex 185.0 37.90000000000001 12.00000000000001
    vertex 170.0 37.90000000000001 20.00000000000003
  endloop
endfacet
facet normal -2.964036390898716e-32 -1.0 -1.6561481597857752e-31
  outer loop
    vertex 195.0 32.900000000000006 0.0
    vertex 186.0 32.900000000000006 8.26794919243114
    vertex 175.0 32.900000000000006 0.0
  endloop
endfacet
facet normal -2.964036390898716e-32 -1.0 -1.6561481597857752e-31
  outer loop
    vertex 186.0 32.900000000000006 8.26794919243114
    vertex 195.0 32.900000000000006 0.0
    vertex 186.4142135623731 32.900000000000006 8.585786437626922
  endloop
endfacet
facet normal -2.964036390898716e-32 -1.0 -1.6561481597857752e-31
  outer loop
    vertex 186.4142135623731 32.900000000000006 8.585786437626922
    vertex 195.0 32.900000000000006 0.0
    vertex 186.73205080756887 32.900000000000006 9.000000000000016
  endloop
endfacet
facet normal -2.964036390898716e-32 -1.0 -1.6561481597857752e-31
  outer loop
    vertex 186.73205080756887 32.900000000000006 9.000000000000016
    vertex 195.0 32.900000000000006 0.0
    vertex 195.0 32.900000000000006 20.00000000000003
  endloop
endfacet
facet normal -2.964036390898716e-32 -1.0 -1.6561481597857752e-31
  outer loop
    vertex 175.0 32.900000000000006 0.0
    vertex 186.0 32.900000000000006 8.26794919243114
    vertex 185.51763809020505 32.900000000000006 8.06814834742188
  endloop
endfacet
facet normal -2.964036390898716e-32 -1.0 -1.6561481597857752e-31
  outer loop
    vertex 175.0 32.900000000000006 0.0
    vertex 185.51763809020505 32.900000000000006 8.06814834742188
    vertex 185.0 32.900000000000006 8.000000000000018
  endloop
endfacet
facet normal -2.964036390898716e-32 -1.0 -1.6561481597857752e-31
  outer loop
    vertex 186.73205080756887 32.900000000000006 9.000000000000016
    vertex 195.0 32.900000000000006 20.00000000000003
    vertex 186.93185165257813 32.900000000000006 9.482361909794975
  endloop
endfacet
facet normal -2.964036390898716e-32 -1.0 -1.6561481597857752e-31
  outer loop
    vertex 186.93185165257813 32.900000000000006 9.482361909794975
    vertex 195.0 32.900000000000006 20.00000000000003
    vertex 187.0 32.900000000000006 10.000000000000014
  endloop
endfacet
facet normal -2.964036390898716e-32 -1.0 -1.6561481597857752e-31
  outer loop
    vertex 187.0 32.900000000000006 10.000000000000014
    vertex 195.0 32.900000000000006 20.00000000000003
    vertex 186.93185165257813 32.900000000000006 10.517638090205057
  endloop
endfacet
facet normal -2.964036390898716e-32 -1.0 -1.6561481597857752e-31
  outer loop
    vertex 186.93185165257813 32.900000000000006 10.517638090205057
    vertex 195.0 32.900000000000006 20.00000000000003
    vertex 186.73205080756887 32.900000000000006 11.000000000000014
  endloop
endfacet
facet normal -2.964036390898716e-32 -1.0 -1.6561481597857752e-31
  outer loop
    vertex 186.73205080756887 32.900000000000006 11.000000000000014
    vertex 195.0 32.900000000000006 20.00000000000003
    vertex 186.4142135623731 32.900000000000006 11.414213562373106
  endloop
endfacet
facet normal -2.964036390898716e-32 -1.0 -1.6561481597857752e-31
  outer loop
    vertex 186.4142135623731 32.900000000000006 11.414213562373106
    vertex 195.0 32.900000000000006 20.00000000000003
    vertex 186.0 32.900000000000006 11.732050807568887
  endloop
endfacet
facet normal -2.964036390898716e-32 -1.0 -1.6561481597857752e-31
  outer loop
    vertex 186.0 32.900000000000006 11.732050807568887
    vertex 195.0 32.900000000000006 20.00000000000003
    vertex 185.51763809020505 32.900000000000006 11.931851652578146
  endloop
endfacet
facet normal -2.964036390898716e-32 -1.0 -1.6561481597857752e-31
  outer loop
    vertex 185.51763809020505 32.900000000000006 11.931851652578146
    vertex 195.0 32.900000000000006 20.00000000000003
    vertex 185.0 32.900000000000006 12.00000000000001
  endloop
endfacet
facet normal -2.964036390898716e-32 -1.0 -1.6561481597857752e-31
  outer loop
    vertex 175.0 32.900000000000006 0.0
    vertex 183.26794919243113 32.900000000000006 9.000000000000014
    vertex 175.0 32.900000000000006 20.00000000000003
  endloop
endfacet
facet normal -2.964036390898716e-32 -1.0 -1.6561481597857752e-31
  outer loop
    vertex 183.26794919243113 32.900000000000006 9.000000000000014
    vertex 175.0 32.900000000000006 0.0
    vertex 183.5857864376269 32.900000000000006 8.585786437626922
  endloop
endfacet
facet normal -2.964036390898716e-32 -1.0 -1.6561481597857752e-31
  outer loop
    vertex 183.5857864376269 32.900000000000006 8.585786437626922
    vertex 175.0 32.900000000000006 0.0
    vertex 184.0 32.900000000000006 8.26794919243114
  endloop
endfacet
facet normal -2.964036390898716e-32 -1.0 -1.6561481597857752e-31
  outer loop
    vertex 184.0 32.900000000000006 8.26794919243114
    vertex 175.0 32.900000000000006 0.0
    vertex 184.48236190979495 32.900000000000006 8.06814834742188
  endloop
endfacet
facet normal -2.964036390898716e-32 -1.0 -1.6561481597857752e-31
  outer loop
    vertex 184.48236190979495 32.900000000000006 8.06814834742188
    vertex 175.0 32.900000000000006 0.0
    vertex 185.0 32.900000000000006 8.000000000000018
  endloop
endfacet
facet normal -2.964036390898716e-32 -1.0 -1.6561481597857752e-31
  outer loop
    vertex 175.0 32.900000000000006 20.00000000000003
    vertex 183.26794919243113 32.900000000000006 9.000000000000014
    vertex 183.06814834742187 32.900000000000006 9.482361909794973
  endloop
endfacet
facet normal -2.964036390898716e-32 -1.0 -1.6561481597857752e-31
  outer loop
    vertex 175.0 32.900000000000006 20.00000000000003
    vertex 183.06814834742187 32.900000000000006 9.482361909794973
    vertex 183.0 32.900000000000006 10.000000000000014
  endloop
endfacet
facet normal -2.964036390898716e-32 -1.0 -1.6561481597857752e-31
  outer loop
    vertex 175.0 32.900000000000006 20.00000000000003
    vertex 183.0 32.900000000000006 10.000000000000014
    vertex 183.06814834742187 32.900000000000006 10.517638090205054
  endloop
endfacet
facet normal -2.964036390898716e-32 -1.0 -1.6561481597857752e-31
  outer loop
    vertex 175.0 32.900000000000006 20.00000000000003
    vertex 183.06814834742187 32.900000000000006 10.517638090205054
    vertex 183.26794919243113 32.900000000000006 11.000000000000012
  endloop
endfacet
facet normal -2.964036390898716e-32 -1.0 -1.6561481597857752e-31
  outer loop
    vertex 175.0 32.900000000000006 20.00000000000003
    vertex 183.26794919243113 32.900000000000006 11.000000000000012
    vertex 183.5857864376269 32.900000000000006 11.414213562373106
  endloop
endfacet
facet normal -2.964036390898716e-32 -1.0 -1.6561481597857752e-31
  outer loop
    vertex 175.0 32.900000000000006 20.00000000000003
    vertex 183.5857864376269 32.900000000000006 11.414213562373106
    vertex 184.0 32.900000000000006 11.732050807568887
  endloop
endfacet
facet normal -2.964036390898716e-32 -1.0 -1.6561481597857752e-31
  outer loop
    vertex 175.0 32.900000000000006 20.00000000000003
    vertex 184.0 32.900000000000006 11.732050807568887
    vertex 184.48236190979495 32.900000000000006 11.931851652578146
  endloop
endfacet
facet normal -2.964036390898716e-32 -1.0 -1.6561481597857752e-31
  outer loop
    vertex 175.0 32.900000000000006 20.00000000000003
    vertex 184.48236190979495 32.900000000000006 11.931851652578146
    vertex 185.0 32.900000000000006 12.00000000000001
  endloop
endfacet
facet normal -2.964036390898716e-32 -1.0 -1.6561481597857752e-31
  outer loop
    vertex 175.0 32.900000000000006 20.00000000000003
    vertex 185.0 32.900000000000006 12.00000000000001
    vertex 195.0 32.900000000000006 20.00000000000003
  endloop
endfacet
facet normal -1.0 0.0 0.0
  outer loop
    vertex 170.0 37.90000000000001 20.00000000000003
    vertex 170.0 25.90000000000001 0.0
    vertex 170.0 25.90000000000001 20.00000000000003
  endloop
endfacet
facet normal -1.0 0.0 0.0
  outer loop
    vertex 170.0 25.90000000000001 0.0
    vertex 170.0 37.90000000000001 20.00000000000003
    vertex 170.0 37.90000000000001 0.0
  endloop
endfacet
facet normal 0.0 0.9238795325112863 0.3826834323650914
  outer loop
    vertex 0.0 8.518148347421867 9.482361909794973
    vertex 5.0 8.717949192431128 9.000000000000014
    vertex 0.0 8.717949192431128 9.000000000000014
  endloop
endfacet
facet normal 0.0 0.9238795325112863 0.3826834323650914
  outer loop
    vertex 5.0 8.717949192431128 9.000000000000014
    vertex 0.0 8.518148347421867 9.482361909794973
    vertex 5.0 8.518148347421867 9.482361909794973
  endloop
endfacet
facet normal 1.0 0.0 0.0
  outer loop
    vertex 195.0 37.90000000000001 0.0
    vertex 195.0 32.900000000000006 20.00000000000003
    vertex 195.0 32.900000000000006 0.0
  endloop
endfacet
facet normal 1.0 0.0 0.0
  outer loop
    vertex 195.0 32.900000000000006 20.00000000000003
    vertex 195.0 37.90000000000001 0.0
    vertex 195.0 37.90000000000001 20.00000000000003
  endloop
endfacet
facet normal 1.0 -0.0 -0.0
  outer loop
    vertex 175.0 32.900000000000006 0.0
    vertex 175.0 20.90000000000001 20.00000000000003
    vertex 175.0 20.90000000000001 0.0
  endloop
endfacet
facet normal 1.0 -0.0 -0.0
  outer loop
    vertex 175.0 20.90000000000001 20.00000000000003
    vertex 175.0 32.900000000000006 0.0
    vertex 175.0 32.900000000000006 20.00000000000003
  endloop
endfacet
facet normal 0.0 0.9914448613738104 0.1305261922200518
  outer loop
    vertex 0.0 8.450000000000005 10.000000000000014
    vertex 5.0 8.518148347421867 9.482361909794973
    vertex 0.0 8.518148347421867 9.482361909794973
  endloop
endfacet
facet normal 0.0 0.9914448613738104 0.1305261922200518
  outer loop
    vertex 5.0 8.518148347421867 9.482361909794973
    vertex 0.0 8.450000000000005 10.000000000000014
    vertex 5.0 8.450000000000005 10.000000000000014
  endloop
endfacet
facet normal 0.0 0.7933533402912347 0.6087614290087213
  outer loop
    vertex 0.0 8.717949192431128 9.000000000000014
    vertex 5.0 9.03578643762691 8.58578643762692
    vertex 0.0 9.03578643762691 8.58578643762692
  endloop
endfacet
facet normal 0.0 0.7933533402912347 0.6087614290087213
  outer loop
    vertex 5.0 9.03578643762691 8.58578643762692
    vertex 0.0 8.717949192431128 9.000000000000014
    vertex 5.0 8.717949192431128 9.000000000000014
  endloop
endfacet
facet normal 0.0 0.7933533402912327 -0.608761429008724
  outer loop
    vertex 0.0 9.008841857086663 11.379098701352495
    vertex 5.0 8.717949192431124 11.000000000000014
    vertex 0.0 8.717949192431124 11.000000000000014
  endloop
endfacet
facet normal 0.0 0.7933533402912327 -0.608761429008724
  outer loop
    vertex 5.0 8.717949192431124 11.000000000000014
    vertex 0.0 9.008841857086663 11.379098701352495
    vertex 5.0 9.008841857086663 11.379098701352495
  endloop
endfacet
facet normal 0.0 0.7933533402912566 -0.6087614290086928
  outer loop
    vertex 0.0 9.035786437626907 11.414213562373108
    vertex 5.0 9.008841857086663 11.379098701352495
    vertex 0.0 9.008841857086663 11.379098701352495
  endloop
endfacet
facet normal 0.0 0.7933533402912566 -0.6087614290086928
  outer loop
    vertex 5.0 9.008841857086663 11.379098701352495
    vertex 0.0 9.035786437626907 11.414213562373108
    vertex 5.0 9.035786437626907 11.414213562373108
  endloop
endfacet
facet normal 0.0 0.9238795325112885 -0.38268343236508573
  outer loop
    vertex 0.0 8.717949192431124 11.000000000000014
    vertex 5.0 8.518148347421867 10.517638090205054
    vertex 0.0 8.518148347421867 10.517638090205054
  endloop
endfacet
facet normal 0.0 0.9238795325112885 -0.38268343236508573
  outer loop
    vertex 5.0 8.518148347421867 10.517638090205054
    vertex 0.0 8.717949192431124 11.000000000000014
    vertex 5.0 8.717949192431124 11.000000000000014
  endloop
endfacet
facet normal -0.0 1.0 -0.0
  outer loop
    vertex 7.049916206369744e-16 25.90000000000001 20.00000000000003
    vertex 100.00000000000001 25.90000000000001 0.0
    vertex 7.049916206369744e-16 25.90000000000001 0.0
  endloop
endfacet
facet normal -0.0 1.0 -0.0
  outer loop
    vertex 100.00000000000001 25.90000000000001 0.0
    vertex 7.049916206369744e-16 25.90000000000001 20.00000000000003
    vertex 170.0 25.90000000000001 0.0
  endloop
endfacet
facet normal -0.0 1.0 -0.0
  outer loop
    vertex 170.0 25.90000000000001 0.0
    vertex 7.049916206369744e-16 25.90000000000001 20.00000000000003
    vertex 170.0 25.90000000000001 20.00000000000003
  endloop
endfacet
facet normal 0.0 0.9914448613738104 -0.13052619222005216
  outer loop
    vertex 0.0 8.518148347421867 10.517638090205054
    vertex 5.0 8.450000000000005 10.000000000000014
    vertex 0.0 8.450000000000005 10.000000000000014
  endloop
endfacet
facet normal 0.0 0.9914448613738104 -0.13052619222005216
  outer loop
    vertex 5.0 8.450000000000005 10.000000000000014
    vertex 0.0 8.518148347421867 10.517638090205054
    vertex 5.0 8.518148347421867 10.517638090205054
  endloop
endfacet
facet normal -0.0 -0.0 1.0
  outer loop
    vertex 5.0 0.0 20.00000000000003
    vertex 7.049916206369744e-16 25.90000000000001 20.00000000000003
    vertex 7.049916206369744e-16 0.0 20.00000000000003
  endloop
endfacet
facet normal -0.0 -0.0 1.0
  outer loop
    vertex 7.049916206369744e-16 25.90000000000001 20.00000000000003
    vertex 5.0 0.0 20.00000000000003
    vertex 5.0 20.900000000000006 20.00000000000003
  endloop
endfacet
facet normal -0.0 -0.0 1.0
  outer loop
    vertex 7.049916206369744e-16 25.90000000000001 20.00000000000003
    vertex 5.0 20.900000000000006 20.00000000000003
    vertex 170.0 25.90000000000001 20.00000000000003
  endloop
endfacet
facet normal -0.0 -0.0 1.0
  outer loop
    vertex 170.0 25.90000000000001 20.00000000000003
    vertex 5.0 20.900000000000006 20.00000000000003
    vertex 175.0 20.90000000000001 20.00000000000003
  endloop
endfacet
facet normal -0.0 -0.0 1.0
  outer loop
    vertex 170.0 25.90000000000001 20.00000000000003
    vertex 175.0 20.90000000000001 20.00000000000003
    vertex 170.0 37.90000000000001 20.00000000000003
  endloop
endfacet
facet normal -0.0 -0.0 1.0
  outer loop
    vertex 170.0 37.90000000000001 20.00000000000003
    vertex 175.0 20.90000000000001 20.00000000000003
    vertex 175.0 32.900000000000006 20.00000000000003
  endloop
endfacet
facet normal -0.0 -0.0 1.0
  outer loop
    vertex 170.0 37.90000000000001 20.00000000000003
    vertex 175.0 32.900000000000006 20.00000000000003
    vertex 195.0 37.90000000000001 20.00000000000003
  endloop
endfacet
facet normal -0.0 -0.0 1.0
  outer loop
    vertex 195.0 37.90000000000001 20.00000000000003
    vertex 175.0 32.900000000000006 20.00000000000003
    vertex 195.0 32.900000000000006 20.00000000000003
  endloop
endfacet
endsolid Screen Retention Arm
