solid viewport mold
facet normal 0.0 0.0 1.0
  outer loop
    vertex 215.0 0.0 12.0
    vertex 0.0 130.0 12.0
    vertex 0.0 0.0 12.0
  endloop
endfacet
facet normal 0.0 0.0 1.0
  outer loop
    vertex 0.0 130.0 12.0
    vertex 215.0 0.0 12.0
    vertex 215.0 130.0 12.0
  endloop
endfacet
facet normal 0.0 0.0 -1.0
  outer loop
    vertex 215.0 130.0 0.0
    vertex 0.0 0.0 0.0
    vertex 0.0 130.0 0.0
  endloop
endfacet
facet normal 0.0 0.0 -1.0
  outer loop
    vertex 0.0 0.0 0.0
    vertex 215.0 130.0 0.0
    vertex 215.0 0.0 0.0
  endloop
endfacet
facet normal -1.0 0.0 0.0
  outer loop
    vertex 0.0 130.0 12.0
    vertex 0.0 0.0 0.0
    vertex 0.0 0.0 12.0
  endloop
endfacet
facet normal -1.0 0.0 0.0
  outer loop
    vertex 0.0 0.0 0.0
    vertex 0.0 130.0 12.0
    vertex 0.0 130.0 0.0
  endloop
endfacet
facet normal 0.0 1.0 0.0
  outer loop
    vertex 0.0 130.0 12.0
    vertex 215.0 130.0 0.0
    vertex 0.0 130.0 0.0
  endloop
endfacet
facet normal 0.0 1.0 0.0
  outer loop
    vertex 215.0 130.0 0.0
    vertex 0.0 130.0 12.0
    vertex 215.0 130.0 12.0
  endloop
endfacet
facet normal 1.0 0.0 0.0
  outer loop
    vertex 215.0 130.0 0.0
    vertex 215.0 0.0 12.0
    vertex 215.0 0.0 0.0
  endloop
endfacet
facet normal 1.0 0.0 0.0
  outer loop
    vertex 215.0 0.0 12.0
    vertex 215.0 130.0 0.0
    vertex 215.0 130.0 12.0
  endloop
endfacet
facet normal -0.0 -1.0 -0.0
  outer loop
    vertex 215.0 0.0 12.0
    vertex 0.0 0.0 0.0
    vertex 215.0 0.0 0.0
  endloop
endfacet
facet normal -0.0 -1.0 -0.0
  outer loop
    vertex 0.0 0.0 0.0
    vertex 215.0 0.0 12.0
    vertex 0.0 0.0 12.0
  endloop
endfacet
endsolid viewport mold
