solid Rollo
facet normal 0.0 -1.0 0.0
  outer loop
    vertex 64.1508638599984 44.12296884378032 4.511946372076636e-14
    vertex 55.15086385999842 44.12296884378032 8.567949192431183
    vertex 39.150863859998395 44.12296884378032 4.511946372076636e-14
  endloop
endfacet
facet normal 0.0 -1.0 0.0
  outer loop
    vertex 55.15086385999842 44.12296884378032 8.567949192431183
    vertex 64.1508638599984 44.12296884378032 4.511946372076636e-14
    vertex 55.565077422371516 44.12296884378032 8.885786437626951
  endloop
endfacet
facet normal 0.0 -1.0 0.0
  outer loop
    vertex 55.565077422371516 44.12296884378032 8.885786437626951
    vertex 64.1508638599984 44.12296884378032 4.511946372076636e-14
    vertex 55.882914667567285 44.12296884378032 9.30000000000005
  endloop
endfacet
facet normal 0.0 -1.0 0.0
  outer loop
    vertex 55.882914667567285 44.12296884378032 9.30000000000005
    vertex 64.1508638599984 44.12296884378032 4.511946372076636e-14
    vertex 56.082715512576534 44.12296884378032 9.782361909795004
  endloop
endfacet
facet normal 0.0 -1.0 0.0
  outer loop
    vertex 56.082715512576534 44.12296884378032 9.782361909795004
    vertex 64.1508638599984 44.12296884378032 4.511946372076636e-14
    vertex 64.1508638599984 44.12296884378032 40.000000000000064
  endloop
endfacet
facet normal 0.0 -1.0 0.0
  outer loop
    vertex 39.150863859998395 44.12296884378032 4.511946372076636e-14
    vertex 55.15086385999842 44.12296884378032 8.567949192431183
    vertex 54.66850195020344 44.12296884378032 8.368148347421904
  endloop
endfacet
facet normal 0.0 -1.0 0.0
  outer loop
    vertex 39.150863859998395 44.12296884378032 4.511946372076636e-14
    vertex 54.66850195020344 44.12296884378032 8.368148347421904
    vertex 54.15086385999842 44.12296884378032 8.300000000000052
  endloop
endfacet
facet normal 0.0 -1.0 0.0
  outer loop
    vertex 56.082715512576534 44.12296884378032 9.782361909795004
    vertex 64.1508638599984 44.12296884378032 40.000000000000064
    vertex 56.15086385999841 44.12296884378032 10.300000000000049
  endloop
endfacet
facet normal 0.0 -1.0 0.0
  outer loop
    vertex 56.15086385999841 44.12296884378032 10.300000000000049
    vertex 64.1508638599984 44.12296884378032 40.000000000000064
    vertex 56.082715512576534 44.12296884378032 10.817638090205094
  endloop
endfacet
facet normal 0.0 -1.0 0.0
  outer loop
    vertex 56.082715512576534 44.12296884378032 10.817638090205094
    vertex 64.1508638599984 44.12296884378032 40.000000000000064
    vertex 55.882914667567285 44.12296884378032 11.300000000000047
  endloop
endfacet
facet normal 0.0 -1.0 0.0
  outer loop
    vertex 55.882914667567285 44.12296884378032 11.300000000000047
    vertex 64.1508638599984 44.12296884378032 40.000000000000064
    vertex 55.565077422371516 44.12296884378032 11.714213562373148
  endloop
endfacet
facet normal 0.0 -1.0 0.0
  outer loop
    vertex 55.565077422371516 44.12296884378032 11.714213562373148
    vertex 64.1508638599984 44.12296884378032 40.000000000000064
    vertex 55.15086385999842 44.12296884378032 12.032050807568917
  endloop
endfacet
facet normal 0.0 -1.0 0.0
  outer loop
    vertex 55.15086385999842 44.12296884378032 12.032050807568917
    vertex 64.1508638599984 44.12296884378032 40.000000000000064
    vertex 54.66850195020344 44.12296884378032 12.231851652578193
  endloop
endfacet
facet normal 0.0 -1.0 0.0
  outer loop
    vertex 54.66850195020344 44.12296884378032 12.231851652578193
    vertex 64.1508638599984 44.12296884378032 40.000000000000064
    vertex 54.15086385999842 44.12296884378032 12.300000000000045
  endloop
endfacet
facet normal 0.0 -1.0 0.0
  outer loop
    vertex 54.15086385999842 44.12296884378032 12.300000000000045
    vertex 64.1508638599984 44.12296884378032 40.000000000000064
    vertex 55.882914667567285 44.12296884378032 29.10000000000006
  endloop
endfacet
facet normal 0.0 -1.0 0.0
  outer loop
    vertex 54.15086385999842 44.12296884378032 12.300000000000045
    vertex 55.882914667567285 44.12296884378032 29.10000000000006
    vertex 55.565077422371516 44.12296884378032 28.68578643762696
  endloop
endfacet
facet normal 0.0 -1.0 0.0
  outer loop
    vertex 54.15086385999842 44.12296884378032 12.300000000000045
    vertex 55.565077422371516 44.12296884378032 28.68578643762696
    vertex 55.15086385999842 44.12296884378032 28.36794919243119
  endloop
endfacet
facet normal 0.0 -1.0 0.0
  outer loop
    vertex 54.15086385999842 44.12296884378032 12.300000000000045
    vertex 55.15086385999842 44.12296884378032 28.36794919243119
    vertex 54.66850195020344 44.12296884378032 28.168148347421912
  endloop
endfacet
facet normal 0.0 -1.0 0.0
  outer loop
    vertex 54.15086385999842 44.12296884378032 12.300000000000045
    vertex 54.66850195020344 44.12296884378032 28.168148347421912
    vertex 54.15086385999842 44.12296884378032 28.100000000000062
  endloop
endfacet
facet normal 0.0 -1.0 0.0
  outer loop
    vertex 55.882914667567285 44.12296884378032 29.10000000000006
    vertex 64.1508638599984 44.12296884378032 40.000000000000064
    vertex 56.082715512576534 44.12296884378032 29.58236190979501
  endloop
endfacet
facet normal 0.0 -1.0 0.0
  outer loop
    vertex 56.082715512576534 44.12296884378032 29.58236190979501
    vertex 64.1508638599984 44.12296884378032 40.000000000000064
    vertex 56.15086385999841 44.12296884378032 30.10000000000006
  endloop
endfacet
facet normal 0.0 -1.0 0.0
  outer loop
    vertex 56.15086385999841 44.12296884378032 30.10000000000006
    vertex 64.1508638599984 44.12296884378032 40.000000000000064
    vertex 56.082715512576534 44.12296884378032 30.6176380902051
  endloop
endfacet
facet normal 0.0 -1.0 0.0
  outer loop
    vertex 56.082715512576534 44.12296884378032 30.6176380902051
    vertex 64.1508638599984 44.12296884378032 40.000000000000064
    vertex 55.882914667567285 44.12296884378032 31.100000000000055
  endloop
endfacet
facet normal 0.0 -1.0 0.0
  outer loop
    vertex 55.882914667567285 44.12296884378032 31.100000000000055
    vertex 64.1508638599984 44.12296884378032 40.000000000000064
    vertex 55.565077422371516 44.12296884378032 31.514213562373158
  endloop
endfacet
facet normal 0.0 -1.0 0.0
  outer loop
    vertex 55.565077422371516 44.12296884378032 31.514213562373158
    vertex 64.1508638599984 44.12296884378032 40.000000000000064
    vertex 55.15086385999842 44.12296884378032 31.832050807568926
  endloop
endfacet
facet normal 0.0 -1.0 0.0
  outer loop
    vertex 55.15086385999842 44.12296884378032 31.832050807568926
    vertex 64.1508638599984 44.12296884378032 40.000000000000064
    vertex 54.66850195020344 44.12296884378032 32.031851652578204
  endloop
endfacet
facet normal 0.0 -1.0 0.0
  outer loop
    vertex 54.66850195020344 44.12296884378032 32.031851652578204
    vertex 64.1508638599984 44.12296884378032 40.000000000000064
    vertex 54.15086385999842 44.12296884378032 32.10000000000005
  endloop
endfacet
facet normal 0.0 -1.0 0.0
  outer loop
    vertex 39.150863859998395 44.12296884378032 4.511946372076636e-14
    vertex 52.41881305242955 44.12296884378032 9.30000000000005
    vertex 39.150863859998395 44.12296884378032 40.000000000000064
  endloop
endfacet
facet normal 0.0 -1.0 0.0
  outer loop
    vertex 52.41881305242955 44.12296884378032 9.30000000000005
    vertex 39.150863859998395 44.12296884378032 4.511946372076636e-14
    vertex 52.73665029762532 44.12296884378032 8.885786437626951
  endloop
endfacet
facet normal 0.0 -1.0 0.0
  outer loop
    vertex 52.73665029762532 44.12296884378032 8.885786437626951
    vertex 39.150863859998395 44.12296884378032 4.511946372076636e-14
    vertex 53.15086385999842 44.12296884378032 8.567949192431183
  endloop
endfacet
facet normal 0.0 -1.0 0.0
  outer loop
    vertex 53.15086385999842 44.12296884378032 8.567949192431183
    vertex 39.150863859998395 44.12296884378032 4.511946372076636e-14
    vertex 53.63322576979339 44.12296884378032 8.368148347421904
  endloop
endfacet
facet normal 0.0 -1.0 0.0
  outer loop
    vertex 53.63322576979339 44.12296884378032 8.368148347421904
    vertex 39.150863859998395 44.12296884378032 4.511946372076636e-14
    vertex 54.15086385999842 44.12296884378032 8.300000000000052
  endloop
endfacet
facet normal 0.0 -1.0 0.0
  outer loop
    vertex 39.150863859998395 44.12296884378032 40.000000000000064
    vertex 52.41881305242955 44.12296884378032 9.30000000000005
    vertex 52.21901220742029 44.12296884378032 9.782361909795004
  endloop
endfacet
facet normal 0.0 -1.0 0.0
  outer loop
    vertex 39.150863859998395 44.12296884378032 40.000000000000064
    vertex 52.21901220742029 44.12296884378032 9.782361909795004
    vertex 52.15086385999842 44.12296884378032 10.300000000000049
  endloop
endfacet
facet normal 0.0 -1.0 0.0
  outer loop
    vertex 39.150863859998395 44.12296884378032 40.000000000000064
    vertex 52.15086385999842 44.12296884378032 10.300000000000049
    vertex 52.21901220742029 44.12296884378032 10.817638090205094
  endloop
endfacet
facet normal 0.0 -1.0 0.0
  outer loop
    vertex 39.150863859998395 44.12296884378032 40.000000000000064
    vertex 52.21901220742029 44.12296884378032 10.817638090205094
    vertex 52.41881305242955 44.12296884378032 11.300000000000047
  endloop
endfacet
facet normal 0.0 -1.0 0.0
  outer loop
    vertex 39.150863859998395 44.12296884378032 40.000000000000064
    vertex 52.41881305242955 44.12296884378032 11.300000000000047
    vertex 52.73665029762532 44.12296884378032 11.714213562373148
  endloop
endfacet
facet normal 0.0 -1.0 0.0
  outer loop
    vertex 39.150863859998395 44.12296884378032 40.000000000000064
    vertex 52.73665029762532 44.12296884378032 11.714213562373148
    vertex 53.15086385999842 44.12296884378032 12.032050807568917
  endloop
endfacet
facet normal 0.0 -1.0 0.0
  outer loop
    vertex 39.150863859998395 44.12296884378032 40.000000000000064
    vertex 53.15086385999842 44.12296884378032 12.032050807568917
    vertex 53.63322576979339 44.12296884378032 12.231851652578193
  endloop
endfacet
facet normal 0.0 -1.0 0.0
  outer loop
    vertex 39.150863859998395 44.12296884378032 40.000000000000064
    vertex 53.63322576979339 44.12296884378032 12.231851652578193
    vertex 54.15086385999842 44.12296884378032 12.300000000000045
  endloop
endfacet
facet normal 0.0 -1.0 0.0
  outer loop
    vertex 39.150863859998395 44.12296884378032 40.000000000000064
    vertex 54.15086385999842 44.12296884378032 12.300000000000045
    vertex 52.73665029762532 44.12296884378032 28.68578643762696
  endloop
endfacet
facet normal 0.0 -1.0 0.0
  outer loop
    vertex 52.73665029762532 44.12296884378032 28.68578643762696
    vertex 54.15086385999842 44.12296884378032 12.300000000000045
    vertex 53.15086385999842 44.12296884378032 28.36794919243119
  endloop
endfacet
facet normal 0.0 -1.0 0.0
  outer loop
    vertex 53.15086385999842 44.12296884378032 28.36794919243119
    vertex 54.15086385999842 44.12296884378032 12.300000000000045
    vertex 53.63322576979339 44.12296884378032 28.168148347421912
  endloop
endfacet
facet normal 0.0 -1.0 0.0
  outer loop
    vertex 53.63322576979339 44.12296884378032 28.168148347421912
    vertex 54.15086385999842 44.12296884378032 12.300000000000045
    vertex 54.15086385999842 44.12296884378032 28.100000000000062
  endloop
endfacet
facet normal 0.0 -1.0 0.0
  outer loop
    vertex 39.150863859998395 44.12296884378032 40.000000000000064
    vertex 52.73665029762532 44.12296884378032 28.68578643762696
    vertex 52.41881305242955 44.12296884378032 29.10000000000006
  endloop
endfacet
facet normal 0.0 -1.0 0.0
  outer loop
    vertex 39.150863859998395 44.12296884378032 40.000000000000064
    vertex 52.41881305242955 44.12296884378032 29.10000000000006
    vertex 52.21901220742029 44.12296884378032 29.58236190979501
  endloop
endfacet
facet normal 0.0 -1.0 0.0
  outer loop
    vertex 39.150863859998395 44.12296884378032 40.000000000000064
    vertex 52.21901220742029 44.12296884378032 29.58236190979501
    vertex 52.15086385999842 44.12296884378032 30.10000000000006
  endloop
endfacet
facet normal 0.0 -1.0 0.0
  outer loop
    vertex 39.150863859998395 44.12296884378032 40.000000000000064
    vertex 52.15086385999842 44.12296884378032 30.10000000000006
    vertex 52.21901220742029 44.12296884378032 30.6176380902051
  endloop
endfacet
facet normal 0.0 -1.0 0.0
  outer loop
    vertex 39.150863859998395 44.12296884378032 40.000000000000064
    vertex 52.21901220742029 44.12296884378032 30.6176380902051
    vertex 52.41881305242955 44.12296884378032 31.100000000000055
  endloop
endfacet
facet normal 0.0 -1.0 0.0
  outer loop
    vertex 39.150863859998395 44.12296884378032 40.000000000000064
    vertex 52.41881305242955 44.12296884378032 31.100000000000055
    vertex 52.73665029762532 44.12296884378032 31.514213562373158
  endloop
endfacet
facet normal 0.0 -1.0 0.0
  outer loop
    vertex 39.150863859998395 44.12296884378032 40.000000000000064
    vertex 52.73665029762532 44.12296884378032 31.514213562373158
    vertex 53.15086385999842 44.12296884378032 31.832050807568926
  endloop
endfacet
facet normal 0.0 -1.0 0.0
  outer loop
    vertex 39.150863859998395 44.12296884378032 40.000000000000064
    vertex 53.15086385999842 44.12296884378032 31.832050807568926
    vertex 53.63322576979339 44.12296884378032 32.031851652578204
  endloop
endfacet
facet normal 0.0 -1.0 0.0
  outer loop
    vertex 39.150863859998395 44.12296884378032 40.000000000000064
    vertex 53.63322576979339 44.12296884378032 32.031851652578204
    vertex 54.15086385999842 44.12296884378032 32.10000000000005
  endloop
endfacet
facet normal 0.0 -1.0 0.0
  outer loop
    vertex 39.150863859998395 44.12296884378032 40.000000000000064
    vertex 54.15086385999842 44.12296884378032 32.10000000000005
    vertex 64.1508638599984 44.12296884378032 40.000000000000064
  endloop
endfacet
facet normal -1.0 0.0 0.0
  outer loop
    vertex 39.150863859998395 94.1229688437804 40.000000000000064
    vertex 39.150863859998395 44.12296884378032 4.511946372076636e-14
    vertex 39.150863859998395 44.12296884378032 40.000000000000064
  endloop
endfacet
facet normal -1.0 0.0 0.0
  outer loop
    vertex 39.150863859998395 44.12296884378032 4.511946372076636e-14
    vertex 39.150863859998395 94.1229688437804 40.000000000000064
    vertex 39.150863859998395 94.1229688437804 4.511946372076636e-14
  endloop
endfacet
facet normal -1.0 0.0 -3.524958103184871e-17
  outer loop
    vertex 42.15086385999844 109.12296884378038 40.000000000000064
    vertex 42.15086385999844 49.12296884378031 4.511946372076636e-14
    vertex 42.15086385999844 49.12296884378031 40.000000000000064
  endloop
endfacet
facet normal -1.0 0.0 -3.524958103184871e-17
  outer loop
    vertex 42.15086385999844 49.12296884378031 4.511946372076636e-14
    vertex 42.15086385999844 109.12296884378038 40.000000000000064
    vertex 42.15086385999844 109.12296884378038 4.511946372076636e-14
  endloop
endfacet
facet normal -1.0 7.049916206369756e-17 -1.762479051592435e-17
  outer loop
    vertex 64.1508638599984 49.12296884378031 40.000000000000064
    vertex 64.1508638599984 44.12296884378032 4.511946372076636e-14
    vertex 64.1508638599984 44.12296884378032 40.000000000000064
  endloop
endfacet
facet normal -1.0 7.049916206369756e-17 -1.762479051592435e-17
  outer loop
    vertex 64.1508638599984 44.12296884378032 4.511946372076636e-14
    vertex 64.1508638599984 49.12296884378031 40.000000000000064
    vertex 64.1508638599984 49.12296884378031 4.511946372076636e-14
  endloop
endfacet
facet normal 0.0 0.0 1.0
  outer loop
    vertex 39.150863859998395 94.1229688437804 4.511946372076636e-14
    vertex 14.150863859998399 99.1229688437804 4.511946372076636e-14
    vertex 14.150863859998399 94.1229688437804 4.511946372076636e-14
  endloop
endfacet
facet normal 0.0 0.0 1.0
  outer loop
    vertex 14.150863859998399 99.1229688437804 4.511946372076636e-14
    vertex 39.150863859998395 94.1229688437804 4.511946372076636e-14
    vertex 39.150863859998395 109.12296884378038 4.511946372076636e-14
  endloop
endfacet
facet normal 0.0 0.0 1.0
  outer loop
    vertex 39.150863859998395 44.12296884378032 4.511946372076636e-14
    vertex 42.15086385999844 49.12296884378031 4.511946372076636e-14
    vertex 39.150863859998395 94.1229688437804 4.511946372076636e-14
  endloop
endfacet
facet normal 0.0 0.0 1.0
  outer loop
    vertex 42.15086385999844 49.12296884378031 4.511946372076636e-14
    vertex 39.150863859998395 44.12296884378032 4.511946372076636e-14
    vertex 64.1508638599984 44.12296884378032 4.511946372076636e-14
  endloop
endfacet
facet normal 0.0 0.0 1.0
  outer loop
    vertex 39.150863859998395 94.1229688437804 4.511946372076636e-14
    vertex 42.15086385999844 49.12296884378031 4.511946372076636e-14
    vertex 39.150863859998395 109.12296884378038 4.511946372076636e-14
  endloop
endfacet
facet normal 0.0 0.0 1.0
  outer loop
    vertex 42.15086385999844 49.12296884378031 4.511946372076636e-14
    vertex 64.1508638599984 44.12296884378032 4.511946372076636e-14
    vertex 64.1508638599984 49.12296884378031 4.511946372076636e-14
  endloop
endfacet
facet normal 0.0 0.0 1.0
  outer loop
    vertex 42.15086385999844 109.12296884378038 4.511946372076636e-14
    vertex 39.150863859998395 109.12296884378038 4.511946372076636e-14
    vertex 42.15086385999844 49.12296884378031 4.511946372076636e-14
  endloop
endfacet
facet normal -8.531113796544642e-16 -9.340312427723721e-17 1.0
  outer loop
    vertex 39.150863859998395 94.1229688437804 40.000000000000064
    vertex 14.150863859998399 99.1229688437804 40.000000000000014
    vertex 14.150863859998399 94.1229688437804 40.000000000000014
  endloop
endfacet
facet normal -8.531113796544642e-16 -9.340312427723721e-17 1.0
  outer loop
    vertex 14.150863859998399 99.1229688437804 40.000000000000014
    vertex 39.150863859998395 94.1229688437804 40.000000000000064
    vertex 39.150863859998395 109.12296884378038 40.000000000000064
  endloop
endfacet
facet normal -8.531113796544642e-16 -9.340312427723721e-17 1.0
  outer loop
    vertex 39.150863859998395 44.12296884378032 40.000000000000064
    vertex 42.15086385999844 49.12296884378031 40.000000000000064
    vertex 39.150863859998395 94.1229688437804 40.000000000000064
  endloop
endfacet
facet normal -8.531113796544642e-16 -9.340312427723721e-17 1.0
  outer loop
    vertex 42.15086385999844 49.12296884378031 40.000000000000064
    vertex 39.150863859998395 44.12296884378032 40.000000000000064
    vertex 64.1508638599984 44.12296884378032 40.000000000000064
  endloop
endfacet
facet normal -8.531113796544642e-16 -9.340312427723721e-17 1.0
  outer loop
    vertex 39.150863859998395 94.1229688437804 40.000000000000064
    vertex 42.15086385999844 49.12296884378031 40.000000000000064
    vertex 39.150863859998395 109.12296884378038 40.000000000000064
  endloop
endfacet
facet normal -8.531113796544642e-16 -9.340312427723721e-17 1.0
  outer loop
    vertex 42.15086385999844 49.12296884378031 40.000000000000064
    vertex 64.1508638599984 44.12296884378032 40.000000000000064
    vertex 64.1508638599984 49.12296884378031 40.000000000000064
  endloop
endfacet
facet normal -8.531113796544642e-16 -9.340312427723721e-17 1.0
  outer loop
    vertex 42.15086385999844 109.12296884378038 40.000000000000064
    vertex 39.150863859998395 109.12296884378038 40.000000000000064
    vertex 42.15086385999844 49.12296884378031 40.000000000000064
  endloop
endfacet
facet normal 0.0 -1.0 0.0
  outer loop
    vertex 64.1508638599984 49.12296884378031 4.511946372076636e-14
    vertex 55.15086385999842 49.12296884378031 8.567949192431183
    vertex 42.15086385999844 49.12296884378031 4.511946372076636e-14
  endloop
endfacet
facet normal 0.0 -1.0 0.0
  outer loop
    vertex 55.15086385999842 49.12296884378031 8.567949192431183
    vertex 64.1508638599984 49.12296884378031 4.511946372076636e-14
    vertex 55.565077422371516 49.12296884378031 8.885786437626951
  endloop
endfacet
facet normal 0.0 -1.0 0.0
  outer loop
    vertex 55.565077422371516 49.12296884378031 8.885786437626951
    vertex 64.1508638599984 49.12296884378031 4.511946372076636e-14
    vertex 55.882914667567285 49.12296884378031 9.30000000000005
  endloop
endfacet
facet normal 0.0 -1.0 0.0
  outer loop
    vertex 55.882914667567285 49.12296884378031 9.30000000000005
    vertex 64.1508638599984 49.12296884378031 4.511946372076636e-14
    vertex 56.082715512576534 49.12296884378031 9.782361909795004
  endloop
endfacet
facet normal 0.0 -1.0 0.0
  outer loop
    vertex 56.082715512576534 49.12296884378031 9.782361909795004
    vertex 64.1508638599984 49.12296884378031 4.511946372076636e-14
    vertex 64.1508638599984 49.12296884378031 40.000000000000064
  endloop
endfacet
facet normal 0.0 -1.0 0.0
  outer loop
    vertex 42.15086385999844 49.12296884378031 4.511946372076636e-14
    vertex 55.15086385999842 49.12296884378031 8.567949192431183
    vertex 54.66850195020344 49.12296884378031 8.368148347421904
  endloop
endfacet
facet normal 0.0 -1.0 0.0
  outer loop
    vertex 42.15086385999844 49.12296884378031 4.511946372076636e-14
    vertex 54.66850195020344 49.12296884378031 8.368148347421904
    vertex 54.15086385999842 49.12296884378031 8.300000000000052
  endloop
endfacet
facet normal 0.0 -1.0 0.0
  outer loop
    vertex 56.082715512576534 49.12296884378031 9.782361909795004
    vertex 64.1508638599984 49.12296884378031 40.000000000000064
    vertex 56.15086385999841 49.12296884378031 10.300000000000049
  endloop
endfacet
facet normal 0.0 -1.0 0.0
  outer loop
    vertex 56.15086385999841 49.12296884378031 10.300000000000049
    vertex 64.1508638599984 49.12296884378031 40.000000000000064
    vertex 56.082715512576534 49.12296884378031 10.817638090205094
  endloop
endfacet
facet normal 0.0 -1.0 0.0
  outer loop
    vertex 56.082715512576534 49.12296884378031 10.817638090205094
    vertex 64.1508638599984 49.12296884378031 40.000000000000064
    vertex 55.882914667567285 49.12296884378031 11.300000000000047
  endloop
endfacet
facet normal 0.0 -1.0 0.0
  outer loop
    vertex 55.882914667567285 49.12296884378031 11.300000000000047
    vertex 64.1508638599984 49.12296884378031 40.000000000000064
    vertex 55.565077422371516 49.12296884378031 11.714213562373148
  endloop
endfacet
facet normal 0.0 -1.0 0.0
  outer loop
    vertex 55.565077422371516 49.12296884378031 11.714213562373148
    vertex 64.1508638599984 49.12296884378031 40.000000000000064
    vertex 55.15086385999842 49.12296884378031 12.032050807568917
  endloop
endfacet
facet normal 0.0 -1.0 0.0
  outer loop
    vertex 55.15086385999842 49.12296884378031 12.032050807568917
    vertex 64.1508638599984 49.12296884378031 40.000000000000064
    vertex 54.66850195020344 49.12296884378031 12.231851652578193
  endloop
endfacet
facet normal 0.0 -1.0 0.0
  outer loop
    vertex 54.66850195020344 49.12296884378031 12.231851652578193
    vertex 64.1508638599984 49.12296884378031 40.000000000000064
    vertex 54.15086385999842 49.12296884378031 12.300000000000045
  endloop
endfacet
facet normal 0.0 -1.0 0.0
  outer loop
    vertex 54.15086385999842 49.12296884378031 12.300000000000045
    vertex 64.1508638599984 49.12296884378031 40.000000000000064
    vertex 55.882914667567285 49.12296884378031 29.10000000000006
  endloop
endfacet
facet normal 0.0 -1.0 0.0
  outer loop
    vertex 54.15086385999842 49.12296884378031 12.300000000000045
    vertex 55.882914667567285 49.12296884378031 29.10000000000006
    vertex 55.565077422371516 49.12296884378031 28.68578643762696
  endloop
endfacet
facet normal 0.0 -1.0 0.0
  outer loop
    vertex 54.15086385999842 49.12296884378031 12.300000000000045
    vertex 55.565077422371516 49.12296884378031 28.68578643762696
    vertex 55.15086385999842 49.12296884378031 28.36794919243119
  endloop
endfacet
facet normal 0.0 -1.0 0.0
  outer loop
    vertex 54.15086385999842 49.12296884378031 12.300000000000045
    vertex 55.15086385999842 49.12296884378031 28.36794919243119
    vertex 54.66850195020344 49.12296884378031 28.168148347421912
  endloop
endfacet
facet normal 0.0 -1.0 0.0
  outer loop
    vertex 54.15086385999842 49.12296884378031 12.300000000000045
    vertex 54.66850195020344 49.12296884378031 28.168148347421912
    vertex 54.15086385999842 49.12296884378031 28.100000000000062
  endloop
endfacet
facet normal 0.0 -1.0 0.0
  outer loop
    vertex 55.882914667567285 49.12296884378031 29.10000000000006
    vertex 64.1508638599984 49.12296884378031 40.000000000000064
    vertex 56.082715512576534 49.12296884378031 29.58236190979501
  endloop
endfacet
facet normal 0.0 -1.0 0.0
  outer loop
    vertex 56.082715512576534 49.12296884378031 29.58236190979501
    vertex 64.1508638599984 49.12296884378031 40.000000000000064
    vertex 56.15086385999841 49.12296884378031 30.10000000000006
  endloop
endfacet
facet normal 0.0 -1.0 0.0
  outer loop
    vertex 56.15086385999841 49.12296884378031 30.10000000000006
    vertex 64.1508638599984 49.12296884378031 40.000000000000064
    vertex 56.082715512576534 49.12296884378031 30.6176380902051
  endloop
endfacet
facet normal 0.0 -1.0 0.0
  outer loop
    vertex 56.082715512576534 49.12296884378031 30.6176380902051
    vertex 64.1508638599984 49.12296884378031 40.000000000000064
    vertex 55.882914667567285 49.12296884378031 31.100000000000055
  endloop
endfacet
facet normal 0.0 -1.0 0.0
  outer loop
    vertex 55.882914667567285 49.12296884378031 31.100000000000055
    vertex 64.1508638599984 49.12296884378031 40.000000000000064
    vertex 55.565077422371516 49.12296884378031 31.514213562373158
  endloop
endfacet
facet normal 0.0 -1.0 0.0
  outer loop
    vertex 55.565077422371516 49.12296884378031 31.514213562373158
    vertex 64.1508638599984 49.12296884378031 40.000000000000064
    vertex 55.15086385999842 49.12296884378031 31.832050807568926
  endloop
endfacet
facet normal 0.0 -1.0 0.0
  outer loop
    vertex 55.15086385999842 49.12296884378031 31.832050807568926
    vertex 64.1508638599984 49.12296884378031 40.000000000000064
    vertex 54.66850195020344 49.12296884378031 32.031851652578204
  endloop
endfacet
facet normal 0.0 -1.0 0.0
  outer loop
    vertex 54.66850195020344 49.12296884378031 32.031851652578204
    vertex 64.1508638599984 49.12296884378031 40.000000000000064
    vertex 54.15086385999842 49.12296884378031 32.10000000000005
  endloop
endfacet
facet normal 0.0 -1.0 0.0
  outer loop
    vertex 42.15086385999844 49.12296884378031 4.511946372076636e-14
    vertex 52.21901220742029 49.12296884378031 9.782361909795004
    vertex 42.15086385999844 49.12296884378031 40.000000000000064
  endloop
endfacet
facet normal 0.0 -1.0 0.0
  outer loop
    vertex 52.21901220742029 49.12296884378031 9.782361909795004
    vertex 42.15086385999844 49.12296884378031 4.511946372076636e-14
    vertex 52.41881305242955 49.12296884378031 9.30000000000005
  endloop
endfacet
facet normal 0.0 -1.0 0.0
  outer loop
    vertex 52.41881305242955 49.12296884378031 9.30000000000005
    vertex 42.15086385999844 49.12296884378031 4.511946372076636e-14
    vertex 52.73665029762532 49.12296884378031 8.885786437626951
  endloop
endfacet
facet normal 0.0 -1.0 0.0
  outer loop
    vertex 52.73665029762532 49.12296884378031 8.885786437626951
    vertex 42.15086385999844 49.12296884378031 4.511946372076636e-14
    vertex 53.15086385999842 49.12296884378031 8.567949192431183
  endloop
endfacet
facet normal 0.0 -1.0 0.0
  outer loop
    vertex 53.15086385999842 49.12296884378031 8.567949192431183
    vertex 42.15086385999844 49.12296884378031 4.511946372076636e-14
    vertex 53.63322576979339 49.12296884378031 8.368148347421904
  endloop
endfacet
facet normal 0.0 -1.0 0.0
  outer loop
    vertex 53.63322576979339 49.12296884378031 8.368148347421904
    vertex 42.15086385999844 49.12296884378031 4.511946372076636e-14
    vertex 54.15086385999842 49.12296884378031 8.300000000000052
  endloop
endfacet
facet normal 0.0 -1.0 0.0
  outer loop
    vertex 42.15086385999844 49.12296884378031 40.000000000000064
    vertex 52.21901220742029 49.12296884378031 9.782361909795004
    vertex 52.15086385999842 49.12296884378031 10.300000000000049
  endloop
endfacet
facet normal 0.0 -1.0 0.0
  outer loop
    vertex 42.15086385999844 49.12296884378031 40.000000000000064
    vertex 52.15086385999842 49.12296884378031 10.300000000000049
    vertex 52.21901220742029 49.12296884378031 10.817638090205094
  endloop
endfacet
facet normal 0.0 -1.0 0.0
  outer loop
    vertex 42.15086385999844 49.12296884378031 40.000000000000064
    vertex 52.21901220742029 49.12296884378031 10.817638090205094
    vertex 52.41881305242955 49.12296884378031 11.300000000000047
  endloop
endfacet
facet normal 0.0 -1.0 0.0
  outer loop
    vertex 42.15086385999844 49.12296884378031 40.000000000000064
    vertex 52.41881305242955 49.12296884378031 11.300000000000047
    vertex 52.73665029762532 49.12296884378031 11.714213562373148
  endloop
endfacet
facet normal 0.0 -1.0 0.0
  outer loop
    vertex 42.15086385999844 49.12296884378031 40.000000000000064
    vertex 52.73665029762532 49.12296884378031 11.714213562373148
    vertex 53.15086385999842 49.12296884378031 12.032050807568917
  endloop
endfacet
facet normal 0.0 -1.0 0.0
  outer loop
    vertex 42.15086385999844 49.12296884378031 40.000000000000064
    vertex 53.15086385999842 49.12296884378031 12.032050807568917
    vertex 53.63322576979339 49.12296884378031 12.231851652578193
  endloop
endfacet
facet normal 0.0 -1.0 0.0
  outer loop
    vertex 42.15086385999844 49.12296884378031 40.000000000000064
    vertex 53.63322576979339 49.12296884378031 12.231851652578193
    vertex 54.15086385999842 49.12296884378031 12.300000000000045
  endloop
endfacet
facet normal 0.0 -1.0 0.0
  outer loop
    vertex 42.15086385999844 49.12296884378031 40.000000000000064
    vertex 54.15086385999842 49.12296884378031 12.300000000000045
    vertex 52.73665029762532 49.12296884378031 28.68578643762696
  endloop
endfacet
facet normal 0.0 -1.0 0.0
  outer loop
    vertex 52.73665029762532 49.12296884378031 28.68578643762696
    vertex 54.15086385999842 49.12296884378031 12.300000000000045
    vertex 53.15086385999842 49.12296884378031 28.36794919243119
  endloop
endfacet
facet normal 0.0 -1.0 0.0
  outer loop
    vertex 53.15086385999842 49.12296884378031 28.36794919243119
    vertex 54.15086385999842 49.12296884378031 12.300000000000045
    vertex 53.63322576979339 49.12296884378031 28.168148347421912
  endloop
endfacet
facet normal 0.0 -1.0 0.0
  outer loop
    vertex 53.63322576979339 49.12296884378031 28.168148347421912
    vertex 54.15086385999842 49.12296884378031 12.300000000000045
    vertex 54.15086385999842 49.12296884378031 28.100000000000062
  endloop
endfacet
facet normal 0.0 -1.0 0.0
  outer loop
    vertex 42.15086385999844 49.12296884378031 40.000000000000064
    vertex 52.73665029762532 49.12296884378031 28.68578643762696
    vertex 52.41881305242955 49.12296884378031 29.10000000000006
  endloop
endfacet
facet normal 0.0 -1.0 0.0
  outer loop
    vertex 42.15086385999844 49.12296884378031 40.000000000000064
    vertex 52.41881305242955 49.12296884378031 29.10000000000006
    vertex 52.21901220742029 49.12296884378031 29.58236190979501
  endloop
endfacet
facet normal 0.0 -1.0 0.0
  outer loop
    vertex 42.15086385999844 49.12296884378031 40.000000000000064
    vertex 52.21901220742029 49.12296884378031 29.58236190979501
    vertex 52.15086385999842 49.12296884378031 30.10000000000006
  endloop
endfacet
facet normal 0.0 -1.0 0.0
  outer loop
    vertex 42.15086385999844 49.12296884378031 40.000000000000064
    vertex 52.15086385999842 49.12296884378031 30.10000000000006
    vertex 52.21901220742029 49.12296884378031 30.6176380902051
  endloop
endfacet
facet normal 0.0 -1.0 0.0
  outer loop
    vertex 42.15086385999844 49.12296884378031 40.000000000000064
    vertex 52.21901220742029 49.12296884378031 30.6176380902051
    vertex 52.41881305242955 49.12296884378031 31.100000000000055
  endloop
endfacet
facet normal 0.0 -1.0 0.0
  outer loop
    vertex 42.15086385999844 49.12296884378031 40.000000000000064
    vertex 52.41881305242955 49.12296884378031 31.100000000000055
    vertex 52.73665029762532 49.12296884378031 31.514213562373158
  endloop
endfacet
facet normal 0.0 -1.0 0.0
  outer loop
    vertex 42.15086385999844 49.12296884378031 40.000000000000064
    vertex 52.73665029762532 49.12296884378031 31.514213562373158
    vertex 53.15086385999842 49.12296884378031 31.832050807568926
  endloop
endfacet
facet normal 0.0 -1.0 0.0
  outer loop
    vertex 42.15086385999844 49.12296884378031 40.000000000000064
    vertex 53.15086385999842 49.12296884378031 31.832050807568926
    vertex 53.63322576979339 49.12296884378031 32.031851652578204
  endloop
endfacet
facet normal 0.0 -1.0 0.0
  outer loop
    vertex 42.15086385999844 49.12296884378031 40.000000000000064
    vertex 53.63322576979339 49.12296884378031 32.031851652578204
    vertex 54.15086385999842 49.12296884378031 32.10000000000005
  endloop
endfacet
facet normal 0.0 -1.0 0.0
  outer loop
    vertex 42.15086385999844 49.12296884378031 40.000000000000064
    vertex 54.15086385999842 49.12296884378031 32.10000000000005
    vertex 64.1508638599984 49.12296884378031 40.000000000000064
  endloop
endfacet
facet normal -0.13052619222003092 -0.0 -0.9914448613738132
  outer loop
    vertex 54.15086385999842 49.12296884378031 28.100000000000062
    vertex 53.63322576979339 44.12296884378032 28.168148347421912
    vertex 53.63322576979339 49.12296884378031 28.168148347421912
  endloop
endfacet
facet normal -0.13052619222003092 -0.0 -0.9914448613738132
  outer loop
    vertex 53.63322576979339 44.12296884378032 28.168148347421912
    vertex 54.15086385999842 49.12296884378031 28.100000000000062
    vertex 54.15086385999842 44.12296884378032 28.100000000000062
  endloop
endfacet
facet normal 0.13052619222003023 0.0 -0.9914448613738134
  outer loop
    vertex 54.66850195020344 49.12296884378031 28.168148347421912
    vertex 54.15086385999842 44.12296884378032 28.100000000000062
    vertex 54.15086385999842 49.12296884378031 28.100000000000062
  endloop
endfacet
facet normal 0.13052619222003023 0.0 -0.9914448613738134
  outer loop
    vertex 54.15086385999842 44.12296884378032 28.100000000000062
    vertex 54.66850195020344 49.12296884378031 28.168148347421912
    vertex 54.66850195020344 44.12296884378032 28.168148347421912
  endloop
endfacet
facet normal 0.382683432365119 0.0 -0.9238795325112747
  outer loop
    vertex 55.15086385999842 49.12296884378031 28.36794919243119
    vertex 54.66850195020344 44.12296884378032 28.168148347421912
    vertex 54.66850195020344 49.12296884378031 28.168148347421912
  endloop
endfacet
facet normal 0.382683432365119 0.0 -0.9238795325112747
  outer loop
    vertex 54.66850195020344 44.12296884378032 28.168148347421912
    vertex 55.15086385999842 49.12296884378031 28.36794919243119
    vertex 55.15086385999842 44.12296884378032 28.36794919243119
  endloop
endfacet
facet normal 0.6087614290087043 0.0 -0.7933533402912477
  outer loop
    vertex 55.565077422371516 49.12296884378031 28.68578643762696
    vertex 55.15086385999842 44.12296884378032 28.36794919243119
    vertex 55.15086385999842 49.12296884378031 28.36794919243119
  endloop
endfacet
facet normal 0.6087614290087043 0.0 -0.7933533402912477
  outer loop
    vertex 55.15086385999842 44.12296884378032 28.36794919243119
    vertex 55.565077422371516 49.12296884378031 28.68578643762696
    vertex 55.565077422371516 44.12296884378032 28.68578643762696
  endloop
endfacet
facet normal 0.7933533402912388 0.0 -0.6087614290087162
  outer loop
    vertex 55.565077422371516 49.12296884378031 28.68578643762696
    vertex 55.882914667567285 44.12296884378032 29.10000000000006
    vertex 55.565077422371516 44.12296884378032 28.68578643762696
  endloop
endfacet
facet normal 0.7933533402912388 0.0 -0.6087614290087162
  outer loop
    vertex 55.882914667567285 44.12296884378032 29.10000000000006
    vertex 55.565077422371516 49.12296884378031 28.68578643762696
    vertex 55.882914667567285 49.12296884378031 29.10000000000006
  endloop
endfacet
facet normal 0.9238795325112865 0.0 -0.38268343236509056
  outer loop
    vertex 55.882914667567285 49.12296884378031 29.10000000000006
    vertex 56.082715512576534 44.12296884378032 29.58236190979501
    vertex 55.882914667567285 44.12296884378032 29.10000000000006
  endloop
endfacet
facet normal 0.9238795325112865 0.0 -0.38268343236509056
  outer loop
    vertex 56.082715512576534 44.12296884378032 29.58236190979501
    vertex 55.882914667567285 49.12296884378031 29.10000000000006
    vertex 56.082715512576534 49.12296884378031 29.58236190979501
  endloop
endfacet
facet normal 0.9914448613738106 0.0 -0.13052619222005077
  outer loop
    vertex 56.082715512576534 49.12296884378031 29.58236190979501
    vertex 56.15086385999841 44.12296884378032 30.10000000000006
    vertex 56.082715512576534 44.12296884378032 29.58236190979501
  endloop
endfacet
facet normal 0.9914448613738106 0.0 -0.13052619222005077
  outer loop
    vertex 56.15086385999841 44.12296884378032 30.10000000000006
    vertex 56.082715512576534 49.12296884378031 29.58236190979501
    vertex 56.15086385999841 49.12296884378031 30.10000000000006
  endloop
endfacet
facet normal 0.9914448613738106 0.0 0.13052619222005077
  outer loop
    vertex 56.15086385999841 49.12296884378031 30.10000000000006
    vertex 56.082715512576534 44.12296884378032 30.6176380902051
    vertex 56.15086385999841 44.12296884378032 30.10000000000006
  endloop
endfacet
facet normal 0.9914448613738106 0.0 0.13052619222005077
  outer loop
    vertex 56.082715512576534 44.12296884378032 30.6176380902051
    vertex 56.15086385999841 49.12296884378031 30.10000000000006
    vertex 56.082715512576534 49.12296884378031 30.6176380902051
  endloop
endfacet
facet normal 0.9238795325112845 0.0 0.3826834323650951
  outer loop
    vertex 56.082715512576534 49.12296884378031 30.6176380902051
    vertex 55.882914667567285 44.12296884378032 31.100000000000055
    vertex 56.082715512576534 44.12296884378032 30.6176380902051
  endloop
endfacet
facet normal 0.9238795325112845 0.0 0.3826834323650951
  outer loop
    vertex 55.882914667567285 44.12296884378032 31.100000000000055
    vertex 56.082715512576534 49.12296884378031 30.6176380902051
    vertex 55.882914667567285 49.12296884378031 31.100000000000055
  endloop
endfacet
facet normal 0.7933533402912388 0.0 0.6087614290087162
  outer loop
    vertex 55.882914667567285 49.12296884378031 31.100000000000055
    vertex 55.565077422371516 44.12296884378032 31.514213562373158
    vertex 55.882914667567285 44.12296884378032 31.100000000000055
  endloop
endfacet
facet normal 0.7933533402912388 0.0 0.6087614290087162
  outer loop
    vertex 55.565077422371516 44.12296884378032 31.514213562373158
    vertex 55.882914667567285 49.12296884378031 31.100000000000055
    vertex 55.565077422371516 49.12296884378031 31.514213562373158
  endloop
endfacet
facet normal 0.6087614290087043 0.0 0.7933533402912477
  outer loop
    vertex 55.565077422371516 44.12296884378032 31.514213562373158
    vertex 55.15086385999842 49.12296884378031 31.832050807568926
    vertex 55.15086385999842 44.12296884378032 31.832050807568926
  endloop
endfacet
facet normal 0.6087614290087043 0.0 0.7933533402912477
  outer loop
    vertex 55.15086385999842 49.12296884378031 31.832050807568926
    vertex 55.565077422371516 44.12296884378032 31.514213562373158
    vertex 55.565077422371516 49.12296884378031 31.514213562373158
  endloop
endfacet
facet normal 0.382683432365119 0.0 0.9238795325112747
  outer loop
    vertex 55.15086385999842 44.12296884378032 31.832050807568926
    vertex 54.66850195020344 49.12296884378031 32.031851652578204
    vertex 54.66850195020344 44.12296884378032 32.031851652578204
  endloop
endfacet
facet normal 0.382683432365119 0.0 0.9238795325112747
  outer loop
    vertex 54.66850195020344 49.12296884378031 32.031851652578204
    vertex 55.15086385999842 44.12296884378032 31.832050807568926
    vertex 55.15086385999842 49.12296884378031 31.832050807568926
  endloop
endfacet
facet normal 0.13052619222003092 0.0 0.9914448613738132
  outer loop
    vertex 54.66850195020344 44.12296884378032 32.031851652578204
    vertex 54.15086385999842 49.12296884378031 32.10000000000005
    vertex 54.15086385999842 44.12296884378032 32.10000000000005
  endloop
endfacet
facet normal 0.13052619222003092 0.0 0.9914448613738132
  outer loop
    vertex 54.15086385999842 49.12296884378031 32.10000000000005
    vertex 54.66850195020344 44.12296884378032 32.031851652578204
    vertex 54.66850195020344 49.12296884378031 32.031851652578204
  endloop
endfacet
facet normal -0.13052619222003023 0.0 0.9914448613738134
  outer loop
    vertex 54.15086385999842 44.12296884378032 32.10000000000005
    vertex 53.63322576979339 49.12296884378031 32.031851652578204
    vertex 53.63322576979339 44.12296884378032 32.031851652578204
  endloop
endfacet
facet normal -0.13052619222003023 0.0 0.9914448613738134
  outer loop
    vertex 53.63322576979339 49.12296884378031 32.031851652578204
    vertex 54.15086385999842 44.12296884378032 32.10000000000005
    vertex 54.15086385999842 49.12296884378031 32.10000000000005
  endloop
endfacet
facet normal -0.382683432365119 0.0 0.9238795325112747
  outer loop
    vertex 53.63322576979339 44.12296884378032 32.031851652578204
    vertex 53.15086385999842 49.12296884378031 31.832050807568926
    vertex 53.15086385999842 44.12296884378032 31.832050807568926
  endloop
endfacet
facet normal -0.382683432365119 0.0 0.9238795325112747
  outer loop
    vertex 53.15086385999842 49.12296884378031 31.832050807568926
    vertex 53.63322576979339 44.12296884378032 32.031851652578204
    vertex 53.63322576979339 49.12296884378031 32.031851652578204
  endloop
endfacet
facet normal -0.6087614290087043 0.0 0.7933533402912477
  outer loop
    vertex 53.15086385999842 44.12296884378032 31.832050807568926
    vertex 52.73665029762532 49.12296884378031 31.514213562373158
    vertex 52.73665029762532 44.12296884378032 31.514213562373158
  endloop
endfacet
facet normal -0.6087614290087043 0.0 0.7933533402912477
  outer loop
    vertex 52.73665029762532 49.12296884378031 31.514213562373158
    vertex 53.15086385999842 44.12296884378032 31.832050807568926
    vertex 53.15086385999842 49.12296884378031 31.832050807568926
  endloop
endfacet
facet normal -0.7933533402912402 0.0 0.6087614290087144
  outer loop
    vertex 52.73665029762532 49.12296884378031 31.514213562373158
    vertex 52.41881305242955 44.12296884378032 31.100000000000055
    vertex 52.73665029762532 44.12296884378032 31.514213562373158
  endloop
endfacet
facet normal -0.7933533402912402 0.0 0.6087614290087144
  outer loop
    vertex 52.41881305242955 44.12296884378032 31.100000000000055
    vertex 52.73665029762532 49.12296884378031 31.514213562373158
    vertex 52.41881305242955 49.12296884378031 31.100000000000055
  endloop
endfacet
facet normal -0.9238795325112855 0.0 0.38268343236509283
  outer loop
    vertex 52.41881305242955 49.12296884378031 31.100000000000055
    vertex 52.21901220742029 44.12296884378032 30.6176380902051
    vertex 52.41881305242955 44.12296884378032 31.100000000000055
  endloop
endfacet
facet normal -0.9238795325112855 0.0 0.38268343236509283
  outer loop
    vertex 52.21901220742029 44.12296884378032 30.6176380902051
    vertex 52.41881305242955 49.12296884378031 31.100000000000055
    vertex 52.21901220742029 49.12296884378031 30.6176380902051
  endloop
endfacet
facet normal -0.9914448613738106 0.0 0.13052619222005077
  outer loop
    vertex 52.21901220742029 49.12296884378031 30.6176380902051
    vertex 52.15086385999842 44.12296884378032 30.10000000000006
    vertex 52.21901220742029 44.12296884378032 30.6176380902051
  endloop
endfacet
facet normal -0.9914448613738106 0.0 0.13052619222005077
  outer loop
    vertex 52.15086385999842 44.12296884378032 30.10000000000006
    vertex 52.21901220742029 49.12296884378031 30.6176380902051
    vertex 52.15086385999842 49.12296884378031 30.10000000000006
  endloop
endfacet
facet normal -0.9914448613738106 -0.0 -0.13052619222005077
  outer loop
    vertex 52.15086385999842 49.12296884378031 30.10000000000006
    vertex 52.21901220742029 44.12296884378032 29.58236190979501
    vertex 52.15086385999842 44.12296884378032 30.10000000000006
  endloop
endfacet
facet normal -0.9914448613738106 -0.0 -0.13052619222005077
  outer loop
    vertex 52.21901220742029 44.12296884378032 29.58236190979501
    vertex 52.15086385999842 49.12296884378031 30.10000000000006
    vertex 52.21901220742029 49.12296884378031 29.58236190979501
  endloop
endfacet
facet normal -0.9238795325112845 -0.0 -0.3826834323650951
  outer loop
    vertex 52.21901220742029 49.12296884378031 29.58236190979501
    vertex 52.41881305242955 44.12296884378032 29.10000000000006
    vertex 52.21901220742029 44.12296884378032 29.58236190979501
  endloop
endfacet
facet normal -0.9238795325112845 -0.0 -0.3826834323650951
  outer loop
    vertex 52.41881305242955 44.12296884378032 29.10000000000006
    vertex 52.21901220742029 49.12296884378031 29.58236190979501
    vertex 52.41881305242955 49.12296884378031 29.10000000000006
  endloop
endfacet
facet normal -0.7933533402912388 -0.0 -0.6087614290087162
  outer loop
    vertex 52.41881305242955 49.12296884378031 29.10000000000006
    vertex 52.73665029762532 44.12296884378032 28.68578643762696
    vertex 52.41881305242955 44.12296884378032 29.10000000000006
  endloop
endfacet
facet normal -0.7933533402912388 -0.0 -0.6087614290087162
  outer loop
    vertex 52.73665029762532 44.12296884378032 28.68578643762696
    vertex 52.41881305242955 49.12296884378031 29.10000000000006
    vertex 52.73665029762532 49.12296884378031 28.68578643762696
  endloop
endfacet
facet normal -0.6087614290087043 -0.0 -0.7933533402912477
  outer loop
    vertex 53.15086385999842 49.12296884378031 28.36794919243119
    vertex 52.73665029762532 44.12296884378032 28.68578643762696
    vertex 52.73665029762532 49.12296884378031 28.68578643762696
  endloop
endfacet
facet normal -0.6087614290087043 -0.0 -0.7933533402912477
  outer loop
    vertex 52.73665029762532 44.12296884378032 28.68578643762696
    vertex 53.15086385999842 49.12296884378031 28.36794919243119
    vertex 53.15086385999842 44.12296884378032 28.36794919243119
  endloop
endfacet
facet normal -0.382683432365119 -0.0 -0.9238795325112747
  outer loop
    vertex 53.63322576979339 49.12296884378031 28.168148347421912
    vertex 53.15086385999842 44.12296884378032 28.36794919243119
    vertex 53.15086385999842 49.12296884378031 28.36794919243119
  endloop
endfacet
facet normal -0.382683432365119 -0.0 -0.9238795325112747
  outer loop
    vertex 53.15086385999842 44.12296884378032 28.36794919243119
    vertex 53.63322576979339 49.12296884378031 28.168148347421912
    vertex 53.63322576979339 44.12296884378032 28.168148347421912
  endloop
endfacet
facet normal -0.9914448613738106 0.0 0.13052619222005077
  outer loop
    vertex 52.21901220742029 49.12296884378031 10.817638090205094
    vertex 52.15086385999842 44.12296884378032 10.300000000000049
    vertex 52.21901220742029 44.12296884378032 10.817638090205094
  endloop
endfacet
facet normal -0.9914448613738106 0.0 0.13052619222005077
  outer loop
    vertex 52.15086385999842 44.12296884378032 10.300000000000049
    vertex 52.21901220742029 49.12296884378031 10.817638090205094
    vertex 52.15086385999842 49.12296884378031 10.300000000000049
  endloop
endfacet
facet normal -0.9914448613738106 -0.0 -0.13052619222005077
  outer loop
    vertex 52.15086385999842 49.12296884378031 10.300000000000049
    vertex 52.21901220742029 44.12296884378032 9.782361909795004
    vertex 52.15086385999842 44.12296884378032 10.300000000000049
  endloop
endfacet
facet normal -0.9914448613738106 -0.0 -0.13052619222005077
  outer loop
    vertex 52.21901220742029 44.12296884378032 9.782361909795004
    vertex 52.15086385999842 49.12296884378031 10.300000000000049
    vertex 52.21901220742029 49.12296884378031 9.782361909795004
  endloop
endfacet
facet normal -0.9238795325112845 -0.0 -0.3826834323650951
  outer loop
    vertex 52.21901220742029 49.12296884378031 9.782361909795004
    vertex 52.41881305242955 44.12296884378032 9.30000000000005
    vertex 52.21901220742029 44.12296884378032 9.782361909795004
  endloop
endfacet
facet normal -0.9238795325112845 -0.0 -0.3826834323650951
  outer loop
    vertex 52.41881305242955 44.12296884378032 9.30000000000005
    vertex 52.21901220742029 49.12296884378031 9.782361909795004
    vertex 52.41881305242955 49.12296884378031 9.30000000000005
  endloop
endfacet
facet normal -0.7933533402912388 -0.0 -0.6087614290087162
  outer loop
    vertex 52.41881305242955 49.12296884378031 9.30000000000005
    vertex 52.73665029762532 44.12296884378032 8.885786437626951
    vertex 52.41881305242955 44.12296884378032 9.30000000000005
  endloop
endfacet
facet normal -0.7933533402912388 -0.0 -0.6087614290087162
  outer loop
    vertex 52.73665029762532 44.12296884378032 8.885786437626951
    vertex 52.41881305242955 49.12296884378031 9.30000000000005
    vertex 52.73665029762532 49.12296884378031 8.885786437626951
  endloop
endfacet
facet normal -0.6087614290087043 -0.0 -0.7933533402912477
  outer loop
    vertex 53.15086385999842 49.12296884378031 8.567949192431183
    vertex 52.73665029762532 44.12296884378032 8.885786437626951
    vertex 52.73665029762532 49.12296884378031 8.885786437626951
  endloop
endfacet
facet normal -0.6087614290087043 -0.0 -0.7933533402912477
  outer loop
    vertex 52.73665029762532 44.12296884378032 8.885786437626951
    vertex 53.15086385999842 49.12296884378031 8.567949192431183
    vertex 53.15086385999842 44.12296884378032 8.567949192431183
  endloop
endfacet
facet normal -0.382683432365119 -0.0 -0.9238795325112747
  outer loop
    vertex 53.63322576979339 49.12296884378031 8.368148347421904
    vertex 53.15086385999842 44.12296884378032 8.567949192431183
    vertex 53.15086385999842 49.12296884378031 8.567949192431183
  endloop
endfacet
facet normal -0.382683432365119 -0.0 -0.9238795325112747
  outer loop
    vertex 53.15086385999842 44.12296884378032 8.567949192431183
    vertex 53.63322576979339 49.12296884378031 8.368148347421904
    vertex 53.63322576979339 44.12296884378032 8.368148347421904
  endloop
endfacet
facet normal -0.13052619222003092 -0.0 -0.9914448613738132
  outer loop
    vertex 54.15086385999842 49.12296884378031 8.300000000000052
    vertex 53.63322576979339 44.12296884378032 8.368148347421904
    vertex 53.63322576979339 49.12296884378031 8.368148347421904
  endloop
endfacet
facet normal -0.13052619222003092 -0.0 -0.9914448613738132
  outer loop
    vertex 53.63322576979339 44.12296884378032 8.368148347421904
    vertex 54.15086385999842 49.12296884378031 8.300000000000052
    vertex 54.15086385999842 44.12296884378032 8.300000000000052
  endloop
endfacet
facet normal 0.13052619222003023 0.0 -0.9914448613738134
  outer loop
    vertex 54.66850195020344 49.12296884378031 8.368148347421904
    vertex 54.15086385999842 44.12296884378032 8.300000000000052
    vertex 54.15086385999842 49.12296884378031 8.300000000000052
  endloop
endfacet
facet normal 0.13052619222003023 0.0 -0.9914448613738134
  outer loop
    vertex 54.15086385999842 44.12296884378032 8.300000000000052
    vertex 54.66850195020344 49.12296884378031 8.368148347421904
    vertex 54.66850195020344 44.12296884378032 8.368148347421904
  endloop
endfacet
facet normal 0.382683432365119 0.0 -0.9238795325112747
  outer loop
    vertex 55.15086385999842 49.12296884378031 8.567949192431183
    vertex 54.66850195020344 44.12296884378032 8.368148347421904
    vertex 54.66850195020344 49.12296884378031 8.368148347421904
  endloop
endfacet
facet normal 0.382683432365119 0.0 -0.9238795325112747
  outer loop
    vertex 54.66850195020344 44.12296884378032 8.368148347421904
    vertex 55.15086385999842 49.12296884378031 8.567949192431183
    vertex 55.15086385999842 44.12296884378032 8.567949192431183
  endloop
endfacet
facet normal 0.6087614290087043 0.0 -0.7933533402912477
  outer loop
    vertex 55.565077422371516 49.12296884378031 8.885786437626951
    vertex 55.15086385999842 44.12296884378032 8.567949192431183
    vertex 55.15086385999842 49.12296884378031 8.567949192431183
  endloop
endfacet
facet normal 0.6087614290087043 0.0 -0.7933533402912477
  outer loop
    vertex 55.15086385999842 44.12296884378032 8.567949192431183
    vertex 55.565077422371516 49.12296884378031 8.885786437626951
    vertex 55.565077422371516 44.12296884378032 8.885786437626951
  endloop
endfacet
facet normal 0.7933533402912388 0.0 -0.6087614290087162
  outer loop
    vertex 55.565077422371516 49.12296884378031 8.885786437626951
    vertex 55.882914667567285 44.12296884378032 9.30000000000005
    vertex 55.565077422371516 44.12296884378032 8.885786437626951
  endloop
endfacet
facet normal 0.7933533402912388 0.0 -0.6087614290087162
  outer loop
    vertex 55.882914667567285 44.12296884378032 9.30000000000005
    vertex 55.565077422371516 49.12296884378031 8.885786437626951
    vertex 55.882914667567285 49.12296884378031 9.30000000000005
  endloop
endfacet
facet normal 0.9238795325112865 0.0 -0.38268343236509056
  outer loop
    vertex 55.882914667567285 49.12296884378031 9.30000000000005
    vertex 56.082715512576534 44.12296884378032 9.782361909795004
    vertex 55.882914667567285 44.12296884378032 9.30000000000005
  endloop
endfacet
facet normal 0.9238795325112865 0.0 -0.38268343236509056
  outer loop
    vertex 56.082715512576534 44.12296884378032 9.782361909795004
    vertex 55.882914667567285 49.12296884378031 9.30000000000005
    vertex 56.082715512576534 49.12296884378031 9.782361909795004
  endloop
endfacet
facet normal 0.9914448613738106 0.0 -0.13052619222005077
  outer loop
    vertex 56.082715512576534 49.12296884378031 9.782361909795004
    vertex 56.15086385999841 44.12296884378032 10.300000000000049
    vertex 56.082715512576534 44.12296884378032 9.782361909795004
  endloop
endfacet
facet normal 0.9914448613738106 0.0 -0.13052619222005077
  outer loop
    vertex 56.15086385999841 44.12296884378032 10.300000000000049
    vertex 56.082715512576534 49.12296884378031 9.782361909795004
    vertex 56.15086385999841 49.12296884378031 10.300000000000049
  endloop
endfacet
facet normal 0.9914448613738106 0.0 0.13052619222005077
  outer loop
    vertex 56.15086385999841 49.12296884378031 10.300000000000049
    vertex 56.082715512576534 44.12296884378032 10.817638090205094
    vertex 56.15086385999841 44.12296884378032 10.300000000000049
  endloop
endfacet
facet normal 0.9914448613738106 0.0 0.13052619222005077
  outer loop
    vertex 56.082715512576534 44.12296884378032 10.817638090205094
    vertex 56.15086385999841 49.12296884378031 10.300000000000049
    vertex 56.082715512576534 49.12296884378031 10.817638090205094
  endloop
endfacet
facet normal 0.9238795325112845 0.0 0.3826834323650951
  outer loop
    vertex 56.082715512576534 49.12296884378031 10.817638090205094
    vertex 55.882914667567285 44.12296884378032 11.300000000000047
    vertex 56.082715512576534 44.12296884378032 10.817638090205094
  endloop
endfacet
facet normal 0.9238795325112845 0.0 0.3826834323650951
  outer loop
    vertex 55.882914667567285 44.12296884378032 11.300000000000047
    vertex 56.082715512576534 49.12296884378031 10.817638090205094
    vertex 55.882914667567285 49.12296884378031 11.300000000000047
  endloop
endfacet
facet normal 0.7933533402912388 0.0 0.6087614290087162
  outer loop
    vertex 55.882914667567285 49.12296884378031 11.300000000000047
    vertex 55.565077422371516 44.12296884378032 11.714213562373148
    vertex 55.882914667567285 44.12296884378032 11.300000000000047
  endloop
endfacet
facet normal 0.7933533402912388 0.0 0.6087614290087162
  outer loop
    vertex 55.565077422371516 44.12296884378032 11.714213562373148
    vertex 55.882914667567285 49.12296884378031 11.300000000000047
    vertex 55.565077422371516 49.12296884378031 11.714213562373148
  endloop
endfacet
facet normal 0.6087614290087043 0.0 0.7933533402912477
  outer loop
    vertex 55.565077422371516 44.12296884378032 11.714213562373148
    vertex 55.15086385999842 49.12296884378031 12.032050807568917
    vertex 55.15086385999842 44.12296884378032 12.032050807568917
  endloop
endfacet
facet normal 0.6087614290087043 0.0 0.7933533402912477
  outer loop
    vertex 55.15086385999842 49.12296884378031 12.032050807568917
    vertex 55.565077422371516 44.12296884378032 11.714213562373148
    vertex 55.565077422371516 49.12296884378031 11.714213562373148
  endloop
endfacet
facet normal 0.382683432365119 0.0 0.9238795325112747
  outer loop
    vertex 55.15086385999842 44.12296884378032 12.032050807568917
    vertex 54.66850195020344 49.12296884378031 12.231851652578193
    vertex 54.66850195020344 44.12296884378032 12.231851652578193
  endloop
endfacet
facet normal 0.382683432365119 0.0 0.9238795325112747
  outer loop
    vertex 54.66850195020344 49.12296884378031 12.231851652578193
    vertex 55.15086385999842 44.12296884378032 12.032050807568917
    vertex 55.15086385999842 49.12296884378031 12.032050807568917
  endloop
endfacet
facet normal 0.13052619222003092 0.0 0.9914448613738132
  outer loop
    vertex 54.66850195020344 44.12296884378032 12.231851652578193
    vertex 54.15086385999842 49.12296884378031 12.300000000000045
    vertex 54.15086385999842 44.12296884378032 12.300000000000045
  endloop
endfacet
facet normal 0.13052619222003092 0.0 0.9914448613738132
  outer loop
    vertex 54.15086385999842 49.12296884378031 12.300000000000045
    vertex 54.66850195020344 44.12296884378032 12.231851652578193
    vertex 54.66850195020344 49.12296884378031 12.231851652578193
  endloop
endfacet
facet normal -0.13052619222003023 0.0 0.9914448613738134
  outer loop
    vertex 54.15086385999842 44.12296884378032 12.300000000000045
    vertex 53.63322576979339 49.12296884378031 12.231851652578193
    vertex 53.63322576979339 44.12296884378032 12.231851652578193
  endloop
endfacet
facet normal -0.13052619222003023 0.0 0.9914448613738134
  outer loop
    vertex 53.63322576979339 49.12296884378031 12.231851652578193
    vertex 54.15086385999842 44.12296884378032 12.300000000000045
    vertex 54.15086385999842 49.12296884378031 12.300000000000045
  endloop
endfacet
facet normal -0.382683432365119 0.0 0.9238795325112747
  outer loop
    vertex 53.63322576979339 44.12296884378032 12.231851652578193
    vertex 53.15086385999842 49.12296884378031 12.032050807568917
    vertex 53.15086385999842 44.12296884378032 12.032050807568917
  endloop
endfacet
facet normal -0.382683432365119 0.0 0.9238795325112747
  outer loop
    vertex 53.15086385999842 49.12296884378031 12.032050807568917
    vertex 53.63322576979339 44.12296884378032 12.231851652578193
    vertex 53.63322576979339 49.12296884378031 12.231851652578193
  endloop
endfacet
facet normal -0.6087614290087043 0.0 0.7933533402912477
  outer loop
    vertex 53.15086385999842 44.12296884378032 12.032050807568917
    vertex 52.73665029762532 49.12296884378031 11.714213562373148
    vertex 52.73665029762532 44.12296884378032 11.714213562373148
  endloop
endfacet
facet normal -0.6087614290087043 0.0 0.7933533402912477
  outer loop
    vertex 52.73665029762532 49.12296884378031 11.714213562373148
    vertex 53.15086385999842 44.12296884378032 12.032050807568917
    vertex 53.15086385999842 49.12296884378031 12.032050807568917
  endloop
endfacet
facet normal -0.7933533402912402 0.0 0.6087614290087144
  outer loop
    vertex 52.73665029762532 49.12296884378031 11.714213562373148
    vertex 52.41881305242955 44.12296884378032 11.300000000000047
    vertex 52.73665029762532 44.12296884378032 11.714213562373148
  endloop
endfacet
facet normal -0.7933533402912402 0.0 0.6087614290087144
  outer loop
    vertex 52.41881305242955 44.12296884378032 11.300000000000047
    vertex 52.73665029762532 49.12296884378031 11.714213562373148
    vertex 52.41881305242955 49.12296884378031 11.300000000000047
  endloop
endfacet
facet normal -0.9238795325112855 0.0 0.38268343236509283
  outer loop
    vertex 52.41881305242955 49.12296884378031 11.300000000000047
    vertex 52.21901220742029 44.12296884378032 10.817638090205094
    vertex 52.41881305242955 44.12296884378032 11.300000000000047
  endloop
endfacet
facet normal -0.9238795325112855 0.0 0.38268343236509283
  outer loop
    vertex 52.21901220742029 44.12296884378032 10.817638090205094
    vertex 52.41881305242955 49.12296884378031 11.300000000000047
    vertex 52.21901220742029 49.12296884378031 10.817638090205094
  endloop
endfacet
facet normal 0.0 -1.0 0.0
  outer loop
    vertex 42.15086385999844 109.12296884378038 40.000000000000064
    vertex 39.150863859998395 109.12296884378038 4.511946372076636e-14
    vertex 42.15086385999844 109.12296884378038 4.511946372076636e-14
  endloop
endfacet
facet normal 0.0 -1.0 0.0
  outer loop
    vertex 39.150863859998395 109.12296884378038 4.511946372076636e-14
    vertex 42.15086385999844 109.12296884378038 40.000000000000064
    vertex 39.150863859998395 109.12296884378038 40.000000000000064
  endloop
endfacet
facet normal 0.37139067635410317 -0.9284766908852595 2.0782543113232017e-18
  outer loop
    vertex 39.150863859998395 109.12296884378038 40.000000000000064
    vertex 14.150863859998399 99.1229688437804 4.511946372076636e-14
    vertex 39.150863859998395 109.12296884378038 4.511946372076636e-14
  endloop
endfacet
facet normal 0.37139067635410317 -0.9284766908852595 2.0782543113232017e-18
  outer loop
    vertex 14.150863859998399 99.1229688437804 4.511946372076636e-14
    vertex 39.150863859998395 109.12296884378038 40.000000000000064
    vertex 14.150863859998399 99.1229688437804 40.000000000000014
  endloop
endfacet
facet normal 0.0 -1.0 0.0
  outer loop
    vertex 39.150863859998395 94.1229688437804 40.000000000000064
    vertex 14.150863859998399 94.1229688437804 4.511946372076636e-14
    vertex 39.150863859998395 94.1229688437804 4.511946372076636e-14
  endloop
endfacet
facet normal 0.0 -1.0 0.0
  outer loop
    vertex 14.150863859998399 94.1229688437804 4.511946372076636e-14
    vertex 39.150863859998395 94.1229688437804 40.000000000000064
    vertex 14.150863859998399 94.1229688437804 40.000000000000014
  endloop
endfacet
facet normal -1.0 -0.0 -0.0
  outer loop
    vertex 14.150863859998399 99.1229688437804 40.000000000000014
    vertex 14.150863859998399 94.1229688437804 4.511946372076636e-14
    vertex 14.150863859998399 94.1229688437804 40.000000000000014
  endloop
endfacet
facet normal -1.0 -0.0 -0.0
  outer loop
    vertex 14.150863859998399 94.1229688437804 4.511946372076636e-14
    vertex 14.150863859998399 99.1229688437804 40.000000000000014
    vertex 14.150863859998399 99.1229688437804 4.511946372076636e-14
  endloop
endfacet
endsolid Rollo
