solid Rollo
facet normal 0.0 -1.0 0.0
  outer loop
    vertex 154.28955705730974 48.50503101669112 4.511946372076636e-14
    vertex 145.28955705730976 48.50503101669112 8.567949192431183
    vertex 129.28955705730974 48.50503101669112 4.511946372076636e-14
  endloop
endfacet
facet normal 0.0 -1.0 0.0
  outer loop
    vertex 145.28955705730976 48.50503101669112 8.567949192431183
    vertex 154.28955705730974 48.50503101669112 4.511946372076636e-14
    vertex 145.70377061968287 48.50503101669112 8.885786437626951
  endloop
endfacet
facet normal 0.0 -1.0 0.0
  outer loop
    vertex 145.70377061968287 48.50503101669112 8.885786437626951
    vertex 154.28955705730974 48.50503101669112 4.511946372076636e-14
    vertex 146.02160786487863 48.50503101669112 9.30000000000005
  endloop
endfacet
facet normal 0.0 -1.0 0.0
  outer loop
    vertex 146.02160786487863 48.50503101669112 9.30000000000005
    vertex 154.28955705730974 48.50503101669112 4.511946372076636e-14
    vertex 146.22140870988787 48.50503101669112 9.782361909795004
  endloop
endfacet
facet normal 0.0 -1.0 0.0
  outer loop
    vertex 146.22140870988787 48.50503101669112 9.782361909795004
    vertex 154.28955705730974 48.50503101669112 4.511946372076636e-14
    vertex 154.28955705730974 48.50503101669112 40.000000000000064
  endloop
endfacet
facet normal 0.0 -1.0 0.0
  outer loop
    vertex 129.28955705730974 48.50503101669112 4.511946372076636e-14
    vertex 145.28955705730976 48.50503101669112 8.567949192431183
    vertex 144.8071951475148 48.50503101669112 8.368148347421904
  endloop
endfacet
facet normal 0.0 -1.0 0.0
  outer loop
    vertex 129.28955705730974 48.50503101669112 4.511946372076636e-14
    vertex 144.8071951475148 48.50503101669112 8.368148347421904
    vertex 144.28955705730976 48.50503101669112 8.300000000000052
  endloop
endfacet
facet normal 0.0 -1.0 0.0
  outer loop
    vertex 146.22140870988787 48.50503101669112 9.782361909795004
    vertex 154.28955705730974 48.50503101669112 40.000000000000064
    vertex 146.28955705730976 48.50503101669112 10.300000000000049
  endloop
endfacet
facet normal 0.0 -1.0 0.0
  outer loop
    vertex 146.28955705730976 48.50503101669112 10.300000000000049
    vertex 154.28955705730974 48.50503101669112 40.000000000000064
    vertex 146.22140870988787 48.50503101669112 10.817638090205094
  endloop
endfacet
facet normal 0.0 -1.0 0.0
  outer loop
    vertex 146.22140870988787 48.50503101669112 10.817638090205094
    vertex 154.28955705730974 48.50503101669112 40.000000000000064
    vertex 146.02160786487863 48.50503101669112 11.300000000000047
  endloop
endfacet
facet normal 0.0 -1.0 0.0
  outer loop
    vertex 146.02160786487863 48.50503101669112 11.300000000000047
    vertex 154.28955705730974 48.50503101669112 40.000000000000064
    vertex 145.70377061968287 48.50503101669112 11.714213562373148
  endloop
endfacet
facet normal 0.0 -1.0 0.0
  outer loop
    vertex 145.70377061968287 48.50503101669112 11.714213562373148
    vertex 154.28955705730974 48.50503101669112 40.000000000000064
    vertex 145.28955705730976 48.50503101669112 12.032050807568917
  endloop
endfacet
facet normal 0.0 -1.0 0.0
  outer loop
    vertex 145.28955705730976 48.50503101669112 12.032050807568917
    vertex 154.28955705730974 48.50503101669112 40.000000000000064
    vertex 144.8071951475148 48.50503101669112 12.231851652578193
  endloop
endfacet
facet normal 0.0 -1.0 0.0
  outer loop
    vertex 144.8071951475148 48.50503101669112 12.231851652578193
    vertex 154.28955705730974 48.50503101669112 40.000000000000064
    vertex 144.28955705730976 48.50503101669112 12.300000000000045
  endloop
endfacet
facet normal 0.0 -1.0 0.0
  outer loop
    vertex 144.28955705730976 48.50503101669112 12.300000000000045
    vertex 154.28955705730974 48.50503101669112 40.000000000000064
    vertex 146.02160786487863 48.50503101669112 29.10000000000006
  endloop
endfacet
facet normal 0.0 -1.0 0.0
  outer loop
    vertex 144.28955705730976 48.50503101669112 12.300000000000045
    vertex 146.02160786487863 48.50503101669112 29.10000000000006
    vertex 145.70377061968287 48.50503101669112 28.68578643762696
  endloop
endfacet
facet normal 0.0 -1.0 0.0
  outer loop
    vertex 144.28955705730976 48.50503101669112 12.300000000000045
    vertex 145.70377061968287 48.50503101669112 28.68578643762696
    vertex 145.28955705730976 48.50503101669112 28.36794919243119
  endloop
endfacet
facet normal 0.0 -1.0 0.0
  outer loop
    vertex 144.28955705730976 48.50503101669112 12.300000000000045
    vertex 145.28955705730976 48.50503101669112 28.36794919243119
    vertex 144.8071951475148 48.50503101669112 28.168148347421912
  endloop
endfacet
facet normal 0.0 -1.0 0.0
  outer loop
    vertex 144.28955705730976 48.50503101669112 12.300000000000045
    vertex 144.8071951475148 48.50503101669112 28.168148347421912
    vertex 144.28955705730976 48.50503101669112 28.100000000000062
  endloop
endfacet
facet normal 0.0 -1.0 0.0
  outer loop
    vertex 146.02160786487863 48.50503101669112 29.10000000000006
    vertex 154.28955705730974 48.50503101669112 40.000000000000064
    vertex 146.22140870988787 48.50503101669112 29.58236190979501
  endloop
endfacet
facet normal 0.0 -1.0 0.0
  outer loop
    vertex 146.22140870988787 48.50503101669112 29.58236190979501
    vertex 154.28955705730974 48.50503101669112 40.000000000000064
    vertex 146.28955705730976 48.50503101669112 30.10000000000006
  endloop
endfacet
facet normal 0.0 -1.0 0.0
  outer loop
    vertex 146.28955705730976 48.50503101669112 30.10000000000006
    vertex 154.28955705730974 48.50503101669112 40.000000000000064
    vertex 146.22140870988787 48.50503101669112 30.6176380902051
  endloop
endfacet
facet normal 0.0 -1.0 0.0
  outer loop
    vertex 146.22140870988787 48.50503101669112 30.6176380902051
    vertex 154.28955705730974 48.50503101669112 40.000000000000064
    vertex 146.02160786487863 48.50503101669112 31.100000000000055
  endloop
endfacet
facet normal 0.0 -1.0 0.0
  outer loop
    vertex 146.02160786487863 48.50503101669112 31.100000000000055
    vertex 154.28955705730974 48.50503101669112 40.000000000000064
    vertex 145.70377061968287 48.50503101669112 31.514213562373158
  endloop
endfacet
facet normal 0.0 -1.0 0.0
  outer loop
    vertex 145.70377061968287 48.50503101669112 31.514213562373158
    vertex 154.28955705730974 48.50503101669112 40.000000000000064
    vertex 145.28955705730976 48.50503101669112 31.832050807568926
  endloop
endfacet
facet normal 0.0 -1.0 0.0
  outer loop
    vertex 145.28955705730976 48.50503101669112 31.832050807568926
    vertex 154.28955705730974 48.50503101669112 40.000000000000064
    vertex 144.8071951475148 48.50503101669112 32.031851652578204
  endloop
endfacet
facet normal 0.0 -1.0 0.0
  outer loop
    vertex 144.8071951475148 48.50503101669112 32.031851652578204
    vertex 154.28955705730974 48.50503101669112 40.000000000000064
    vertex 144.28955705730976 48.50503101669112 32.10000000000005
  endloop
endfacet
facet normal 0.0 -1.0 0.0
  outer loop
    vertex 129.28955705730974 48.50503101669112 4.511946372076636e-14
    vertex 142.5575062497409 48.50503101669112 9.30000000000005
    vertex 129.28955705730974 48.50503101669112 40.000000000000064
  endloop
endfacet
facet normal 0.0 -1.0 0.0
  outer loop
    vertex 142.5575062497409 48.50503101669112 9.30000000000005
    vertex 129.28955705730974 48.50503101669112 4.511946372076636e-14
    vertex 142.87534349493666 48.50503101669112 8.885786437626951
  endloop
endfacet
facet normal 0.0 -1.0 0.0
  outer loop
    vertex 142.87534349493666 48.50503101669112 8.885786437626951
    vertex 129.28955705730974 48.50503101669112 4.511946372076636e-14
    vertex 143.28955705730976 48.50503101669112 8.567949192431183
  endloop
endfacet
facet normal 0.0 -1.0 0.0
  outer loop
    vertex 143.28955705730976 48.50503101669112 8.567949192431183
    vertex 129.28955705730974 48.50503101669112 4.511946372076636e-14
    vertex 143.77191896710474 48.50503101669112 8.368148347421904
  endloop
endfacet
facet normal 0.0 -1.0 0.0
  outer loop
    vertex 143.77191896710474 48.50503101669112 8.368148347421904
    vertex 129.28955705730974 48.50503101669112 4.511946372076636e-14
    vertex 144.28955705730976 48.50503101669112 8.300000000000052
  endloop
endfacet
facet normal 0.0 -1.0 0.0
  outer loop
    vertex 129.28955705730974 48.50503101669112 40.000000000000064
    vertex 142.5575062497409 48.50503101669112 9.30000000000005
    vertex 142.35770540473163 48.50503101669112 9.782361909795004
  endloop
endfacet
facet normal 0.0 -1.0 0.0
  outer loop
    vertex 129.28955705730974 48.50503101669112 40.000000000000064
    vertex 142.35770540473163 48.50503101669112 9.782361909795004
    vertex 142.28955705730976 48.50503101669112 10.300000000000049
  endloop
endfacet
facet normal 0.0 -1.0 0.0
  outer loop
    vertex 129.28955705730974 48.50503101669112 40.000000000000064
    vertex 142.28955705730976 48.50503101669112 10.300000000000049
    vertex 142.35770540473163 48.50503101669112 10.817638090205094
  endloop
endfacet
facet normal 0.0 -1.0 0.0
  outer loop
    vertex 129.28955705730974 48.50503101669112 40.000000000000064
    vertex 142.35770540473163 48.50503101669112 10.817638090205094
    vertex 142.5575062497409 48.50503101669112 11.300000000000047
  endloop
endfacet
facet normal 0.0 -1.0 0.0
  outer loop
    vertex 129.28955705730974 48.50503101669112 40.000000000000064
    vertex 142.5575062497409 48.50503101669112 11.300000000000047
    vertex 142.87534349493666 48.50503101669112 11.714213562373148
  endloop
endfacet
facet normal 0.0 -1.0 0.0
  outer loop
    vertex 129.28955705730974 48.50503101669112 40.000000000000064
    vertex 142.87534349493666 48.50503101669112 11.714213562373148
    vertex 143.28955705730976 48.50503101669112 12.032050807568917
  endloop
endfacet
facet normal 0.0 -1.0 0.0
  outer loop
    vertex 129.28955705730974 48.50503101669112 40.000000000000064
    vertex 143.28955705730976 48.50503101669112 12.032050807568917
    vertex 143.77191896710474 48.50503101669112 12.231851652578193
  endloop
endfacet
facet normal 0.0 -1.0 0.0
  outer loop
    vertex 129.28955705730974 48.50503101669112 40.000000000000064
    vertex 143.77191896710474 48.50503101669112 12.231851652578193
    vertex 144.28955705730976 48.50503101669112 12.300000000000045
  endloop
endfacet
facet normal 0.0 -1.0 0.0
  outer loop
    vertex 129.28955705730974 48.50503101669112 40.000000000000064
    vertex 144.28955705730976 48.50503101669112 12.300000000000045
    vertex 142.87534349493666 48.50503101669112 28.68578643762696
  endloop
endfacet
facet normal 0.0 -1.0 0.0
  outer loop
    vertex 142.87534349493666 48.50503101669112 28.68578643762696
    vertex 144.28955705730976 48.50503101669112 12.300000000000045
    vertex 143.28955705730976 48.50503101669112 28.36794919243119
  endloop
endfacet
facet normal 0.0 -1.0 0.0
  outer loop
    vertex 143.28955705730976 48.50503101669112 28.36794919243119
    vertex 144.28955705730976 48.50503101669112 12.300000000000045
    vertex 143.77191896710474 48.50503101669112 28.168148347421912
  endloop
endfacet
facet normal 0.0 -1.0 0.0
  outer loop
    vertex 143.77191896710474 48.50503101669112 28.168148347421912
    vertex 144.28955705730976 48.50503101669112 12.300000000000045
    vertex 144.28955705730976 48.50503101669112 28.100000000000062
  endloop
endfacet
facet normal 0.0 -1.0 0.0
  outer loop
    vertex 129.28955705730974 48.50503101669112 40.000000000000064
    vertex 142.87534349493666 48.50503101669112 28.68578643762696
    vertex 142.5575062497409 48.50503101669112 29.10000000000006
  endloop
endfacet
facet normal 0.0 -1.0 0.0
  outer loop
    vertex 129.28955705730974 48.50503101669112 40.000000000000064
    vertex 142.5575062497409 48.50503101669112 29.10000000000006
    vertex 142.35770540473163 48.50503101669112 29.58236190979501
  endloop
endfacet
facet normal 0.0 -1.0 0.0
  outer loop
    vertex 129.28955705730974 48.50503101669112 40.000000000000064
    vertex 142.35770540473163 48.50503101669112 29.58236190979501
    vertex 142.28955705730976 48.50503101669112 30.10000000000006
  endloop
endfacet
facet normal 0.0 -1.0 0.0
  outer loop
    vertex 129.28955705730974 48.50503101669112 40.000000000000064
    vertex 142.28955705730976 48.50503101669112 30.10000000000006
    vertex 142.35770540473163 48.50503101669112 30.6176380902051
  endloop
endfacet
facet normal 0.0 -1.0 0.0
  outer loop
    vertex 129.28955705730974 48.50503101669112 40.000000000000064
    vertex 142.35770540473163 48.50503101669112 30.6176380902051
    vertex 142.5575062497409 48.50503101669112 31.100000000000055
  endloop
endfacet
facet normal 0.0 -1.0 0.0
  outer loop
    vertex 129.28955705730974 48.50503101669112 40.000000000000064
    vertex 142.5575062497409 48.50503101669112 31.100000000000055
    vertex 142.87534349493666 48.50503101669112 31.514213562373158
  endloop
endfacet
facet normal 0.0 -1.0 0.0
  outer loop
    vertex 129.28955705730974 48.50503101669112 40.000000000000064
    vertex 142.87534349493666 48.50503101669112 31.514213562373158
    vertex 143.28955705730976 48.50503101669112 31.832050807568926
  endloop
endfacet
facet normal 0.0 -1.0 0.0
  outer loop
    vertex 129.28955705730974 48.50503101669112 40.000000000000064
    vertex 143.28955705730976 48.50503101669112 31.832050807568926
    vertex 143.77191896710474 48.50503101669112 32.031851652578204
  endloop
endfacet
facet normal 0.0 -1.0 0.0
  outer loop
    vertex 129.28955705730974 48.50503101669112 40.000000000000064
    vertex 143.77191896710474 48.50503101669112 32.031851652578204
    vertex 144.28955705730976 48.50503101669112 32.10000000000005
  endloop
endfacet
facet normal 0.0 -1.0 0.0
  outer loop
    vertex 129.28955705730974 48.50503101669112 40.000000000000064
    vertex 144.28955705730976 48.50503101669112 32.10000000000005
    vertex 154.28955705730974 48.50503101669112 40.000000000000064
  endloop
endfacet
facet normal -1.0 0.0 0.0
  outer loop
    vertex 129.28955705730974 93.50503101669119 40.000000000000064
    vertex 129.28955705730974 48.50503101669112 4.511946372076636e-14
    vertex 129.28955705730974 48.50503101669112 40.000000000000064
  endloop
endfacet
facet normal -1.0 0.0 0.0
  outer loop
    vertex 129.28955705730974 48.50503101669112 4.511946372076636e-14
    vertex 129.28955705730974 93.50503101669119 40.000000000000064
    vertex 129.28955705730974 93.50503101669119 4.511946372076636e-14
  endloop
endfacet
facet normal -1.0 0.0 -3.524958103184871e-17
  outer loop
    vertex 132.2895570573098 113.50503101669119 40.000000000000064
    vertex 132.2895570573098 53.505031016691106 4.511946372076636e-14
    vertex 132.2895570573098 53.505031016691106 40.000000000000064
  endloop
endfacet
facet normal -1.0 0.0 -3.524958103184871e-17
  outer loop
    vertex 132.2895570573098 53.505031016691106 4.511946372076636e-14
    vertex 132.2895570573098 113.50503101669119 40.000000000000064
    vertex 132.2895570573098 113.50503101669119 4.511946372076636e-14
  endloop
endfacet
facet normal -1.0 7.049916206369756e-17 -1.762479051592435e-17
  outer loop
    vertex 154.28955705730974 53.505031016691106 40.000000000000064
    vertex 154.28955705730974 48.50503101669112 4.511946372076636e-14
    vertex 154.28955705730974 48.50503101669112 40.000000000000064
  endloop
endfacet
facet normal -1.0 7.049916206369756e-17 -1.762479051592435e-17
  outer loop
    vertex 154.28955705730974 48.50503101669112 4.511946372076636e-14
    vertex 154.28955705730974 53.505031016691106 40.000000000000064
    vertex 154.28955705730974 53.505031016691106 4.511946372076636e-14
  endloop
endfacet
facet normal 0.0 0.0 1.0
  outer loop
    vertex 129.28955705730974 93.50503101669119 4.511946372076636e-14
    vertex 104.28955705730974 103.5050310166912 4.511946372076636e-14
    vertex 104.28955705730974 93.50503101669119 4.511946372076636e-14
  endloop
endfacet
facet normal 0.0 0.0 1.0
  outer loop
    vertex 104.28955705730974 103.5050310166912 4.511946372076636e-14
    vertex 129.28955705730974 93.50503101669119 4.511946372076636e-14
    vertex 129.28955705730974 113.50503101669119 4.511946372076636e-14
  endloop
endfacet
facet normal 0.0 0.0 1.0
  outer loop
    vertex 129.28955705730974 48.50503101669112 4.511946372076636e-14
    vertex 132.2895570573098 53.505031016691106 4.511946372076636e-14
    vertex 129.28955705730974 93.50503101669119 4.511946372076636e-14
  endloop
endfacet
facet normal 0.0 0.0 1.0
  outer loop
    vertex 132.2895570573098 53.505031016691106 4.511946372076636e-14
    vertex 129.28955705730974 48.50503101669112 4.511946372076636e-14
    vertex 154.28955705730974 48.50503101669112 4.511946372076636e-14
  endloop
endfacet
facet normal 0.0 0.0 1.0
  outer loop
    vertex 129.28955705730974 93.50503101669119 4.511946372076636e-14
    vertex 132.2895570573098 53.505031016691106 4.511946372076636e-14
    vertex 129.28955705730974 113.50503101669119 4.511946372076636e-14
  endloop
endfacet
facet normal 0.0 0.0 1.0
  outer loop
    vertex 132.2895570573098 53.505031016691106 4.511946372076636e-14
    vertex 154.28955705730974 48.50503101669112 4.511946372076636e-14
    vertex 154.28955705730974 53.505031016691106 4.511946372076636e-14
  endloop
endfacet
facet normal 0.0 0.0 1.0
  outer loop
    vertex 132.2895570573098 113.50503101669119 4.511946372076636e-14
    vertex 129.28955705730974 113.50503101669119 4.511946372076636e-14
    vertex 132.2895570573098 53.505031016691106 4.511946372076636e-14
  endloop
endfacet
facet normal -8.531113796544642e-16 -9.340312427723721e-17 1.0
  outer loop
    vertex 129.28955705730974 93.50503101669119 40.000000000000064
    vertex 104.28955705730974 103.5050310166912 40.000000000000014
    vertex 104.28955705730974 93.50503101669119 40.000000000000014
  endloop
endfacet
facet normal -8.531113796544642e-16 -9.340312427723721e-17 1.0
  outer loop
    vertex 104.28955705730974 103.5050310166912 40.000000000000014
    vertex 129.28955705730974 93.50503101669119 40.000000000000064
    vertex 129.28955705730974 113.50503101669119 40.000000000000064
  endloop
endfacet
facet normal -8.531113796544642e-16 -9.340312427723721e-17 1.0
  outer loop
    vertex 129.28955705730974 48.50503101669112 40.000000000000064
    vertex 132.2895570573098 53.505031016691106 40.000000000000064
    vertex 129.28955705730974 93.50503101669119 40.000000000000064
  endloop
endfacet
facet normal -8.531113796544642e-16 -9.340312427723721e-17 1.0
  outer loop
    vertex 132.2895570573098 53.505031016691106 40.000000000000064
    vertex 129.28955705730974 48.50503101669112 40.000000000000064
    vertex 154.28955705730974 48.50503101669112 40.000000000000064
  endloop
endfacet
facet normal -8.531113796544642e-16 -9.340312427723721e-17 1.0
  outer loop
    vertex 129.28955705730974 93.50503101669119 40.000000000000064
    vertex 132.2895570573098 53.505031016691106 40.000000000000064
    vertex 129.28955705730974 113.50503101669119 40.000000000000064
  endloop
endfacet
facet normal -8.531113796544642e-16 -9.340312427723721e-17 1.0
  outer loop
    vertex 132.2895570573098 53.505031016691106 40.000000000000064
    vertex 154.28955705730974 48.50503101669112 40.000000000000064
    vertex 154.28955705730974 53.505031016691106 40.000000000000064
  endloop
endfacet
facet normal -8.531113796544642e-16 -9.340312427723721e-17 1.0
  outer loop
    vertex 132.2895570573098 113.50503101669119 40.000000000000064
    vertex 129.28955705730974 113.50503101669119 40.000000000000064
    vertex 132.2895570573098 53.505031016691106 40.000000000000064
  endloop
endfacet
facet normal 0.0 -1.0 0.0
  outer loop
    vertex 154.28955705730974 53.505031016691106 4.511946372076636e-14
    vertex 145.28955705730976 53.505031016691106 8.567949192431183
    vertex 132.2895570573098 53.505031016691106 4.511946372076636e-14
  endloop
endfacet
facet normal 0.0 -1.0 0.0
  outer loop
    vertex 145.28955705730976 53.505031016691106 8.567949192431183
    vertex 154.28955705730974 53.505031016691106 4.511946372076636e-14
    vertex 145.70377061968287 53.505031016691106 8.885786437626951
  endloop
endfacet
facet normal 0.0 -1.0 0.0
  outer loop
    vertex 145.70377061968287 53.505031016691106 8.885786437626951
    vertex 154.28955705730974 53.505031016691106 4.511946372076636e-14
    vertex 146.02160786487863 53.505031016691106 9.30000000000005
  endloop
endfacet
facet normal 0.0 -1.0 0.0
  outer loop
    vertex 146.02160786487863 53.505031016691106 9.30000000000005
    vertex 154.28955705730974 53.505031016691106 4.511946372076636e-14
    vertex 146.22140870988787 53.505031016691106 9.782361909795004
  endloop
endfacet
facet normal 0.0 -1.0 0.0
  outer loop
    vertex 146.22140870988787 53.505031016691106 9.782361909795004
    vertex 154.28955705730974 53.505031016691106 4.511946372076636e-14
    vertex 154.28955705730974 53.505031016691106 40.000000000000064
  endloop
endfacet
facet normal 0.0 -1.0 0.0
  outer loop
    vertex 132.2895570573098 53.505031016691106 4.511946372076636e-14
    vertex 145.28955705730976 53.505031016691106 8.567949192431183
    vertex 144.8071951475148 53.505031016691106 8.368148347421904
  endloop
endfacet
facet normal 0.0 -1.0 0.0
  outer loop
    vertex 132.2895570573098 53.505031016691106 4.511946372076636e-14
    vertex 144.8071951475148 53.505031016691106 8.368148347421904
    vertex 144.28955705730976 53.505031016691106 8.300000000000052
  endloop
endfacet
facet normal 0.0 -1.0 0.0
  outer loop
    vertex 146.22140870988787 53.505031016691106 9.782361909795004
    vertex 154.28955705730974 53.505031016691106 40.000000000000064
    vertex 146.28955705730976 53.505031016691106 10.300000000000049
  endloop
endfacet
facet normal 0.0 -1.0 0.0
  outer loop
    vertex 146.28955705730976 53.505031016691106 10.300000000000049
    vertex 154.28955705730974 53.505031016691106 40.000000000000064
    vertex 146.22140870988787 53.505031016691106 10.817638090205094
  endloop
endfacet
facet normal 0.0 -1.0 0.0
  outer loop
    vertex 146.22140870988787 53.505031016691106 10.817638090205094
    vertex 154.28955705730974 53.505031016691106 40.000000000000064
    vertex 146.02160786487863 53.505031016691106 11.300000000000047
  endloop
endfacet
facet normal 0.0 -1.0 0.0
  outer loop
    vertex 146.02160786487863 53.505031016691106 11.300000000000047
    vertex 154.28955705730974 53.505031016691106 40.000000000000064
    vertex 145.70377061968287 53.505031016691106 11.714213562373148
  endloop
endfacet
facet normal 0.0 -1.0 0.0
  outer loop
    vertex 145.70377061968287 53.505031016691106 11.714213562373148
    vertex 154.28955705730974 53.505031016691106 40.000000000000064
    vertex 145.28955705730976 53.505031016691106 12.032050807568917
  endloop
endfacet
facet normal 0.0 -1.0 0.0
  outer loop
    vertex 145.28955705730976 53.505031016691106 12.032050807568917
    vertex 154.28955705730974 53.505031016691106 40.000000000000064
    vertex 144.8071951475148 53.505031016691106 12.231851652578193
  endloop
endfacet
facet normal 0.0 -1.0 0.0
  outer loop
    vertex 144.8071951475148 53.505031016691106 12.231851652578193
    vertex 154.28955705730974 53.505031016691106 40.000000000000064
    vertex 144.28955705730976 53.505031016691106 12.300000000000045
  endloop
endfacet
facet normal 0.0 -1.0 0.0
  outer loop
    vertex 144.28955705730976 53.505031016691106 12.300000000000045
    vertex 154.28955705730974 53.505031016691106 40.000000000000064
    vertex 146.02160786487863 53.505031016691106 29.10000000000006
  endloop
endfacet
facet normal 0.0 -1.0 0.0
  outer loop
    vertex 144.28955705730976 53.505031016691106 12.300000000000045
    vertex 146.02160786487863 53.505031016691106 29.10000000000006
    vertex 145.70377061968287 53.505031016691106 28.68578643762696
  endloop
endfacet
facet normal 0.0 -1.0 0.0
  outer loop
    vertex 144.28955705730976 53.505031016691106 12.300000000000045
    vertex 145.70377061968287 53.505031016691106 28.68578643762696
    vertex 145.28955705730976 53.505031016691106 28.36794919243119
  endloop
endfacet
facet normal 0.0 -1.0 0.0
  outer loop
    vertex 144.28955705730976 53.505031016691106 12.300000000000045
    vertex 145.28955705730976 53.505031016691106 28.36794919243119
    vertex 144.8071951475148 53.505031016691106 28.168148347421912
  endloop
endfacet
facet normal 0.0 -1.0 0.0
  outer loop
    vertex 144.28955705730976 53.505031016691106 12.300000000000045
    vertex 144.8071951475148 53.505031016691106 28.168148347421912
    vertex 144.28955705730976 53.505031016691106 28.100000000000062
  endloop
endfacet
facet normal 0.0 -1.0 0.0
  outer loop
    vertex 146.02160786487863 53.505031016691106 29.10000000000006
    vertex 154.28955705730974 53.505031016691106 40.000000000000064
    vertex 146.22140870988787 53.505031016691106 29.58236190979501
  endloop
endfacet
facet normal 0.0 -1.0 0.0
  outer loop
    vertex 146.22140870988787 53.505031016691106 29.58236190979501
    vertex 154.28955705730974 53.505031016691106 40.000000000000064
    vertex 146.28955705730976 53.505031016691106 30.10000000000006
  endloop
endfacet
facet normal 0.0 -1.0 0.0
  outer loop
    vertex 146.28955705730976 53.505031016691106 30.10000000000006
    vertex 154.28955705730974 53.505031016691106 40.000000000000064
    vertex 146.22140870988787 53.505031016691106 30.6176380902051
  endloop
endfacet
facet normal 0.0 -1.0 0.0
  outer loop
    vertex 146.22140870988787 53.505031016691106 30.6176380902051
    vertex 154.28955705730974 53.505031016691106 40.000000000000064
    vertex 146.02160786487863 53.505031016691106 31.100000000000055
  endloop
endfacet
facet normal 0.0 -1.0 0.0
  outer loop
    vertex 146.02160786487863 53.505031016691106 31.100000000000055
    vertex 154.28955705730974 53.505031016691106 40.000000000000064
    vertex 145.70377061968287 53.505031016691106 31.514213562373158
  endloop
endfacet
facet normal 0.0 -1.0 0.0
  outer loop
    vertex 145.70377061968287 53.505031016691106 31.514213562373158
    vertex 154.28955705730974 53.505031016691106 40.000000000000064
    vertex 145.28955705730976 53.505031016691106 31.832050807568926
  endloop
endfacet
facet normal 0.0 -1.0 0.0
  outer loop
    vertex 145.28955705730976 53.505031016691106 31.832050807568926
    vertex 154.28955705730974 53.505031016691106 40.000000000000064
    vertex 144.8071951475148 53.505031016691106 32.031851652578204
  endloop
endfacet
facet normal 0.0 -1.0 0.0
  outer loop
    vertex 144.8071951475148 53.505031016691106 32.031851652578204
    vertex 154.28955705730974 53.505031016691106 40.000000000000064
    vertex 144.28955705730976 53.505031016691106 32.10000000000005
  endloop
endfacet
facet normal 0.0 -1.0 0.0
  outer loop
    vertex 132.2895570573098 53.505031016691106 4.511946372076636e-14
    vertex 142.35770540473163 53.505031016691106 9.782361909795004
    vertex 132.2895570573098 53.505031016691106 40.000000000000064
  endloop
endfacet
facet normal 0.0 -1.0 0.0
  outer loop
    vertex 142.35770540473163 53.505031016691106 9.782361909795004
    vertex 132.2895570573098 53.505031016691106 4.511946372076636e-14
    vertex 142.5575062497409 53.505031016691106 9.30000000000005
  endloop
endfacet
facet normal 0.0 -1.0 0.0
  outer loop
    vertex 142.5575062497409 53.505031016691106 9.30000000000005
    vertex 132.2895570573098 53.505031016691106 4.511946372076636e-14
    vertex 142.87534349493666 53.505031016691106 8.885786437626951
  endloop
endfacet
facet normal 0.0 -1.0 0.0
  outer loop
    vertex 142.87534349493666 53.505031016691106 8.885786437626951
    vertex 132.2895570573098 53.505031016691106 4.511946372076636e-14
    vertex 143.28955705730976 53.505031016691106 8.567949192431183
  endloop
endfacet
facet normal 0.0 -1.0 0.0
  outer loop
    vertex 143.28955705730976 53.505031016691106 8.567949192431183
    vertex 132.2895570573098 53.505031016691106 4.511946372076636e-14
    vertex 143.77191896710474 53.505031016691106 8.368148347421904
  endloop
endfacet
facet normal 0.0 -1.0 0.0
  outer loop
    vertex 143.77191896710474 53.505031016691106 8.368148347421904
    vertex 132.2895570573098 53.505031016691106 4.511946372076636e-14
    vertex 144.28955705730976 53.505031016691106 8.300000000000052
  endloop
endfacet
facet normal 0.0 -1.0 0.0
  outer loop
    vertex 132.2895570573098 53.505031016691106 40.000000000000064
    vertex 142.35770540473163 53.505031016691106 9.782361909795004
    vertex 142.28955705730976 53.505031016691106 10.300000000000049
  endloop
endfacet
facet normal 0.0 -1.0 0.0
  outer loop
    vertex 132.2895570573098 53.505031016691106 40.000000000000064
    vertex 142.28955705730976 53.505031016691106 10.300000000000049
    vertex 142.35770540473163 53.505031016691106 10.817638090205094
  endloop
endfacet
facet normal 0.0 -1.0 0.0
  outer loop
    vertex 132.2895570573098 53.505031016691106 40.000000000000064
    vertex 142.35770540473163 53.505031016691106 10.817638090205094
    vertex 142.5575062497409 53.505031016691106 11.300000000000047
  endloop
endfacet
facet normal 0.0 -1.0 0.0
  outer loop
    vertex 132.2895570573098 53.505031016691106 40.000000000000064
    vertex 142.5575062497409 53.505031016691106 11.300000000000047
    vertex 142.87534349493666 53.505031016691106 11.714213562373148
  endloop
endfacet
facet normal 0.0 -1.0 0.0
  outer loop
    vertex 132.2895570573098 53.505031016691106 40.000000000000064
    vertex 142.87534349493666 53.505031016691106 11.714213562373148
    vertex 143.28955705730976 53.505031016691106 12.032050807568917
  endloop
endfacet
facet normal 0.0 -1.0 0.0
  outer loop
    vertex 132.2895570573098 53.505031016691106 40.000000000000064
    vertex 143.28955705730976 53.505031016691106 12.032050807568917
    vertex 143.77191896710474 53.505031016691106 12.231851652578193
  endloop
endfacet
facet normal 0.0 -1.0 0.0
  outer loop
    vertex 132.2895570573098 53.505031016691106 40.000000000000064
    vertex 143.77191896710474 53.505031016691106 12.231851652578193
    vertex 144.28955705730976 53.505031016691106 12.300000000000045
  endloop
endfacet
facet normal 0.0 -1.0 0.0
  outer loop
    vertex 132.2895570573098 53.505031016691106 40.000000000000064
    vertex 144.28955705730976 53.505031016691106 12.300000000000045
    vertex 142.87534349493666 53.505031016691106 28.68578643762696
  endloop
endfacet
facet normal 0.0 -1.0 0.0
  outer loop
    vertex 142.87534349493666 53.505031016691106 28.68578643762696
    vertex 144.28955705730976 53.505031016691106 12.300000000000045
    vertex 143.28955705730976 53.505031016691106 28.36794919243119
  endloop
endfacet
facet normal 0.0 -1.0 0.0
  outer loop
    vertex 143.28955705730976 53.505031016691106 28.36794919243119
    vertex 144.28955705730976 53.505031016691106 12.300000000000045
    vertex 143.77191896710474 53.505031016691106 28.168148347421912
  endloop
endfacet
facet normal 0.0 -1.0 0.0
  outer loop
    vertex 143.77191896710474 53.505031016691106 28.168148347421912
    vertex 144.28955705730976 53.505031016691106 12.300000000000045
    vertex 144.28955705730976 53.505031016691106 28.100000000000062
  endloop
endfacet
facet normal 0.0 -1.0 0.0
  outer loop
    vertex 132.2895570573098 53.505031016691106 40.000000000000064
    vertex 142.87534349493666 53.505031016691106 28.68578643762696
    vertex 142.5575062497409 53.505031016691106 29.10000000000006
  endloop
endfacet
facet normal 0.0 -1.0 0.0
  outer loop
    vertex 132.2895570573098 53.505031016691106 40.000000000000064
    vertex 142.5575062497409 53.505031016691106 29.10000000000006
    vertex 142.35770540473163 53.505031016691106 29.58236190979501
  endloop
endfacet
facet normal 0.0 -1.0 0.0
  outer loop
    vertex 132.2895570573098 53.505031016691106 40.000000000000064
    vertex 142.35770540473163 53.505031016691106 29.58236190979501
    vertex 142.28955705730976 53.505031016691106 30.10000000000006
  endloop
endfacet
facet normal 0.0 -1.0 0.0
  outer loop
    vertex 132.2895570573098 53.505031016691106 40.000000000000064
    vertex 142.28955705730976 53.505031016691106 30.10000000000006
    vertex 142.35770540473163 53.505031016691106 30.6176380902051
  endloop
endfacet
facet normal 0.0 -1.0 0.0
  outer loop
    vertex 132.2895570573098 53.505031016691106 40.000000000000064
    vertex 142.35770540473163 53.505031016691106 30.6176380902051
    vertex 142.5575062497409 53.505031016691106 31.100000000000055
  endloop
endfacet
facet normal 0.0 -1.0 0.0
  outer loop
    vertex 132.2895570573098 53.505031016691106 40.000000000000064
    vertex 142.5575062497409 53.505031016691106 31.100000000000055
    vertex 142.87534349493666 53.505031016691106 31.514213562373158
  endloop
endfacet
facet normal 0.0 -1.0 0.0
  outer loop
    vertex 132.2895570573098 53.505031016691106 40.000000000000064
    vertex 142.87534349493666 53.505031016691106 31.514213562373158
    vertex 143.28955705730976 53.505031016691106 31.832050807568926
  endloop
endfacet
facet normal 0.0 -1.0 0.0
  outer loop
    vertex 132.2895570573098 53.505031016691106 40.000000000000064
    vertex 143.28955705730976 53.505031016691106 31.832050807568926
    vertex 143.77191896710474 53.505031016691106 32.031851652578204
  endloop
endfacet
facet normal 0.0 -1.0 0.0
  outer loop
    vertex 132.2895570573098 53.505031016691106 40.000000000000064
    vertex 143.77191896710474 53.505031016691106 32.031851652578204
    vertex 144.28955705730976 53.505031016691106 32.10000000000005
  endloop
endfacet
facet normal 0.0 -1.0 0.0
  outer loop
    vertex 132.2895570573098 53.505031016691106 40.000000000000064
    vertex 144.28955705730976 53.505031016691106 32.10000000000005
    vertex 154.28955705730974 53.505031016691106 40.000000000000064
  endloop
endfacet
facet normal -0.13052619222003092 -0.0 -0.9914448613738132
  outer loop
    vertex 144.28955705730976 53.505031016691106 28.100000000000062
    vertex 143.77191896710474 48.50503101669112 28.168148347421912
    vertex 143.77191896710474 53.505031016691106 28.168148347421912
  endloop
endfacet
facet normal -0.13052619222003092 -0.0 -0.9914448613738132
  outer loop
    vertex 143.77191896710474 48.50503101669112 28.168148347421912
    vertex 144.28955705730976 53.505031016691106 28.100000000000062
    vertex 144.28955705730976 48.50503101669112 28.100000000000062
  endloop
endfacet
facet normal 0.13052619222003023 0.0 -0.9914448613738134
  outer loop
    vertex 144.8071951475148 53.505031016691106 28.168148347421912
    vertex 144.28955705730976 48.50503101669112 28.100000000000062
    vertex 144.28955705730976 53.505031016691106 28.100000000000062
  endloop
endfacet
facet normal 0.13052619222003023 0.0 -0.9914448613738134
  outer loop
    vertex 144.28955705730976 48.50503101669112 28.100000000000062
    vertex 144.8071951475148 53.505031016691106 28.168148347421912
    vertex 144.8071951475148 48.50503101669112 28.168148347421912
  endloop
endfacet
facet normal 0.382683432365119 0.0 -0.9238795325112747
  outer loop
    vertex 145.28955705730976 53.505031016691106 28.36794919243119
    vertex 144.8071951475148 48.50503101669112 28.168148347421912
    vertex 144.8071951475148 53.505031016691106 28.168148347421912
  endloop
endfacet
facet normal 0.382683432365119 0.0 -0.9238795325112747
  outer loop
    vertex 144.8071951475148 48.50503101669112 28.168148347421912
    vertex 145.28955705730976 53.505031016691106 28.36794919243119
    vertex 145.28955705730976 48.50503101669112 28.36794919243119
  endloop
endfacet
facet normal 0.6087614290087043 0.0 -0.7933533402912477
  outer loop
    vertex 145.70377061968287 53.505031016691106 28.68578643762696
    vertex 145.28955705730976 48.50503101669112 28.36794919243119
    vertex 145.28955705730976 53.505031016691106 28.36794919243119
  endloop
endfacet
facet normal 0.6087614290087043 0.0 -0.7933533402912477
  outer loop
    vertex 145.28955705730976 48.50503101669112 28.36794919243119
    vertex 145.70377061968287 53.505031016691106 28.68578643762696
    vertex 145.70377061968287 48.50503101669112 28.68578643762696
  endloop
endfacet
facet normal 0.7933533402912386 0.0 -0.6087614290087161
  outer loop
    vertex 145.70377061968287 53.505031016691106 28.68578643762696
    vertex 146.02160786487863 48.50503101669112 29.10000000000006
    vertex 145.70377061968287 48.50503101669112 28.68578643762696
  endloop
endfacet
facet normal 0.7933533402912386 0.0 -0.6087614290087161
  outer loop
    vertex 146.02160786487863 48.50503101669112 29.10000000000006
    vertex 145.70377061968287 53.505031016691106 28.68578643762696
    vertex 146.02160786487863 53.505031016691106 29.10000000000006
  endloop
endfacet
facet normal 0.9238795325112865 0.0 -0.38268343236509056
  outer loop
    vertex 146.02160786487863 53.505031016691106 29.10000000000006
    vertex 146.22140870988787 48.50503101669112 29.58236190979501
    vertex 146.02160786487863 48.50503101669112 29.10000000000006
  endloop
endfacet
facet normal 0.9238795325112865 0.0 -0.38268343236509056
  outer loop
    vertex 146.22140870988787 48.50503101669112 29.58236190979501
    vertex 146.02160786487863 53.505031016691106 29.10000000000006
    vertex 146.22140870988787 53.505031016691106 29.58236190979501
  endloop
endfacet
facet normal 0.9914448613738106 0.0 -0.13052619222005077
  outer loop
    vertex 146.22140870988787 53.505031016691106 29.58236190979501
    vertex 146.28955705730976 48.50503101669112 30.10000000000006
    vertex 146.22140870988787 48.50503101669112 29.58236190979501
  endloop
endfacet
facet normal 0.9914448613738106 0.0 -0.13052619222005077
  outer loop
    vertex 146.28955705730976 48.50503101669112 30.10000000000006
    vertex 146.22140870988787 53.505031016691106 29.58236190979501
    vertex 146.28955705730976 53.505031016691106 30.10000000000006
  endloop
endfacet
facet normal 0.9914448613738106 0.0 0.13052619222005077
  outer loop
    vertex 146.28955705730976 53.505031016691106 30.10000000000006
    vertex 146.22140870988787 48.50503101669112 30.6176380902051
    vertex 146.28955705730976 48.50503101669112 30.10000000000006
  endloop
endfacet
facet normal 0.9914448613738106 0.0 0.13052619222005077
  outer loop
    vertex 146.22140870988787 48.50503101669112 30.6176380902051
    vertex 146.28955705730976 53.505031016691106 30.10000000000006
    vertex 146.22140870988787 53.505031016691106 30.6176380902051
  endloop
endfacet
facet normal 0.9238795325112845 0.0 0.3826834323650951
  outer loop
    vertex 146.22140870988787 53.505031016691106 30.6176380902051
    vertex 146.02160786487863 48.50503101669112 31.100000000000055
    vertex 146.22140870988787 48.50503101669112 30.6176380902051
  endloop
endfacet
facet normal 0.9238795325112845 0.0 0.3826834323650951
  outer loop
    vertex 146.02160786487863 48.50503101669112 31.100000000000055
    vertex 146.22140870988787 53.505031016691106 30.6176380902051
    vertex 146.02160786487863 53.505031016691106 31.100000000000055
  endloop
endfacet
facet normal 0.7933533402912386 0.0 0.6087614290087161
  outer loop
    vertex 146.02160786487863 53.505031016691106 31.100000000000055
    vertex 145.70377061968287 48.50503101669112 31.514213562373158
    vertex 146.02160786487863 48.50503101669112 31.100000000000055
  endloop
endfacet
facet normal 0.7933533402912386 0.0 0.6087614290087161
  outer loop
    vertex 145.70377061968287 48.50503101669112 31.514213562373158
    vertex 146.02160786487863 53.505031016691106 31.100000000000055
    vertex 145.70377061968287 53.505031016691106 31.514213562373158
  endloop
endfacet
facet normal 0.6087614290087043 0.0 0.7933533402912477
  outer loop
    vertex 145.70377061968287 48.50503101669112 31.514213562373158
    vertex 145.28955705730976 53.505031016691106 31.832050807568926
    vertex 145.28955705730976 48.50503101669112 31.832050807568926
  endloop
endfacet
facet normal 0.6087614290087043 0.0 0.7933533402912477
  outer loop
    vertex 145.28955705730976 53.505031016691106 31.832050807568926
    vertex 145.70377061968287 48.50503101669112 31.514213562373158
    vertex 145.70377061968287 53.505031016691106 31.514213562373158
  endloop
endfacet
facet normal 0.382683432365119 0.0 0.9238795325112747
  outer loop
    vertex 145.28955705730976 48.50503101669112 31.832050807568926
    vertex 144.8071951475148 53.505031016691106 32.031851652578204
    vertex 144.8071951475148 48.50503101669112 32.031851652578204
  endloop
endfacet
facet normal 0.382683432365119 0.0 0.9238795325112747
  outer loop
    vertex 144.8071951475148 53.505031016691106 32.031851652578204
    vertex 145.28955705730976 48.50503101669112 31.832050807568926
    vertex 145.28955705730976 53.505031016691106 31.832050807568926
  endloop
endfacet
facet normal 0.13052619222003092 0.0 0.9914448613738132
  outer loop
    vertex 144.8071951475148 48.50503101669112 32.031851652578204
    vertex 144.28955705730976 53.505031016691106 32.10000000000005
    vertex 144.28955705730976 48.50503101669112 32.10000000000005
  endloop
endfacet
facet normal 0.13052619222003092 0.0 0.9914448613738132
  outer loop
    vertex 144.28955705730976 53.505031016691106 32.10000000000005
    vertex 144.8071951475148 48.50503101669112 32.031851652578204
    vertex 144.8071951475148 53.505031016691106 32.031851652578204
  endloop
endfacet
facet normal -0.13052619222003023 0.0 0.9914448613738134
  outer loop
    vertex 144.28955705730976 48.50503101669112 32.10000000000005
    vertex 143.77191896710474 53.505031016691106 32.031851652578204
    vertex 143.77191896710474 48.50503101669112 32.031851652578204
  endloop
endfacet
facet normal -0.13052619222003023 0.0 0.9914448613738134
  outer loop
    vertex 143.77191896710474 53.505031016691106 32.031851652578204
    vertex 144.28955705730976 48.50503101669112 32.10000000000005
    vertex 144.28955705730976 53.505031016691106 32.10000000000005
  endloop
endfacet
facet normal -0.382683432365119 0.0 0.9238795325112747
  outer loop
    vertex 143.77191896710474 48.50503101669112 32.031851652578204
    vertex 143.28955705730976 53.505031016691106 31.832050807568926
    vertex 143.28955705730976 48.50503101669112 31.832050807568926
  endloop
endfacet
facet normal -0.382683432365119 0.0 0.9238795325112747
  outer loop
    vertex 143.28955705730976 53.505031016691106 31.832050807568926
    vertex 143.77191896710474 48.50503101669112 32.031851652578204
    vertex 143.77191896710474 53.505031016691106 32.031851652578204
  endloop
endfacet
facet normal -0.6087614290087043 0.0 0.7933533402912477
  outer loop
    vertex 143.28955705730976 48.50503101669112 31.832050807568926
    vertex 142.87534349493666 53.505031016691106 31.514213562373158
    vertex 142.87534349493666 48.50503101669112 31.514213562373158
  endloop
endfacet
facet normal -0.6087614290087043 0.0 0.7933533402912477
  outer loop
    vertex 142.87534349493666 53.505031016691106 31.514213562373158
    vertex 143.28955705730976 48.50503101669112 31.832050807568926
    vertex 143.28955705730976 53.505031016691106 31.832050807568926
  endloop
endfacet
facet normal -0.7933533402912399 0.0 0.6087614290087143
  outer loop
    vertex 142.87534349493666 53.505031016691106 31.514213562373158
    vertex 142.5575062497409 48.50503101669112 31.100000000000055
    vertex 142.87534349493666 48.50503101669112 31.514213562373158
  endloop
endfacet
facet normal -0.7933533402912399 0.0 0.6087614290087143
  outer loop
    vertex 142.5575062497409 48.50503101669112 31.100000000000055
    vertex 142.87534349493666 53.505031016691106 31.514213562373158
    vertex 142.5575062497409 53.505031016691106 31.100000000000055
  endloop
endfacet
facet normal -0.9238795325112855 0.0 0.38268343236509283
  outer loop
    vertex 142.5575062497409 53.505031016691106 31.100000000000055
    vertex 142.35770540473163 48.50503101669112 30.6176380902051
    vertex 142.5575062497409 48.50503101669112 31.100000000000055
  endloop
endfacet
facet normal -0.9238795325112855 0.0 0.38268343236509283
  outer loop
    vertex 142.35770540473163 48.50503101669112 30.6176380902051
    vertex 142.5575062497409 53.505031016691106 31.100000000000055
    vertex 142.35770540473163 53.505031016691106 30.6176380902051
  endloop
endfacet
facet normal -0.9914448613738106 0.0 0.13052619222005077
  outer loop
    vertex 142.35770540473163 53.505031016691106 30.6176380902051
    vertex 142.28955705730976 48.50503101669112 30.10000000000006
    vertex 142.35770540473163 48.50503101669112 30.6176380902051
  endloop
endfacet
facet normal -0.9914448613738106 0.0 0.13052619222005077
  outer loop
    vertex 142.28955705730976 48.50503101669112 30.10000000000006
    vertex 142.35770540473163 53.505031016691106 30.6176380902051
    vertex 142.28955705730976 53.505031016691106 30.10000000000006
  endloop
endfacet
facet normal -0.9914448613738106 -0.0 -0.13052619222005077
  outer loop
    vertex 142.28955705730976 53.505031016691106 30.10000000000006
    vertex 142.35770540473163 48.50503101669112 29.58236190979501
    vertex 142.28955705730976 48.50503101669112 30.10000000000006
  endloop
endfacet
facet normal -0.9914448613738106 -0.0 -0.13052619222005077
  outer loop
    vertex 142.35770540473163 48.50503101669112 29.58236190979501
    vertex 142.28955705730976 53.505031016691106 30.10000000000006
    vertex 142.35770540473163 53.505031016691106 29.58236190979501
  endloop
endfacet
facet normal -0.9238795325112845 -0.0 -0.3826834323650951
  outer loop
    vertex 142.35770540473163 53.505031016691106 29.58236190979501
    vertex 142.5575062497409 48.50503101669112 29.10000000000006
    vertex 142.35770540473163 48.50503101669112 29.58236190979501
  endloop
endfacet
facet normal -0.9238795325112845 -0.0 -0.3826834323650951
  outer loop
    vertex 142.5575062497409 48.50503101669112 29.10000000000006
    vertex 142.35770540473163 53.505031016691106 29.58236190979501
    vertex 142.5575062497409 53.505031016691106 29.10000000000006
  endloop
endfacet
facet normal -0.7933533402912386 -0.0 -0.6087614290087161
  outer loop
    vertex 142.5575062497409 53.505031016691106 29.10000000000006
    vertex 142.87534349493666 48.50503101669112 28.68578643762696
    vertex 142.5575062497409 48.50503101669112 29.10000000000006
  endloop
endfacet
facet normal -0.7933533402912386 -0.0 -0.6087614290087161
  outer loop
    vertex 142.87534349493666 48.50503101669112 28.68578643762696
    vertex 142.5575062497409 53.505031016691106 29.10000000000006
    vertex 142.87534349493666 53.505031016691106 28.68578643762696
  endloop
endfacet
facet normal -0.6087614290087043 -0.0 -0.7933533402912477
  outer loop
    vertex 143.28955705730976 53.505031016691106 28.36794919243119
    vertex 142.87534349493666 48.50503101669112 28.68578643762696
    vertex 142.87534349493666 53.505031016691106 28.68578643762696
  endloop
endfacet
facet normal -0.6087614290087043 -0.0 -0.7933533402912477
  outer loop
    vertex 142.87534349493666 48.50503101669112 28.68578643762696
    vertex 143.28955705730976 53.505031016691106 28.36794919243119
    vertex 143.28955705730976 48.50503101669112 28.36794919243119
  endloop
endfacet
facet normal -0.382683432365119 -0.0 -0.9238795325112747
  outer loop
    vertex 143.77191896710474 53.505031016691106 28.168148347421912
    vertex 143.28955705730976 48.50503101669112 28.36794919243119
    vertex 143.28955705730976 53.505031016691106 28.36794919243119
  endloop
endfacet
facet normal -0.382683432365119 -0.0 -0.9238795325112747
  outer loop
    vertex 143.28955705730976 48.50503101669112 28.36794919243119
    vertex 143.77191896710474 53.505031016691106 28.168148347421912
    vertex 143.77191896710474 48.50503101669112 28.168148347421912
  endloop
endfacet
facet normal -0.9914448613738106 0.0 0.13052619222005077
  outer loop
    vertex 142.35770540473163 53.505031016691106 10.817638090205094
    vertex 142.28955705730976 48.50503101669112 10.300000000000049
    vertex 142.35770540473163 48.50503101669112 10.817638090205094
  endloop
endfacet
facet normal -0.9914448613738106 0.0 0.13052619222005077
  outer loop
    vertex 142.28955705730976 48.50503101669112 10.300000000000049
    vertex 142.35770540473163 53.505031016691106 10.817638090205094
    vertex 142.28955705730976 53.505031016691106 10.300000000000049
  endloop
endfacet
facet normal -0.9914448613738106 -0.0 -0.13052619222005077
  outer loop
    vertex 142.28955705730976 53.505031016691106 10.300000000000049
    vertex 142.35770540473163 48.50503101669112 9.782361909795004
    vertex 142.28955705730976 48.50503101669112 10.300000000000049
  endloop
endfacet
facet normal -0.9914448613738106 -0.0 -0.13052619222005077
  outer loop
    vertex 142.35770540473163 48.50503101669112 9.782361909795004
    vertex 142.28955705730976 53.505031016691106 10.300000000000049
    vertex 142.35770540473163 53.505031016691106 9.782361909795004
  endloop
endfacet
facet normal -0.9238795325112845 -0.0 -0.3826834323650951
  outer loop
    vertex 142.35770540473163 53.505031016691106 9.782361909795004
    vertex 142.5575062497409 48.50503101669112 9.30000000000005
    vertex 142.35770540473163 48.50503101669112 9.782361909795004
  endloop
endfacet
facet normal -0.9238795325112845 -0.0 -0.3826834323650951
  outer loop
    vertex 142.5575062497409 48.50503101669112 9.30000000000005
    vertex 142.35770540473163 53.505031016691106 9.782361909795004
    vertex 142.5575062497409 53.505031016691106 9.30000000000005
  endloop
endfacet
facet normal -0.7933533402912386 -0.0 -0.6087614290087161
  outer loop
    vertex 142.5575062497409 53.505031016691106 9.30000000000005
    vertex 142.87534349493666 48.50503101669112 8.885786437626951
    vertex 142.5575062497409 48.50503101669112 9.30000000000005
  endloop
endfacet
facet normal -0.7933533402912386 -0.0 -0.6087614290087161
  outer loop
    vertex 142.87534349493666 48.50503101669112 8.885786437626951
    vertex 142.5575062497409 53.505031016691106 9.30000000000005
    vertex 142.87534349493666 53.505031016691106 8.885786437626951
  endloop
endfacet
facet normal -0.6087614290087043 -0.0 -0.7933533402912477
  outer loop
    vertex 143.28955705730976 53.505031016691106 8.567949192431183
    vertex 142.87534349493666 48.50503101669112 8.885786437626951
    vertex 142.87534349493666 53.505031016691106 8.885786437626951
  endloop
endfacet
facet normal -0.6087614290087043 -0.0 -0.7933533402912477
  outer loop
    vertex 142.87534349493666 48.50503101669112 8.885786437626951
    vertex 143.28955705730976 53.505031016691106 8.567949192431183
    vertex 143.28955705730976 48.50503101669112 8.567949192431183
  endloop
endfacet
facet normal -0.382683432365119 -0.0 -0.9238795325112747
  outer loop
    vertex 143.77191896710474 53.505031016691106 8.368148347421904
    vertex 143.28955705730976 48.50503101669112 8.567949192431183
    vertex 143.28955705730976 53.505031016691106 8.567949192431183
  endloop
endfacet
facet normal -0.382683432365119 -0.0 -0.9238795325112747
  outer loop
    vertex 143.28955705730976 48.50503101669112 8.567949192431183
    vertex 143.77191896710474 53.505031016691106 8.368148347421904
    vertex 143.77191896710474 48.50503101669112 8.368148347421904
  endloop
endfacet
facet normal -0.13052619222003092 -0.0 -0.9914448613738132
  outer loop
    vertex 144.28955705730976 53.505031016691106 8.300000000000052
    vertex 143.77191896710474 48.50503101669112 8.368148347421904
    vertex 143.77191896710474 53.505031016691106 8.368148347421904
  endloop
endfacet
facet normal -0.13052619222003092 -0.0 -0.9914448613738132
  outer loop
    vertex 143.77191896710474 48.50503101669112 8.368148347421904
    vertex 144.28955705730976 53.505031016691106 8.300000000000052
    vertex 144.28955705730976 48.50503101669112 8.300000000000052
  endloop
endfacet
facet normal 0.13052619222003023 0.0 -0.9914448613738134
  outer loop
    vertex 144.8071951475148 53.505031016691106 8.368148347421904
    vertex 144.28955705730976 48.50503101669112 8.300000000000052
    vertex 144.28955705730976 53.505031016691106 8.300000000000052
  endloop
endfacet
facet normal 0.13052619222003023 0.0 -0.9914448613738134
  outer loop
    vertex 144.28955705730976 48.50503101669112 8.300000000000052
    vertex 144.8071951475148 53.505031016691106 8.368148347421904
    vertex 144.8071951475148 48.50503101669112 8.368148347421904
  endloop
endfacet
facet normal 0.382683432365119 0.0 -0.9238795325112747
  outer loop
    vertex 145.28955705730976 53.505031016691106 8.567949192431183
    vertex 144.8071951475148 48.50503101669112 8.368148347421904
    vertex 144.8071951475148 53.505031016691106 8.368148347421904
  endloop
endfacet
facet normal 0.382683432365119 0.0 -0.9238795325112747
  outer loop
    vertex 144.8071951475148 48.50503101669112 8.368148347421904
    vertex 145.28955705730976 53.505031016691106 8.567949192431183
    vertex 145.28955705730976 48.50503101669112 8.567949192431183
  endloop
endfacet
facet normal 0.6087614290087043 0.0 -0.7933533402912477
  outer loop
    vertex 145.70377061968287 53.505031016691106 8.885786437626951
    vertex 145.28955705730976 48.50503101669112 8.567949192431183
    vertex 145.28955705730976 53.505031016691106 8.567949192431183
  endloop
endfacet
facet normal 0.6087614290087043 0.0 -0.7933533402912477
  outer loop
    vertex 145.28955705730976 48.50503101669112 8.567949192431183
    vertex 145.70377061968287 53.505031016691106 8.885786437626951
    vertex 145.70377061968287 48.50503101669112 8.885786437626951
  endloop
endfacet
facet normal 0.7933533402912386 0.0 -0.6087614290087161
  outer loop
    vertex 145.70377061968287 53.505031016691106 8.885786437626951
    vertex 146.02160786487863 48.50503101669112 9.30000000000005
    vertex 145.70377061968287 48.50503101669112 8.885786437626951
  endloop
endfacet
facet normal 0.7933533402912386 0.0 -0.6087614290087161
  outer loop
    vertex 146.02160786487863 48.50503101669112 9.30000000000005
    vertex 145.70377061968287 53.505031016691106 8.885786437626951
    vertex 146.02160786487863 53.505031016691106 9.30000000000005
  endloop
endfacet
facet normal 0.9238795325112865 0.0 -0.38268343236509056
  outer loop
    vertex 146.02160786487863 53.505031016691106 9.30000000000005
    vertex 146.22140870988787 48.50503101669112 9.782361909795004
    vertex 146.02160786487863 48.50503101669112 9.30000000000005
  endloop
endfacet
facet normal 0.9238795325112865 0.0 -0.38268343236509056
  outer loop
    vertex 146.22140870988787 48.50503101669112 9.782361909795004
    vertex 146.02160786487863 53.505031016691106 9.30000000000005
    vertex 146.22140870988787 53.505031016691106 9.782361909795004
  endloop
endfacet
facet normal 0.9914448613738106 0.0 -0.13052619222005077
  outer loop
    vertex 146.22140870988787 53.505031016691106 9.782361909795004
    vertex 146.28955705730976 48.50503101669112 10.300000000000049
    vertex 146.22140870988787 48.50503101669112 9.782361909795004
  endloop
endfacet
facet normal 0.9914448613738106 0.0 -0.13052619222005077
  outer loop
    vertex 146.28955705730976 48.50503101669112 10.300000000000049
    vertex 146.22140870988787 53.505031016691106 9.782361909795004
    vertex 146.28955705730976 53.505031016691106 10.300000000000049
  endloop
endfacet
facet normal 0.9914448613738106 0.0 0.13052619222005077
  outer loop
    vertex 146.28955705730976 53.505031016691106 10.300000000000049
    vertex 146.22140870988787 48.50503101669112 10.817638090205094
    vertex 146.28955705730976 48.50503101669112 10.300000000000049
  endloop
endfacet
facet normal 0.9914448613738106 0.0 0.13052619222005077
  outer loop
    vertex 146.22140870988787 48.50503101669112 10.817638090205094
    vertex 146.28955705730976 53.505031016691106 10.300000000000049
    vertex 146.22140870988787 53.505031016691106 10.817638090205094
  endloop
endfacet
facet normal 0.9238795325112845 0.0 0.3826834323650951
  outer loop
    vertex 146.22140870988787 53.505031016691106 10.817638090205094
    vertex 146.02160786487863 48.50503101669112 11.300000000000047
    vertex 146.22140870988787 48.50503101669112 10.817638090205094
  endloop
endfacet
facet normal 0.9238795325112845 0.0 0.3826834323650951
  outer loop
    vertex 146.02160786487863 48.50503101669112 11.300000000000047
    vertex 146.22140870988787 53.505031016691106 10.817638090205094
    vertex 146.02160786487863 53.505031016691106 11.300000000000047
  endloop
endfacet
facet normal 0.7933533402912386 0.0 0.6087614290087161
  outer loop
    vertex 146.02160786487863 53.505031016691106 11.300000000000047
    vertex 145.70377061968287 48.50503101669112 11.714213562373148
    vertex 146.02160786487863 48.50503101669112 11.300000000000047
  endloop
endfacet
facet normal 0.7933533402912386 0.0 0.6087614290087161
  outer loop
    vertex 145.70377061968287 48.50503101669112 11.714213562373148
    vertex 146.02160786487863 53.505031016691106 11.300000000000047
    vertex 145.70377061968287 53.505031016691106 11.714213562373148
  endloop
endfacet
facet normal 0.6087614290087043 0.0 0.7933533402912477
  outer loop
    vertex 145.70377061968287 48.50503101669112 11.714213562373148
    vertex 145.28955705730976 53.505031016691106 12.032050807568917
    vertex 145.28955705730976 48.50503101669112 12.032050807568917
  endloop
endfacet
facet normal 0.6087614290087043 0.0 0.7933533402912477
  outer loop
    vertex 145.28955705730976 53.505031016691106 12.032050807568917
    vertex 145.70377061968287 48.50503101669112 11.714213562373148
    vertex 145.70377061968287 53.505031016691106 11.714213562373148
  endloop
endfacet
facet normal 0.382683432365119 0.0 0.9238795325112747
  outer loop
    vertex 145.28955705730976 48.50503101669112 12.032050807568917
    vertex 144.8071951475148 53.505031016691106 12.231851652578193
    vertex 144.8071951475148 48.50503101669112 12.231851652578193
  endloop
endfacet
facet normal 0.382683432365119 0.0 0.9238795325112747
  outer loop
    vertex 144.8071951475148 53.505031016691106 12.231851652578193
    vertex 145.28955705730976 48.50503101669112 12.032050807568917
    vertex 145.28955705730976 53.505031016691106 12.032050807568917
  endloop
endfacet
facet normal 0.13052619222003092 0.0 0.9914448613738132
  outer loop
    vertex 144.8071951475148 48.50503101669112 12.231851652578193
    vertex 144.28955705730976 53.505031016691106 12.300000000000045
    vertex 144.28955705730976 48.50503101669112 12.300000000000045
  endloop
endfacet
facet normal 0.13052619222003092 0.0 0.9914448613738132
  outer loop
    vertex 144.28955705730976 53.505031016691106 12.300000000000045
    vertex 144.8071951475148 48.50503101669112 12.231851652578193
    vertex 144.8071951475148 53.505031016691106 12.231851652578193
  endloop
endfacet
facet normal -0.13052619222003023 0.0 0.9914448613738134
  outer loop
    vertex 144.28955705730976 48.50503101669112 12.300000000000045
    vertex 143.77191896710474 53.505031016691106 12.231851652578193
    vertex 143.77191896710474 48.50503101669112 12.231851652578193
  endloop
endfacet
facet normal -0.13052619222003023 0.0 0.9914448613738134
  outer loop
    vertex 143.77191896710474 53.505031016691106 12.231851652578193
    vertex 144.28955705730976 48.50503101669112 12.300000000000045
    vertex 144.28955705730976 53.505031016691106 12.300000000000045
  endloop
endfacet
facet normal -0.382683432365119 0.0 0.9238795325112747
  outer loop
    vertex 143.77191896710474 48.50503101669112 12.231851652578193
    vertex 143.28955705730976 53.505031016691106 12.032050807568917
    vertex 143.28955705730976 48.50503101669112 12.032050807568917
  endloop
endfacet
facet normal -0.382683432365119 0.0 0.9238795325112747
  outer loop
    vertex 143.28955705730976 53.505031016691106 12.032050807568917
    vertex 143.77191896710474 48.50503101669112 12.231851652578193
    vertex 143.77191896710474 53.505031016691106 12.231851652578193
  endloop
endfacet
facet normal -0.6087614290087043 0.0 0.7933533402912477
  outer loop
    vertex 143.28955705730976 48.50503101669112 12.032050807568917
    vertex 142.87534349493666 53.505031016691106 11.714213562373148
    vertex 142.87534349493666 48.50503101669112 11.714213562373148
  endloop
endfacet
facet normal -0.6087614290087043 0.0 0.7933533402912477
  outer loop
    vertex 142.87534349493666 53.505031016691106 11.714213562373148
    vertex 143.28955705730976 48.50503101669112 12.032050807568917
    vertex 143.28955705730976 53.505031016691106 12.032050807568917
  endloop
endfacet
facet normal -0.7933533402912399 0.0 0.6087614290087143
  outer loop
    vertex 142.87534349493666 53.505031016691106 11.714213562373148
    vertex 142.5575062497409 48.50503101669112 11.300000000000047
    vertex 142.87534349493666 48.50503101669112 11.714213562373148
  endloop
endfacet
facet normal -0.7933533402912399 0.0 0.6087614290087143
  outer loop
    vertex 142.5575062497409 48.50503101669112 11.300000000000047
    vertex 142.87534349493666 53.505031016691106 11.714213562373148
    vertex 142.5575062497409 53.505031016691106 11.300000000000047
  endloop
endfacet
facet normal -0.9238795325112855 0.0 0.38268343236509283
  outer loop
    vertex 142.5575062497409 53.505031016691106 11.300000000000047
    vertex 142.35770540473163 48.50503101669112 10.817638090205094
    vertex 142.5575062497409 48.50503101669112 11.300000000000047
  endloop
endfacet
facet normal -0.9238795325112855 0.0 0.38268343236509283
  outer loop
    vertex 142.35770540473163 48.50503101669112 10.817638090205094
    vertex 142.5575062497409 53.505031016691106 11.300000000000047
    vertex 142.35770540473163 53.505031016691106 10.817638090205094
  endloop
endfacet
facet normal 0.0 -1.0 0.0
  outer loop
    vertex 132.2895570573098 113.50503101669119 40.000000000000064
    vertex 129.28955705730974 113.50503101669119 4.511946372076636e-14
    vertex 132.2895570573098 113.50503101669119 4.511946372076636e-14
  endloop
endfacet
facet normal 0.0 -1.0 0.0
  outer loop
    vertex 129.28955705730974 113.50503101669119 4.511946372076636e-14
    vertex 132.2895570573098 113.50503101669119 40.000000000000064
    vertex 129.28955705730974 113.50503101669119 40.000000000000064
  endloop
endfacet
facet normal 0.37139067635410317 -0.9284766908852595 2.0782543113232017e-18
  outer loop
    vertex 129.28955705730974 113.50503101669119 40.000000000000064
    vertex 104.28955705730974 103.5050310166912 4.511946372076636e-14
    vertex 129.28955705730974 113.50503101669119 4.511946372076636e-14
  endloop
endfacet
facet normal 0.37139067635410317 -0.9284766908852595 2.0782543113232017e-18
  outer loop
    vertex 104.28955705730974 103.5050310166912 4.511946372076636e-14
    vertex 129.28955705730974 113.50503101669119 40.000000000000064
    vertex 104.28955705730974 103.5050310166912 40.000000000000014
  endloop
endfacet
facet normal 0.0 -1.0 0.0
  outer loop
    vertex 129.28955705730974 93.50503101669119 40.000000000000064
    vertex 104.28955705730974 93.50503101669119 4.511946372076636e-14
    vertex 129.28955705730974 93.50503101669119 4.511946372076636e-14
  endloop
endfacet
facet normal 0.0 -1.0 0.0
  outer loop
    vertex 104.28955705730974 93.50503101669119 4.511946372076636e-14
    vertex 129.28955705730974 93.50503101669119 40.000000000000064
    vertex 104.28955705730974 93.50503101669119 40.000000000000014
  endloop
endfacet
facet normal -1.0 -0.0 -0.0
  outer loop
    vertex 104.28955705730974 103.5050310166912 40.000000000000014
    vertex 104.28955705730974 93.50503101669119 4.511946372076636e-14
    vertex 104.28955705730974 93.50503101669119 40.000000000000014
  endloop
endfacet
facet normal -1.0 -0.0 -0.0
  outer loop
    vertex 104.28955705730974 93.50503101669119 4.511946372076636e-14
    vertex 104.28955705730974 103.5050310166912 40.000000000000014
    vertex 104.28955705730974 103.5050310166912 4.511946372076636e-14
  endloop
endfacet
endsolid Rollo
