solid Rollo
facet normal 0.0 -1.0 0.0
  outer loop
    vertex 24.257023488362165 268.7920240175678 168.0
    vertex 15.21421839510629 268.7920240175678 176.24393112022815
    vertex -0.7429765116378352 268.7920240175678 168.0
  endloop
endfacet
facet normal 0.0 -1.0 0.0
  outer loop
    vertex 15.21421839510629 268.7920240175678 176.24393112022815
    vertex 24.257023488362165 268.7920240175678 168.0
    vertex 15.636106840175461 268.7920240175678 176.55150798802637
  endloop
endfacet
facet normal 0.0 -1.0 0.0
  outer loop
    vertex 15.636106840175461 268.7920240175678 176.55150798802637
    vertex 24.257023488362165 268.7920240175678 168.0
    vertex 15.667106121311054 268.7920240175678 176.58991736705113
  endloop
endfacet
facet normal 0.0 -1.0 0.0
  outer loop
    vertex 15.667106121311054 268.7920240175678 176.58991736705113
    vertex 24.257023488362165 268.7920240175678 168.0
    vertex 15.96401303386158 268.7920240175678 176.9577971926944
  endloop
endfacet
facet normal 0.0 -1.0 0.0
  outer loop
    vertex 15.96401303386158 268.7920240175678 176.9577971926944
    vertex 24.257023488362165 268.7920240175678 168.0
    vertex 24.257023488362165 268.7920240175678 188.00000000000003
  endloop
endfacet
facet normal 0.0 -1.0 0.0
  outer loop
    vertex -0.7429765116378352 268.7920240175678 168.0
    vertex 15.21421839510629 268.7920240175678 176.24393112022815
    vertex 14.727098698981868 268.7920240175678 176.05602744454535
  endloop
endfacet
facet normal 0.0 -1.0 0.0
  outer loop
    vertex -0.7429765116378352 268.7920240175678 168.0
    vertex 14.727098698981868 268.7920240175678 176.05602744454535
    vertex 14.20794415408975 268.7920240175678 176.00060228595027
  endloop
endfacet
facet normal 0.0 -1.0 0.0
  outer loop
    vertex 15.96401303386158 268.7920240175678 176.9577971926944
    vertex 24.257023488362165 268.7920240175678 188.00000000000003
    vertex 16.175590710955493 268.7920240175678 177.43511079635866
  endloop
endfacet
facet normal 0.0 -1.0 0.0
  outer loop
    vertex 16.175590710955493 268.7920240175678 177.43511079635866
    vertex 24.257023488362165 268.7920240175678 188.00000000000003
    vertex 16.25642120241193 268.7920240175678 177.95092066572755
  endloop
endfacet
facet normal 0.0 -1.0 0.0
  outer loop
    vertex 16.25642120241193 268.7920240175678 177.95092066572755
    vertex 24.257023488362165 268.7920240175678 188.00000000000003
    vertex 16.200996043816836 268.7920240175678 178.4700752106197
  endloop
endfacet
facet normal 0.0 -1.0 0.0
  outer loop
    vertex 16.200996043816836 268.7920240175678 178.4700752106197
    vertex 24.257023488362165 268.7920240175678 188.00000000000003
    vertex 16.013092368134057 268.7920240175678 178.95719490674412
  endloop
endfacet
facet normal 0.0 -1.0 0.0
  outer loop
    vertex 16.013092368134057 268.7920240175678 178.95719490674412
    vertex 24.257023488362165 268.7920240175678 188.00000000000003
    vertex 15.705515500335808 268.7920240175678 179.3790833518133
  endloop
endfacet
facet normal 0.0 -1.0 0.0
  outer loop
    vertex 15.705515500335808 268.7920240175678 179.3790833518133
    vertex 24.257023488362165 268.7920240175678 188.00000000000003
    vertex 15.29922629566782 268.7920240175678 179.7069895454994
  endloop
endfacet
facet normal 0.0 -1.0 0.0
  outer loop
    vertex 15.29922629566782 268.7920240175678 179.7069895454994
    vertex 24.257023488362165 268.7920240175678 188.00000000000003
    vertex 14.821912692003556 268.7920240175678 179.9185672225933
  endloop
endfacet
facet normal 0.0 -1.0 0.0
  outer loop
    vertex 14.821912692003556 268.7920240175678 179.9185672225933
    vertex 24.257023488362165 268.7920240175678 188.00000000000003
    vertex 14.30610282263466 268.7920240175678 179.99939771404976
  endloop
endfacet
facet normal 0.0 -1.0 0.0
  outer loop
    vertex -0.7429765116378352 268.7920240175678 168.0
    vertex 12.808531476388556 268.7920240175678 176.62091664818672
    vertex -0.7429765116378352 268.7920240175678 188.00000000000003
  endloop
endfacet
facet normal 0.0 -1.0 0.0
  outer loop
    vertex 12.808531476388556 268.7920240175678 176.62091664818672
    vertex -0.7429765116378352 268.7920240175678 168.0
    vertex 13.214820681056544 268.7920240175678 176.2930104545006
  endloop
endfacet
facet normal 0.0 -1.0 0.0
  outer loop
    vertex 13.214820681056544 268.7920240175678 176.2930104545006
    vertex -0.7429765116378352 268.7920240175678 168.0
    vertex 13.692134284720854 268.7920240175678 176.0814327774067
  endloop
endfacet
facet normal 0.0 -1.0 0.0
  outer loop
    vertex 13.692134284720854 268.7920240175678 176.0814327774067
    vertex -0.7429765116378352 268.7920240175678 168.0
    vertex 14.20794415408975 268.7920240175678 176.00060228595027
  endloop
endfacet
facet normal 0.0 -1.0 0.0
  outer loop
    vertex -0.7429765116378352 268.7920240175678 188.00000000000003
    vertex 12.808531476388556 268.7920240175678 176.62091664818672
    vertex 12.500954608590353 268.7920240175678 177.0428050932559
  endloop
endfacet
facet normal 0.0 -1.0 0.0
  outer loop
    vertex -0.7429765116378352 268.7920240175678 188.00000000000003
    vertex 12.500954608590353 268.7920240175678 177.0428050932559
    vertex 12.31305093290753 268.7920240175678 177.52992478938032
  endloop
endfacet
facet normal 0.0 -1.0 0.0
  outer loop
    vertex -0.7429765116378352 268.7920240175678 188.00000000000003
    vertex 12.31305093290753 268.7920240175678 177.52992478938032
    vertex 12.257625774312437 268.7920240175678 178.04907933427248
  endloop
endfacet
facet normal 0.0 -1.0 0.0
  outer loop
    vertex -0.7429765116378352 268.7920240175678 188.00000000000003
    vertex 12.257625774312437 268.7920240175678 178.04907933427248
    vertex 12.33845626576887 268.7920240175678 178.56488920364137
  endloop
endfacet
facet normal 0.0 -1.0 0.0
  outer loop
    vertex -0.7429765116378352 268.7920240175678 188.00000000000003
    vertex 12.33845626576887 268.7920240175678 178.56488920364137
    vertex 12.550033942862786 268.7920240175678 179.04220280730564
  endloop
endfacet
facet normal 0.0 -1.0 0.0
  outer loop
    vertex -0.7429765116378352 268.7920240175678 188.00000000000003
    vertex 12.550033942862786 268.7920240175678 179.04220280730564
    vertex 12.846940855413312 268.7920240175678 179.41008263294887
  endloop
endfacet
facet normal 0.0 -1.0 0.0
  outer loop
    vertex -0.7429765116378352 268.7920240175678 188.00000000000003
    vertex 12.846940855413312 268.7920240175678 179.41008263294887
    vertex 12.877940136548904 268.7920240175678 179.44849201197363
  endloop
endfacet
facet normal 0.0 -1.0 0.0
  outer loop
    vertex -0.7429765116378352 268.7920240175678 188.00000000000003
    vertex 12.877940136548904 268.7920240175678 179.44849201197363
    vertex 13.299828581618076 268.7920240175678 179.75606887977187
  endloop
endfacet
facet normal 0.0 -1.0 0.0
  outer loop
    vertex -0.7429765116378352 268.7920240175678 188.00000000000003
    vertex 13.299828581618076 268.7920240175678 179.75606887977187
    vertex 13.786948277742498 268.7920240175678 179.94397255545468
  endloop
endfacet
facet normal 0.0 -1.0 0.0
  outer loop
    vertex -0.7429765116378352 268.7920240175678 188.00000000000003
    vertex 13.786948277742498 268.7920240175678 179.94397255545468
    vertex 14.30610282263466 268.7920240175678 179.99939771404976
  endloop
endfacet
facet normal 0.0 -1.0 0.0
  outer loop
    vertex -0.7429765116378352 268.7920240175678 188.00000000000003
    vertex 14.30610282263466 268.7920240175678 179.99939771404976
    vertex 24.257023488362165 268.7920240175678 188.00000000000003
  endloop
endfacet
facet normal -1.0 -0.0 -0.0
  outer loop
    vertex -0.7429765116378352 323.79202401756794 188.00000000000003
    vertex -0.7429765116378352 268.7920240175678 168.0
    vertex -0.7429765116378352 268.7920240175678 188.00000000000003
  endloop
endfacet
facet normal -1.0 -0.0 -0.0
  outer loop
    vertex -0.7429765116378352 268.7920240175678 168.0
    vertex -0.7429765116378352 323.79202401756794 188.00000000000003
    vertex -0.7429765116378352 323.79202401756794 168.0
  endloop
endfacet
facet normal 0.0 1.0 0.0
  outer loop
    vertex -254.74297651163639 273.79202401756777 168.0
    vertex -245.74297651163636 273.79202401756777 176.26794919243113
    vertex -234.74297651163636 273.79202401756777 168.0
  endloop
endfacet
facet normal 0.0 1.0 0.0
  outer loop
    vertex -245.74297651163636 273.79202401756777 176.26794919243113
    vertex -254.74297651163639 273.79202401756777 168.0
    vertex -246.15719007400943 273.79202401756777 176.58578643762692
  endloop
endfacet
facet normal 0.0 1.0 0.0
  outer loop
    vertex -246.15719007400943 273.79202401756777 176.58578643762692
    vertex -254.74297651163639 273.79202401756777 168.0
    vertex -246.47502731920522 273.79202401756777 177.0
  endloop
endfacet
facet normal 0.0 1.0 0.0
  outer loop
    vertex -246.47502731920522 273.79202401756777 177.0
    vertex -254.74297651163639 273.79202401756777 168.0
    vertex -254.74297651163639 273.79202401756777 188.00000000000003
  endloop
endfacet
facet normal 0.0 1.0 0.0
  outer loop
    vertex -234.74297651163636 273.79202401756777 168.0
    vertex -245.74297651163636 273.79202401756777 176.26794919243113
    vertex -245.26061460184138 273.79202401756777 176.06814834742187
  endloop
endfacet
facet normal 0.0 1.0 0.0
  outer loop
    vertex -234.74297651163636 273.79202401756777 168.0
    vertex -245.26061460184138 273.79202401756777 176.06814834742187
    vertex -244.74297651163636 273.79202401756777 176.00000000000003
  endloop
endfacet
facet normal 0.0 1.0 0.0
  outer loop
    vertex -246.47502731920522 273.79202401756777 177.0
    vertex -254.74297651163639 273.79202401756777 188.00000000000003
    vertex -246.67482816421446 273.79202401756777 177.48236190979497
  endloop
endfacet
facet normal 0.0 1.0 0.0
  outer loop
    vertex -246.67482816421446 273.79202401756777 177.48236190979497
    vertex -254.74297651163639 273.79202401756777 188.00000000000003
    vertex -246.74297651163636 273.79202401756777 178.0
  endloop
endfacet
facet normal 0.0 1.0 0.0
  outer loop
    vertex -246.74297651163636 273.79202401756777 178.0
    vertex -254.74297651163639 273.79202401756777 188.00000000000003
    vertex -246.67482816421446 273.79202401756777 178.51763809020505
  endloop
endfacet
facet normal 0.0 1.0 0.0
  outer loop
    vertex -246.67482816421446 273.79202401756777 178.51763809020505
    vertex -254.74297651163639 273.79202401756777 188.00000000000003
    vertex -246.47502731920522 273.79202401756777 179.0
  endloop
endfacet
facet normal 0.0 1.0 0.0
  outer loop
    vertex -246.47502731920522 273.79202401756777 179.0
    vertex -254.74297651163639 273.79202401756777 188.00000000000003
    vertex -246.15719007400943 273.79202401756777 179.4142135623731
  endloop
endfacet
facet normal 0.0 1.0 0.0
  outer loop
    vertex -246.15719007400943 273.79202401756777 179.4142135623731
    vertex -254.74297651163639 273.79202401756777 188.00000000000003
    vertex -245.74297651163636 273.79202401756777 179.73205080756887
  endloop
endfacet
facet normal 0.0 1.0 0.0
  outer loop
    vertex -245.74297651163636 273.79202401756777 179.73205080756887
    vertex -254.74297651163639 273.79202401756777 188.00000000000003
    vertex -245.26061460184138 273.79202401756777 179.93185165257816
  endloop
endfacet
facet normal 0.0 1.0 0.0
  outer loop
    vertex -245.26061460184138 273.79202401756777 179.93185165257816
    vertex -254.74297651163639 273.79202401756777 188.00000000000003
    vertex -244.74297651163636 273.79202401756777 180.0
  endloop
endfacet
facet normal 0.0 1.0 0.0
  outer loop
    vertex -234.74297651163636 273.79202401756777 168.0
    vertex -243.0109257040675 273.79202401756777 177.0
    vertex -234.74297651163636 273.79202401756777 188.00000000000003
  endloop
endfacet
facet normal 0.0 1.0 0.0
  outer loop
    vertex -243.0109257040675 273.79202401756777 177.0
    vertex -234.74297651163636 273.79202401756777 168.0
    vertex -243.32876294926325 273.79202401756777 176.58578643762692
  endloop
endfacet
facet normal 0.0 1.0 0.0
  outer loop
    vertex -243.32876294926325 273.79202401756777 176.58578643762692
    vertex -234.74297651163636 273.79202401756777 168.0
    vertex -243.74297651163636 273.79202401756777 176.26794919243113
  endloop
endfacet
facet normal 0.0 1.0 0.0
  outer loop
    vertex -243.74297651163636 273.79202401756777 176.26794919243113
    vertex -234.74297651163636 273.79202401756777 168.0
    vertex -244.22533842143133 273.79202401756777 176.06814834742187
  endloop
endfacet
facet normal 0.0 1.0 0.0
  outer loop
    vertex -244.22533842143133 273.79202401756777 176.06814834742187
    vertex -234.74297651163636 273.79202401756777 168.0
    vertex -244.74297651163636 273.79202401756777 176.00000000000003
  endloop
endfacet
facet normal 0.0 1.0 0.0
  outer loop
    vertex -234.74297651163636 273.79202401756777 188.00000000000003
    vertex -243.0109257040675 273.79202401756777 177.0
    vertex -242.81112485905822 273.79202401756777 177.48236190979497
  endloop
endfacet
facet normal 0.0 1.0 0.0
  outer loop
    vertex -234.74297651163636 273.79202401756777 188.00000000000003
    vertex -242.81112485905822 273.79202401756777 177.48236190979497
    vertex -242.74297651163636 273.79202401756777 178.0
  endloop
endfacet
facet normal 0.0 1.0 0.0
  outer loop
    vertex -234.74297651163636 273.79202401756777 188.00000000000003
    vertex -242.74297651163636 273.79202401756777 178.0
    vertex -242.81112485905822 273.79202401756777 178.51763809020505
  endloop
endfacet
facet normal 0.0 1.0 0.0
  outer loop
    vertex -234.74297651163636 273.79202401756777 188.00000000000003
    vertex -242.81112485905822 273.79202401756777 178.51763809020505
    vertex -243.0109257040675 273.79202401756777 179.0
  endloop
endfacet
facet normal 0.0 1.0 0.0
  outer loop
    vertex -234.74297651163636 273.79202401756777 188.00000000000003
    vertex -243.0109257040675 273.79202401756777 179.0
    vertex -243.32876294926325 273.79202401756777 179.4142135623731
  endloop
endfacet
facet normal 0.0 1.0 0.0
  outer loop
    vertex -234.74297651163636 273.79202401756777 188.00000000000003
    vertex -243.32876294926325 273.79202401756777 179.4142135623731
    vertex -243.74297651163636 273.79202401756777 179.73205080756887
  endloop
endfacet
facet normal 0.0 1.0 0.0
  outer loop
    vertex -234.74297651163636 273.79202401756777 188.00000000000003
    vertex -243.74297651163636 273.79202401756777 179.73205080756887
    vertex -244.22533842143133 273.79202401756777 179.93185165257813
  endloop
endfacet
facet normal 0.0 1.0 0.0
  outer loop
    vertex -234.74297651163636 273.79202401756777 188.00000000000003
    vertex -244.22533842143133 273.79202401756777 179.93185165257813
    vertex -244.74297651163636 273.79202401756777 180.0
  endloop
endfacet
facet normal 0.0 1.0 0.0
  outer loop
    vertex -234.74297651163636 273.79202401756777 188.00000000000003
    vertex -244.74297651163636 273.79202401756777 180.0
    vertex -254.74297651163639 273.79202401756777 188.00000000000003
  endloop
endfacet
facet normal -1.0 0.0 0.0
  outer loop
    vertex -254.74297651163639 273.79202401756777 188.00000000000003
    vertex -254.74297651163639 268.79202401756777 168.0
    vertex -254.74297651163639 268.79202401756777 188.00000000000003
  endloop
endfacet
facet normal -1.0 0.0 0.0
  outer loop
    vertex -254.74297651163639 268.79202401756777 168.0
    vertex -254.74297651163639 273.79202401756777 188.00000000000003
    vertex -254.74297651163639 273.79202401756777 168.0
  endloop
endfacet
facet normal -0.9914448613738077 -0.0 -0.13052619222007197
  outer loop
    vertex -242.81112485905822 273.79202401756777 178.51763809020505
    vertex -242.74297651163636 268.79202401756777 178.0
    vertex -242.81112485905822 268.79202401756777 178.51763809020505
  endloop
endfacet
facet normal -0.9914448613738077 -0.0 -0.13052619222007197
  outer loop
    vertex -242.74297651163636 268.79202401756777 178.0
    vertex -242.81112485905822 273.79202401756777 178.51763809020505
    vertex -242.74297651163636 273.79202401756777 178.0
  endloop
endfacet
facet normal -0.9914448613738077 0.0 0.13052619222007197
  outer loop
    vertex -242.74297651163636 273.79202401756777 178.0
    vertex -242.81112485905822 268.79202401756777 177.48236190979497
    vertex -242.74297651163636 268.79202401756777 178.0
  endloop
endfacet
facet normal -0.9914448613738077 0.0 0.13052619222007197
  outer loop
    vertex -242.81112485905822 268.79202401756777 177.48236190979497
    vertex -242.74297651163636 273.79202401756777 178.0
    vertex -242.81112485905822 273.79202401756777 177.48236190979497
  endloop
endfacet
facet normal -0.9238795325112884 0.0 0.38268343236508595
  outer loop
    vertex -242.81112485905822 273.79202401756777 177.48236190979497
    vertex -243.0109257040675 268.79202401756777 177.0
    vertex -242.81112485905822 268.79202401756777 177.48236190979497
  endloop
endfacet
facet normal -0.9238795325112884 0.0 0.38268343236508595
  outer loop
    vertex -243.0109257040675 268.79202401756777 177.0
    vertex -242.81112485905822 273.79202401756777 177.48236190979497
    vertex -243.0109257040675 273.79202401756777 177.0
  endloop
endfacet
facet normal -0.7933533402912518 0.0 0.6087614290086991
  outer loop
    vertex -243.0109257040675 273.79202401756777 177.0
    vertex -243.32876294926325 268.79202401756777 176.58578643762692
    vertex -243.0109257040675 268.79202401756777 177.0
  endloop
endfacet
facet normal -0.7933533402912518 0.0 0.6087614290086991
  outer loop
    vertex -243.32876294926325 268.79202401756777 176.58578643762692
    vertex -243.0109257040675 273.79202401756777 177.0
    vertex -243.32876294926325 273.79202401756777 176.58578643762692
  endloop
endfacet
facet normal -0.6087614290086991 0.0 0.7933533402912518
  outer loop
    vertex -243.32876294926325 268.79202401756777 176.58578643762692
    vertex -243.74297651163636 273.79202401756777 176.26794919243113
    vertex -243.74297651163636 268.79202401756777 176.26794919243113
  endloop
endfacet
facet normal -0.6087614290086991 0.0 0.7933533402912518
  outer loop
    vertex -243.74297651163636 273.79202401756777 176.26794919243113
    vertex -243.32876294926325 268.79202401756777 176.58578643762692
    vertex -243.32876294926325 273.79202401756777 176.58578643762692
  endloop
endfacet
facet normal -0.38268343236510755 0.0 0.9238795325112795
  outer loop
    vertex -243.74297651163636 268.79202401756777 176.26794919243113
    vertex -244.22533842143133 273.79202401756777 176.06814834742187
    vertex -244.22533842143133 268.79202401756777 176.06814834742187
  endloop
endfacet
facet normal -0.38268343236510755 0.0 0.9238795325112795
  outer loop
    vertex -244.22533842143133 273.79202401756777 176.06814834742187
    vertex -243.74297651163636 268.79202401756777 176.26794919243113
    vertex -243.74297651163636 273.79202401756777 176.26794919243113
  endloop
endfacet
facet normal -0.9238795325112884 -0.0 -0.38268343236508595
  outer loop
    vertex -243.0109257040675 273.79202401756777 179.0
    vertex -242.81112485905822 268.79202401756777 178.51763809020505
    vertex -243.0109257040675 268.79202401756777 179.0
  endloop
endfacet
facet normal -0.9238795325112884 -0.0 -0.38268343236508595
  outer loop
    vertex -242.81112485905822 268.79202401756777 178.51763809020505
    vertex -243.0109257040675 273.79202401756777 179.0
    vertex -242.81112485905822 273.79202401756777 178.51763809020505
  endloop
endfacet
facet normal -0.6087614290086991 -0.0 -0.7933533402912518
  outer loop
    vertex -243.32876294926325 273.79202401756777 179.4142135623731
    vertex -243.74297651163636 268.79202401756777 179.73205080756887
    vertex -243.74297651163636 273.79202401756777 179.73205080756887
  endloop
endfacet
facet normal -0.6087614290086991 -0.0 -0.7933533402912518
  outer loop
    vertex -243.74297651163636 268.79202401756777 179.73205080756887
    vertex -243.32876294926325 273.79202401756777 179.4142135623731
    vertex -243.32876294926325 268.79202401756777 179.4142135623731
  endloop
endfacet
facet normal -0.7933533402912518 -0.0 -0.6087614290086991
  outer loop
    vertex -243.32876294926325 273.79202401756777 179.4142135623731
    vertex -243.0109257040675 268.79202401756777 179.0
    vertex -243.32876294926325 268.79202401756777 179.4142135623731
  endloop
endfacet
facet normal -0.7933533402912518 -0.0 -0.6087614290086991
  outer loop
    vertex -243.0109257040675 268.79202401756777 179.0
    vertex -243.32876294926325 273.79202401756777 179.4142135623731
    vertex -243.0109257040675 273.79202401756777 179.0
  endloop
endfacet
facet normal 0.15481661205622607 0.0 0.9879432254089463
  outer loop
    vertex 14.821912692003556 268.7920240175678 179.9185672225933
    vertex 14.30610282263466 273.7920240175678 179.99939771404976
    vertex 14.30610282263466 268.7920240175678 179.99939771404976
  endloop
endfacet
facet normal 0.15481661205622607 0.0 0.9879432254089463
  outer loop
    vertex 14.30610282263466 273.7920240175678 179.99939771404976
    vertex 14.821912692003556 268.7920240175678 179.9185672225933
    vertex 14.821912692003556 273.7920240175678 179.9185672225933
  endloop
endfacet
facet normal -1.0 0.0 -3.524958103184871e-17
  outer loop
    vertex 4.257023488362201 328.79202401756794 188.00000000000003
    vertex 4.257023488362201 273.7920240175678 168.0
    vertex 4.257023488362201 273.7920240175678 188.00000000000003
  endloop
endfacet
facet normal -1.0 0.0 -3.524958103184871e-17
  outer loop
    vertex 4.257023488362201 273.7920240175678 168.0
    vertex 4.257023488362201 328.79202401756794 188.00000000000003
    vertex 4.257023488362201 328.79202401756794 168.0
  endloop
endfacet
facet normal -0.35989649373594396 0.0 0.9329922367289953
  outer loop
    vertex 13.786948277742498 268.7920240175678 179.94397255545468
    vertex 13.299828581618076 273.7920240175678 179.75606887977187
    vertex 13.299828581618076 268.7920240175678 179.75606887977187
  endloop
endfacet
facet normal -0.35989649373594396 0.0 0.9329922367289953
  outer loop
    vertex 13.299828581618076 273.7920240175678 179.75606887977187
    vertex 13.786948277742498 268.7920240175678 179.94397255545468
    vertex 13.786948277742498 273.7920240175678 179.94397255545468
  endloop
endfacet
facet normal -0.5891094778887022 0.0 0.8080532303392522
  outer loop
    vertex 13.299828581618076 268.7920240175678 179.75606887977187
    vertex 12.877940136548904 273.7920240175678 179.44849201197363
    vertex 12.877940136548904 268.7920240175678 179.44849201197363
  endloop
endfacet
facet normal -0.5891094778887022 0.0 0.8080532303392522
  outer loop
    vertex 12.877940136548904 273.7920240175678 179.44849201197363
    vertex 13.299828581618076 268.7920240175678 179.75606887977187
    vertex 13.299828581618076 273.7920240175678 179.75606887977187
  endloop
endfacet
facet normal 0.0 -1.0 0.0
  outer loop
    vertex -0.7429765116378352 323.79202401756794 188.00000000000003
    vertex -229.74297651163778 323.79202401756794 168.0
    vertex -0.7429765116378352 323.79202401756794 168.0
  endloop
endfacet
facet normal 0.0 -1.0 0.0
  outer loop
    vertex -229.74297651163778 323.79202401756794 168.0
    vertex -0.7429765116378352 323.79202401756794 188.00000000000003
    vertex -229.74297651163778 323.79202401756794 188.00000000000003
  endloop
endfacet
facet normal -0.10615715829212923 0.0 0.9943493640282273
  outer loop
    vertex 14.30610282263466 268.7920240175678 179.99939771404976
    vertex 13.786948277742498 273.7920240175678 179.94397255545468
    vertex 13.786948277742498 268.7920240175678 179.94397255545468
  endloop
endfacet
facet normal -0.10615715829212923 0.0 0.9943493640282273
  outer loop
    vertex 13.786948277742498 273.7920240175678 179.94397255545468
    vertex 14.30610282263466 268.7920240175678 179.99939771404976
    vertex 14.30610282263466 273.7920240175678 179.99939771404976
  endloop
endfacet
facet normal 0.9142103886314203 0.0 -0.40523988613954
  outer loop
    vertex 15.96401303386158 273.7920240175678 176.9577971926944
    vertex 16.175590710955493 268.7920240175678 177.43511079635866
    vertex 15.96401303386158 268.7920240175678 176.9577971926944
  endloop
endfacet
facet normal 0.9142103886314203 0.0 -0.40523988613954
  outer loop
    vertex 16.175590710955493 268.7920240175678 177.43511079635866
    vertex 15.96401303386158 273.7920240175678 176.9577971926944
    vertex 16.175590710955493 273.7920240175678 177.43511079635866
  endloop
endfacet
facet normal 0.987943225408946 0.0 -0.15481661205622857
  outer loop
    vertex 16.175590710955493 273.7920240175678 177.43511079635866
    vertex 16.25642120241193 268.7920240175678 177.95092066572755
    vertex 16.175590710955493 268.7920240175678 177.43511079635866
  endloop
endfacet
facet normal 0.987943225408946 0.0 -0.15481661205622857
  outer loop
    vertex 16.25642120241193 268.7920240175678 177.95092066572755
    vertex 16.175590710955493 273.7920240175678 177.43511079635866
    vertex 16.25642120241193 273.7920240175678 177.95092066572755
  endloop
endfacet
facet normal 0.9943493640282238 0.0 0.10615715829216067
  outer loop
    vertex 16.25642120241193 273.7920240175678 177.95092066572755
    vertex 16.200996043816836 268.7920240175678 178.4700752106197
    vertex 16.25642120241193 268.7920240175678 177.95092066572755
  endloop
endfacet
facet normal 0.9943493640282238 0.0 0.10615715829216067
  outer loop
    vertex 16.200996043816836 268.7920240175678 178.4700752106197
    vertex 16.25642120241193 273.7920240175678 177.95092066572755
    vertex 16.200996043816836 273.7920240175678 178.4700752106197
  endloop
endfacet
facet normal 0.9329922367289978 0.0 0.35989649373593746
  outer loop
    vertex 16.200996043816836 273.7920240175678 178.4700752106197
    vertex 16.013092368134057 268.7920240175678 178.95719490674412
    vertex 16.200996043816836 268.7920240175678 178.4700752106197
  endloop
endfacet
facet normal 0.9329922367289978 0.0 0.35989649373593746
  outer loop
    vertex 16.013092368134057 268.7920240175678 178.95719490674412
    vertex 16.200996043816836 273.7920240175678 178.4700752106197
    vertex 16.013092368134057 273.7920240175678 178.95719490674412
  endloop
endfacet
facet normal 0.8080532303392682 0.0 0.5891094778886804
  outer loop
    vertex 16.013092368134057 273.7920240175678 178.95719490674412
    vertex 15.705515500335808 268.7920240175678 179.3790833518133
    vertex 16.013092368134057 268.7920240175678 178.95719490674412
  endloop
endfacet
facet normal 0.8080532303392682 0.0 0.5891094778886804
  outer loop
    vertex 15.705515500335808 268.7920240175678 179.3790833518133
    vertex 16.013092368134057 273.7920240175678 178.95719490674412
    vertex 15.705515500335808 273.7920240175678 179.3790833518133
  endloop
endfacet
facet normal 0.6280467316729967 0.0 0.778175624672777
  outer loop
    vertex 15.705515500335808 268.7920240175678 179.3790833518133
    vertex 15.29922629566782 273.7920240175678 179.7069895454994
    vertex 15.29922629566782 268.7920240175678 179.7069895454994
  endloop
endfacet
facet normal 0.6280467316729967 0.0 0.778175624672777
  outer loop
    vertex 15.29922629566782 273.7920240175678 179.7069895454994
    vertex 15.705515500335808 268.7920240175678 179.3790833518133
    vertex 15.705515500335808 273.7920240175678 179.3790833518133
  endloop
endfacet
facet normal 0.778175624672768 0.0 -0.628046731673008
  outer loop
    vertex 15.667106121311054 273.7920240175678 176.58991736705113
    vertex 15.96401303386158 268.7920240175678 176.9577971926944
    vertex 15.667106121311054 268.7920240175678 176.58991736705113
  endloop
endfacet
facet normal 0.778175624672768 0.0 -0.628046731673008
  outer loop
    vertex 15.96401303386158 268.7920240175678 176.9577971926944
    vertex 15.667106121311054 273.7920240175678 176.58991736705113
    vertex 15.96401303386158 273.7920240175678 176.9577971926944
  endloop
endfacet
facet normal 0.4052398861395225 0.0 0.9142103886314282
  outer loop
    vertex 15.29922629566782 268.7920240175678 179.7069895454994
    vertex 14.821912692003556 273.7920240175678 179.9185672225933
    vertex 14.821912692003556 268.7920240175678 179.9185672225933
  endloop
endfacet
facet normal 0.4052398861395225 0.0 0.9142103886314282
  outer loop
    vertex 14.821912692003556 273.7920240175678 179.9185672225933
    vertex 15.29922629566782 268.7920240175678 179.7069895454994
    vertex 15.29922629566782 273.7920240175678 179.7069895454994
  endloop
endfacet
facet normal 0.0 1.0 0.0
  outer loop
    vertex -234.74297651163778 328.79202401756794 188.00000000000003
    vertex 4.257023488362201 328.79202401756794 168.0
    vertex -234.74297651163778 328.79202401756794 168.0
  endloop
endfacet
facet normal 0.0 1.0 0.0
  outer loop
    vertex 4.257023488362201 328.79202401756794 168.0
    vertex -234.74297651163778 328.79202401756794 188.00000000000003
    vertex 4.257023488362201 328.79202401756794 188.00000000000003
  endloop
endfacet
facet normal 0.0 -1.0 0.0
  outer loop
    vertex 24.257023488362165 273.7920240175678 168.0
    vertex 15.636106840175461 273.7920240175678 176.55150798802637
    vertex 4.257023488362201 273.7920240175678 168.0
  endloop
endfacet
facet normal 0.0 -1.0 0.0
  outer loop
    vertex 15.636106840175461 273.7920240175678 176.55150798802637
    vertex 24.257023488362165 273.7920240175678 168.0
    vertex 15.667106121311054 273.7920240175678 176.58991736705113
  endloop
endfacet
facet normal 0.0 -1.0 0.0
  outer loop
    vertex 15.667106121311054 273.7920240175678 176.58991736705113
    vertex 24.257023488362165 273.7920240175678 168.0
    vertex 15.96401303386158 273.7920240175678 176.9577971926944
  endloop
endfacet
facet normal 0.0 -1.0 0.0
  outer loop
    vertex 15.96401303386158 273.7920240175678 176.9577971926944
    vertex 24.257023488362165 273.7920240175678 168.0
    vertex 24.257023488362165 273.7920240175678 188.00000000000003
  endloop
endfacet
facet normal 0.0 -1.0 0.0
  outer loop
    vertex 4.257023488362201 273.7920240175678 168.0
    vertex 15.636106840175461 273.7920240175678 176.55150798802637
    vertex 15.21421839510629 273.7920240175678 176.24393112022815
  endloop
endfacet
facet normal 0.0 -1.0 0.0
  outer loop
    vertex 4.257023488362201 273.7920240175678 168.0
    vertex 15.21421839510629 273.7920240175678 176.24393112022815
    vertex 14.727098698981868 273.7920240175678 176.05602744454535
  endloop
endfacet
facet normal 0.0 -1.0 0.0
  outer loop
    vertex 4.257023488362201 273.7920240175678 168.0
    vertex 14.727098698981868 273.7920240175678 176.05602744454535
    vertex 14.20794415408975 273.7920240175678 176.00060228595027
  endloop
endfacet
facet normal 0.0 -1.0 0.0
  outer loop
    vertex 15.96401303386158 273.7920240175678 176.9577971926944
    vertex 24.257023488362165 273.7920240175678 188.00000000000003
    vertex 16.175590710955493 273.7920240175678 177.43511079635866
  endloop
endfacet
facet normal 0.0 -1.0 0.0
  outer loop
    vertex 16.175590710955493 273.7920240175678 177.43511079635866
    vertex 24.257023488362165 273.7920240175678 188.00000000000003
    vertex 16.25642120241193 273.7920240175678 177.95092066572755
  endloop
endfacet
facet normal 0.0 -1.0 0.0
  outer loop
    vertex 16.25642120241193 273.7920240175678 177.95092066572755
    vertex 24.257023488362165 273.7920240175678 188.00000000000003
    vertex 16.200996043816836 273.7920240175678 178.4700752106197
  endloop
endfacet
facet normal 0.0 -1.0 0.0
  outer loop
    vertex 16.200996043816836 273.7920240175678 178.4700752106197
    vertex 24.257023488362165 273.7920240175678 188.00000000000003
    vertex 16.013092368134057 273.7920240175678 178.95719490674412
  endloop
endfacet
facet normal 0.0 -1.0 0.0
  outer loop
    vertex 16.013092368134057 273.7920240175678 178.95719490674412
    vertex 24.257023488362165 273.7920240175678 188.00000000000003
    vertex 15.705515500335808 273.7920240175678 179.3790833518133
  endloop
endfacet
facet normal 0.0 -1.0 0.0
  outer loop
    vertex 15.705515500335808 273.7920240175678 179.3790833518133
    vertex 24.257023488362165 273.7920240175678 188.00000000000003
    vertex 15.29922629566782 273.7920240175678 179.7069895454994
  endloop
endfacet
facet normal 0.0 -1.0 0.0
  outer loop
    vertex 15.29922629566782 273.7920240175678 179.7069895454994
    vertex 24.257023488362165 273.7920240175678 188.00000000000003
    vertex 14.821912692003556 273.7920240175678 179.9185672225933
  endloop
endfacet
facet normal 0.0 -1.0 0.0
  outer loop
    vertex 14.821912692003556 273.7920240175678 179.9185672225933
    vertex 24.257023488362165 273.7920240175678 188.00000000000003
    vertex 14.30610282263466 273.7920240175678 179.99939771404976
  endloop
endfacet
facet normal 0.0 -1.0 0.0
  outer loop
    vertex 4.257023488362201 273.7920240175678 168.0
    vertex 12.808531476388556 273.7920240175678 176.62091664818672
    vertex 4.257023488362201 273.7920240175678 188.00000000000003
  endloop
endfacet
facet normal 0.0 -1.0 0.0
  outer loop
    vertex 12.808531476388556 273.7920240175678 176.62091664818672
    vertex 4.257023488362201 273.7920240175678 168.0
    vertex 13.214820681056544 273.7920240175678 176.2930104545006
  endloop
endfacet
facet normal 0.0 -1.0 0.0
  outer loop
    vertex 13.214820681056544 273.7920240175678 176.2930104545006
    vertex 4.257023488362201 273.7920240175678 168.0
    vertex 13.692134284720854 273.7920240175678 176.0814327774067
  endloop
endfacet
facet normal 0.0 -1.0 0.0
  outer loop
    vertex 13.692134284720854 273.7920240175678 176.0814327774067
    vertex 4.257023488362201 273.7920240175678 168.0
    vertex 14.20794415408975 273.7920240175678 176.00060228595027
  endloop
endfacet
facet normal 0.0 -1.0 0.0
  outer loop
    vertex 4.257023488362201 273.7920240175678 188.00000000000003
    vertex 12.808531476388556 273.7920240175678 176.62091664818672
    vertex 12.500954608590353 273.7920240175678 177.0428050932559
  endloop
endfacet
facet normal 0.0 -1.0 0.0
  outer loop
    vertex 4.257023488362201 273.7920240175678 188.00000000000003
    vertex 12.500954608590353 273.7920240175678 177.0428050932559
    vertex 12.31305093290753 273.7920240175678 177.52992478938032
  endloop
endfacet
facet normal 0.0 -1.0 0.0
  outer loop
    vertex 4.257023488362201 273.7920240175678 188.00000000000003
    vertex 12.31305093290753 273.7920240175678 177.52992478938032
    vertex 12.257625774312437 273.7920240175678 178.04907933427248
  endloop
endfacet
facet normal 0.0 -1.0 0.0
  outer loop
    vertex 4.257023488362201 273.7920240175678 188.00000000000003
    vertex 12.257625774312437 273.7920240175678 178.04907933427248
    vertex 12.33845626576887 273.7920240175678 178.56488920364137
  endloop
endfacet
facet normal 0.0 -1.0 0.0
  outer loop
    vertex 4.257023488362201 273.7920240175678 188.00000000000003
    vertex 12.33845626576887 273.7920240175678 178.56488920364137
    vertex 12.550033942862786 273.7920240175678 179.04220280730564
  endloop
endfacet
facet normal 0.0 -1.0 0.0
  outer loop
    vertex 4.257023488362201 273.7920240175678 188.00000000000003
    vertex 12.550033942862786 273.7920240175678 179.04220280730564
    vertex 12.846940855413312 273.7920240175678 179.41008263294887
  endloop
endfacet
facet normal 0.0 -1.0 0.0
  outer loop
    vertex 4.257023488362201 273.7920240175678 188.00000000000003
    vertex 12.846940855413312 273.7920240175678 179.41008263294887
    vertex 12.877940136548904 273.7920240175678 179.44849201197363
  endloop
endfacet
facet normal 0.0 -1.0 0.0
  outer loop
    vertex 4.257023488362201 273.7920240175678 188.00000000000003
    vertex 12.877940136548904 273.7920240175678 179.44849201197363
    vertex 13.299828581618076 273.7920240175678 179.75606887977187
  endloop
endfacet
facet normal 0.0 -1.0 0.0
  outer loop
    vertex 4.257023488362201 273.7920240175678 188.00000000000003
    vertex 13.299828581618076 273.7920240175678 179.75606887977187
    vertex 13.786948277742498 273.7920240175678 179.94397255545468
  endloop
endfacet
facet normal 0.0 -1.0 0.0
  outer loop
    vertex 4.257023488362201 273.7920240175678 188.00000000000003
    vertex 13.786948277742498 273.7920240175678 179.94397255545468
    vertex 14.30610282263466 273.7920240175678 179.99939771404976
  endloop
endfacet
facet normal 0.0 -1.0 0.0
  outer loop
    vertex 4.257023488362201 273.7920240175678 188.00000000000003
    vertex 14.30610282263466 273.7920240175678 179.99939771404976
    vertex 24.257023488362165 273.7920240175678 188.00000000000003
  endloop
endfacet
facet normal -1.0 7.049916206369756e-17 -1.762479051592435e-17
  outer loop
    vertex 24.257023488362165 273.7920240175678 188.00000000000003
    vertex 24.257023488362165 268.7920240175678 168.0
    vertex 24.257023488362165 268.7920240175678 188.00000000000003
  endloop
endfacet
facet normal -1.0 7.049916206369756e-17 -1.762479051592435e-17
  outer loop
    vertex 24.257023488362165 268.7920240175678 168.0
    vertex 24.257023488362165 273.7920240175678 188.00000000000003
    vertex 24.257023488362165 273.7920240175678 168.0
  endloop
endfacet
facet normal -4.633484648337296e-32 -2.0068489042275733e-32 1.0
  outer loop
    vertex -229.74297651163639 268.7920240175678 188.00000000000003
    vertex -254.74297651163639 273.79202401756777 188.00000000000003
    vertex -254.74297651163639 268.79202401756777 188.00000000000003
  endloop
endfacet
facet normal -4.633484648337296e-32 -2.0068489042275733e-32 1.0
  outer loop
    vertex -254.74297651163639 273.79202401756777 188.00000000000003
    vertex -229.74297651163639 268.7920240175678 188.00000000000003
    vertex -234.74297651163636 273.79202401756777 188.00000000000003
  endloop
endfacet
facet normal -4.633484648337296e-32 -2.0068489042275733e-32 1.0
  outer loop
    vertex -234.74297651163636 273.79202401756777 188.00000000000003
    vertex -229.74297651163639 268.7920240175678 188.00000000000003
    vertex -229.74297651163778 323.79202401756794 188.00000000000003
  endloop
endfacet
facet normal -4.633484648337296e-32 -2.0068489042275733e-32 1.0
  outer loop
    vertex -0.7429765116378352 268.7920240175678 188.00000000000003
    vertex 4.257023488362201 273.7920240175678 188.00000000000003
    vertex -0.7429765116378352 323.79202401756794 188.00000000000003
  endloop
endfacet
facet normal -4.633484648337296e-32 -2.0068489042275733e-32 1.0
  outer loop
    vertex 4.257023488362201 273.7920240175678 188.00000000000003
    vertex -0.7429765116378352 268.7920240175678 188.00000000000003
    vertex 24.257023488362165 268.7920240175678 188.00000000000003
  endloop
endfacet
facet normal -4.633484648337296e-32 -2.0068489042275733e-32 1.0
  outer loop
    vertex 4.257023488362201 273.7920240175678 188.00000000000003
    vertex 24.257023488362165 268.7920240175678 188.00000000000003
    vertex 24.257023488362165 273.7920240175678 188.00000000000003
  endloop
endfacet
facet normal -4.633484648337296e-32 -2.0068489042275733e-32 1.0
  outer loop
    vertex -234.74297651163778 328.79202401756794 188.00000000000003
    vertex -229.74297651163778 323.79202401756794 188.00000000000003
    vertex 4.257023488362201 328.79202401756794 188.00000000000003
  endloop
endfacet
facet normal -4.633484648337296e-32 -2.0068489042275733e-32 1.0
  outer loop
    vertex -229.74297651163778 323.79202401756794 188.00000000000003
    vertex -234.74297651163778 328.79202401756794 188.00000000000003
    vertex -234.74297651163636 273.79202401756777 188.00000000000003
  endloop
endfacet
facet normal -4.633484648337296e-32 -2.0068489042275733e-32 1.0
  outer loop
    vertex 4.257023488362201 328.79202401756794 188.00000000000003
    vertex -229.74297651163778 323.79202401756794 188.00000000000003
    vertex -0.7429765116378352 323.79202401756794 188.00000000000003
  endloop
endfacet
facet normal -4.633484648337296e-32 -2.0068489042275733e-32 1.0
  outer loop
    vertex 4.257023488362201 328.79202401756794 188.00000000000003
    vertex -0.7429765116378352 323.79202401756794 188.00000000000003
    vertex 4.257023488362201 273.7920240175678 188.00000000000003
  endloop
endfacet
facet normal 0.0 0.0 -1.0
  outer loop
    vertex -234.74297651163778 328.79202401756794 168.0
    vertex -229.74297651163778 323.79202401756794 168.0
    vertex -234.74297651163636 273.79202401756777 168.0
  endloop
endfacet
facet normal 0.0 0.0 -1.0
  outer loop
    vertex -229.74297651163778 323.79202401756794 168.0
    vertex -234.74297651163778 328.79202401756794 168.0
    vertex 4.257023488362201 328.79202401756794 168.0
  endloop
endfacet
facet normal 0.0 0.0 -1.0
  outer loop
    vertex -229.74297651163778 323.79202401756794 168.0
    vertex 4.257023488362201 328.79202401756794 168.0
    vertex -0.7429765116378352 323.79202401756794 168.0
  endloop
endfacet
facet normal 0.0 0.0 -1.0
  outer loop
    vertex -0.7429765116378352 323.79202401756794 168.0
    vertex 4.257023488362201 328.79202401756794 168.0
    vertex -0.7429765116378352 268.7920240175678 168.0
  endloop
endfacet
facet normal 0.0 0.0 -1.0
  outer loop
    vertex -0.7429765116378352 268.7920240175678 168.0
    vertex 4.257023488362201 328.79202401756794 168.0
    vertex 4.257023488362201 273.7920240175678 168.0
  endloop
endfacet
facet normal 0.0 0.0 -1.0
  outer loop
    vertex -0.7429765116378352 268.7920240175678 168.0
    vertex 4.257023488362201 273.7920240175678 168.0
    vertex 24.257023488362165 268.7920240175678 168.0
  endloop
endfacet
facet normal 0.0 0.0 -1.0
  outer loop
    vertex 24.257023488362165 268.7920240175678 168.0
    vertex 4.257023488362201 273.7920240175678 168.0
    vertex 24.257023488362165 273.7920240175678 168.0
  endloop
endfacet
facet normal 0.0 0.0 -1.0
  outer loop
    vertex -234.74297651163636 273.79202401756777 168.0
    vertex -254.74297651163639 268.79202401756777 168.0
    vertex -254.74297651163639 273.79202401756777 168.0
  endloop
endfacet
facet normal 0.0 0.0 -1.0
  outer loop
    vertex -254.74297651163639 268.79202401756777 168.0
    vertex -234.74297651163636 273.79202401756777 168.0
    vertex -229.74297651163639 268.7920240175678 168.0
  endloop
endfacet
facet normal 0.0 0.0 -1.0
  outer loop
    vertex -229.74297651163639 268.7920240175678 168.0
    vertex -234.74297651163636 273.79202401756777 168.0
    vertex -229.74297651163778 323.79202401756794 168.0
  endloop
endfacet
facet normal -1.0 -2.5430970460795504e-14 0.0
  outer loop
    vertex -234.74297651163778 328.79202401756794 188.00000000000003
    vertex -234.74297651163636 273.79202401756777 168.0
    vertex -234.74297651163636 273.79202401756777 188.00000000000003
  endloop
endfacet
facet normal -1.0 -2.5430970460795504e-14 0.0
  outer loop
    vertex -234.74297651163636 273.79202401756777 168.0
    vertex -234.74297651163778 328.79202401756794 188.00000000000003
    vertex -234.74297651163778 328.79202401756794 168.0
  endloop
endfacet
facet normal 1.0 2.7071678232459865e-14 0.0
  outer loop
    vertex -229.74297651163778 323.79202401756794 168.0
    vertex -229.74297651163639 268.7920240175678 188.00000000000003
    vertex -229.74297651163639 268.7920240175678 168.0
  endloop
endfacet
facet normal 1.0 2.7071678232459865e-14 0.0
  outer loop
    vertex -229.74297651163639 268.7920240175678 188.00000000000003
    vertex -229.74297651163778 323.79202401756794 168.0
    vertex -229.74297651163778 323.79202401756794 188.00000000000003
  endloop
endfacet
facet normal 1.8047785488306577e-14 -1.0 0.0
  outer loop
    vertex -229.74297651163639 268.7920240175678 168.0
    vertex -243.74297651163636 268.79202401756777 176.26794919243113
    vertex -254.74297651163639 268.79202401756777 168.0
  endloop
endfacet
facet normal 1.8047785488306577e-14 -1.0 0.0
  outer loop
    vertex -243.74297651163636 268.79202401756777 176.26794919243113
    vertex -229.74297651163639 268.7920240175678 168.0
    vertex -243.32876294926325 268.79202401756777 176.58578643762692
  endloop
endfacet
facet normal 1.8047785488306577e-14 -1.0 0.0
  outer loop
    vertex -243.32876294926325 268.79202401756777 176.58578643762692
    vertex -229.74297651163639 268.7920240175678 168.0
    vertex -229.74297651163639 268.7920240175678 188.00000000000003
  endloop
endfacet
facet normal 1.8047785488306577e-14 -1.0 0.0
  outer loop
    vertex -254.74297651163639 268.79202401756777 168.0
    vertex -243.74297651163636 268.79202401756777 176.26794919243113
    vertex -244.22533842143133 268.79202401756777 176.06814834742187
  endloop
endfacet
facet normal 1.8047785488306577e-14 -1.0 0.0
  outer loop
    vertex -254.74297651163639 268.79202401756777 168.0
    vertex -244.22533842143133 268.79202401756777 176.06814834742187
    vertex -244.74297651163636 268.79202401756777 176.00000000000003
  endloop
endfacet
facet normal 1.8047785488306577e-14 -1.0 0.0
  outer loop
    vertex -243.32876294926325 268.79202401756777 176.58578643762692
    vertex -229.74297651163639 268.7920240175678 188.00000000000003
    vertex -243.0109257040675 268.79202401756777 177.0
  endloop
endfacet
facet normal 1.8047785488306577e-14 -1.0 0.0
  outer loop
    vertex -243.0109257040675 268.79202401756777 177.0
    vertex -229.74297651163639 268.7920240175678 188.00000000000003
    vertex -242.81112485905822 268.79202401756777 177.48236190979497
  endloop
endfacet
facet normal 1.8047785488306577e-14 -1.0 0.0
  outer loop
    vertex -242.81112485905822 268.79202401756777 177.48236190979497
    vertex -229.74297651163639 268.7920240175678 188.00000000000003
    vertex -242.74297651163636 268.79202401756777 178.0
  endloop
endfacet
facet normal 1.8047785488306577e-14 -1.0 0.0
  outer loop
    vertex -242.74297651163636 268.79202401756777 178.0
    vertex -229.74297651163639 268.7920240175678 188.00000000000003
    vertex -242.81112485905822 268.79202401756777 178.51763809020505
  endloop
endfacet
facet normal 1.8047785488306577e-14 -1.0 0.0
  outer loop
    vertex -242.81112485905822 268.79202401756777 178.51763809020505
    vertex -229.74297651163639 268.7920240175678 188.00000000000003
    vertex -243.0109257040675 268.79202401756777 179.0
  endloop
endfacet
facet normal 1.8047785488306577e-14 -1.0 0.0
  outer loop
    vertex -243.0109257040675 268.79202401756777 179.0
    vertex -229.74297651163639 268.7920240175678 188.00000000000003
    vertex -243.32876294926325 268.79202401756777 179.4142135623731
  endloop
endfacet
facet normal 1.8047785488306577e-14 -1.0 0.0
  outer loop
    vertex -243.32876294926325 268.79202401756777 179.4142135623731
    vertex -229.74297651163639 268.7920240175678 188.00000000000003
    vertex -243.74297651163636 268.79202401756777 179.73205080756887
  endloop
endfacet
facet normal 1.8047785488306577e-14 -1.0 0.0
  outer loop
    vertex -243.74297651163636 268.79202401756777 179.73205080756887
    vertex -229.74297651163639 268.7920240175678 188.00000000000003
    vertex -244.22533842143133 268.79202401756777 179.93185165257813
  endloop
endfacet
facet normal 1.8047785488306577e-14 -1.0 0.0
  outer loop
    vertex -244.22533842143133 268.79202401756777 179.93185165257813
    vertex -229.74297651163639 268.7920240175678 188.00000000000003
    vertex -244.74297651163636 268.79202401756777 180.0
  endloop
endfacet
facet normal 1.8047785488306577e-14 -1.0 0.0
  outer loop
    vertex -254.74297651163639 268.79202401756777 168.0
    vertex -246.47502731920522 268.79202401756777 177.0
    vertex -254.74297651163639 268.79202401756777 188.00000000000003
  endloop
endfacet
facet normal 1.8047785488306577e-14 -1.0 0.0
  outer loop
    vertex -246.47502731920522 268.79202401756777 177.0
    vertex -254.74297651163639 268.79202401756777 168.0
    vertex -246.15719007400943 268.79202401756777 176.58578643762692
  endloop
endfacet
facet normal 1.8047785488306577e-14 -1.0 0.0
  outer loop
    vertex -246.15719007400943 268.79202401756777 176.58578643762692
    vertex -254.74297651163639 268.79202401756777 168.0
    vertex -245.74297651163636 268.79202401756777 176.26794919243113
  endloop
endfacet
facet normal 1.8047785488306577e-14 -1.0 0.0
  outer loop
    vertex -245.74297651163636 268.79202401756777 176.26794919243113
    vertex -254.74297651163639 268.79202401756777 168.0
    vertex -245.26061460184138 268.79202401756777 176.06814834742187
  endloop
endfacet
facet normal 1.8047785488306577e-14 -1.0 0.0
  outer loop
    vertex -245.26061460184138 268.79202401756777 176.06814834742187
    vertex -254.74297651163639 268.79202401756777 168.0
    vertex -244.74297651163636 268.79202401756777 176.00000000000003
  endloop
endfacet
facet normal 1.8047785488306577e-14 -1.0 0.0
  outer loop
    vertex -254.74297651163639 268.79202401756777 188.00000000000003
    vertex -246.47502731920522 268.79202401756777 177.0
    vertex -246.67482816421446 268.79202401756777 177.48236190979497
  endloop
endfacet
facet normal 1.8047785488306577e-14 -1.0 0.0
  outer loop
    vertex -254.74297651163639 268.79202401756777 188.00000000000003
    vertex -246.67482816421446 268.79202401756777 177.48236190979497
    vertex -246.74297651163636 268.79202401756777 178.0
  endloop
endfacet
facet normal 1.8047785488306577e-14 -1.0 0.0
  outer loop
    vertex -254.74297651163639 268.79202401756777 188.00000000000003
    vertex -246.74297651163636 268.79202401756777 178.0
    vertex -246.67482816421446 268.79202401756777 178.51763809020505
  endloop
endfacet
facet normal 1.8047785488306577e-14 -1.0 0.0
  outer loop
    vertex -254.74297651163639 268.79202401756777 188.00000000000003
    vertex -246.67482816421446 268.79202401756777 178.51763809020505
    vertex -246.47502731920522 268.79202401756777 179.0
  endloop
endfacet
facet normal 1.8047785488306577e-14 -1.0 0.0
  outer loop
    vertex -254.74297651163639 268.79202401756777 188.00000000000003
    vertex -246.47502731920522 268.79202401756777 179.0
    vertex -246.15719007400943 268.79202401756777 179.4142135623731
  endloop
endfacet
facet normal 1.8047785488306577e-14 -1.0 0.0
  outer loop
    vertex -254.74297651163639 268.79202401756777 188.00000000000003
    vertex -246.15719007400943 268.79202401756777 179.4142135623731
    vertex -245.74297651163636 268.79202401756777 179.73205080756887
  endloop
endfacet
facet normal 1.8047785488306577e-14 -1.0 0.0
  outer loop
    vertex -254.74297651163639 268.79202401756777 188.00000000000003
    vertex -245.74297651163636 268.79202401756777 179.73205080756887
    vertex -245.26061460184138 268.79202401756777 179.93185165257816
  endloop
endfacet
facet normal 1.8047785488306577e-14 -1.0 0.0
  outer loop
    vertex -254.74297651163639 268.79202401756777 188.00000000000003
    vertex -245.26061460184138 268.79202401756777 179.93185165257816
    vertex -244.74297651163636 268.79202401756777 180.0
  endloop
endfacet
facet normal 1.8047785488306577e-14 -1.0 0.0
  outer loop
    vertex -254.74297651163639 268.79202401756777 188.00000000000003
    vertex -244.74297651163636 268.79202401756777 180.0
    vertex -229.74297651163639 268.7920240175678 188.00000000000003
  endloop
endfacet
facet normal -0.778175624672768 0.0 0.628046731673008
  outer loop
    vertex 12.846940855413312 273.7920240175678 179.41008263294887
    vertex 12.550033942862786 268.7920240175678 179.04220280730564
    vertex 12.846940855413312 268.7920240175678 179.41008263294887
  endloop
endfacet
facet normal -0.778175624672768 0.0 0.628046731673008
  outer loop
    vertex 12.550033942862786 268.7920240175678 179.04220280730564
    vertex 12.846940855413312 273.7920240175678 179.41008263294887
    vertex 12.550033942862786 273.7920240175678 179.04220280730564
  endloop
endfacet
facet normal -0.7781756246728023 0.0 0.6280467316729657
  outer loop
    vertex 12.877940136548904 273.7920240175678 179.44849201197363
    vertex 12.846940855413312 268.7920240175678 179.41008263294887
    vertex 12.877940136548904 268.7920240175678 179.44849201197363
  endloop
endfacet
facet normal -0.7781756246728023 0.0 0.6280467316729657
  outer loop
    vertex 12.846940855413312 268.7920240175678 179.41008263294887
    vertex 12.877940136548904 273.7920240175678 179.44849201197363
    vertex 12.846940855413312 273.7920240175678 179.41008263294887
  endloop
endfacet
facet normal -0.4052398861395225 -0.0 -0.9142103886314282
  outer loop
    vertex 13.692134284720854 273.7920240175678 176.0814327774067
    vertex 13.214820681056544 268.7920240175678 176.2930104545006
    vertex 13.214820681056544 273.7920240175678 176.2930104545006
  endloop
endfacet
facet normal -0.4052398861395225 -0.0 -0.9142103886314282
  outer loop
    vertex 13.214820681056544 268.7920240175678 176.2930104545006
    vertex 13.692134284720854 273.7920240175678 176.0814327774067
    vertex 13.692134284720854 268.7920240175678 176.0814327774067
  endloop
endfacet
facet normal -0.15481661205622607 -0.0 -0.9879432254089463
  outer loop
    vertex 14.20794415408975 273.7920240175678 176.00060228595027
    vertex 13.692134284720854 268.7920240175678 176.0814327774067
    vertex 13.692134284720854 273.7920240175678 176.0814327774067
  endloop
endfacet
facet normal -0.15481661205622607 -0.0 -0.9879432254089463
  outer loop
    vertex 13.692134284720854 268.7920240175678 176.0814327774067
    vertex 14.20794415408975 273.7920240175678 176.00060228595027
    vertex 14.20794415408975 268.7920240175678 176.00060228595027
  endloop
endfacet
facet normal -0.6280467316729967 -0.0 -0.778175624672777
  outer loop
    vertex 13.214820681056544 273.7920240175678 176.2930104545006
    vertex 12.808531476388556 268.7920240175678 176.62091664818672
    vertex 12.808531476388556 273.7920240175678 176.62091664818672
  endloop
endfacet
facet normal -0.6280467316729967 -0.0 -0.778175624672777
  outer loop
    vertex 12.808531476388556 268.7920240175678 176.62091664818672
    vertex 13.214820681056544 273.7920240175678 176.2930104545006
    vertex 13.214820681056544 268.7920240175678 176.2930104545006
  endloop
endfacet
facet normal 0.10615715829212923 0.0 -0.9943493640282273
  outer loop
    vertex 14.727098698981868 273.7920240175678 176.05602744454535
    vertex 14.20794415408975 268.7920240175678 176.00060228595027
    vertex 14.20794415408975 273.7920240175678 176.00060228595027
  endloop
endfacet
facet normal 0.10615715829212923 0.0 -0.9943493640282273
  outer loop
    vertex 14.20794415408975 268.7920240175678 176.00060228595027
    vertex 14.727098698981868 273.7920240175678 176.05602744454535
    vertex 14.727098698981868 268.7920240175678 176.05602744454535
  endloop
endfacet
facet normal -0.8080532303392682 -0.0 -0.5891094778886804
  outer loop
    vertex 12.500954608590353 273.7920240175678 177.0428050932559
    vertex 12.808531476388556 268.7920240175678 176.62091664818672
    vertex 12.500954608590353 268.7920240175678 177.0428050932559
  endloop
endfacet
facet normal -0.8080532303392682 -0.0 -0.5891094778886804
  outer loop
    vertex 12.808531476388556 268.7920240175678 176.62091664818672
    vertex 12.500954608590353 273.7920240175678 177.0428050932559
    vertex 12.808531476388556 273.7920240175678 176.62091664818672
  endloop
endfacet
facet normal 0.35989649373594396 0.0 -0.9329922367289953
  outer loop
    vertex 15.21421839510629 273.7920240175678 176.24393112022815
    vertex 14.727098698981868 268.7920240175678 176.05602744454535
    vertex 14.727098698981868 273.7920240175678 176.05602744454535
  endloop
endfacet
facet normal 0.35989649373594396 0.0 -0.9329922367289953
  outer loop
    vertex 14.727098698981868 268.7920240175678 176.05602744454535
    vertex 15.21421839510629 273.7920240175678 176.24393112022815
    vertex 15.21421839510629 268.7920240175678 176.24393112022815
  endloop
endfacet
facet normal -0.9329922367289978 -0.0 -0.35989649373593746
  outer loop
    vertex 12.31305093290753 273.7920240175678 177.52992478938032
    vertex 12.500954608590353 268.7920240175678 177.0428050932559
    vertex 12.31305093290753 268.7920240175678 177.52992478938032
  endloop
endfacet
facet normal -0.9329922367289978 -0.0 -0.35989649373593746
  outer loop
    vertex 12.500954608590353 268.7920240175678 177.0428050932559
    vertex 12.31305093290753 273.7920240175678 177.52992478938032
    vertex 12.500954608590353 273.7920240175678 177.0428050932559
  endloop
endfacet
facet normal 0.6087614290086991 0.0 -0.7933533402912518
  outer loop
    vertex -245.74297651163636 273.79202401756777 179.73205080756887
    vertex -246.15719007400943 268.79202401756777 179.4142135623731
    vertex -246.15719007400943 273.79202401756777 179.4142135623731
  endloop
endfacet
facet normal 0.6087614290086991 0.0 -0.7933533402912518
  outer loop
    vertex -246.15719007400943 268.79202401756777 179.4142135623731
    vertex -245.74297651163636 273.79202401756777 179.73205080756887
    vertex -245.74297651163636 268.79202401756777 179.73205080756887
  endloop
endfacet
facet normal 0.5891094778887022 0.0 -0.8080532303392522
  outer loop
    vertex 15.636106840175461 273.7920240175678 176.55150798802637
    vertex 15.21421839510629 268.7920240175678 176.24393112022815
    vertex 15.21421839510629 273.7920240175678 176.24393112022815
  endloop
endfacet
facet normal 0.5891094778887022 0.0 -0.8080532303392522
  outer loop
    vertex 15.21421839510629 268.7920240175678 176.24393112022815
    vertex 15.636106840175461 273.7920240175678 176.55150798802637
    vertex 15.636106840175461 268.7920240175678 176.55150798802637
  endloop
endfacet
facet normal 0.7933533402912518 0.0 -0.6087614290086991
  outer loop
    vertex -246.47502731920522 273.79202401756777 179.0
    vertex -246.15719007400943 268.79202401756777 179.4142135623731
    vertex -246.47502731920522 268.79202401756777 179.0
  endloop
endfacet
facet normal 0.7933533402912518 0.0 -0.6087614290086991
  outer loop
    vertex -246.15719007400943 268.79202401756777 179.4142135623731
    vertex -246.47502731920522 273.79202401756777 179.0
    vertex -246.15719007400943 273.79202401756777 179.4142135623731
  endloop
endfacet
facet normal 0.13052619222003511 0.0 -0.9914448613738126
  outer loop
    vertex -244.74297651163636 273.79202401756777 180.0
    vertex -245.26061460184138 268.79202401756777 179.93185165257816
    vertex -245.26061460184138 273.79202401756777 179.93185165257816
  endloop
endfacet
facet normal 0.13052619222003511 0.0 -0.9914448613738126
  outer loop
    vertex -245.26061460184138 268.79202401756777 179.93185165257816
    vertex -244.74297651163636 273.79202401756777 180.0
    vertex -244.74297651163636 268.79202401756777 180.0
  endloop
endfacet
facet normal 0.9238795325112884 0.0 -0.38268343236508595
  outer loop
    vertex -246.67482816421446 273.79202401756777 178.51763809020505
    vertex -246.47502731920522 268.79202401756777 179.0
    vertex -246.67482816421446 268.79202401756777 178.51763809020505
  endloop
endfacet
facet normal 0.9238795325112884 0.0 -0.38268343236508595
  outer loop
    vertex -246.47502731920522 268.79202401756777 179.0
    vertex -246.67482816421446 273.79202401756777 178.51763809020505
    vertex -246.47502731920522 273.79202401756777 179.0
  endloop
endfacet
facet normal 0.9914448613738077 0.0 -0.13052619222007197
  outer loop
    vertex -246.74297651163636 273.79202401756777 178.0
    vertex -246.67482816421446 268.79202401756777 178.51763809020505
    vertex -246.74297651163636 268.79202401756777 178.0
  endloop
endfacet
facet normal 0.9914448613738077 0.0 -0.13052619222007197
  outer loop
    vertex -246.67482816421446 268.79202401756777 178.51763809020505
    vertex -246.74297651163636 273.79202401756777 178.0
    vertex -246.67482816421446 273.79202401756777 178.51763809020505
  endloop
endfacet
facet normal 0.38268343236510755 0.0 -0.9238795325112795
  outer loop
    vertex -245.26061460184138 273.79202401756777 179.93185165257816
    vertex -245.74297651163636 268.79202401756777 179.73205080756887
    vertex -245.74297651163636 273.79202401756777 179.73205080756887
  endloop
endfacet
facet normal 0.38268343236510755 0.0 -0.9238795325112795
  outer loop
    vertex -245.74297651163636 268.79202401756777 179.73205080756887
    vertex -245.26061460184138 273.79202401756777 179.93185165257816
    vertex -245.26061460184138 268.79202401756777 179.93185165257816
  endloop
endfacet
facet normal -0.38268343236507063 -0.0 -0.9238795325112947
  outer loop
    vertex -243.74297651163636 273.79202401756777 179.73205080756887
    vertex -244.22533842143133 268.79202401756777 179.93185165257813
    vertex -244.22533842143133 273.79202401756777 179.93185165257813
  endloop
endfacet
facet normal -0.38268343236507063 -0.0 -0.9238795325112947
  outer loop
    vertex -244.22533842143133 268.79202401756777 179.93185165257813
    vertex -243.74297651163636 273.79202401756777 179.73205080756887
    vertex -243.74297651163636 268.79202401756777 179.73205080756887
  endloop
endfacet
facet normal -0.13052619222007758 -0.0 -0.991444861373807
  outer loop
    vertex -244.22533842143133 273.79202401756777 179.93185165257813
    vertex -244.74297651163636 268.79202401756777 180.0
    vertex -244.74297651163636 273.79202401756777 180.0
  endloop
endfacet
facet normal -0.13052619222007758 -0.0 -0.991444861373807
  outer loop
    vertex -244.74297651163636 268.79202401756777 180.0
    vertex -244.22533842143133 273.79202401756777 179.93185165257813
    vertex -244.22533842143133 268.79202401756777 179.93185165257813
  endloop
endfacet
facet normal 0.9914448613738077 0.0 0.13052619222007197
  outer loop
    vertex -246.67482816421446 273.79202401756777 177.48236190979497
    vertex -246.74297651163636 268.79202401756777 178.0
    vertex -246.67482816421446 268.79202401756777 177.48236190979497
  endloop
endfacet
facet normal 0.9914448613738077 0.0 0.13052619222007197
  outer loop
    vertex -246.74297651163636 268.79202401756777 178.0
    vertex -246.67482816421446 273.79202401756777 177.48236190979497
    vertex -246.74297651163636 273.79202401756777 178.0
  endloop
endfacet
facet normal -0.9943493640282238 -0.0 -0.10615715829216067
  outer loop
    vertex 12.257625774312437 273.7920240175678 178.04907933427248
    vertex 12.31305093290753 268.7920240175678 177.52992478938032
    vertex 12.257625774312437 268.7920240175678 178.04907933427248
  endloop
endfacet
facet normal -0.9943493640282238 -0.0 -0.10615715829216067
  outer loop
    vertex 12.31305093290753 268.7920240175678 177.52992478938032
    vertex 12.257625774312437 273.7920240175678 178.04907933427248
    vertex 12.31305093290753 273.7920240175678 177.52992478938032
  endloop
endfacet
facet normal -0.9879432254089455 0.0 0.1548166120562312
  outer loop
    vertex 12.33845626576887 273.7920240175678 178.56488920364137
    vertex 12.257625774312437 268.7920240175678 178.04907933427248
    vertex 12.33845626576887 268.7920240175678 178.56488920364137
  endloop
endfacet
facet normal -0.9879432254089455 0.0 0.1548166120562312
  outer loop
    vertex 12.257625774312437 268.7920240175678 178.04907933427248
    vertex 12.33845626576887 273.7920240175678 178.56488920364137
    vertex 12.257625774312437 273.7920240175678 178.04907933427248
  endloop
endfacet
facet normal -0.9142103886314215 0.0 0.40523988613953776
  outer loop
    vertex 12.550033942862786 273.7920240175678 179.04220280730564
    vertex 12.33845626576887 268.7920240175678 178.56488920364137
    vertex 12.550033942862786 268.7920240175678 179.04220280730564
  endloop
endfacet
facet normal -0.9142103886314215 0.0 0.40523988613953776
  outer loop
    vertex 12.33845626576887 268.7920240175678 178.56488920364137
    vertex 12.550033942862786 273.7920240175678 179.04220280730564
    vertex 12.33845626576887 273.7920240175678 178.56488920364137
  endloop
endfacet
facet normal 0.9238795325112884 0.0 0.38268343236508595
  outer loop
    vertex -246.47502731920522 273.79202401756777 177.0
    vertex -246.67482816421446 268.79202401756777 177.48236190979497
    vertex -246.47502731920522 268.79202401756777 177.0
  endloop
endfacet
facet normal 0.9238795325112884 0.0 0.38268343236508595
  outer loop
    vertex -246.67482816421446 268.79202401756777 177.48236190979497
    vertex -246.47502731920522 273.79202401756777 177.0
    vertex -246.67482816421446 273.79202401756777 177.48236190979497
  endloop
endfacet
facet normal 0.7781756246728023 0.0 -0.6280467316729657
  outer loop
    vertex 15.636106840175461 273.7920240175678 176.55150798802637
    vertex 15.667106121311054 268.7920240175678 176.58991736705113
    vertex 15.636106840175461 268.7920240175678 176.55150798802637
  endloop
endfacet
facet normal 0.7781756246728023 0.0 -0.6280467316729657
  outer loop
    vertex 15.667106121311054 268.7920240175678 176.58991736705113
    vertex 15.636106840175461 273.7920240175678 176.55150798802637
    vertex 15.667106121311054 273.7920240175678 176.58991736705113
  endloop
endfacet
facet normal 0.7933533402912518 0.0 0.6087614290086991
  outer loop
    vertex -246.15719007400943 273.79202401756777 176.58578643762692
    vertex -246.47502731920522 268.79202401756777 177.0
    vertex -246.15719007400943 268.79202401756777 176.58578643762692
  endloop
endfacet
facet normal 0.7933533402912518 0.0 0.6087614290086991
  outer loop
    vertex -246.47502731920522 268.79202401756777 177.0
    vertex -246.15719007400943 273.79202401756777 176.58578643762692
    vertex -246.47502731920522 273.79202401756777 177.0
  endloop
endfacet
facet normal 0.6087614290086991 0.0 0.7933533402912518
  outer loop
    vertex -245.74297651163636 268.79202401756777 176.26794919243113
    vertex -246.15719007400943 273.79202401756777 176.58578643762692
    vertex -246.15719007400943 268.79202401756777 176.58578643762692
  endloop
endfacet
facet normal 0.6087614290086991 0.0 0.7933533402912518
  outer loop
    vertex -246.15719007400943 273.79202401756777 176.58578643762692
    vertex -245.74297651163636 268.79202401756777 176.26794919243113
    vertex -245.74297651163636 273.79202401756777 176.26794919243113
  endloop
endfacet
facet normal 0.38268343236510755 0.0 0.9238795325112795
  outer loop
    vertex -245.26061460184138 268.79202401756777 176.06814834742187
    vertex -245.74297651163636 273.79202401756777 176.26794919243113
    vertex -245.74297651163636 268.79202401756777 176.26794919243113
  endloop
endfacet
facet normal 0.38268343236510755 0.0 0.9238795325112795
  outer loop
    vertex -245.74297651163636 273.79202401756777 176.26794919243113
    vertex -245.26061460184138 268.79202401756777 176.06814834742187
    vertex -245.26061460184138 273.79202401756777 176.06814834742187
  endloop
endfacet
facet normal 0.13052619222003511 0.0 0.9914448613738126
  outer loop
    vertex -244.74297651163636 268.79202401756777 176.00000000000003
    vertex -245.26061460184138 273.79202401756777 176.06814834742187
    vertex -245.26061460184138 268.79202401756777 176.06814834742187
  endloop
endfacet
facet normal 0.13052619222003511 0.0 0.9914448613738126
  outer loop
    vertex -245.26061460184138 273.79202401756777 176.06814834742187
    vertex -244.74297651163636 268.79202401756777 176.00000000000003
    vertex -244.74297651163636 273.79202401756777 176.00000000000003
  endloop
endfacet
facet normal -0.13052619222003511 0.0 0.9914448613738126
  outer loop
    vertex -244.22533842143133 268.79202401756777 176.06814834742187
    vertex -244.74297651163636 273.79202401756777 176.00000000000003
    vertex -244.74297651163636 268.79202401756777 176.00000000000003
  endloop
endfacet
facet normal -0.13052619222003511 0.0 0.9914448613738126
  outer loop
    vertex -244.74297651163636 273.79202401756777 176.00000000000003
    vertex -244.22533842143133 268.79202401756777 176.06814834742187
    vertex -244.22533842143133 273.79202401756777 176.06814834742187
  endloop
endfacet
endsolid Rollo
