solid Roll
facet normal 0.0 0.0 1.0
  outer loop
    vertex -12.742976511637814 243.79202401756794 188.00000000000003
    vertex -217.7429765116378 268.7920240175678 188.00000000000003
    vertex -217.7429765116378 243.79202401756794 188.00000000000003
  endloop
endfacet
facet normal 0.0 0.0 1.0
  outer loop
    vertex -217.7429765116378 268.7920240175678 188.00000000000003
    vertex -12.742976511637814 243.79202401756794 188.00000000000003
    vertex -12.742976511637814 268.7920240175678 188.00000000000003
  endloop
endfacet
facet normal 1.0 -0.0 -0.0
  outer loop
    vertex -217.7429765116378 268.7920240175678 98.0
    vertex -217.7429765116378 243.79202401756794 127.99999999999999
    vertex -217.7429765116378 243.79202401756794 98.0
  endloop
endfacet
facet normal 1.0 -0.0 -0.0
  outer loop
    vertex -217.7429765116378 243.79202401756794 127.99999999999999
    vertex -217.7429765116378 268.7920240175678 98.0
    vertex -217.7429765116378 243.79202401756794 135.0
  endloop
endfacet
facet normal 1.0 -0.0 -0.0
  outer loop
    vertex -217.7429765116378 243.79202401756794 135.0
    vertex -217.7429765116378 268.7920240175678 98.0
    vertex -217.7429765116378 243.79202401756794 188.00000000000003
  endloop
endfacet
facet normal 1.0 -0.0 -0.0
  outer loop
    vertex -217.7429765116378 243.79202401756794 188.00000000000003
    vertex -217.7429765116378 268.7920240175678 98.0
    vertex -217.7429765116378 268.7920240175678 188.00000000000003
  endloop
endfacet
facet normal 1.0 -0.0 -0.0
  outer loop
    vertex -217.7429765116378 243.79202401756794 127.99999999999999
    vertex -217.7429765116378 238.792024017568 135.0
    vertex -217.7429765116378 238.792024017568 127.99999999999999
  endloop
endfacet
facet normal 1.0 -0.0 -0.0
  outer loop
    vertex -217.7429765116378 238.792024017568 135.0
    vertex -217.7429765116378 243.79202401756794 127.99999999999999
    vertex -217.7429765116378 243.79202401756794 135.0
  endloop
endfacet
facet normal 5.502373624483703e-17 0.0 -1.0
  outer loop
    vertex -12.742976511637814 268.7920240175678 98.00000000000001
    vertex -217.7429765116378 243.79202401756794 98.0
    vertex -217.7429765116378 268.7920240175678 98.0
  endloop
endfacet
facet normal 5.502373624483703e-17 0.0 -1.0
  outer loop
    vertex -217.7429765116378 243.79202401756794 98.0
    vertex -12.742976511637814 268.7920240175678 98.00000000000001
    vertex -12.742976511637814 243.79202401756794 98.00000000000001
  endloop
endfacet
facet normal 1.0 0.0 0.0
  outer loop
    vertex -2.7429765116378313 268.79202401756794 93.00000000000003
    vertex -2.7429765116378313 263.79202401756794 198.00000000000006
    vertex -2.7429765116378313 263.79202401756794 93.00000000000003
  endloop
endfacet
facet normal 1.0 0.0 0.0
  outer loop
    vertex -2.7429765116378313 263.79202401756794 198.00000000000006
    vertex -2.7429765116378313 268.79202401756794 93.00000000000003
    vertex -2.7429765116378313 268.79202401756794 198.00000000000006
  endloop
endfacet
facet normal 1.0 -0.0 -0.0
  outer loop
    vertex -7.742976511637822 263.79202401756794 93.00000000000003
    vertex -7.742976511637817 238.792024017568 193.00000000000006
    vertex -7.742976511637822 238.7920240175679 93.00000000000003
  endloop
endfacet
facet normal 1.0 -0.0 -0.0
  outer loop
    vertex -7.742976511637817 238.792024017568 193.00000000000006
    vertex -7.742976511637822 263.79202401756794 93.00000000000003
    vertex -7.742976511637817 263.792024017568 193.00000000000006
  endloop
endfacet
facet normal -0.0 1.0 -0.0
  outer loop
    vertex -227.74297651163783 263.79202401756794 93.00000000000007
    vertex -222.74297651163778 263.792024017568 193.00000000000006
    vertex -222.74297651163778 263.79202401756794 93.00000000000004
  endloop
endfacet
facet normal -0.0 1.0 -0.0
  outer loop
    vertex -222.74297651163778 263.792024017568 193.00000000000006
    vertex -227.74297651163783 263.79202401756794 93.00000000000007
    vertex -227.74297651163783 263.79202401756794 198.00000000000006
  endloop
endfacet
facet normal -0.0 1.0 -0.0
  outer loop
    vertex -222.74297651163778 263.792024017568 193.00000000000006
    vertex -227.74297651163783 263.79202401756794 198.00000000000006
    vertex -7.742976511637817 263.792024017568 193.00000000000006
  endloop
endfacet
facet normal -0.0 1.0 -0.0
  outer loop
    vertex -7.742976511637817 263.792024017568 193.00000000000006
    vertex -2.7429765116378313 263.79202401756794 93.00000000000003
    vertex -7.742976511637822 263.79202401756794 93.00000000000003
  endloop
endfacet
facet normal -0.0 1.0 -0.0
  outer loop
    vertex -2.7429765116378313 263.79202401756794 93.00000000000003
    vertex -7.742976511637817 263.792024017568 193.00000000000006
    vertex -2.7429765116378313 263.79202401756794 198.00000000000006
  endloop
endfacet
facet normal -0.0 1.0 -0.0
  outer loop
    vertex -2.7429765116378313 263.79202401756794 198.00000000000006
    vertex -7.742976511637817 263.792024017568 193.00000000000006
    vertex -227.74297651163783 263.79202401756794 198.00000000000006
  endloop
endfacet
facet normal -1.2554951227301218e-16 6.680794763912154e-16 -1.0
  outer loop
    vertex -2.7429765116378313 268.79202401756794 93.00000000000003
    vertex -227.74297651163783 263.79202401756794 93.00000000000007
    vertex -227.74297651163783 268.79202401756794 93.00000000000007
  endloop
endfacet
facet normal -1.2554951227301218e-16 6.680794763912154e-16 -1.0
  outer loop
    vertex -227.74297651163783 263.79202401756794 93.00000000000007
    vertex -2.7429765116378313 268.79202401756794 93.00000000000003
    vertex -222.74297651163778 263.79202401756794 93.00000000000004
  endloop
endfacet
facet normal -1.2554951227301218e-16 6.680794763912154e-16 -1.0
  outer loop
    vertex -222.74297651163778 263.79202401756794 93.00000000000004
    vertex -2.7429765116378313 268.79202401756794 93.00000000000003
    vertex -222.74297651163778 238.79202401756808 93.00000000000003
  endloop
endfacet
facet normal -1.2554951227301218e-16 6.680794763912154e-16 -1.0
  outer loop
    vertex -222.74297651163778 238.79202401756808 93.00000000000003
    vertex -2.7429765116378313 268.79202401756794 93.00000000000003
    vertex -7.742976511637822 263.79202401756794 93.00000000000003
  endloop
endfacet
facet normal -1.2554951227301218e-16 6.680794763912154e-16 -1.0
  outer loop
    vertex -7.742976511637822 263.79202401756794 93.00000000000003
    vertex -2.7429765116378313 268.79202401756794 93.00000000000003
    vertex -2.7429765116378313 263.79202401756794 93.00000000000003
  endloop
endfacet
facet normal -1.2554951227301218e-16 6.680794763912154e-16 -1.0
  outer loop
    vertex -7.742976511637822 238.7920240175679 93.00000000000003
    vertex -222.74297651163778 238.79202401756808 93.00000000000003
    vertex -7.742976511637822 263.79202401756794 93.00000000000003
  endloop
endfacet
facet normal 1.0 0.0 0.0
  outer loop
    vertex -227.74297651163783 268.79202401756794 93.00000000000007
    vertex -227.74297651163783 263.79202401756794 198.00000000000006
    vertex -227.74297651163783 263.79202401756794 93.00000000000007
  endloop
endfacet
facet normal 1.0 0.0 0.0
  outer loop
    vertex -227.74297651163783 263.79202401756794 198.00000000000006
    vertex -227.74297651163783 268.79202401756794 93.00000000000007
    vertex -227.74297651163783 268.79202401756794 198.00000000000006
  endloop
endfacet
facet normal -1.0 0.0 0.0
  outer loop
    vertex -222.74297651163778 263.792024017568 193.00000000000006
    vertex -222.74297651163778 238.79202401756808 93.00000000000003
    vertex -222.74297651163778 238.792024017568 192.99999999999997
  endloop
endfacet
facet normal -1.0 0.0 0.0
  outer loop
    vertex -222.74297651163778 238.79202401756808 93.00000000000003
    vertex -222.74297651163778 263.792024017568 193.00000000000006
    vertex -222.74297651163778 263.79202401756794 93.00000000000004
  endloop
endfacet
facet normal 0.0 -1.0 0.0
  outer loop
    vertex -12.742976511637814 243.79202401756794 188.00000000000003
    vertex -217.7429765116378 243.79202401756794 135.0
    vertex -12.742976511637814 243.79202401756794 134.92337482070278
  endloop
endfacet
facet normal 0.0 -1.0 0.0
  outer loop
    vertex -217.7429765116378 243.79202401756794 135.0
    vertex -12.742976511637814 243.79202401756794 188.00000000000003
    vertex -217.7429765116378 243.79202401756794 188.00000000000003
  endloop
endfacet
facet normal -0.0 1.0 -0.0
  outer loop
    vertex -227.74297651163783 268.79202401756794 198.00000000000006
    vertex -217.7429765116378 268.7920240175678 98.0
    vertex -227.74297651163783 268.79202401756794 93.00000000000007
  endloop
endfacet
facet normal -0.0 1.0 -0.0
  outer loop
    vertex -217.7429765116378 268.7920240175678 98.0
    vertex -227.74297651163783 268.79202401756794 198.00000000000006
    vertex -217.7429765116378 268.7920240175678 188.00000000000003
  endloop
endfacet
facet normal -0.0 1.0 -0.0
  outer loop
    vertex -217.7429765116378 268.7920240175678 188.00000000000003
    vertex -227.74297651163783 268.79202401756794 198.00000000000006
    vertex -12.742976511637814 268.7920240175678 188.00000000000003
  endloop
endfacet
facet normal -0.0 1.0 -0.0
  outer loop
    vertex -2.7429765116378313 268.79202401756794 93.00000000000003
    vertex -12.742976511637814 268.7920240175678 98.00000000000001
    vertex -2.7429765116378313 268.79202401756794 198.00000000000006
  endloop
endfacet
facet normal -0.0 1.0 -0.0
  outer loop
    vertex -12.742976511637814 268.7920240175678 98.00000000000001
    vertex -2.7429765116378313 268.79202401756794 93.00000000000003
    vertex -227.74297651163783 268.79202401756794 93.00000000000007
  endloop
endfacet
facet normal -0.0 1.0 -0.0
  outer loop
    vertex -12.742976511637814 268.7920240175678 98.00000000000001
    vertex -227.74297651163783 268.79202401756794 93.00000000000007
    vertex -217.7429765116378 268.7920240175678 98.0
  endloop
endfacet
facet normal -0.0 1.0 -0.0
  outer loop
    vertex -2.7429765116378313 268.79202401756794 198.00000000000006
    vertex -12.742976511637814 268.7920240175678 98.00000000000001
    vertex -12.742976511637814 268.7920240175678 188.00000000000003
  endloop
endfacet
facet normal -0.0 1.0 -0.0
  outer loop
    vertex -2.7429765116378313 268.79202401756794 198.00000000000006
    vertex -12.742976511637814 268.7920240175678 188.00000000000003
    vertex -227.74297651163783 268.79202401756794 198.00000000000006
  endloop
endfacet
facet normal 1.0 -0.0 -0.0
  outer loop
    vertex -12.742976511637814 268.7920240175678 98.00000000000001
    vertex -12.742976511637814 243.79202401756794 127.99999999999999
    vertex -12.742976511637814 243.79202401756794 98.00000000000001
  endloop
endfacet
facet normal 1.0 -0.0 -0.0
  outer loop
    vertex -12.742976511637814 243.79202401756794 127.99999999999999
    vertex -12.742976511637814 268.7920240175678 98.00000000000001
    vertex -12.742976511637814 243.79202401756794 134.92337482070278
  endloop
endfacet
facet normal 1.0 -0.0 -0.0
  outer loop
    vertex -12.742976511637814 243.79202401756794 134.92337482070278
    vertex -12.742976511637814 268.7920240175678 98.00000000000001
    vertex -12.742976511637814 243.79202401756794 188.00000000000003
  endloop
endfacet
facet normal 1.0 -0.0 -0.0
  outer loop
    vertex -12.742976511637814 243.79202401756794 188.00000000000003
    vertex -12.742976511637814 268.7920240175678 98.00000000000001
    vertex -12.742976511637814 268.7920240175678 188.00000000000003
  endloop
endfacet
facet normal 1.0 -0.0 -0.0
  outer loop
    vertex -12.742976511637814 243.79202401756794 127.99999999999999
    vertex -12.742976511637814 238.792024017568 134.92337482070278
    vertex -12.742976511637814 238.792024017568 127.99999999999999
  endloop
endfacet
facet normal 1.0 -0.0 -0.0
  outer loop
    vertex -12.742976511637814 238.792024017568 134.92337482070278
    vertex -12.742976511637814 243.79202401756794 127.99999999999999
    vertex -12.742976511637814 243.79202401756794 134.92337482070278
  endloop
endfacet
facet normal -1.9364576704191572e-16 -1.804778548830654e-15 1.0
  outer loop
    vertex -7.742976511637817 238.792024017568 193.00000000000006
    vertex -222.74297651163778 263.792024017568 193.00000000000006
    vertex -222.74297651163778 238.792024017568 192.99999999999997
  endloop
endfacet
facet normal -1.9364576704191572e-16 -1.804778548830654e-15 1.0
  outer loop
    vertex -222.74297651163778 263.792024017568 193.00000000000006
    vertex -7.742976511637817 238.792024017568 193.00000000000006
    vertex -7.742976511637817 263.792024017568 193.00000000000006
  endloop
endfacet
facet normal 0.0 0.0 1.0
  outer loop
    vertex -2.7429765116378313 263.79202401756794 198.00000000000006
    vertex -227.74297651163783 268.79202401756794 198.00000000000006
    vertex -227.74297651163783 263.79202401756794 198.00000000000006
  endloop
endfacet
facet normal 0.0 0.0 1.0
  outer loop
    vertex -227.74297651163783 268.79202401756794 198.00000000000006
    vertex -2.7429765116378313 263.79202401756794 198.00000000000006
    vertex -2.7429765116378313 268.79202401756794 198.00000000000006
  endloop
endfacet
facet normal -3.5497060042293364e-16 -1.0 -4.1076968416304607e-16
  outer loop
    vertex -7.742976511637822 238.7920240175679 93.00000000000003
    vertex -12.742976511637814 238.792024017568 127.99999999999999
    vertex -222.74297651163778 238.79202401756808 93.00000000000003
  endloop
endfacet
facet normal -3.5497060042293364e-16 -1.0 -4.1076968416304607e-16
  outer loop
    vertex -12.742976511637814 238.792024017568 127.99999999999999
    vertex -7.742976511637822 238.7920240175679 93.00000000000003
    vertex -7.742976511637817 238.792024017568 193.00000000000006
  endloop
endfacet
facet normal -3.5497060042293364e-16 -1.0 -4.1076968416304607e-16
  outer loop
    vertex -12.742976511637814 238.792024017568 127.99999999999999
    vertex -7.742976511637817 238.792024017568 193.00000000000006
    vertex -12.742976511637814 238.792024017568 134.92337482070278
  endloop
endfacet
facet normal -3.5497060042293364e-16 -1.0 -4.1076968416304607e-16
  outer loop
    vertex -12.742976511637814 238.792024017568 134.92337482070278
    vertex -7.742976511637817 238.792024017568 193.00000000000006
    vertex -217.7429765116378 238.792024017568 135.0
  endloop
endfacet
facet normal -3.5497060042293364e-16 -1.0 -4.1076968416304607e-16
  outer loop
    vertex -217.7429765116378 238.792024017568 135.0
    vertex -7.742976511637817 238.792024017568 193.00000000000006
    vertex -222.74297651163778 238.792024017568 192.99999999999997
  endloop
endfacet
facet normal -3.5497060042293364e-16 -1.0 -4.1076968416304607e-16
  outer loop
    vertex -222.74297651163778 238.79202401756808 93.00000000000003
    vertex -217.7429765116378 238.792024017568 127.99999999999999
    vertex -222.74297651163778 238.792024017568 192.99999999999997
  endloop
endfacet
facet normal -3.5497060042293364e-16 -1.0 -4.1076968416304607e-16
  outer loop
    vertex -217.7429765116378 238.792024017568 127.99999999999999
    vertex -222.74297651163778 238.79202401756808 93.00000000000003
    vertex -12.742976511637814 238.792024017568 127.99999999999999
  endloop
endfacet
facet normal -3.5497060042293364e-16 -1.0 -4.1076968416304607e-16
  outer loop
    vertex -222.74297651163778 238.792024017568 192.99999999999997
    vertex -217.7429765116378 238.792024017568 127.99999999999999
    vertex -217.7429765116378 238.792024017568 135.0
  endloop
endfacet
facet normal 0.0 0.0 -1.0
  outer loop
    vertex -12.742976511637814 243.79202401756794 127.99999999999999
    vertex -217.7429765116378 238.792024017568 127.99999999999999
    vertex -217.7429765116378 243.79202401756794 127.99999999999999
  endloop
endfacet
facet normal 0.0 0.0 -1.0
  outer loop
    vertex -217.7429765116378 238.792024017568 127.99999999999999
    vertex -12.742976511637814 243.79202401756794 127.99999999999999
    vertex -12.742976511637814 238.792024017568 127.99999999999999
  endloop
endfacet
facet normal 0.0 -1.0 0.0
  outer loop
    vertex -12.742976511637814 243.79202401756794 98.00000000000001
    vertex -217.7429765116378 243.79202401756794 127.99999999999999
    vertex -217.7429765116378 243.79202401756794 98.0
  endloop
endfacet
facet normal 0.0 -1.0 0.0
  outer loop
    vertex -217.7429765116378 243.79202401756794 127.99999999999999
    vertex -12.742976511637814 243.79202401756794 98.00000000000001
    vertex -12.742976511637814 243.79202401756794 127.99999999999999
  endloop
endfacet
facet normal 0.00037378133631459255 0.0 0.9999999301437539
  outer loop
    vertex -12.742976511637814 238.792024017568 134.92337482070278
    vertex -217.7429765116378 243.79202401756794 135.0
    vertex -217.7429765116378 238.792024017568 135.0
  endloop
endfacet
facet normal 0.00037378133631459255 0.0 0.9999999301437539
  outer loop
    vertex -217.7429765116378 243.79202401756794 135.0
    vertex -12.742976511637814 238.792024017568 134.92337482070278
    vertex -12.742976511637814 243.79202401756794 134.92337482070278
  endloop
endfacet
endsolid Roll
