solid Roll
facet normal -6.37734201706389e-16 -1.0 3.25662264781326e-17
  outer loop
    vertex 388.8659363721105 -57.66115072628687 24.999999999999964
    vertex 383.8659363721106 -57.661150726286785 34.99999999999997
    vertex 173.86593637211058 -57.661150726286735 24.999999999999964
  endloop
endfacet
facet normal -6.37734201706389e-16 -1.0 3.25662264781326e-17
  outer loop
    vertex 383.8659363721106 -57.661150726286785 34.99999999999997
    vertex 388.8659363721105 -57.66115072628687 24.999999999999964
    vertex 388.8659363721105 -57.66115072628687 51.999999999999964
  endloop
endfacet
facet normal -6.37734201706389e-16 -1.0 3.25662264781326e-17
  outer loop
    vertex 383.8659363721106 -57.661150726286785 34.99999999999997
    vertex 388.8659363721105 -57.66115072628687 51.999999999999964
    vertex 383.8659363721106 -57.661150726286785 41.92337482070274
  endloop
endfacet
facet normal -6.37734201706389e-16 -1.0 3.25662264781326e-17
  outer loop
    vertex 383.8659363721106 -57.661150726286785 41.92337482070274
    vertex 388.8659363721105 -57.66115072628687 51.999999999999964
    vertex 178.86593637211058 -57.661150726286785 41.99999999999998
  endloop
endfacet
facet normal -6.37734201706389e-16 -1.0 3.25662264781326e-17
  outer loop
    vertex 173.86593637211058 -57.661150726286735 24.999999999999964
    vertex 178.86593637211058 -57.661150726286785 34.99999999999997
    vertex 173.86593637211058 -57.661150726286735 51.999999999999964
  endloop
endfacet
facet normal -6.37734201706389e-16 -1.0 3.25662264781326e-17
  outer loop
    vertex 178.86593637211058 -57.661150726286785 34.99999999999997
    vertex 173.86593637211058 -57.661150726286735 24.999999999999964
    vertex 383.8659363721106 -57.661150726286785 34.99999999999997
  endloop
endfacet
facet normal -6.37734201706389e-16 -1.0 3.25662264781326e-17
  outer loop
    vertex 173.86593637211058 -57.661150726286735 51.999999999999964
    vertex 178.86593637211058 -57.661150726286785 34.99999999999997
    vertex 178.86593637211058 -57.661150726286785 41.99999999999998
  endloop
endfacet
facet normal -6.37734201706389e-16 -1.0 3.25662264781326e-17
  outer loop
    vertex 173.86593637211058 -57.661150726286735 51.999999999999964
    vertex 178.86593637211058 -57.661150726286785 41.99999999999998
    vertex 388.8659363721105 -57.66115072628687 51.999999999999964
  endloop
endfacet
facet normal -1.0 3.0346664601878156e-16 0.0
  outer loop
    vertex 383.8659363721106 -37.66115072628673 41.92337482070274
    vertex 383.8659363721106 -57.661150726286785 34.99999999999997
    vertex 383.8659363721106 -57.661150726286785 41.92337482070274
  endloop
endfacet
facet normal -1.0 3.0346664601878156e-16 0.0
  outer loop
    vertex 383.8659363721106 -57.661150726286785 34.99999999999997
    vertex 383.8659363721106 -37.66115072628673 41.92337482070274
    vertex 383.8659363721106 -37.66115072628673 34.99999999999997
  endloop
endfacet
facet normal 1.0 -2.1149748619109173e-16 0.0
  outer loop
    vertex 388.8659363721105 -37.66115072628682 24.999999999999964
    vertex 388.8659363721105 -57.66115072628687 51.999999999999964
    vertex 388.8659363721105 -57.66115072628687 24.999999999999964
  endloop
endfacet
facet normal 1.0 -2.1149748619109173e-16 0.0
  outer loop
    vertex 388.8659363721105 -57.66115072628687 51.999999999999964
    vertex 388.8659363721105 -37.66115072628682 24.999999999999964
    vertex 388.8659363721105 -37.66115072628682 51.999999999999964
  endloop
endfacet
facet normal 6.053231503686243e-16 1.0 -2.957422368889201e-16
  outer loop
    vertex 173.8659363721107 -37.66115072628672 24.99999999999907
    vertex 178.86593637211058 -37.66115072628673 34.99999999999997
    vertex 388.8659363721105 -37.66115072628682 24.999999999999964
  endloop
endfacet
facet normal 6.053231503686243e-16 1.0 -2.957422368889201e-16
  outer loop
    vertex 178.86593637211058 -37.66115072628673 34.99999999999997
    vertex 173.8659363721107 -37.66115072628672 24.99999999999907
    vertex 173.86593637211058 -37.661150726286685 51.999999999999964
  endloop
endfacet
facet normal 6.053231503686243e-16 1.0 -2.957422368889201e-16
  outer loop
    vertex 178.86593637211058 -37.66115072628673 34.99999999999997
    vertex 173.86593637211058 -37.661150726286685 51.999999999999964
    vertex 178.86593637211058 -37.66115072628673 41.99999999999998
  endloop
endfacet
facet normal 6.053231503686243e-16 1.0 -2.957422368889201e-16
  outer loop
    vertex 388.8659363721105 -37.66115072628682 24.999999999999964
    vertex 383.8659363721106 -37.66115072628673 34.99999999999997
    vertex 388.8659363721105 -37.66115072628682 51.999999999999964
  endloop
endfacet
facet normal 6.053231503686243e-16 1.0 -2.957422368889201e-16
  outer loop
    vertex 383.8659363721106 -37.66115072628673 34.99999999999997
    vertex 388.8659363721105 -37.66115072628682 24.999999999999964
    vertex 178.86593637211058 -37.66115072628673 34.99999999999997
  endloop
endfacet
facet normal 6.053231503686243e-16 1.0 -2.957422368889201e-16
  outer loop
    vertex 388.8659363721105 -37.66115072628682 51.999999999999964
    vertex 383.8659363721106 -37.66115072628673 34.99999999999997
    vertex 383.8659363721106 -37.66115072628673 41.92337482070274
  endloop
endfacet
facet normal 6.053231503686243e-16 1.0 -2.957422368889201e-16
  outer loop
    vertex 388.8659363721105 -37.66115072628682 51.999999999999964
    vertex 383.8659363721106 -37.66115072628673 41.92337482070274
    vertex 178.86593637211058 -37.66115072628673 41.99999999999998
  endloop
endfacet
facet normal 6.053231503686243e-16 1.0 -2.957422368889201e-16
  outer loop
    vertex 388.8659363721105 -37.66115072628682 51.999999999999964
    vertex 178.86593637211058 -37.66115072628673 41.99999999999998
    vertex 173.86593637211058 -37.661150726286685 51.999999999999964
  endloop
endfacet
facet normal -1.0 1.8799776550319034e-15 -1.1231729944714773e-15
  outer loop
    vertex 173.86593637211058 -37.661150726286685 51.999999999999964
    vertex 173.86593637211058 -57.661150726286735 24.999999999999964
    vertex 173.86593637211058 -57.661150726286735 51.999999999999964
  endloop
endfacet
facet normal -1.0 1.8799776550319034e-15 -1.1231729944714773e-15
  outer loop
    vertex 173.86593637211058 -57.661150726286735 24.999999999999964
    vertex 173.86593637211058 -37.661150726286685 51.999999999999964
    vertex 173.8659363721107 -37.66115072628672 24.99999999999907
  endloop
endfacet
facet normal 1.0917811572719949e-15 -1.494582235750383e-14 -1.0
  outer loop
    vertex 173.8659363721107 -37.66115072628672 24.99999999999907
    vertex 388.8659363721105 -57.66115072628687 24.999999999999964
    vertex 173.86593637211058 -57.661150726286735 24.999999999999964
  endloop
endfacet
facet normal 1.0917811572719949e-15 -1.494582235750383e-14 -1.0
  outer loop
    vertex 388.8659363721105 -57.66115072628687 24.999999999999964
    vertex 173.8659363721107 -37.66115072628672 24.99999999999907
    vertex 388.8659363721105 -37.66115072628682 24.999999999999964
  endloop
endfacet
facet normal -0.00037378133631459255 1.9579978585357796e-16 -0.9999999301437539
  outer loop
    vertex 383.8659363721106 -37.66115072628673 41.92337482070274
    vertex 178.86593637211058 -57.661150726286785 41.99999999999998
    vertex 178.86593637211058 -37.66115072628673 41.99999999999998
  endloop
endfacet
facet normal -0.00037378133631459255 1.9579978585357796e-16 -0.9999999301437539
  outer loop
    vertex 178.86593637211058 -57.661150726286785 41.99999999999998
    vertex 383.8659363721106 -37.66115072628673 41.92337482070274
    vertex 383.8659363721106 -57.661150726286785 41.92337482070274
  endloop
endfacet
facet normal -1.2319903315482128e-31 -1.9568636935501733e-16 1.0
  outer loop
    vertex 388.8659363721105 -57.66115072628687 51.999999999999964
    vertex 173.86593637211058 -37.661150726286685 51.999999999999964
    vertex 173.86593637211058 -57.661150726286735 51.999999999999964
  endloop
endfacet
facet normal -1.2319903315482128e-31 -1.9568636935501733e-16 1.0
  outer loop
    vertex 173.86593637211058 -37.661150726286685 51.999999999999964
    vertex 388.8659363721105 -57.66115072628687 51.999999999999964
    vertex 388.8659363721105 -37.66115072628682 51.999999999999964
  endloop
endfacet
facet normal 1.0 -3.0346664601878156e-16 0.0
  outer loop
    vertex 178.86593637211058 -37.66115072628673 34.99999999999997
    vertex 178.86593637211058 -57.661150726286785 41.99999999999998
    vertex 178.86593637211058 -57.661150726286785 34.99999999999997
  endloop
endfacet
facet normal 1.0 -3.0346664601878156e-16 0.0
  outer loop
    vertex 178.86593637211058 -57.661150726286785 41.99999999999998
    vertex 178.86593637211058 -37.66115072628673 34.99999999999997
    vertex 178.86593637211058 -37.66115072628673 41.99999999999998
  endloop
endfacet
facet normal 0.0 -1.9568636935501733e-16 1.0
  outer loop
    vertex 383.8659363721106 -57.661150726286785 34.99999999999997
    vertex 178.86593637211058 -37.66115072628673 34.99999999999997
    vertex 178.86593637211058 -57.661150726286785 34.99999999999997
  endloop
endfacet
facet normal 0.0 -1.9568636935501733e-16 1.0
  outer loop
    vertex 178.86593637211058 -37.66115072628673 34.99999999999997
    vertex 383.8659363721106 -57.661150726286785 34.99999999999997
    vertex 383.8659363721106 -37.66115072628673 34.99999999999997
  endloop
endfacet
endsolid Roll
