solid Rollo
facet normal -0.9238795325112845 -0.0 -0.3826834323650951
  outer loop
    vertex 12.325171835784062 273.7920240175678 177.58236190979497
    vertex 12.524972680793315 268.7920240175678 177.10000000000002
    vertex 12.325171835784062 268.7920240175678 177.58236190979497
  endloop
endfacet
facet normal -0.9238795325112845 -0.0 -0.3826834323650951
  outer loop
    vertex 12.524972680793315 268.7920240175678 177.10000000000002
    vertex 12.325171835784062 273.7920240175678 177.58236190979497
    vertex 12.524972680793315 273.7920240175678 177.10000000000002
  endloop
endfacet
facet normal 0.37139067635410317 -0.9284766908852595 2.0782543113232017e-18
  outer loop
    vertex -0.7429765116378352 333.7920240175679 188.00000000000003
    vertex -25.742976511637835 323.79202401756794 148.0
    vertex -0.7429765116378352 333.7920240175679 148.0
  endloop
endfacet
facet normal 0.37139067635410317 -0.9284766908852595 2.0782543113232017e-18
  outer loop
    vertex -25.742976511637835 323.79202401756794 148.0
    vertex -0.7429765116378352 333.7920240175679 188.00000000000003
    vertex -25.742976511637835 323.79202401756794 187.99999999999997
  endloop
endfacet
facet normal 0.0 -1.0 0.0
  outer loop
    vertex 2.257023488362201 333.7920240175679 188.00000000000003
    vertex -0.7429765116378352 333.7920240175679 148.0
    vertex 2.257023488362201 333.7920240175679 148.0
  endloop
endfacet
facet normal 0.0 -1.0 0.0
  outer loop
    vertex -0.7429765116378352 333.7920240175679 148.0
    vertex 2.257023488362201 333.7920240175679 188.00000000000003
    vertex -0.7429765116378352 333.7920240175679 188.00000000000003
  endloop
endfacet
facet normal -0.7933533402912399 0.0 0.6087614290087143
  outer loop
    vertex 12.842809925989084 273.7920240175678 159.7142135623731
    vertex 12.524972680793315 268.7920240175678 159.3
    vertex 12.842809925989084 268.7920240175678 159.7142135623731
  endloop
endfacet
facet normal -0.7933533402912399 0.0 0.6087614290087143
  outer loop
    vertex 12.524972680793315 268.7920240175678 159.3
    vertex 12.842809925989084 273.7920240175678 159.7142135623731
    vertex 12.524972680793315 273.7920240175678 159.3
  endloop
endfacet
facet normal 0.13052619222003023 0.0 -0.9914448613738134
  outer loop
    vertex 14.774661578567205 273.7920240175678 156.36814834742185
    vertex 14.257023488362183 268.7920240175678 156.3
    vertex 14.257023488362183 273.7920240175678 156.3
  endloop
endfacet
facet normal 0.13052619222003023 0.0 -0.9914448613738134
  outer loop
    vertex 14.257023488362183 268.7920240175678 156.3
    vertex 14.774661578567205 273.7920240175678 156.36814834742185
    vertex 14.774661578567205 268.7920240175678 156.36814834742185
  endloop
endfacet
facet normal 0.6087614290087043 0.0 0.7933533402912477
  outer loop
    vertex 15.67123705073528 268.7920240175678 179.5142135623731
    vertex 15.257023488362181 273.7920240175678 179.8320508075689
    vertex 15.257023488362181 268.7920240175678 179.8320508075689
  endloop
endfacet
facet normal 0.6087614290087043 0.0 0.7933533402912477
  outer loop
    vertex 15.257023488362181 273.7920240175678 179.8320508075689
    vertex 15.67123705073528 268.7920240175678 179.5142135623731
    vertex 15.67123705073528 273.7920240175678 179.5142135623731
  endloop
endfacet
facet normal 0.9238795325112845 0.0 0.3826834323650951
  outer loop
    vertex 16.188875140940304 273.7920240175678 158.81763809020504
    vertex 15.989074295931049 268.7920240175678 159.3
    vertex 16.188875140940304 268.7920240175678 158.81763809020504
  endloop
endfacet
facet normal 0.9238795325112845 0.0 0.3826834323650951
  outer loop
    vertex 15.989074295931049 268.7920240175678 159.3
    vertex 16.188875140940304 273.7920240175678 158.81763809020504
    vertex 15.989074295931049 273.7920240175678 159.3
  endloop
endfacet
facet normal 0.382683432365119 0.0 0.9238795325112747
  outer loop
    vertex 15.257023488362181 268.7920240175678 179.8320508075689
    vertex 14.774661578567205 273.7920240175678 180.03185165257815
    vertex 14.774661578567205 268.7920240175678 180.03185165257815
  endloop
endfacet
facet normal 0.382683432365119 0.0 0.9238795325112747
  outer loop
    vertex 14.774661578567205 273.7920240175678 180.03185165257815
    vertex 15.257023488362181 268.7920240175678 179.8320508075689
    vertex 15.257023488362181 273.7920240175678 179.8320508075689
  endloop
endfacet
facet normal -0.9914448613738106 0.0 0.13052619222005077
  outer loop
    vertex 12.325171835784062 273.7920240175678 178.61763809020505
    vertex 12.257023488362186 268.7920240175678 178.10000000000002
    vertex 12.325171835784062 268.7920240175678 178.61763809020505
  endloop
endfacet
facet normal -0.9914448613738106 0.0 0.13052619222005077
  outer loop
    vertex 12.257023488362186 268.7920240175678 178.10000000000002
    vertex 12.325171835784062 273.7920240175678 178.61763809020505
    vertex 12.257023488362186 273.7920240175678 178.10000000000002
  endloop
endfacet
facet normal -0.9914448613738106 -0.0 -0.13052619222005077
  outer loop
    vertex 12.257023488362186 273.7920240175678 178.10000000000002
    vertex 12.325171835784062 268.7920240175678 177.58236190979497
    vertex 12.257023488362186 268.7920240175678 178.10000000000002
  endloop
endfacet
facet normal -0.9914448613738106 -0.0 -0.13052619222005077
  outer loop
    vertex 12.325171835784062 268.7920240175678 177.58236190979497
    vertex 12.257023488362186 273.7920240175678 178.10000000000002
    vertex 12.325171835784062 273.7920240175678 177.58236190979497
  endloop
endfacet
facet normal -0.7933533402912399 0.0 0.6087614290087143
  outer loop
    vertex 12.842809925989084 273.7920240175678 179.5142135623731
    vertex 12.524972680793315 268.7920240175678 179.10000000000002
    vertex 12.842809925989084 268.7920240175678 179.5142135623731
  endloop
endfacet
facet normal -0.7933533402912399 0.0 0.6087614290087143
  outer loop
    vertex 12.524972680793315 268.7920240175678 179.10000000000002
    vertex 12.842809925989084 273.7920240175678 179.5142135623731
    vertex 12.524972680793315 273.7920240175678 179.10000000000002
  endloop
endfacet
facet normal 0.7933533402912386 0.0 0.6087614290087161
  outer loop
    vertex 15.989074295931049 273.7920240175678 179.10000000000002
    vertex 15.67123705073528 268.7920240175678 179.5142135623731
    vertex 15.989074295931049 268.7920240175678 179.10000000000002
  endloop
endfacet
facet normal 0.7933533402912386 0.0 0.6087614290087161
  outer loop
    vertex 15.67123705073528 268.7920240175678 179.5142135623731
    vertex 15.989074295931049 273.7920240175678 179.10000000000002
    vertex 15.67123705073528 273.7920240175678 179.5142135623731
  endloop
endfacet
facet normal 0.9914448613738106 0.0 -0.13052619222005077
  outer loop
    vertex 16.188875140940304 273.7920240175678 157.78236190979496
    vertex 16.25702348836218 268.7920240175678 158.3
    vertex 16.188875140940304 268.7920240175678 157.78236190979496
  endloop
endfacet
facet normal 0.9914448613738106 0.0 -0.13052619222005077
  outer loop
    vertex 16.25702348836218 268.7920240175678 158.3
    vertex 16.188875140940304 273.7920240175678 157.78236190979496
    vertex 16.25702348836218 273.7920240175678 158.3
  endloop
endfacet
facet normal 0.9914448613738106 0.0 0.13052619222005077
  outer loop
    vertex 16.25702348836218 273.7920240175678 158.3
    vertex 16.188875140940304 268.7920240175678 158.81763809020504
    vertex 16.25702348836218 268.7920240175678 158.3
  endloop
endfacet
facet normal 0.9914448613738106 0.0 0.13052619222005077
  outer loop
    vertex 16.188875140940304 268.7920240175678 158.81763809020504
    vertex 16.25702348836218 273.7920240175678 158.3
    vertex 16.188875140940304 273.7920240175678 158.81763809020504
  endloop
endfacet
facet normal -0.9238795325112855 0.0 0.38268343236509283
  outer loop
    vertex 12.524972680793315 273.7920240175678 159.3
    vertex 12.325171835784062 268.7920240175678 158.81763809020504
    vertex 12.524972680793315 268.7920240175678 159.3
  endloop
endfacet
facet normal -0.9238795325112855 0.0 0.38268343236509283
  outer loop
    vertex 12.325171835784062 268.7920240175678 158.81763809020504
    vertex 12.524972680793315 273.7920240175678 159.3
    vertex 12.325171835784062 273.7920240175678 158.81763809020504
  endloop
endfacet
facet normal -0.6087614290087043 0.0 0.7933533402912477
  outer loop
    vertex 13.257023488362185 268.7920240175678 179.8320508075689
    vertex 12.842809925989084 273.7920240175678 179.5142135623731
    vertex 12.842809925989084 268.7920240175678 179.5142135623731
  endloop
endfacet
facet normal -0.6087614290087043 0.0 0.7933533402912477
  outer loop
    vertex 12.842809925989084 273.7920240175678 179.5142135623731
    vertex 13.257023488362185 268.7920240175678 179.8320508075689
    vertex 13.257023488362185 273.7920240175678 179.8320508075689
  endloop
endfacet
facet normal 0.9238795325112845 0.0 0.3826834323650951
  outer loop
    vertex 16.188875140940304 273.7920240175678 178.61763809020505
    vertex 15.989074295931049 268.7920240175678 179.10000000000002
    vertex 16.188875140940304 268.7920240175678 178.61763809020505
  endloop
endfacet
facet normal 0.9238795325112845 0.0 0.3826834323650951
  outer loop
    vertex 15.989074295931049 268.7920240175678 179.10000000000002
    vertex 16.188875140940304 273.7920240175678 178.61763809020505
    vertex 15.989074295931049 273.7920240175678 179.10000000000002
  endloop
endfacet
facet normal -0.13052619222003092 -0.0 -0.9914448613738132
  outer loop
    vertex 14.257023488362183 273.7920240175678 156.3
    vertex 13.73938539815716 268.7920240175678 156.36814834742185
    vertex 13.73938539815716 273.7920240175678 156.36814834742185
  endloop
endfacet
facet normal -0.13052619222003092 -0.0 -0.9914448613738132
  outer loop
    vertex 13.73938539815716 268.7920240175678 156.36814834742185
    vertex 14.257023488362183 273.7920240175678 156.3
    vertex 14.257023488362183 268.7920240175678 156.3
  endloop
endfacet
facet normal -0.382683432365119 -0.0 -0.9238795325112747
  outer loop
    vertex 13.73938539815716 273.7920240175678 156.36814834742185
    vertex 13.257023488362185 268.7920240175678 156.56794919243114
    vertex 13.257023488362185 273.7920240175678 156.56794919243114
  endloop
endfacet
facet normal -0.382683432365119 -0.0 -0.9238795325112747
  outer loop
    vertex 13.257023488362185 268.7920240175678 156.56794919243114
    vertex 13.73938539815716 273.7920240175678 156.36814834742185
    vertex 13.73938539815716 268.7920240175678 156.36814834742185
  endloop
endfacet
facet normal 0.382683432365119 0.0 0.9238795325112747
  outer loop
    vertex 15.257023488362181 268.7920240175678 160.03205080756888
    vertex 14.774661578567205 273.7920240175678 160.23185165257814
    vertex 14.774661578567205 268.7920240175678 160.23185165257814
  endloop
endfacet
facet normal 0.382683432365119 0.0 0.9238795325112747
  outer loop
    vertex 14.774661578567205 273.7920240175678 160.23185165257814
    vertex 15.257023488362181 268.7920240175678 160.03205080756888
    vertex 15.257023488362181 273.7920240175678 160.03205080756888
  endloop
endfacet
facet normal 0.6087614290087043 0.0 0.7933533402912477
  outer loop
    vertex 15.67123705073528 268.7920240175678 159.7142135623731
    vertex 15.257023488362181 273.7920240175678 160.03205080756888
    vertex 15.257023488362181 268.7920240175678 160.03205080756888
  endloop
endfacet
facet normal 0.6087614290087043 0.0 0.7933533402912477
  outer loop
    vertex 15.257023488362181 273.7920240175678 160.03205080756888
    vertex 15.67123705073528 268.7920240175678 159.7142135623731
    vertex 15.67123705073528 273.7920240175678 159.7142135623731
  endloop
endfacet
facet normal -0.9238795325112855 0.0 0.38268343236509283
  outer loop
    vertex 12.524972680793315 273.7920240175678 179.10000000000002
    vertex 12.325171835784062 268.7920240175678 178.61763809020505
    vertex 12.524972680793315 268.7920240175678 179.10000000000002
  endloop
endfacet
facet normal -0.9238795325112855 0.0 0.38268343236509283
  outer loop
    vertex 12.325171835784062 268.7920240175678 178.61763809020505
    vertex 12.524972680793315 273.7920240175678 179.10000000000002
    vertex 12.325171835784062 273.7920240175678 178.61763809020505
  endloop
endfacet
facet normal -0.13052619222003023 0.0 0.9914448613738134
  outer loop
    vertex 14.257023488362183 268.7920240175678 180.1
    vertex 13.73938539815716 273.7920240175678 180.03185165257815
    vertex 13.73938539815716 268.7920240175678 180.03185165257815
  endloop
endfacet
facet normal -0.13052619222003023 0.0 0.9914448613738134
  outer loop
    vertex 13.73938539815716 273.7920240175678 180.03185165257815
    vertex 14.257023488362183 268.7920240175678 180.1
    vertex 14.257023488362183 273.7920240175678 180.1
  endloop
endfacet
facet normal -0.6087614290087043 -0.0 -0.7933533402912477
  outer loop
    vertex 13.257023488362185 273.7920240175678 156.56794919243114
    vertex 12.842809925989084 268.7920240175678 156.8857864376269
    vertex 12.842809925989084 273.7920240175678 156.8857864376269
  endloop
endfacet
facet normal -0.6087614290087043 -0.0 -0.7933533402912477
  outer loop
    vertex 12.842809925989084 268.7920240175678 156.8857864376269
    vertex 13.257023488362185 273.7920240175678 156.56794919243114
    vertex 13.257023488362185 268.7920240175678 156.56794919243114
  endloop
endfacet
facet normal -0.7933533402912386 -0.0 -0.6087614290087161
  outer loop
    vertex 12.524972680793315 273.7920240175678 157.3
    vertex 12.842809925989084 268.7920240175678 156.8857864376269
    vertex 12.524972680793315 268.7920240175678 157.3
  endloop
endfacet
facet normal -0.7933533402912386 -0.0 -0.6087614290087161
  outer loop
    vertex 12.842809925989084 268.7920240175678 156.8857864376269
    vertex 12.524972680793315 273.7920240175678 157.3
    vertex 12.842809925989084 273.7920240175678 156.8857864376269
  endloop
endfacet
facet normal -0.9238795325112845 -0.0 -0.3826834323650951
  outer loop
    vertex 12.325171835784062 273.7920240175678 157.78236190979496
    vertex 12.524972680793315 268.7920240175678 157.3
    vertex 12.325171835784062 268.7920240175678 157.78236190979496
  endloop
endfacet
facet normal -0.9238795325112845 -0.0 -0.3826834323650951
  outer loop
    vertex 12.524972680793315 268.7920240175678 157.3
    vertex 12.325171835784062 273.7920240175678 157.78236190979496
    vertex 12.524972680793315 273.7920240175678 157.3
  endloop
endfacet
facet normal 0.13052619222003092 0.0 0.9914448613738132
  outer loop
    vertex 14.774661578567205 268.7920240175678 180.03185165257815
    vertex 14.257023488362183 273.7920240175678 180.1
    vertex 14.257023488362183 268.7920240175678 180.1
  endloop
endfacet
facet normal 0.13052619222003092 0.0 0.9914448613738132
  outer loop
    vertex 14.257023488362183 273.7920240175678 180.1
    vertex 14.774661578567205 268.7920240175678 180.03185165257815
    vertex 14.774661578567205 273.7920240175678 180.03185165257815
  endloop
endfacet
facet normal -0.9914448613738106 -0.0 -0.13052619222005077
  outer loop
    vertex 12.257023488362186 273.7920240175678 158.3
    vertex 12.325171835784062 268.7920240175678 157.78236190979496
    vertex 12.257023488362186 268.7920240175678 158.3
  endloop
endfacet
facet normal -0.9914448613738106 -0.0 -0.13052619222005077
  outer loop
    vertex 12.325171835784062 268.7920240175678 157.78236190979496
    vertex 12.257023488362186 273.7920240175678 158.3
    vertex 12.325171835784062 273.7920240175678 157.78236190979496
  endloop
endfacet
facet normal -0.9914448613738106 0.0 0.13052619222005077
  outer loop
    vertex 12.325171835784062 273.7920240175678 158.81763809020504
    vertex 12.257023488362186 268.7920240175678 158.3
    vertex 12.325171835784062 268.7920240175678 158.81763809020504
  endloop
endfacet
facet normal -0.9914448613738106 0.0 0.13052619222005077
  outer loop
    vertex 12.257023488362186 268.7920240175678 158.3
    vertex 12.325171835784062 273.7920240175678 158.81763809020504
    vertex 12.257023488362186 273.7920240175678 158.3
  endloop
endfacet
facet normal -0.382683432365119 -0.0 -0.9238795325112747
  outer loop
    vertex 13.73938539815716 273.7920240175678 176.16814834742186
    vertex 13.257023488362185 268.7920240175678 176.36794919243115
    vertex 13.257023488362185 273.7920240175678 176.36794919243115
  endloop
endfacet
facet normal -0.382683432365119 -0.0 -0.9238795325112747
  outer loop
    vertex 13.257023488362185 268.7920240175678 176.36794919243115
    vertex 13.73938539815716 273.7920240175678 176.16814834742186
    vertex 13.73938539815716 268.7920240175678 176.16814834742186
  endloop
endfacet
facet normal 0.13052619222003092 0.0 0.9914448613738132
  outer loop
    vertex 14.774661578567205 268.7920240175678 160.23185165257814
    vertex 14.257023488362183 273.7920240175678 160.3
    vertex 14.257023488362183 268.7920240175678 160.3
  endloop
endfacet
facet normal 0.13052619222003092 0.0 0.9914448613738132
  outer loop
    vertex 14.257023488362183 273.7920240175678 160.3
    vertex 14.774661578567205 268.7920240175678 160.23185165257814
    vertex 14.774661578567205 273.7920240175678 160.23185165257814
  endloop
endfacet
facet normal -0.6087614290087043 0.0 0.7933533402912477
  outer loop
    vertex 13.257023488362185 268.7920240175678 160.03205080756888
    vertex 12.842809925989084 273.7920240175678 159.7142135623731
    vertex 12.842809925989084 268.7920240175678 159.7142135623731
  endloop
endfacet
facet normal -0.6087614290087043 0.0 0.7933533402912477
  outer loop
    vertex 12.842809925989084 273.7920240175678 159.7142135623731
    vertex 13.257023488362185 268.7920240175678 160.03205080756888
    vertex 13.257023488362185 273.7920240175678 160.03205080756888
  endloop
endfacet
facet normal -0.13052619222003023 0.0 0.9914448613738134
  outer loop
    vertex 14.257023488362183 268.7920240175678 160.3
    vertex 13.73938539815716 273.7920240175678 160.23185165257814
    vertex 13.73938539815716 268.7920240175678 160.23185165257814
  endloop
endfacet
facet normal -0.13052619222003023 0.0 0.9914448613738134
  outer loop
    vertex 13.73938539815716 273.7920240175678 160.23185165257814
    vertex 14.257023488362183 268.7920240175678 160.3
    vertex 14.257023488362183 273.7920240175678 160.3
  endloop
endfacet
facet normal -0.382683432365119 0.0 0.9238795325112747
  outer loop
    vertex 13.73938539815716 268.7920240175678 160.23185165257814
    vertex 13.257023488362185 273.7920240175678 160.03205080756888
    vertex 13.257023488362185 268.7920240175678 160.03205080756888
  endloop
endfacet
facet normal -0.382683432365119 0.0 0.9238795325112747
  outer loop
    vertex 13.257023488362185 273.7920240175678 160.03205080756888
    vertex 13.73938539815716 268.7920240175678 160.23185165257814
    vertex 13.73938539815716 273.7920240175678 160.23185165257814
  endloop
endfacet
facet normal -0.6087614290087043 -0.0 -0.7933533402912477
  outer loop
    vertex 13.257023488362185 273.7920240175678 176.36794919243115
    vertex 12.842809925989084 268.7920240175678 176.68578643762692
    vertex 12.842809925989084 273.7920240175678 176.68578643762692
  endloop
endfacet
facet normal -0.6087614290087043 -0.0 -0.7933533402912477
  outer loop
    vertex 12.842809925989084 268.7920240175678 176.68578643762692
    vertex 13.257023488362185 273.7920240175678 176.36794919243115
    vertex 13.257023488362185 268.7920240175678 176.36794919243115
  endloop
endfacet
facet normal -0.382683432365119 0.0 0.9238795325112747
  outer loop
    vertex 13.73938539815716 268.7920240175678 180.03185165257815
    vertex 13.257023488362185 273.7920240175678 179.8320508075689
    vertex 13.257023488362185 268.7920240175678 179.8320508075689
  endloop
endfacet
facet normal -0.382683432365119 0.0 0.9238795325112747
  outer loop
    vertex 13.257023488362185 273.7920240175678 179.8320508075689
    vertex 13.73938539815716 268.7920240175678 180.03185165257815
    vertex 13.73938539815716 273.7920240175678 180.03185165257815
  endloop
endfacet
facet normal -0.7933533402912386 -0.0 -0.6087614290087161
  outer loop
    vertex 12.524972680793315 273.7920240175678 177.10000000000002
    vertex 12.842809925989084 268.7920240175678 176.68578643762692
    vertex 12.524972680793315 268.7920240175678 177.10000000000002
  endloop
endfacet
facet normal -0.7933533402912386 -0.0 -0.6087614290087161
  outer loop
    vertex 12.842809925989084 268.7920240175678 176.68578643762692
    vertex 12.524972680793315 273.7920240175678 177.10000000000002
    vertex 12.842809925989084 273.7920240175678 176.68578643762692
  endloop
endfacet
facet normal 0.9238795325112865 0.0 -0.38268343236509056
  outer loop
    vertex 15.989074295931049 273.7920240175678 157.3
    vertex 16.188875140940304 268.7920240175678 157.78236190979496
    vertex 15.989074295931049 268.7920240175678 157.3
  endloop
endfacet
facet normal 0.9238795325112865 0.0 -0.38268343236509056
  outer loop
    vertex 16.188875140940304 268.7920240175678 157.78236190979496
    vertex 15.989074295931049 273.7920240175678 157.3
    vertex 16.188875140940304 273.7920240175678 157.78236190979496
  endloop
endfacet
facet normal 0.382683432365119 0.0 -0.9238795325112747
  outer loop
    vertex 15.257023488362181 273.7920240175678 156.56794919243114
    vertex 14.774661578567205 268.7920240175678 156.36814834742185
    vertex 14.774661578567205 273.7920240175678 156.36814834742185
  endloop
endfacet
facet normal 0.382683432365119 0.0 -0.9238795325112747
  outer loop
    vertex 14.774661578567205 268.7920240175678 156.36814834742185
    vertex 15.257023488362181 273.7920240175678 156.56794919243114
    vertex 15.257023488362181 268.7920240175678 156.56794919243114
  endloop
endfacet
facet normal 0.6087614290087043 0.0 -0.7933533402912477
  outer loop
    vertex 15.67123705073528 273.7920240175678 156.8857864376269
    vertex 15.257023488362181 268.7920240175678 156.56794919243114
    vertex 15.257023488362181 273.7920240175678 156.56794919243114
  endloop
endfacet
facet normal 0.6087614290087043 0.0 -0.7933533402912477
  outer loop
    vertex 15.257023488362181 268.7920240175678 156.56794919243114
    vertex 15.67123705073528 273.7920240175678 156.8857864376269
    vertex 15.67123705073528 268.7920240175678 156.8857864376269
  endloop
endfacet
facet normal 0.7933533402912386 0.0 -0.6087614290087161
  outer loop
    vertex 15.67123705073528 273.7920240175678 156.8857864376269
    vertex 15.989074295931049 268.7920240175678 157.3
    vertex 15.67123705073528 268.7920240175678 156.8857864376269
  endloop
endfacet
facet normal 0.7933533402912386 0.0 -0.6087614290087161
  outer loop
    vertex 15.989074295931049 268.7920240175678 157.3
    vertex 15.67123705073528 273.7920240175678 156.8857864376269
    vertex 15.989074295931049 273.7920240175678 157.3
  endloop
endfacet
facet normal 0.7933533402912386 0.0 0.6087614290087161
  outer loop
    vertex 15.989074295931049 273.7920240175678 159.3
    vertex 15.67123705073528 268.7920240175678 159.7142135623731
    vertex 15.989074295931049 268.7920240175678 159.3
  endloop
endfacet
facet normal 0.7933533402912386 0.0 0.6087614290087161
  outer loop
    vertex 15.67123705073528 268.7920240175678 159.7142135623731
    vertex 15.989074295931049 273.7920240175678 159.3
    vertex 15.67123705073528 273.7920240175678 159.7142135623731
  endloop
endfacet
facet normal 0.0 -1.0 0.0
  outer loop
    vertex 24.257023488362165 268.7920240175678 148.0
    vertex 15.257023488362181 268.7920240175678 156.56794919243114
    vertex -0.7429765116378352 268.7920240175678 148.0
  endloop
endfacet
facet normal 0.0 -1.0 0.0
  outer loop
    vertex 15.257023488362181 268.7920240175678 156.56794919243114
    vertex 24.257023488362165 268.7920240175678 148.0
    vertex 15.67123705073528 268.7920240175678 156.8857864376269
  endloop
endfacet
facet normal 0.0 -1.0 0.0
  outer loop
    vertex 15.67123705073528 268.7920240175678 156.8857864376269
    vertex 24.257023488362165 268.7920240175678 148.0
    vertex 15.989074295931049 268.7920240175678 157.3
  endloop
endfacet
facet normal 0.0 -1.0 0.0
  outer loop
    vertex 15.989074295931049 268.7920240175678 157.3
    vertex 24.257023488362165 268.7920240175678 148.0
    vertex 16.188875140940304 268.7920240175678 157.78236190979496
  endloop
endfacet
facet normal 0.0 -1.0 0.0
  outer loop
    vertex 16.188875140940304 268.7920240175678 157.78236190979496
    vertex 24.257023488362165 268.7920240175678 148.0
    vertex 24.257023488362165 268.7920240175678 188.00000000000003
  endloop
endfacet
facet normal 0.0 -1.0 0.0
  outer loop
    vertex -0.7429765116378352 268.7920240175678 148.0
    vertex 15.257023488362181 268.7920240175678 156.56794919243114
    vertex 14.774661578567205 268.7920240175678 156.36814834742185
  endloop
endfacet
facet normal 0.0 -1.0 0.0
  outer loop
    vertex -0.7429765116378352 268.7920240175678 148.0
    vertex 14.774661578567205 268.7920240175678 156.36814834742185
    vertex 14.257023488362183 268.7920240175678 156.3
  endloop
endfacet
facet normal 0.0 -1.0 0.0
  outer loop
    vertex 16.188875140940304 268.7920240175678 157.78236190979496
    vertex 24.257023488362165 268.7920240175678 188.00000000000003
    vertex 16.25702348836218 268.7920240175678 158.3
  endloop
endfacet
facet normal 0.0 -1.0 0.0
  outer loop
    vertex 16.25702348836218 268.7920240175678 158.3
    vertex 24.257023488362165 268.7920240175678 188.00000000000003
    vertex 16.188875140940304 268.7920240175678 158.81763809020504
  endloop
endfacet
facet normal 0.0 -1.0 0.0
  outer loop
    vertex 16.188875140940304 268.7920240175678 158.81763809020504
    vertex 24.257023488362165 268.7920240175678 188.00000000000003
    vertex 15.989074295931049 268.7920240175678 159.3
  endloop
endfacet
facet normal 0.0 -1.0 0.0
  outer loop
    vertex 15.989074295931049 268.7920240175678 159.3
    vertex 24.257023488362165 268.7920240175678 188.00000000000003
    vertex 15.67123705073528 268.7920240175678 159.7142135623731
  endloop
endfacet
facet normal 0.0 -1.0 0.0
  outer loop
    vertex 15.67123705073528 268.7920240175678 159.7142135623731
    vertex 24.257023488362165 268.7920240175678 188.00000000000003
    vertex 15.257023488362181 268.7920240175678 160.03205080756888
  endloop
endfacet
facet normal 0.0 -1.0 0.0
  outer loop
    vertex 15.257023488362181 268.7920240175678 160.03205080756888
    vertex 24.257023488362165 268.7920240175678 188.00000000000003
    vertex 14.774661578567205 268.7920240175678 160.23185165257814
  endloop
endfacet
facet normal 0.0 -1.0 0.0
  outer loop
    vertex 14.774661578567205 268.7920240175678 160.23185165257814
    vertex 24.257023488362165 268.7920240175678 188.00000000000003
    vertex 14.257023488362183 268.7920240175678 160.3
  endloop
endfacet
facet normal 0.0 -1.0 0.0
  outer loop
    vertex 14.257023488362183 268.7920240175678 160.3
    vertex 24.257023488362165 268.7920240175678 188.00000000000003
    vertex 15.989074295931049 268.7920240175678 177.10000000000002
  endloop
endfacet
facet normal 0.0 -1.0 0.0
  outer loop
    vertex 14.257023488362183 268.7920240175678 160.3
    vertex 15.989074295931049 268.7920240175678 177.10000000000002
    vertex 15.67123705073528 268.7920240175678 176.68578643762692
  endloop
endfacet
facet normal 0.0 -1.0 0.0
  outer loop
    vertex 14.257023488362183 268.7920240175678 160.3
    vertex 15.67123705073528 268.7920240175678 176.68578643762692
    vertex 15.257023488362181 268.7920240175678 176.36794919243115
  endloop
endfacet
facet normal 0.0 -1.0 0.0
  outer loop
    vertex 14.257023488362183 268.7920240175678 160.3
    vertex 15.257023488362181 268.7920240175678 176.36794919243115
    vertex 14.774661578567205 268.7920240175678 176.16814834742186
  endloop
endfacet
facet normal 0.0 -1.0 0.0
  outer loop
    vertex 14.257023488362183 268.7920240175678 160.3
    vertex 14.774661578567205 268.7920240175678 176.16814834742186
    vertex 14.257023488362183 268.7920240175678 176.10000000000002
  endloop
endfacet
facet normal 0.0 -1.0 0.0
  outer loop
    vertex 15.989074295931049 268.7920240175678 177.10000000000002
    vertex 24.257023488362165 268.7920240175678 188.00000000000003
    vertex 16.188875140940304 268.7920240175678 177.58236190979497
  endloop
endfacet
facet normal 0.0 -1.0 0.0
  outer loop
    vertex 16.188875140940304 268.7920240175678 177.58236190979497
    vertex 24.257023488362165 268.7920240175678 188.00000000000003
    vertex 16.25702348836218 268.7920240175678 178.10000000000002
  endloop
endfacet
facet normal 0.0 -1.0 0.0
  outer loop
    vertex 16.25702348836218 268.7920240175678 178.10000000000002
    vertex 24.257023488362165 268.7920240175678 188.00000000000003
    vertex 16.188875140940304 268.7920240175678 178.61763809020505
  endloop
endfacet
facet normal 0.0 -1.0 0.0
  outer loop
    vertex 16.188875140940304 268.7920240175678 178.61763809020505
    vertex 24.257023488362165 268.7920240175678 188.00000000000003
    vertex 15.989074295931049 268.7920240175678 179.10000000000002
  endloop
endfacet
facet normal 0.0 -1.0 0.0
  outer loop
    vertex 15.989074295931049 268.7920240175678 179.10000000000002
    vertex 24.257023488362165 268.7920240175678 188.00000000000003
    vertex 15.67123705073528 268.7920240175678 179.5142135623731
  endloop
endfacet
facet normal 0.0 -1.0 0.0
  outer loop
    vertex 15.67123705073528 268.7920240175678 179.5142135623731
    vertex 24.257023488362165 268.7920240175678 188.00000000000003
    vertex 15.257023488362181 268.7920240175678 179.8320508075689
  endloop
endfacet
facet normal 0.0 -1.0 0.0
  outer loop
    vertex 15.257023488362181 268.7920240175678 179.8320508075689
    vertex 24.257023488362165 268.7920240175678 188.00000000000003
    vertex 14.774661578567205 268.7920240175678 180.03185165257815
  endloop
endfacet
facet normal 0.0 -1.0 0.0
  outer loop
    vertex 14.774661578567205 268.7920240175678 180.03185165257815
    vertex 24.257023488362165 268.7920240175678 188.00000000000003
    vertex 14.257023488362183 268.7920240175678 180.1
  endloop
endfacet
facet normal 0.0 -1.0 0.0
  outer loop
    vertex -0.7429765116378352 268.7920240175678 148.0
    vertex 12.524972680793315 268.7920240175678 157.3
    vertex -0.7429765116378352 268.7920240175678 188.00000000000003
  endloop
endfacet
facet normal 0.0 -1.0 0.0
  outer loop
    vertex 12.524972680793315 268.7920240175678 157.3
    vertex -0.7429765116378352 268.7920240175678 148.0
    vertex 12.842809925989084 268.7920240175678 156.8857864376269
  endloop
endfacet
facet normal 0.0 -1.0 0.0
  outer loop
    vertex 12.842809925989084 268.7920240175678 156.8857864376269
    vertex -0.7429765116378352 268.7920240175678 148.0
    vertex 13.257023488362185 268.7920240175678 156.56794919243114
  endloop
endfacet
facet normal 0.0 -1.0 0.0
  outer loop
    vertex 13.257023488362185 268.7920240175678 156.56794919243114
    vertex -0.7429765116378352 268.7920240175678 148.0
    vertex 13.73938539815716 268.7920240175678 156.36814834742185
  endloop
endfacet
facet normal 0.0 -1.0 0.0
  outer loop
    vertex 13.73938539815716 268.7920240175678 156.36814834742185
    vertex -0.7429765116378352 268.7920240175678 148.0
    vertex 14.257023488362183 268.7920240175678 156.3
  endloop
endfacet
facet normal 0.0 -1.0 0.0
  outer loop
    vertex -0.7429765116378352 268.7920240175678 188.00000000000003
    vertex 12.524972680793315 268.7920240175678 157.3
    vertex 12.325171835784062 268.7920240175678 157.78236190979496
  endloop
endfacet
facet normal 0.0 -1.0 0.0
  outer loop
    vertex -0.7429765116378352 268.7920240175678 188.00000000000003
    vertex 12.325171835784062 268.7920240175678 157.78236190979496
    vertex 12.257023488362186 268.7920240175678 158.3
  endloop
endfacet
facet normal 0.0 -1.0 0.0
  outer loop
    vertex -0.7429765116378352 268.7920240175678 188.00000000000003
    vertex 12.257023488362186 268.7920240175678 158.3
    vertex 12.325171835784062 268.7920240175678 158.81763809020504
  endloop
endfacet
facet normal 0.0 -1.0 0.0
  outer loop
    vertex -0.7429765116378352 268.7920240175678 188.00000000000003
    vertex 12.325171835784062 268.7920240175678 158.81763809020504
    vertex 12.524972680793315 268.7920240175678 159.3
  endloop
endfacet
facet normal 0.0 -1.0 0.0
  outer loop
    vertex -0.7429765116378352 268.7920240175678 188.00000000000003
    vertex 12.524972680793315 268.7920240175678 159.3
    vertex 12.842809925989084 268.7920240175678 159.7142135623731
  endloop
endfacet
facet normal 0.0 -1.0 0.0
  outer loop
    vertex -0.7429765116378352 268.7920240175678 188.00000000000003
    vertex 12.842809925989084 268.7920240175678 159.7142135623731
    vertex 13.257023488362185 268.7920240175678 160.03205080756888
  endloop
endfacet
facet normal 0.0 -1.0 0.0
  outer loop
    vertex -0.7429765116378352 268.7920240175678 188.00000000000003
    vertex 13.257023488362185 268.7920240175678 160.03205080756888
    vertex 13.73938539815716 268.7920240175678 160.23185165257814
  endloop
endfacet
facet normal 0.0 -1.0 0.0
  outer loop
    vertex -0.7429765116378352 268.7920240175678 188.00000000000003
    vertex 13.73938539815716 268.7920240175678 160.23185165257814
    vertex 14.257023488362183 268.7920240175678 160.3
  endloop
endfacet
facet normal 0.0 -1.0 0.0
  outer loop
    vertex -0.7429765116378352 268.7920240175678 188.00000000000003
    vertex 14.257023488362183 268.7920240175678 160.3
    vertex 12.842809925989084 268.7920240175678 176.68578643762692
  endloop
endfacet
facet normal 0.0 -1.0 0.0
  outer loop
    vertex 12.842809925989084 268.7920240175678 176.68578643762692
    vertex 14.257023488362183 268.7920240175678 160.3
    vertex 13.257023488362185 268.7920240175678 176.36794919243115
  endloop
endfacet
facet normal 0.0 -1.0 0.0
  outer loop
    vertex 13.257023488362185 268.7920240175678 176.36794919243115
    vertex 14.257023488362183 268.7920240175678 160.3
    vertex 13.73938539815716 268.7920240175678 176.16814834742186
  endloop
endfacet
facet normal 0.0 -1.0 0.0
  outer loop
    vertex 13.73938539815716 268.7920240175678 176.16814834742186
    vertex 14.257023488362183 268.7920240175678 160.3
    vertex 14.257023488362183 268.7920240175678 176.10000000000002
  endloop
endfacet
facet normal 0.0 -1.0 0.0
  outer loop
    vertex -0.7429765116378352 268.7920240175678 188.00000000000003
    vertex 12.842809925989084 268.7920240175678 176.68578643762692
    vertex 12.524972680793315 268.7920240175678 177.10000000000002
  endloop
endfacet
facet normal 0.0 -1.0 0.0
  outer loop
    vertex -0.7429765116378352 268.7920240175678 188.00000000000003
    vertex 12.524972680793315 268.7920240175678 177.10000000000002
    vertex 12.325171835784062 268.7920240175678 177.58236190979497
  endloop
endfacet
facet normal 0.0 -1.0 0.0
  outer loop
    vertex -0.7429765116378352 268.7920240175678 188.00000000000003
    vertex 12.325171835784062 268.7920240175678 177.58236190979497
    vertex 12.257023488362186 268.7920240175678 178.10000000000002
  endloop
endfacet
facet normal 0.0 -1.0 0.0
  outer loop
    vertex -0.7429765116378352 268.7920240175678 188.00000000000003
    vertex 12.257023488362186 268.7920240175678 178.10000000000002
    vertex 12.325171835784062 268.7920240175678 178.61763809020505
  endloop
endfacet
facet normal 0.0 -1.0 0.0
  outer loop
    vertex -0.7429765116378352 268.7920240175678 188.00000000000003
    vertex 12.325171835784062 268.7920240175678 178.61763809020505
    vertex 12.524972680793315 268.7920240175678 179.10000000000002
  endloop
endfacet
facet normal 0.0 -1.0 0.0
  outer loop
    vertex -0.7429765116378352 268.7920240175678 188.00000000000003
    vertex 12.524972680793315 268.7920240175678 179.10000000000002
    vertex 12.842809925989084 268.7920240175678 179.5142135623731
  endloop
endfacet
facet normal 0.0 -1.0 0.0
  outer loop
    vertex -0.7429765116378352 268.7920240175678 188.00000000000003
    vertex 12.842809925989084 268.7920240175678 179.5142135623731
    vertex 13.257023488362185 268.7920240175678 179.8320508075689
  endloop
endfacet
facet normal 0.0 -1.0 0.0
  outer loop
    vertex -0.7429765116378352 268.7920240175678 188.00000000000003
    vertex 13.257023488362185 268.7920240175678 179.8320508075689
    vertex 13.73938539815716 268.7920240175678 180.03185165257815
  endloop
endfacet
facet normal 0.0 -1.0 0.0
  outer loop
    vertex -0.7429765116378352 268.7920240175678 188.00000000000003
    vertex 13.73938539815716 268.7920240175678 180.03185165257815
    vertex 14.257023488362183 268.7920240175678 180.1
  endloop
endfacet
facet normal 0.0 -1.0 0.0
  outer loop
    vertex -0.7429765116378352 268.7920240175678 188.00000000000003
    vertex 14.257023488362183 268.7920240175678 180.1
    vertex 24.257023488362165 268.7920240175678 188.00000000000003
  endloop
endfacet
facet normal -1.0 0.0 -3.524958103184871e-17
  outer loop
    vertex 2.257023488362201 333.7920240175679 188.00000000000003
    vertex 2.257023488362201 273.7920240175678 148.0
    vertex 2.257023488362201 273.7920240175678 188.00000000000003
  endloop
endfacet
facet normal -1.0 0.0 -3.524958103184871e-17
  outer loop
    vertex 2.257023488362201 273.7920240175678 148.0
    vertex 2.257023488362201 333.7920240175679 188.00000000000003
    vertex 2.257023488362201 333.7920240175679 148.0
  endloop
endfacet
facet normal -1.0 0.0 0.0
  outer loop
    vertex -0.7429765116378352 323.79202401756794 188.00000000000003
    vertex -0.7429765116378352 268.7920240175678 148.0
    vertex -0.7429765116378352 268.7920240175678 188.00000000000003
  endloop
endfacet
facet normal -1.0 0.0 0.0
  outer loop
    vertex -0.7429765116378352 268.7920240175678 148.0
    vertex -0.7429765116378352 323.79202401756794 188.00000000000003
    vertex -0.7429765116378352 323.79202401756794 148.0
  endloop
endfacet
facet normal -1.0 7.049916206369756e-17 -1.762479051592435e-17
  outer loop
    vertex 24.257023488362165 273.7920240175678 188.00000000000003
    vertex 24.257023488362165 268.7920240175678 148.0
    vertex 24.257023488362165 268.7920240175678 188.00000000000003
  endloop
endfacet
facet normal -1.0 7.049916206369756e-17 -1.762479051592435e-17
  outer loop
    vertex 24.257023488362165 268.7920240175678 148.0
    vertex 24.257023488362165 273.7920240175678 188.00000000000003
    vertex 24.257023488362165 273.7920240175678 148.0
  endloop
endfacet
facet normal -8.531113796544642e-16 -9.340312427723721e-17 1.0
  outer loop
    vertex -0.7429765116378352 333.7920240175679 188.00000000000003
    vertex -25.742976511637835 323.79202401756794 187.99999999999997
    vertex -0.7429765116378352 323.79202401756794 188.00000000000003
  endloop
endfacet
facet normal -8.531113796544642e-16 -9.340312427723721e-17 1.0
  outer loop
    vertex -0.7429765116378352 268.7920240175678 188.00000000000003
    vertex 2.257023488362201 273.7920240175678 188.00000000000003
    vertex -0.7429765116378352 323.79202401756794 188.00000000000003
  endloop
endfacet
facet normal -8.531113796544642e-16 -9.340312427723721e-17 1.0
  outer loop
    vertex 2.257023488362201 273.7920240175678 188.00000000000003
    vertex -0.7429765116378352 268.7920240175678 188.00000000000003
    vertex 24.257023488362165 268.7920240175678 188.00000000000003
  endloop
endfacet
facet normal -8.531113796544642e-16 -9.340312427723721e-17 1.0
  outer loop
    vertex -0.7429765116378352 323.79202401756794 188.00000000000003
    vertex 2.257023488362201 273.7920240175678 188.00000000000003
    vertex -0.7429765116378352 333.7920240175679 188.00000000000003
  endloop
endfacet
facet normal -8.531113796544642e-16 -9.340312427723721e-17 1.0
  outer loop
    vertex 2.257023488362201 273.7920240175678 188.00000000000003
    vertex 24.257023488362165 268.7920240175678 188.00000000000003
    vertex 24.257023488362165 273.7920240175678 188.00000000000003
  endloop
endfacet
facet normal -8.531113796544642e-16 -9.340312427723721e-17 1.0
  outer loop
    vertex 2.257023488362201 333.7920240175679 188.00000000000003
    vertex -0.7429765116378352 333.7920240175679 188.00000000000003
    vertex 2.257023488362201 273.7920240175678 188.00000000000003
  endloop
endfacet
facet normal 0.0 0.0 1.0
  outer loop
    vertex -0.7429765116378352 333.7920240175679 148.0
    vertex -25.742976511637835 323.79202401756794 148.0
    vertex -0.7429765116378352 323.79202401756794 148.0
  endloop
endfacet
facet normal 0.0 0.0 1.0
  outer loop
    vertex -0.7429765116378352 268.7920240175678 148.0
    vertex 2.257023488362201 273.7920240175678 148.0
    vertex -0.7429765116378352 323.79202401756794 148.0
  endloop
endfacet
facet normal 0.0 0.0 1.0
  outer loop
    vertex 2.257023488362201 273.7920240175678 148.0
    vertex -0.7429765116378352 268.7920240175678 148.0
    vertex 24.257023488362165 268.7920240175678 148.0
  endloop
endfacet
facet normal 0.0 0.0 1.0
  outer loop
    vertex -0.7429765116378352 323.79202401756794 148.0
    vertex 2.257023488362201 273.7920240175678 148.0
    vertex -0.7429765116378352 333.7920240175679 148.0
  endloop
endfacet
facet normal 0.0 0.0 1.0
  outer loop
    vertex 2.257023488362201 273.7920240175678 148.0
    vertex 24.257023488362165 268.7920240175678 148.0
    vertex 24.257023488362165 273.7920240175678 148.0
  endloop
endfacet
facet normal 0.0 0.0 1.0
  outer loop
    vertex 2.257023488362201 333.7920240175679 148.0
    vertex -0.7429765116378352 333.7920240175679 148.0
    vertex 2.257023488362201 273.7920240175678 148.0
  endloop
endfacet
facet normal 0.0 -1.0 0.0
  outer loop
    vertex -0.7429765116378352 323.79202401756794 188.00000000000003
    vertex -25.742976511637835 323.79202401756794 148.0
    vertex -0.7429765116378352 323.79202401756794 148.0
  endloop
endfacet
facet normal 0.0 -1.0 0.0
  outer loop
    vertex -25.742976511637835 323.79202401756794 148.0
    vertex -0.7429765116378352 323.79202401756794 188.00000000000003
    vertex -25.742976511637835 323.79202401756794 187.99999999999997
  endloop
endfacet
facet normal 0.0 -1.0 0.0
  outer loop
    vertex 24.257023488362165 273.7920240175678 148.0
    vertex 15.257023488362181 273.7920240175678 156.56794919243114
    vertex 2.257023488362201 273.7920240175678 148.0
  endloop
endfacet
facet normal 0.0 -1.0 0.0
  outer loop
    vertex 15.257023488362181 273.7920240175678 156.56794919243114
    vertex 24.257023488362165 273.7920240175678 148.0
    vertex 15.67123705073528 273.7920240175678 156.8857864376269
  endloop
endfacet
facet normal 0.0 -1.0 0.0
  outer loop
    vertex 15.67123705073528 273.7920240175678 156.8857864376269
    vertex 24.257023488362165 273.7920240175678 148.0
    vertex 15.989074295931049 273.7920240175678 157.3
  endloop
endfacet
facet normal 0.0 -1.0 0.0
  outer loop
    vertex 15.989074295931049 273.7920240175678 157.3
    vertex 24.257023488362165 273.7920240175678 148.0
    vertex 16.188875140940304 273.7920240175678 157.78236190979496
  endloop
endfacet
facet normal 0.0 -1.0 0.0
  outer loop
    vertex 16.188875140940304 273.7920240175678 157.78236190979496
    vertex 24.257023488362165 273.7920240175678 148.0
    vertex 24.257023488362165 273.7920240175678 188.00000000000003
  endloop
endfacet
facet normal 0.0 -1.0 0.0
  outer loop
    vertex 2.257023488362201 273.7920240175678 148.0
    vertex 15.257023488362181 273.7920240175678 156.56794919243114
    vertex 14.774661578567205 273.7920240175678 156.36814834742185
  endloop
endfacet
facet normal 0.0 -1.0 0.0
  outer loop
    vertex 2.257023488362201 273.7920240175678 148.0
    vertex 14.774661578567205 273.7920240175678 156.36814834742185
    vertex 14.257023488362183 273.7920240175678 156.3
  endloop
endfacet
facet normal 0.0 -1.0 0.0
  outer loop
    vertex 16.188875140940304 273.7920240175678 157.78236190979496
    vertex 24.257023488362165 273.7920240175678 188.00000000000003
    vertex 16.25702348836218 273.7920240175678 158.3
  endloop
endfacet
facet normal 0.0 -1.0 0.0
  outer loop
    vertex 16.25702348836218 273.7920240175678 158.3
    vertex 24.257023488362165 273.7920240175678 188.00000000000003
    vertex 16.188875140940304 273.7920240175678 158.81763809020504
  endloop
endfacet
facet normal 0.0 -1.0 0.0
  outer loop
    vertex 16.188875140940304 273.7920240175678 158.81763809020504
    vertex 24.257023488362165 273.7920240175678 188.00000000000003
    vertex 15.989074295931049 273.7920240175678 159.3
  endloop
endfacet
facet normal 0.0 -1.0 0.0
  outer loop
    vertex 15.989074295931049 273.7920240175678 159.3
    vertex 24.257023488362165 273.7920240175678 188.00000000000003
    vertex 15.67123705073528 273.7920240175678 159.7142135623731
  endloop
endfacet
facet normal 0.0 -1.0 0.0
  outer loop
    vertex 15.67123705073528 273.7920240175678 159.7142135623731
    vertex 24.257023488362165 273.7920240175678 188.00000000000003
    vertex 15.257023488362181 273.7920240175678 160.03205080756888
  endloop
endfacet
facet normal 0.0 -1.0 0.0
  outer loop
    vertex 15.257023488362181 273.7920240175678 160.03205080756888
    vertex 24.257023488362165 273.7920240175678 188.00000000000003
    vertex 14.774661578567205 273.7920240175678 160.23185165257814
  endloop
endfacet
facet normal 0.0 -1.0 0.0
  outer loop
    vertex 14.774661578567205 273.7920240175678 160.23185165257814
    vertex 24.257023488362165 273.7920240175678 188.00000000000003
    vertex 14.257023488362183 273.7920240175678 160.3
  endloop
endfacet
facet normal 0.0 -1.0 0.0
  outer loop
    vertex 14.257023488362183 273.7920240175678 160.3
    vertex 24.257023488362165 273.7920240175678 188.00000000000003
    vertex 15.989074295931049 273.7920240175678 177.10000000000002
  endloop
endfacet
facet normal 0.0 -1.0 0.0
  outer loop
    vertex 14.257023488362183 273.7920240175678 160.3
    vertex 15.989074295931049 273.7920240175678 177.10000000000002
    vertex 15.67123705073528 273.7920240175678 176.68578643762692
  endloop
endfacet
facet normal 0.0 -1.0 0.0
  outer loop
    vertex 14.257023488362183 273.7920240175678 160.3
    vertex 15.67123705073528 273.7920240175678 176.68578643762692
    vertex 15.257023488362181 273.7920240175678 176.36794919243115
  endloop
endfacet
facet normal 0.0 -1.0 0.0
  outer loop
    vertex 14.257023488362183 273.7920240175678 160.3
    vertex 15.257023488362181 273.7920240175678 176.36794919243115
    vertex 14.774661578567205 273.7920240175678 176.16814834742186
  endloop
endfacet
facet normal 0.0 -1.0 0.0
  outer loop
    vertex 14.257023488362183 273.7920240175678 160.3
    vertex 14.774661578567205 273.7920240175678 176.16814834742186
    vertex 14.257023488362183 273.7920240175678 176.10000000000002
  endloop
endfacet
facet normal 0.0 -1.0 0.0
  outer loop
    vertex 15.989074295931049 273.7920240175678 177.10000000000002
    vertex 24.257023488362165 273.7920240175678 188.00000000000003
    vertex 16.188875140940304 273.7920240175678 177.58236190979497
  endloop
endfacet
facet normal 0.0 -1.0 0.0
  outer loop
    vertex 16.188875140940304 273.7920240175678 177.58236190979497
    vertex 24.257023488362165 273.7920240175678 188.00000000000003
    vertex 16.25702348836218 273.7920240175678 178.10000000000002
  endloop
endfacet
facet normal 0.0 -1.0 0.0
  outer loop
    vertex 16.25702348836218 273.7920240175678 178.10000000000002
    vertex 24.257023488362165 273.7920240175678 188.00000000000003
    vertex 16.188875140940304 273.7920240175678 178.61763809020505
  endloop
endfacet
facet normal 0.0 -1.0 0.0
  outer loop
    vertex 16.188875140940304 273.7920240175678 178.61763809020505
    vertex 24.257023488362165 273.7920240175678 188.00000000000003
    vertex 15.989074295931049 273.7920240175678 179.10000000000002
  endloop
endfacet
facet normal 0.0 -1.0 0.0
  outer loop
    vertex 15.989074295931049 273.7920240175678 179.10000000000002
    vertex 24.257023488362165 273.7920240175678 188.00000000000003
    vertex 15.67123705073528 273.7920240175678 179.5142135623731
  endloop
endfacet
facet normal 0.0 -1.0 0.0
  outer loop
    vertex 15.67123705073528 273.7920240175678 179.5142135623731
    vertex 24.257023488362165 273.7920240175678 188.00000000000003
    vertex 15.257023488362181 273.7920240175678 179.8320508075689
  endloop
endfacet
facet normal 0.0 -1.0 0.0
  outer loop
    vertex 15.257023488362181 273.7920240175678 179.8320508075689
    vertex 24.257023488362165 273.7920240175678 188.00000000000003
    vertex 14.774661578567205 273.7920240175678 180.03185165257815
  endloop
endfacet
facet normal 0.0 -1.0 0.0
  outer loop
    vertex 14.774661578567205 273.7920240175678 180.03185165257815
    vertex 24.257023488362165 273.7920240175678 188.00000000000003
    vertex 14.257023488362183 273.7920240175678 180.1
  endloop
endfacet
facet normal 0.0 -1.0 0.0
  outer loop
    vertex 2.257023488362201 273.7920240175678 148.0
    vertex 12.325171835784062 273.7920240175678 157.78236190979496
    vertex 2.257023488362201 273.7920240175678 188.00000000000003
  endloop
endfacet
facet normal 0.0 -1.0 0.0
  outer loop
    vertex 12.325171835784062 273.7920240175678 157.78236190979496
    vertex 2.257023488362201 273.7920240175678 148.0
    vertex 12.524972680793315 273.7920240175678 157.3
  endloop
endfacet
facet normal 0.0 -1.0 0.0
  outer loop
    vertex 12.524972680793315 273.7920240175678 157.3
    vertex 2.257023488362201 273.7920240175678 148.0
    vertex 12.842809925989084 273.7920240175678 156.8857864376269
  endloop
endfacet
facet normal 0.0 -1.0 0.0
  outer loop
    vertex 12.842809925989084 273.7920240175678 156.8857864376269
    vertex 2.257023488362201 273.7920240175678 148.0
    vertex 13.257023488362185 273.7920240175678 156.56794919243114
  endloop
endfacet
facet normal 0.0 -1.0 0.0
  outer loop
    vertex 13.257023488362185 273.7920240175678 156.56794919243114
    vertex 2.257023488362201 273.7920240175678 148.0
    vertex 13.73938539815716 273.7920240175678 156.36814834742185
  endloop
endfacet
facet normal 0.0 -1.0 0.0
  outer loop
    vertex 13.73938539815716 273.7920240175678 156.36814834742185
    vertex 2.257023488362201 273.7920240175678 148.0
    vertex 14.257023488362183 273.7920240175678 156.3
  endloop
endfacet
facet normal 0.0 -1.0 0.0
  outer loop
    vertex 2.257023488362201 273.7920240175678 188.00000000000003
    vertex 12.325171835784062 273.7920240175678 157.78236190979496
    vertex 12.257023488362186 273.7920240175678 158.3
  endloop
endfacet
facet normal 0.0 -1.0 0.0
  outer loop
    vertex 2.257023488362201 273.7920240175678 188.00000000000003
    vertex 12.257023488362186 273.7920240175678 158.3
    vertex 12.325171835784062 273.7920240175678 158.81763809020504
  endloop
endfacet
facet normal 0.0 -1.0 0.0
  outer loop
    vertex 2.257023488362201 273.7920240175678 188.00000000000003
    vertex 12.325171835784062 273.7920240175678 158.81763809020504
    vertex 12.524972680793315 273.7920240175678 159.3
  endloop
endfacet
facet normal 0.0 -1.0 0.0
  outer loop
    vertex 2.257023488362201 273.7920240175678 188.00000000000003
    vertex 12.524972680793315 273.7920240175678 159.3
    vertex 12.842809925989084 273.7920240175678 159.7142135623731
  endloop
endfacet
facet normal 0.0 -1.0 0.0
  outer loop
    vertex 2.257023488362201 273.7920240175678 188.00000000000003
    vertex 12.842809925989084 273.7920240175678 159.7142135623731
    vertex 13.257023488362185 273.7920240175678 160.03205080756888
  endloop
endfacet
facet normal 0.0 -1.0 0.0
  outer loop
    vertex 2.257023488362201 273.7920240175678 188.00000000000003
    vertex 13.257023488362185 273.7920240175678 160.03205080756888
    vertex 13.73938539815716 273.7920240175678 160.23185165257814
  endloop
endfacet
facet normal 0.0 -1.0 0.0
  outer loop
    vertex 2.257023488362201 273.7920240175678 188.00000000000003
    vertex 13.73938539815716 273.7920240175678 160.23185165257814
    vertex 14.257023488362183 273.7920240175678 160.3
  endloop
endfacet
facet normal 0.0 -1.0 0.0
  outer loop
    vertex 2.257023488362201 273.7920240175678 188.00000000000003
    vertex 14.257023488362183 273.7920240175678 160.3
    vertex 12.842809925989084 273.7920240175678 176.68578643762692
  endloop
endfacet
facet normal 0.0 -1.0 0.0
  outer loop
    vertex 12.842809925989084 273.7920240175678 176.68578643762692
    vertex 14.257023488362183 273.7920240175678 160.3
    vertex 13.257023488362185 273.7920240175678 176.36794919243115
  endloop
endfacet
facet normal 0.0 -1.0 0.0
  outer loop
    vertex 13.257023488362185 273.7920240175678 176.36794919243115
    vertex 14.257023488362183 273.7920240175678 160.3
    vertex 13.73938539815716 273.7920240175678 176.16814834742186
  endloop
endfacet
facet normal 0.0 -1.0 0.0
  outer loop
    vertex 13.73938539815716 273.7920240175678 176.16814834742186
    vertex 14.257023488362183 273.7920240175678 160.3
    vertex 14.257023488362183 273.7920240175678 176.10000000000002
  endloop
endfacet
facet normal 0.0 -1.0 0.0
  outer loop
    vertex 2.257023488362201 273.7920240175678 188.00000000000003
    vertex 12.842809925989084 273.7920240175678 176.68578643762692
    vertex 12.524972680793315 273.7920240175678 177.10000000000002
  endloop
endfacet
facet normal 0.0 -1.0 0.0
  outer loop
    vertex 2.257023488362201 273.7920240175678 188.00000000000003
    vertex 12.524972680793315 273.7920240175678 177.10000000000002
    vertex 12.325171835784062 273.7920240175678 177.58236190979497
  endloop
endfacet
facet normal 0.0 -1.0 0.0
  outer loop
    vertex 2.257023488362201 273.7920240175678 188.00000000000003
    vertex 12.325171835784062 273.7920240175678 177.58236190979497
    vertex 12.257023488362186 273.7920240175678 178.10000000000002
  endloop
endfacet
facet normal 0.0 -1.0 0.0
  outer loop
    vertex 2.257023488362201 273.7920240175678 188.00000000000003
    vertex 12.257023488362186 273.7920240175678 178.10000000000002
    vertex 12.325171835784062 273.7920240175678 178.61763809020505
  endloop
endfacet
facet normal 0.0 -1.0 0.0
  outer loop
    vertex 2.257023488362201 273.7920240175678 188.00000000000003
    vertex 12.325171835784062 273.7920240175678 178.61763809020505
    vertex 12.524972680793315 273.7920240175678 179.10000000000002
  endloop
endfacet
facet normal 0.0 -1.0 0.0
  outer loop
    vertex 2.257023488362201 273.7920240175678 188.00000000000003
    vertex 12.524972680793315 273.7920240175678 179.10000000000002
    vertex 12.842809925989084 273.7920240175678 179.5142135623731
  endloop
endfacet
facet normal 0.0 -1.0 0.0
  outer loop
    vertex 2.257023488362201 273.7920240175678 188.00000000000003
    vertex 12.842809925989084 273.7920240175678 179.5142135623731
    vertex 13.257023488362185 273.7920240175678 179.8320508075689
  endloop
endfacet
facet normal 0.0 -1.0 0.0
  outer loop
    vertex 2.257023488362201 273.7920240175678 188.00000000000003
    vertex 13.257023488362185 273.7920240175678 179.8320508075689
    vertex 13.73938539815716 273.7920240175678 180.03185165257815
  endloop
endfacet
facet normal 0.0 -1.0 0.0
  outer loop
    vertex 2.257023488362201 273.7920240175678 188.00000000000003
    vertex 13.73938539815716 273.7920240175678 180.03185165257815
    vertex 14.257023488362183 273.7920240175678 180.1
  endloop
endfacet
facet normal 0.0 -1.0 0.0
  outer loop
    vertex 2.257023488362201 273.7920240175678 188.00000000000003
    vertex 14.257023488362183 273.7920240175678 180.1
    vertex 24.257023488362165 273.7920240175678 188.00000000000003
  endloop
endfacet
facet normal 0.9238795325112865 0.0 -0.38268343236509056
  outer loop
    vertex 15.989074295931049 273.7920240175678 177.10000000000002
    vertex 16.188875140940304 268.7920240175678 177.58236190979497
    vertex 15.989074295931049 268.7920240175678 177.10000000000002
  endloop
endfacet
facet normal 0.9238795325112865 0.0 -0.38268343236509056
  outer loop
    vertex 16.188875140940304 268.7920240175678 177.58236190979497
    vertex 15.989074295931049 273.7920240175678 177.10000000000002
    vertex 16.188875140940304 273.7920240175678 177.58236190979497
  endloop
endfacet
facet normal 0.7933533402912386 0.0 -0.6087614290087161
  outer loop
    vertex 15.67123705073528 273.7920240175678 176.68578643762692
    vertex 15.989074295931049 268.7920240175678 177.10000000000002
    vertex 15.67123705073528 268.7920240175678 176.68578643762692
  endloop
endfacet
facet normal 0.7933533402912386 0.0 -0.6087614290087161
  outer loop
    vertex 15.989074295931049 268.7920240175678 177.10000000000002
    vertex 15.67123705073528 273.7920240175678 176.68578643762692
    vertex 15.989074295931049 273.7920240175678 177.10000000000002
  endloop
endfacet
facet normal 0.6087614290087043 0.0 -0.7933533402912477
  outer loop
    vertex 15.67123705073528 273.7920240175678 176.68578643762692
    vertex 15.257023488362181 268.7920240175678 176.36794919243115
    vertex 15.257023488362181 273.7920240175678 176.36794919243115
  endloop
endfacet
facet normal 0.6087614290087043 0.0 -0.7933533402912477
  outer loop
    vertex 15.257023488362181 268.7920240175678 176.36794919243115
    vertex 15.67123705073528 273.7920240175678 176.68578643762692
    vertex 15.67123705073528 268.7920240175678 176.68578643762692
  endloop
endfacet
facet normal 0.382683432365119 0.0 -0.9238795325112747
  outer loop
    vertex 15.257023488362181 273.7920240175678 176.36794919243115
    vertex 14.774661578567205 268.7920240175678 176.16814834742186
    vertex 14.774661578567205 273.7920240175678 176.16814834742186
  endloop
endfacet
facet normal 0.382683432365119 0.0 -0.9238795325112747
  outer loop
    vertex 14.774661578567205 268.7920240175678 176.16814834742186
    vertex 15.257023488362181 273.7920240175678 176.36794919243115
    vertex 15.257023488362181 268.7920240175678 176.36794919243115
  endloop
endfacet
facet normal 0.13052619222003023 0.0 -0.9914448613738134
  outer loop
    vertex 14.774661578567205 273.7920240175678 176.16814834742186
    vertex 14.257023488362183 268.7920240175678 176.10000000000002
    vertex 14.257023488362183 273.7920240175678 176.10000000000002
  endloop
endfacet
facet normal 0.13052619222003023 0.0 -0.9914448613738134
  outer loop
    vertex 14.257023488362183 268.7920240175678 176.10000000000002
    vertex 14.774661578567205 273.7920240175678 176.16814834742186
    vertex 14.774661578567205 268.7920240175678 176.16814834742186
  endloop
endfacet
facet normal -0.13052619222003092 -0.0 -0.9914448613738132
  outer loop
    vertex 14.257023488362183 273.7920240175678 176.10000000000002
    vertex 13.73938539815716 268.7920240175678 176.16814834742186
    vertex 13.73938539815716 273.7920240175678 176.16814834742186
  endloop
endfacet
facet normal -0.13052619222003092 -0.0 -0.9914448613738132
  outer loop
    vertex 13.73938539815716 268.7920240175678 176.16814834742186
    vertex 14.257023488362183 273.7920240175678 176.10000000000002
    vertex 14.257023488362183 268.7920240175678 176.10000000000002
  endloop
endfacet
facet normal 0.9914448613738106 0.0 0.13052619222005077
  outer loop
    vertex 16.25702348836218 273.7920240175678 178.10000000000002
    vertex 16.188875140940304 268.7920240175678 178.61763809020505
    vertex 16.25702348836218 268.7920240175678 178.10000000000002
  endloop
endfacet
facet normal 0.9914448613738106 0.0 0.13052619222005077
  outer loop
    vertex 16.188875140940304 268.7920240175678 178.61763809020505
    vertex 16.25702348836218 273.7920240175678 178.10000000000002
    vertex 16.188875140940304 273.7920240175678 178.61763809020505
  endloop
endfacet
facet normal 0.9914448613738106 0.0 -0.13052619222005077
  outer loop
    vertex 16.188875140940304 273.7920240175678 177.58236190979497
    vertex 16.25702348836218 268.7920240175678 178.10000000000002
    vertex 16.188875140940304 268.7920240175678 177.58236190979497
  endloop
endfacet
facet normal 0.9914448613738106 0.0 -0.13052619222005077
  outer loop
    vertex 16.25702348836218 268.7920240175678 178.10000000000002
    vertex 16.188875140940304 273.7920240175678 177.58236190979497
    vertex 16.25702348836218 273.7920240175678 178.10000000000002
  endloop
endfacet
endsolid Rollo
